<svg width="220" height="220" viewBox="0 0 220 220" fill="none" xmlns="http://www.w3.org/2000/svg">
<g clip-path="url(#clip0_4318_259)">
<path d="M110 0C49.2483 0 0 49.2483 0 110C0 170.752 49.2483 220 110 220C170.752 220 220 170.752 220 110C220 49.2483 170.752 0 110 0Z" fill="#001324"/>
<g clip-path="url(#clip1_4318_259)">
<path d="M73.6 166.4L90 138L106.4 109.7L122.7 81.3L125.4 76.8L126.6 81.3L131.6 100L126 109.7L109.6 138L93.3 166.4H112.9L129.3 138L137.8 123.3L141.8 138L149.4 166.4H167L159.4 138L151.8 109.7L149.8 102.4L162 81.3H144.2L143.6 79.2L137.4 56L136.6 53H119.5L119.1 53.6L103.1 81.3L86.7 109.7L70.4 138L54 166.4H73.6Z" fill="#17CAC6"/>
</g>
</g>
<defs>
<clipPath id="clip0_4318_259">
<rect width="220" height="220" fill="white"/>
</clipPath>
<clipPath id="clip1_4318_259">
<rect width="113" height="113.4" fill="white" transform="translate(54 53)"/>
</clipPath>
</defs>
</svg>
