<svg width="220" height="220" viewBox="0 0 220 220" fill="none" xmlns="http://www.w3.org/2000/svg">
  <g clip-path="url(#clip0_4245_21)">
    <path d="M110 220C170.751 220 220 170.751 220 110C220 49.2487 170.751 0 110 0C49.2487 0 0 49.2487 0 110C0 170.751 49.2487 220 110 220Z" fill="black"/>
    <path d="M150.977 84.9716H137.631C136.076 84.9716 134.596 84.3043 133.567 83.1428L128.153 77.0269C127.347 76.1141 126.186 75.5947 124.971 75.5947C123.756 75.5947 122.594 76.1172 121.789 77.0269L117.146 82.2741C115.625 83.9896 113.444 84.9748 111.153 84.9748H38.0984C36.0178 90.905 34.6611 97.1688 34.1198 103.666H103.085C104.297 103.666 105.458 103.171 106.296 102.296L112.717 95.595C113.52 94.7577 114.628 94.2856 115.786 94.2856H116.05C117.269 94.2856 118.427 94.8081 119.233 95.7209L124.644 101.837C125.673 103.001 127.152 103.666 128.707 103.666H185C184.459 97.1657 183.102 90.9018 181.021 84.9748H150.974L150.977 84.9716Z" fill="white"/>
    <path d="M75.8546 142.967C77.0665 142.967 78.228 142.473 79.0652 141.598L85.4865 134.896C86.2891 134.059 87.3971 133.587 88.5555 133.587H88.8199C90.038 133.587 91.1964 134.109 92.0022 135.019L97.413 141.135C98.4423 142.299 99.9217 142.964 101.477 142.964H177.763C180.622 137.059 182.715 130.722 183.961 124.084H110.737C109.182 124.084 107.703 123.417 106.673 122.255L101.263 116.139C100.457 115.226 99.2953 114.707 98.0803 114.707C96.8653 114.707 95.7038 115.23 94.898 116.139L90.2552 121.386C88.7349 123.102 86.5535 124.087 84.2589 124.087H35.1584C36.4049 130.726 38.5013 137.062 41.3562 142.967H75.8515H75.8546Z" fill="white"/>
    <path d="M129.976 64.5436C131.187 64.5436 132.349 64.0494 133.186 63.1743L139.607 56.4729C140.41 55.6357 141.518 55.1635 142.676 55.1635H142.941C144.159 55.1635 145.317 55.686 146.123 56.5989L151.534 62.7148C152.563 63.8794 154.043 64.5436 155.598 64.5436H170.105C156.29 46.1801 134.316 34.3008 109.563 34.3008C84.8097 34.3008 62.8358 46.1801 49.0176 64.5436H129.976Z" fill="white"/>
    <path d="M100.835 161.678H80.9948C79.4399 161.678 77.9605 161.01 76.9312 159.849L71.5204 153.733C70.7146 152.82 69.5531 152.301 68.3381 152.301C67.1231 152.301 65.9616 152.823 65.1558 153.733L60.513 158.98C58.9926 160.696 56.8113 161.681 54.5167 161.681H54.2082C68.0296 176.491 87.712 185.76 109.566 185.76C131.42 185.76 151.1 176.491 164.924 161.681H100.835V161.678Z" fill="white"/>
  </g>
  <defs>
    <clipPath id="clip0_4245_21">
      <rect width="220" height="220" rx="110" fill="white"/>
    </clipPath>
  </defs>
</svg>
