<svg width="220" height="220" viewBox="0 0 220 220" fill="none" xmlns="http://www.w3.org/2000/svg">
<g clip-path="url(#clip0_4318_52)">
<path d="M110 220C170.751 220 220 170.751 220 110C220 49.2487 170.751 0 110 0C49.2487 0 0 49.2487 0 110C0 170.751 49.2487 220 110 220Z" fill="#4520E6"/>
<path d="M146.289 89.757C146.289 81.952 142.463 75.0434 136.582 70.802L152.455 54.9297L142.966 54.9734L130.351 67.5882C128.012 66.8012 125.52 66.3858 122.918 66.3858H79.4987V127.886L131.773 75.6118C136.473 78.5633 139.621 83.8104 139.621 89.7789C139.621 98.9831 132.122 106.482 122.918 106.482H121.541L63.364 164.659H72.8087L84.2211 153.246H122.918C135.817 153.246 146.289 142.752 146.289 129.875C146.289 121.371 141.72 113.937 134.921 109.849C141.72 105.717 146.289 98.2616 146.289 89.757ZM86.1669 111.751V73.0539H122.918C123.552 73.0539 124.164 73.0976 124.776 73.1632L86.1669 111.751ZM139.621 129.831C139.621 139.036 132.122 146.535 122.918 146.535H90.8892L124.164 113.259C132.778 113.915 139.621 121.064 139.621 129.831Z" fill="white"/>
</g>
<defs>
<clipPath id="clip0_4318_52">
<rect width="220" height="220" fill="white"/>
</clipPath>
</defs>
</svg>
