<svg width="220" height="220" viewBox="0 0 220 220" fill="none" xmlns="http://www.w3.org/2000/svg">
<g clip-path="url(#clip0_4318_25)">
<path d="M110 220C170.751 220 220 170.751 220 110C220 49.2487 170.751 0 110 0C49.2487 0 0 49.2487 0 110C0 170.751 49.2487 220 110 220Z" fill="#0AC18E"/>
<path fill-rule="evenodd" clip-rule="evenodd" d="M75.6853 58.3248L99.3028 64.6257L104.586 45L116.394 48.2021L111.319 67.0015L120.952 69.5838L126.028 50.5778L138.044 53.7799L132.865 72.8892C132.865 72.8892 152.442 77.2275 157.104 93.1347C161.765 109.042 146.952 117.409 142.394 117.719C142.394 117.719 159.59 127.118 153.685 145.608C147.884 164.097 129.653 167.403 110.594 163.168L105.414 183L93.3984 179.798L98.6813 160.275L89.1514 157.693L83.8685 177.319L71.9562 174.117L77.239 154.594L53 148.087L59.1116 134.555C59.1116 134.555 65.9482 136.415 68.5379 137.034C71.1275 137.757 72.7849 134.969 73.51 132.283C74.2351 129.597 85.2151 85.0778 86.251 81.4626C87.1833 77.8473 86.8725 74.9551 82.5219 73.8189C78.2749 72.6826 72.2669 70.9266 72.2669 70.9266L75.6853 58.3248ZM99.51 117.202L92.9841 143.129C92.9841 143.129 125.406 154.801 129.55 138.377C133.693 121.954 99.51 117.202 99.51 117.202ZM102.514 104.91L108.936 81.1527C108.936 81.1527 136.697 86.1108 133.279 99.3323C129.861 112.657 113.494 107.493 102.514 104.91Z" fill="white"/>
</g>
<defs>
<clipPath id="clip0_4318_25">
<rect width="220" height="220" fill="white"/>
</clipPath>
</defs>
</svg>
