<svg width="220" height="220" viewBox="0 0 220 220" fill="none" xmlns="http://www.w3.org/2000/svg">
 <g clip-path="url(#clip0_2538_260)">
  <path d="M110 0C49.2483 0 0 49.2483 0 110C0 170.752 49.2483 220 110 220C170.752 220 220 170.752 220 110C220 49.2483 170.752 0 110 0Z" fill="#121212"/>
  <path d="M97.9119 104.702C99.0192 87.9952 217.673 89.1215 148.973 99.5661C67.1557 112.005 155.317 107.729 156.1 107.729C163.929 105.785 180.682 96.0677 172.07 108.506C166.672 116.303 147.771 120.587 132.776 124.135C132.744 124.19 132.647 124.214 132.48 124.205C123.681 126.288 116.277 128.122 113.821 130.274C107.166 136.105 104.426 146.211 99.3367 126.387C98.9553 124.901 98.6304 123.611 98.3563 122.496C88.9006 126.169 70.9537 132.022 67.6276 128.719C63.3214 124.444 59.0153 120.945 59.0153 110.45C59.0152 101.898 58.5434 89.0711 62.8496 88.2936C64.159 88.0572 81.0561 96.1436 97.9119 104.702Z" fill="#ACFA4C"/>
  <path d="M98.7722 112.764C99.1324 104.116 129.735 99.815 151.337 99.0061C157.727 97.4245 162.499 96.3163 162.675 96.3163C170.504 94.3727 181.465 104.09 172.853 116.529C167.455 124.326 148.554 128.61 133.559 132.157C133.527 132.212 133.43 132.236 133.263 132.227C124.464 134.311 117.06 136.145 114.604 138.297C107.949 144.127 111.036 127.617 106.368 145.289C100.104 169 92.6665 169 82.4882 169C72.31 169 60.7233 139.399 59.783 132.073C58.9849 125.853 59.0001 127.024 59 116.529C59 107.978 59.3263 97.0937 63.6325 96.3163C64.9439 96.0795 81.8908 104.191 98.7722 112.764Z" fill="#217AFF"/>
  <path d="M97.9893 112.52C98.3494 103.872 128.952 99.5714 150.554 98.7624C156.944 97.1808 161.716 96.0726 161.892 96.0726C169.721 94.129 180.682 103.847 172.07 116.285C163.457 128.724 122.577 139.493 113.821 138.053C109.135 137.282 107.147 140.292 104.802 148.155C104.495 149.184 100.757 153.913 94.6238 157.095C89.5347 159.736 81.7055 158.65 77.3992 155.152C73.093 151.653 60.1592 139.215 60.9573 124.06C61.4071 115.52 58.5434 96.85 62.8496 96.0726C64.161 95.8359 81.1079 103.947 97.9893 112.52Z" fill="#24E2D5"/>
  <path d="M97.9893 112.52C98.3494 103.872 128.952 99.5714 150.554 98.7624C156.944 97.1808 161.716 96.0726 161.892 96.0726C169.721 94.129 180.682 103.847 172.07 116.285C166.672 124.082 147.771 128.366 132.776 131.914C132.744 131.969 132.647 131.993 132.48 131.984C123.681 134.067 116.277 135.901 113.821 138.053C107.166 143.884 98.1471 162.394 98.1471 141.935C98.1471 135.716 97.7556 136.105 95.7982 133.773C92.275 129.574 75.4522 144.268 67.6276 136.498C63.3214 132.222 59.0153 128.724 59.0153 118.229C59.0152 109.677 58.5434 96.85 62.8496 96.0726C64.161 95.8359 81.1079 103.947 97.9893 112.52Z" fill="#32FFB5"/>
  <path d="M97.9137 104.703C99.1422 88.1113 217.638 89.5156 148.973 99.9548C67.1557 112.394 155.317 107.729 156.1 107.729C163.929 105.785 180.682 96.0677 172.07 108.506C166.672 116.303 147.771 120.587 132.776 124.135C132.744 124.19 132.647 124.214 132.48 124.205C123.681 126.288 116.277 128.122 113.821 130.274C107.166 136.105 104.426 146.211 99.3367 126.387C98.9553 124.901 98.6304 123.611 98.3563 122.496C88.9006 126.169 70.9537 132.022 67.6276 128.719C63.3214 124.444 59.0153 120.945 59.0153 110.45C59.0152 101.898 58.5434 89.0711 62.8496 88.2936C64.1591 88.0572 81.0573 96.1442 97.9137 104.703Z" fill="#ACFA4C"/>
  <path d="M174.243 103.452C174.556 101.897 171.502 96.3255 169.936 93.7341C169.936 93.7341 111.591 82.0734 94.7577 92.9572C77.9244 103.841 142.925 98.01 142.925 98.01C142.925 98.01 153.495 97.2325 152.32 102.286C151.146 107.339 112.39 112.781 112.39 112.781C94.8402 110.785 56.8595 68.0906 59.5416 103.452C59.1502 109.671 65.8052 126.386 77.9408 123.276C87.6492 120.788 95.5569 119.648 98.2972 119.389C99.4717 119.778 101.742 121.721 101.429 126.386C101.038 132.217 106.518 134.937 106.91 132.605C107.301 130.273 113.173 123.276 115.13 123.276C117.088 123.276 140.185 119.389 151.146 115.891C162.107 112.392 173.851 105.395 174.243 103.452Z" fill="#E2F118"/>
  <path d="M169.557 94.9017C171.123 92.103 164.468 85.3135 161.728 83.6291L121.798 73.5226L72.8637 71.9678C63.9904 73.5226 60.8847 87.5162 59.9452 92.1807C58.7708 98.0114 64.2514 111.228 67.3831 115.503C70.5149 119.779 84.837 117.447 89.5347 115.503C94.2323 113.56 98.5213 123.176 102.062 125.61C107.151 129.108 109.133 123.666 111.078 117.447C113.023 111.228 110.283 95.2904 110.283 95.2904L109.27 89.4598C111.358 89.8485 122.564 89.8485 127.262 89.4598C130.233 89.2139 152.332 90.2372 155.073 93.7356C157.813 97.234 156.247 97.234 155.073 101.121C153.898 105.008 157.813 103.842 161.728 102.676C165.642 101.51 167.6 98.4001 169.557 94.9017Z" fill="#FCB404"/>
  <path d="M147.623 73.5223C156.391 77.8759 159.386 80.6491 163.17 84.0179C140.465 84.0179 119.326 78.9645 112.671 78.5758C106.016 78.1871 109.539 84.0179 110.322 93.3468C111.105 102.676 111.888 113.949 106.016 119.002C100.144 124.055 97.0118 114.337 92.3141 112.005C87.6165 109.673 91.5311 113.949 77.0467 112.005C62.5623 110.061 62.1708 82.4631 65.6941 75.855C69.2173 69.2469 136.661 68.0804 147.623 73.5223Z" fill="#FC8004"/>
  <path d="M111.264 58.7886C120.66 61.2764 141.799 70.7091 151.194 75.1145C109.307 66.9514 101.905 76.3763 106.567 83.2775C109.154 87.1084 107.776 114.482 98.5385 109.284C86.7944 102.676 82.9128 109.555 76.2247 104.619C67.8221 98.4182 63.8608 84.8986 66.2453 75.1145C71.3235 54.2768 99.5203 55.6789 111.264 58.7886Z" fill="#FF331A"/>
 </g>
  <defs>
   <clipPath id="clip0_2538_260">
    <rect width="220" height="220" fill="white"/>
   </clipPath>
  </defs>
</svg>
