<svg width="220" height="220" viewBox="0 0 220 220" fill="none" xmlns="http://www.w3.org/2000/svg">
<path d="M110 220C170.751 220 220 170.751 220 110C220 49.2487 170.751 0 110 0C49.2487 0 0 49.2487 0 110C0 170.751 49.2487 220 110 220Z" fill="#E6007A"/>
<g clip-path="url(#clip0_1802_359)">
<path d="M110.495 64.5101C125.851 64.5101 138.301 57.2325 138.301 48.2551C138.301 39.2776 125.851 32 110.495 32C95.1378 32 82.6886 39.2776 82.6886 48.2551C82.6886 57.2325 95.1378 64.5101 110.495 64.5101Z" fill="white"/>
<path d="M110.495 186.989C125.851 186.989 138.301 179.711 138.301 170.734C138.301 161.757 125.851 154.479 110.495 154.479C95.1378 154.479 82.6886 161.757 82.6886 170.734C82.6886 179.711 95.1378 186.989 110.495 186.989Z" fill="white"/>
<path d="M71.7451 87.0109C79.4235 73.6435 79.3736 59.1658 71.6338 54.6741C63.8939 50.1823 51.3949 57.3775 43.7165 70.7449C36.0381 84.1123 36.0879 98.59 43.8278 103.082C51.5677 107.573 64.0667 100.378 71.7451 87.0109Z" fill="white"/>
<path d="M177.261 148.243C184.939 134.876 184.893 120.4 177.159 115.912C169.424 111.423 156.929 118.621 149.251 131.988C141.573 145.355 141.618 159.831 149.353 164.319C157.088 168.808 169.582 161.611 177.261 148.243Z" fill="white"/>
<path d="M71.6377 164.316C79.3775 159.824 79.4274 145.346 71.749 131.979C64.0706 118.611 51.5716 111.416 43.8317 115.908C36.0918 120.4 36.042 134.877 43.7204 148.245C51.3988 161.612 63.8978 168.807 71.6377 164.316Z" fill="white"/>
<path d="M177.165 103.085C184.9 98.5966 184.946 84.1214 177.267 70.754C169.589 57.3866 157.094 50.1889 149.359 54.6777C141.625 59.1664 141.579 73.6416 149.257 87.009C156.936 100.376 169.431 107.574 177.165 103.085Z" fill="white"/>
</g>
<defs>
<clipPath id="clip0_1802_359">
<rect width="145" height="155" fill="white" transform="translate(38 32)"/>
</clipPath>
</defs>
</svg>
