<svg width="220" height="220" viewBox="0 0 220 220" fill="none" xmlns="http://www.w3.org/2000/svg">
<g clip-path="url(#clip0_997_486)">
<path d="M110 220C170.751 220 220 170.751 220 110C220 49.2487 170.751 0 110 0C49.2487 0 0 49.2487 0 110C0 170.751 49.2487 220 110 220Z" fill="#627EEA"/>
<path fill-rule="evenodd" clip-rule="evenodd" d="M110.31 36.3358L135.031 73.2755L159.752 110.215L110.31 135.126L60.8676 110.121L85.5888 73.1808L110.31 36.3358ZM110.31 145.071L63.6144 120.161L110.31 183.905L157.006 120.161L110.31 145.071Z" fill="#343434"/>
<path fill-rule="evenodd" clip-rule="evenodd" d="M110.31 145.071L157.1 120.161L110.31 184V145.071Z" fill="#C0CCF7"/>
<path fill-rule="evenodd" clip-rule="evenodd" d="M110.31 36.3358L135.031 73.1808L159.752 110.121L110.31 91.4612V36.3358Z" fill="#C0CCF7"/>
<path fill-rule="evenodd" clip-rule="evenodd" d="M110.31 91.4617L159.752 110.121L110.31 135.032V91.4617Z" fill="#8198EE"/>
<path fill-rule="evenodd" clip-rule="evenodd" d="M110.31 145.071L63.6145 120.161L110.31 184V145.071Z" fill="white"/>
<path fill-rule="evenodd" clip-rule="evenodd" d="M110.31 36.3358L85.5888 73.1808L60.8676 110.121L110.31 91.4612V36.3358Z" fill="white"/>
<path fill-rule="evenodd" clip-rule="evenodd" d="M110.31 91.4617L60.8676 110.121L110.31 135.032V91.4617Z" fill="#C0CCF7"/>
</g>
<defs>
<clipPath id="clip0_997_486">
<rect width="220" height="220" fill="white"/>
</clipPath>
</defs>
</svg>
