<svg width="220" height="220" viewBox="0 0 220 220" fill="none" xmlns="http://www.w3.org/2000/svg">
<g clip-path="url(#clip0_4031_107)">
<path d="M110 220C170.751 220 220 170.751 220 110C220 49.2487 170.751 0 110 0C49.2487 0 0 49.2487 0 110C0 170.751 49.2487 220 110 220Z" fill="#8834FF"/>
<path d="M47.4805 62.1056C45.4665 62.264 43.9164 62.5808 44.0035 62.8185C44.8068 64.7306 49.7739 75.9886 49.8418 76.0565C49.9097 76.1244 51.0638 76.2036 52.4215 76.2602C58.4409 76.4865 63.2043 77.6632 68.3525 80.209C72.0523 82.0306 74.7905 83.988 77.6417 86.828C81.8394 91.0144 84.5776 95.6647 86.1842 101.356C86.3653 102.012 86.5124 102.601 86.5124 102.691C86.5124 102.815 85.5959 102.838 81.5453 102.838C78.8071 102.838 76.4537 102.883 76.3066 102.94C76.0916 103.019 75.5259 104.241 73.1725 109.638C71.5884 113.27 70.276 116.325 70.2533 116.427C70.1741 116.721 71.1245 116.981 73.5006 117.332C73.9871 117.411 76.9063 117.49 80.3572 117.536L86.3653 117.604L86.0032 118.848C81.9526 132.584 69.3821 142.19 53.983 143.344C53.1117 143.401 51.969 143.457 51.4372 143.457H50.4754L47.511 150.28C44.9652 156.107 44.5692 157.103 44.7389 157.159C45.5083 157.442 47.2282 157.544 51.2109 157.544C56.3024 157.544 58.7803 157.318 62.978 156.458C80.1196 152.939 94.3647 142.032 100.814 127.459C102.059 124.653 103.518 120.036 103.778 118.101L103.858 117.547H116.722L116.768 117.796C117.695 122.344 118.702 125.411 120.445 129.031C125.683 139.939 135.505 148.843 147.668 153.731C155.054 156.689 162.965 158.11 170.919 157.906C174.246 157.804 176.893 157.431 176.757 157.08C176.644 156.786 171.01 143.853 170.976 143.82C170.942 143.786 169.776 143.74 168.362 143.684C164.391 143.525 161.404 143.061 158.032 142.1C152.838 140.606 147.702 137.902 143.764 134.598C138.808 130.423 135.222 125.23 133.321 119.471C133.106 118.814 132.891 118.124 132.857 117.92L132.778 117.558L137.62 117.524C140.279 117.502 142.542 117.445 142.633 117.4C142.78 117.321 148.573 104.185 148.573 103.924C148.573 103.755 147.113 103.325 145.789 103.11C144.816 102.951 143.583 102.906 138.661 102.872L132.698 102.815L132.925 102.012C136.229 90.3129 146.366 81.0236 159.435 77.7311C162.32 77.0069 165.126 76.6336 168.769 76.4865C170.942 76.3959 171.213 76.362 171.349 76.181C171.44 76.0565 172.775 73.0581 174.313 69.5167C176.203 65.1832 177.074 63.0447 176.995 62.9882C176.746 62.8524 175.162 62.5695 173.917 62.4451C172.107 62.2527 166.823 62.2867 164.492 62.4903C151.164 63.6784 139.148 69.0528 130.141 77.8329C124.643 83.196 120.784 89.2154 118.408 96.1625C117.797 97.9163 117.062 100.677 116.835 102.012L116.7 102.838H104.053L104.008 102.578C103.974 102.442 103.85 101.797 103.714 101.141C101.847 91.863 96.5744 82.8453 89.1294 76.2036C80.6548 68.6341 70.087 63.8933 58.4556 62.453C54.9594 62.0264 50.4528 61.8793 47.4805 62.1056Z" fill="white"/>
</g>
<defs>
<clipPath id="clip0_4031_107">
<rect width="220" height="220" rx="110" fill="white"/>
</clipPath>
</defs>
</svg>
