<svg width="220" height="220" viewBox="0 0 220 220" fill="none" xmlns="http://www.w3.org/2000/svg">
<g clip-path="url(#clip0_2343_252)">
<path d="M110 220C170.544 220 220 170.456 220 110C220 49.456 170.456 0 110 0C49.456 0 0 49.544 0 110C0 170.544 49.544 220 110 220Z" fill="url(#paint0_linear_2343_252)"/>
<path d="M141.856 133.76L173.008 115.808C174.68 114.84 175.648 113.08 175.648 111.144V75.2399C175.648 73.3039 174.592 71.5439 173.008 70.5759L141.856 52.6239C140.184 51.6559 138.16 51.6559 136.488 52.6239L105.336 70.5759C103.664 71.5439 102.696 73.3039 102.696 75.2399V139.48L80.872 152.064L59.048 139.48V114.312L80.872 101.728L95.304 110V93.104L83.6 86.3279C82.808 85.888 81.84 85.6239 80.96 85.6239C79.992 85.6239 79.112 85.888 78.32 86.3279L47.168 104.28C45.496 105.248 44.528 107.008 44.528 108.944V144.848C44.528 146.784 45.584 148.544 47.168 149.512L78.32 167.464C79.992 168.432 82.016 168.432 83.688 167.464L114.84 149.512C116.512 148.544 117.48 146.784 117.48 144.848V80.6079L117.832 80.3439L139.304 67.9359L161.128 80.5199V105.688L139.304 118.272L124.96 110V126.896L136.664 133.672C138.336 134.64 140.36 134.64 142.032 133.672L141.856 133.76Z" fill="white"/>
</g>
<defs>
<linearGradient id="paint0_linear_2343_252" x1="-40.2366" y1="17.865" x2="186.627" y2="156.993" gradientUnits="userSpaceOnUse">
<stop stop-color="#A229C5"/>
<stop offset="1" stop-color="#7B3FE4"/>
</linearGradient>
<clipPath id="clip0_2343_252">
<rect width="220" height="220" fill="white"/>
</clipPath>
</defs>
</svg>
