<svg width="220" height="220" viewBox="0 0 220 220" fill="none" xmlns="http://www.w3.org/2000/svg">
  <g clip-path="url(#clip0_4234_21)">
    <path d="M110 220C170.751 220 220 170.751 220 110C220 49.2487 170.751 0 110 0C49.2487 0 0 49.2487 0 110C0 170.751 49.2487 220 110 220Z" fill="white"/>
    <path fill-rule="evenodd" clip-rule="evenodd" d="M103.449 109.961C133.713 109.768 158.644 86.0783 160.808 56.3211C160.886 55.2005 160.538 54.1955 159.765 53.3453C158.992 52.4951 158.025 52.07 156.866 52.07H107.043C104.879 52.07 103.101 53.848 103.101 56.0121V100.261C103.101 105.478 98.3078 109.961 92.7803 109.961H54.7465C53.1232 109.961 51.7316 110.889 51.1132 112.396C50.4949 113.903 50.8039 115.526 51.9636 116.686L101.941 166.655C102.714 167.427 103.642 167.814 104.724 167.814H151.454C153.078 167.814 154.469 166.887 155.088 165.379C155.706 163.872 155.397 162.249 154.237 161.09L103.101 109.961H103.449ZM223 110C223 47.5874 172.404 -3 109.981 -3C47.5573 -3 -3 47.5874 -3 110C-3 172.413 47.5958 223 110.019 223C172.443 223 223 172.374 223 110Z" fill="#050116"/>
  </g>
  <defs>
    <clipPath id="clip0_4234_21">
      <rect width="220" height="220" rx="110" fill="white"/>
    </clipPath>
  </defs>
</svg>
