<svg width="220" height="220" viewBox="0 0 220 220" fill="none" xmlns="http://www.w3.org/2000/svg">
  <g clip-path="url(#clip0_4164_22)">
    <path d="M110 220C170.751 220 220 170.751 220 110C220 49.2487 170.751 0 110 0C49.2487 0 0 49.2487 0 110C0 170.751 49.2487 220 110 220Z" fill="#7130F0"/>
    <path fill-rule="evenodd" clip-rule="evenodd" d="M178.756 111.994C178.742 112.459 178.109 112.582 177.926 112.153C177.848 111.968 177.768 111.782 177.686 111.597C177.537 111.257 177.579 110.862 177.801 110.565C177.847 110.505 177.941 110.382 178.053 110.235C178.354 109.842 178.788 109.901 178.788 110.337C178.788 110.91 178.775 111.406 178.756 111.994ZM175.425 102.895C174.912 103.819 173.596 103.861 173.026 102.97C172.938 102.833 172.849 102.695 172.759 102.557C170.706 99.4038 168.343 96.309 165.703 93.3012C165.055 92.5628 165.585 91.4039 166.568 91.4032H166.592C172.759 91.4032 175.992 92.9266 176.979 94.7869C177.803 96.3427 177.55 99.0636 175.425 102.895ZM174.046 135.147C173.716 135.989 173.369 136.825 173.005 137.653C172.949 137.767 172.895 137.883 172.837 137.996C170.567 142.365 166.758 145.806 161.668 148.2C160.526 148.737 159.276 147.692 159.616 146.477C161.307 140.428 162.586 133.867 163.415 126.99C163.569 125.707 164.202 124.53 165.179 123.685C167.272 121.874 169.227 120.066 171.025 118.27L171.045 118.25C171.93 117.367 173.439 117.747 173.799 118.945C175.576 124.85 175.674 130.351 174.046 135.147ZM160.21 156.987C159.693 157.541 159.164 158.087 158.626 158.626C157.687 159.563 156.727 160.469 155.745 161.345C155.126 161.896 154.19 161.206 154.541 160.454C154.64 160.24 154.74 160.024 154.838 159.806C155.251 158.897 155.649 157.964 156.036 157.013C156.128 156.789 156.321 156.622 156.556 156.562C157.532 156.314 158.484 156.041 159.411 155.742C160.162 155.5 160.75 156.411 160.21 156.987ZM150.05 151.526C147.995 151.824 145.835 152.016 143.574 152.096C138.059 152.289 132.227 151.813 126.236 150.71C125.506 150.576 125.366 149.589 126.028 149.254C127.334 148.592 128.642 147.916 129.949 147.223C139.115 142.365 147.668 137.054 155.155 131.609C155.716 131.2 156.49 131.682 156.376 132.368C155.338 138.608 153.9 144.482 152.094 149.815C151.787 150.723 151 151.389 150.05 151.526ZM147.931 159.84C143.016 169.506 136.964 174.933 131.097 174.824C124.72 174.71 118.362 168.07 113.653 156.606L113.648 156.594C113.349 155.866 113.692 155.033 114.413 154.72C114.463 154.697 114.513 154.676 114.563 154.654C114.872 154.519 115.219 154.495 115.544 154.587C124.352 157.059 133.031 158.348 141.162 158.348C142.045 158.348 142.923 158.334 143.793 158.303C144.811 158.267 145.814 158.209 146.798 158.131C147.712 158.059 148.347 159.023 147.931 159.84ZM118.828 178.221C115.906 178.597 112.941 178.789 109.947 178.789C96.5658 178.789 83.7673 174.997 72.7792 167.921C72.0232 167.434 72.3445 166.261 73.2429 166.22C73.4292 166.211 73.6034 166.201 73.7566 166.192C76.549 166.01 79.6108 165.601 82.9283 164.962C89.9853 163.605 97.83 161.276 106.044 158.14C106.78 157.859 107.603 158.224 107.902 158.953L107.908 158.966C111.091 166.716 115.008 172.573 119.407 176.298C120.134 176.914 119.773 178.1 118.828 178.221ZM79.0181 129.987C85.0843 125.047 92.1919 120.119 99.9887 115.452C100.156 125.425 101.25 134.999 103.185 143.647C100.293 142.413 97.4102 141.055 94.5523 139.571C89.0167 136.694 83.8085 133.472 79.0181 129.987ZM60.1529 156.707C58.7057 153.977 60.5761 147.652 70.0779 138.039L70.0826 138.035C71.0749 137.032 70.9797 135.387 69.872 134.515C69.4914 134.216 69.1134 133.913 68.7381 133.611C67.7917 132.846 66.4222 132.916 65.5629 133.777C65.3746 133.965 65.2342 134.107 65.193 134.149C60.4431 139.025 57.1188 143.538 55.2565 147.597C54.7287 148.747 53.1344 148.872 52.4364 147.816C45.0649 136.673 41.1054 123.615 41.1054 109.947C41.1054 105.061 41.613 100.252 42.6005 95.5814C42.7497 94.8746 43.7466 94.8294 43.9559 95.5206C45.3842 100.236 47.7088 105.114 50.9211 110.046C55.2451 116.686 60.9474 123.07 67.7047 128.925C70.0111 130.924 72.4471 132.857 74.9878 134.722C80.1379 138.501 85.7343 141.989 91.6883 145.082C94.3275 146.454 96.8979 147.763 99.5303 148.948C100.996 149.607 102.664 149.659 104.159 149.071C105.401 148.585 106.651 148.08 107.908 147.554C109.276 146.984 110.018 145.493 109.655 144.056C109.61 143.876 109.574 143.732 109.554 143.647C107.481 134.923 106.329 125.103 106.193 114.816L106.189 114.819C106.188 114.696 106.188 114.572 106.187 114.449C106.181 113.886 106.184 113.32 106.174 112.759C106.171 112.58 106.176 112.277 106.178 112.098C106.18 112.026 106.178 111.955 106.178 111.884L106.181 111.884C106.184 111.24 106.189 110.596 106.201 109.951C106.232 108.186 106.296 106.434 106.387 104.697L106.383 104.699C107.023 92.2867 109.127 80.6236 112.476 70.8127C112.786 69.9048 112.302 68.9193 111.394 68.6095C110.509 68.3071 109.625 68.0182 108.742 67.7415C107.849 67.4614 106.894 67.9433 106.593 68.8296C102.963 79.4842 100.724 92.1247 100.126 105.501C100.05 107.198 99.1267 108.742 97.6654 109.608C89.743 114.304 82.4673 119.281 76.1818 124.298C74.8724 125.344 73.002 125.304 71.7357 124.206C65.436 118.744 60.134 112.811 56.1259 106.656C48.2495 94.5615 46.3777 83.1677 50.857 74.5791C50.8691 74.5589 50.8799 74.5379 50.8914 74.5184C51.4624 73.5707 52.0564 72.6358 52.6747 71.7138C57.8215 64.9011 67.4009 60.9531 80.1055 60.507C80.9095 60.4786 81.7188 60.4644 82.5355 60.4644C90.3282 60.4644 98.6913 61.7503 107.197 64.2045L107.199 64.2025C107.385 64.2565 107.571 64.3125 107.758 64.3672C107.902 64.4097 108.045 64.4496 108.189 64.4928C110.155 65.08 112.126 65.7314 114.099 66.4414C114.145 66.4576 114.192 66.4745 114.238 66.4907C114.752 66.6763 115.266 66.8667 115.779 67.0604C115.94 67.1212 116.101 67.1826 116.262 67.2447C116.417 67.3041 116.571 67.3615 116.726 67.4215L116.724 67.4242C120.878 69.0321 125.029 70.9018 129.127 73.032C137.06 77.1535 144.322 81.9851 150.641 87.2858C138.581 90.0485 124.563 95.3782 110.469 102.564C109.819 102.896 109.391 103.55 109.349 104.279C109.3 105.152 109.235 106.908 109.189 108.304C109.16 109.18 110.086 109.761 110.863 109.353L110.871 109.348C124.826 102.021 138.753 96.5439 150.713 93.6495C152.948 93.1089 154.395 90.9617 154.082 88.6837C153.861 87.092 153.614 85.5254 153.34 83.9864C152.995 82.0532 151.937 80.3246 150.375 79.1353C144.773 74.868 138.6 70.9537 131.991 67.5194C127.538 65.2055 123.019 63.1779 118.49 61.4486C117.521 61.0787 117.106 59.9339 117.612 59.0287C122.277 50.6825 127.827 46.0082 133.232 46.0082C133.289 46.0082 133.345 46.0082 133.401 46.0096C139.777 46.1236 146.136 52.7635 150.844 64.2268C153.228 70.0297 155.074 76.7215 156.337 83.9938C156.33 83.9878 156.323 83.9824 156.317 83.9763C156.856 87.0799 157.29 90.2874 157.612 93.578C157.584 93.5955 157.554 93.6111 157.527 93.6286C157.564 93.6671 157.604 93.7056 157.643 93.7447C158.177 99.2661 158.402 105.016 158.297 110.883C158.231 114.594 158.033 118.254 157.713 121.834C149.182 128.729 138.634 135.59 127.039 141.734C123.229 143.754 119.42 145.634 115.647 147.364C115.588 147.391 115.53 147.418 115.472 147.445C115.183 147.576 114.894 147.71 114.606 147.84L114.599 147.838C111.474 149.252 108.377 150.56 105.333 151.755L105.334 151.758C105.162 151.825 104.991 151.89 104.82 151.957C104.606 152.041 104.392 152.123 104.178 152.205C103.667 152.401 103.158 152.594 102.651 152.784C102.511 152.836 102.371 152.891 102.231 152.942C101.615 153.171 101.002 153.393 100.391 153.611C100.315 153.638 100.238 153.667 100.163 153.694L100.16 153.693C93.635 156.017 87.419 157.773 81.7545 158.863C68.0665 161.498 61.621 159.476 60.1529 156.707ZM69.9841 53.8786C81.5696 45.5823 95.4136 41.1058 109.947 41.1058C113.783 41.1058 117.569 41.4196 121.28 42.0319C122.273 42.1959 122.607 43.4642 121.814 44.0858C118.219 46.9046 114.878 51.0753 111.922 56.484C111.2 57.8036 109.67 58.4489 108.223 58.0412C98.4281 55.2839 88.7913 53.9866 79.8875 54.2991C76.603 54.4145 73.4927 54.7473 70.5707 55.2859C69.7499 55.4371 69.3057 54.3639 69.9841 53.8786ZM164.481 104.05C164.461 103.261 165.473 102.925 165.931 103.567C166.493 104.356 167.035 105.149 167.554 105.946C168.244 107.006 168.886 108.06 169.483 109.107C169.855 109.759 169.766 110.578 169.259 111.133C168.455 112.016 167.583 112.929 166.636 113.875C166.291 114.22 165.938 114.565 165.579 114.912C165.134 115.342 164.387 115.014 164.411 114.395C164.455 113.265 164.487 112.132 164.507 110.993C164.549 108.661 164.539 106.345 164.481 104.05ZM157.342 60.0183C157.774 60.4287 158.202 60.8458 158.626 61.269C165.259 67.9028 170.369 75.6544 173.786 84.0964C174.131 84.9476 173.408 85.8386 172.504 85.6759C170.527 85.3209 168.302 85.1622 165.839 85.2034C164.132 85.2318 162.648 84.0357 162.349 82.355C161.01 74.8498 159.075 67.917 156.59 61.8664C156.448 61.5215 156.305 61.1806 156.16 60.8431C155.844 60.1067 156.761 59.4661 157.342 60.0183ZM183.379 94.3374C180.413 80.2456 173.439 67.298 163.017 56.8762C148.842 42.7008 129.995 34.8945 109.947 34.8945C89.8996 34.8945 71.0519 42.7008 56.8765 56.8762C53.4287 60.324 50.3622 64.0493 47.6886 67.9993C46.8934 69.0577 46.1813 70.1755 45.5482 71.3452C38.6032 82.8855 34.8942 96.1315 34.8942 109.947C34.8942 129.995 42.7011 148.842 56.8765 163.017C71.0519 177.193 89.8996 185 109.947 185C129.995 185 148.842 177.193 163.017 163.017C169.708 156.328 174.977 148.596 178.679 140.19C179.131 139.258 179.526 138.305 179.865 137.332C183.235 128.722 185 119.471 185 109.947C185 104.705 184.461 99.5476 183.42 94.5317C183.406 94.4669 183.393 94.4021 183.379 94.3374Z" fill="white"/>
  </g>
  <defs>
    <clipPath id="clip0_4164_22">
      <rect width="220" height="220" rx="110" fill="white"/>
    </clipPath>
  </defs>
</svg>
