<svg width="220" height="220" viewBox="0 0 220 220" fill="none" xmlns="http://www.w3.org/2000/svg">
  <path d="M110 0C49.2483 0 0 49.2483 0 110C0 170.752 49.2483 220 110 220C170.752 220 220 170.752 220 110C220 49.2483 170.752 0 110 0Z" fill="#896AE2"/>
  <path fill-rule="evenodd" clip-rule="evenodd" d="M58.6661 112.519V71.1333H79.1995V112.842C79.2523 123.369 82.3054 130.45 87.3571 135.364C92.532 140.345 99.4429 143.226 109.999 143.226C120.579 143.226 127.564 140.332 132.725 135.364C137.734 130.491 140.799 123.334 140.799 112.519V71.1333H161.333V112.519C161.333 127.376 156.929 140.317 147.067 149.898C137.349 159.262 124.841 163.533 109.999 163.533C95.1363 163.533 82.7204 159.25 73.016 149.898C63.203 140.365 58.7321 127.199 58.6661 112.519ZM120.266 111.749V71.1333H99.7328V111.862C99.7499 115.693 100.768 118.269 102.452 120.056C104.177 121.867 106.48 122.915 109.999 122.915C113.526 122.915 115.854 121.863 117.575 120.056C119.244 118.284 120.266 115.682 120.266 111.749Z" fill="white"/>
</svg>
