<svg width="220" height="220" viewBox="0 0 220 220" fill="none" xmlns="http://www.w3.org/2000/svg">
  <g clip-path="url(#clip0_4047_384)">
    <path d="M110 220C170.751 220 220 170.751 220 110C220 49.2487 170.751 0 110 0C49.2487 0 0 49.2487 0 110C0 170.751 49.2487 220 110 220Z" fill="#53AE94"/>
    <path d="M123.576 95.3441V78.9805H160.996V54.0479H59.1008V78.9805H96.525V95.3309C66.11 96.7279 43.241 102.751 43.241 109.967C43.241 117.183 66.121 123.207 96.525 124.613V177.028H123.585V124.608C153.945 123.207 176.768 117.188 176.768 109.978C176.768 102.769 153.945 96.7499 123.585 95.3484M123.585 120.169V120.156C122.822 120.204 118.899 120.439 110.165 120.439C103.182 120.439 98.2696 120.241 96.5382 120.151V120.173C69.6674 118.983 49.61 114.304 49.61 108.705C49.61 103.106 69.6696 98.4328 96.5382 97.2405V115.511C98.2982 115.632 103.332 115.929 110.279 115.929C118.624 115.929 122.819 115.582 123.589 115.511V97.2405C150.407 98.4351 170.419 103.119 170.419 108.698C170.419 114.277 150.399 118.963 123.589 120.158" fill="white"/>
  </g>
  <defs>
    <clipPath id="clip0_4047_384">
      <rect width="220" height="220" rx="110" fill="white"/>
    </clipPath>
  </defs>
</svg>
