<svg width="220" height="220" viewBox="0 0 220 220" fill="none" xmlns="http://www.w3.org/2000/svg">
<circle cx="110" cy="110" r="110" fill="#112450"/>
<path d="M84.8798 42.3532C92.6774 39.1395 101.156 38.0951 109.515 37.834C122.104 37.9947 134.993 39.6015 146.478 45.0245C155.499 49.2022 163.016 56.0915 168.949 63.9649C167.085 62.5991 166.022 60.3897 164.359 58.803C161.312 55.8906 158.586 52.3958 154.557 50.8091C150.588 49.4433 146.318 49.1018 142.149 49.3027C131.705 50.0458 121.522 52.8578 111.68 56.3727C100.876 60.6308 90.0114 65.8529 81.9533 74.4695C80.3496 76.0763 79.4075 78.2054 77.844 79.8323C74.1557 77.3216 70.5676 74.3289 68.3827 70.3721C68.2825 70.1713 68.062 69.7495 67.9618 69.5285C74.737 66.3551 81.3319 62.4585 86.5235 56.9953C89.2096 54.083 91.7152 50.0057 90.3321 45.9283C89.5103 43.5784 86.8242 43.2771 84.8798 42.3532ZM113.825 123.879C123.948 127.615 134.171 131.07 144.534 134.062C153.615 136.533 162.895 138.943 172.357 138.883C171.374 141.273 170.212 143.583 168.889 145.792C160.55 148.484 152.552 152.179 145.095 156.799C140.525 159.792 135.875 163.126 133.189 168.007C132.106 169.915 132.086 172.164 132.667 174.213C132.547 174.354 132.307 174.615 132.206 174.755C128.959 175.599 125.571 177.406 122.184 176.101C116.511 174.273 111.841 170.256 107.932 165.898C103.161 160.234 99.2522 153.344 98.7711 145.812C98.6308 138.722 103.041 132.536 108.212 128.117C109.976 126.591 111.921 125.245 113.825 123.879Z" fill="#2845AD"/>
<path d="M78.7144 43.1391C80.7765 42.6387 82.8987 42.9189 85.0008 42.7388C86.9428 43.6595 89.6255 43.9597 90.4464 46.2816C91.8077 50.3448 89.3252 54.408 86.6425 57.3103C81.4572 62.7546 74.8705 66.6377 68.1036 69.8002C68.2037 70.0004 68.4039 70.4207 68.524 70.6409C67.7432 70.1005 66.7823 70.4007 66.0015 70.761C60.8562 73.0628 55.4908 74.8642 49.9851 76.1653C47.863 76.6056 45.7208 77.066 43.5386 76.8258C43.5386 75.5648 44.4195 74.564 44.94 73.4832C50.1453 64.0557 57.3526 55.8692 66.0415 49.4841C69.8854 46.7219 73.9295 43.8196 78.7144 43.1391ZM111.768 56.6898C121.578 53.1871 131.748 50.3848 142.199 49.6442C146.363 49.4441 150.628 49.7844 154.592 51.1454C158.616 52.7467 161.339 56.2295 164.382 59.1118C166.043 60.693 167.104 62.9148 168.966 64.2558C169.927 64.7362 170.268 65.9372 170.948 66.7378C184.843 86.3934 188.146 113.015 179.537 135.492C178.696 138.495 174.932 138.615 172.37 138.915C162.9 138.975 153.651 136.573 144.582 134.111C134.231 131.129 124.021 127.686 113.91 123.963C104.361 120.2 95.0711 115.537 87.0629 109.051C82.0578 104.768 77.4131 99.4037 76.1518 92.7584C75.3109 89.2957 75.8315 85.6528 77.1328 82.3902C77.4531 81.6296 77.9737 80.909 77.9737 80.0684C79.5553 78.4471 80.4762 76.3254 82.0778 74.7241C90.126 66.1373 100.977 60.9332 111.768 56.6898ZM40.2152 83.8714L40.6156 84.0315C43.6187 87.6944 46.6818 91.3373 49.7049 94.9602C56.0713 102.246 61.5169 110.252 66.6221 118.459C73.7694 129.468 80.1759 141.537 81.4772 154.788C81.5973 161.933 81.6374 169.139 80.4762 176.225C78.4141 176.745 76.372 175.424 74.5301 174.623C60.7761 167.217 49.5447 155.288 42.8379 141.157C34.4093 123.443 33.4083 102.306 40.2152 83.8714ZM168.906 145.801C170.728 145.32 172.55 144.6 174.472 144.68C174.992 146.001 173.991 147.122 173.371 148.202C167.325 157.97 159.076 166.377 149.286 172.402C146.003 174.463 142.499 176.745 138.475 176.545C136.553 176.685 134.691 175.864 133.27 174.603C133.03 174.623 132.509 174.663 132.269 174.683C132.389 174.543 132.629 174.283 132.729 174.143C132.169 172.101 132.189 169.84 133.25 167.958C135.933 163.094 140.577 159.772 145.142 156.789C152.59 152.166 160.578 148.483 168.906 145.801Z" fill="#5494F8"/>
<mask id="path-4-outside-1_1306_140" maskUnits="userSpaceOnUse" x="88.3822" y="114.521" width="93" height="70" fill="black">
<rect fill="white" x="88.3822" y="114.521" width="93" height="70"/>
<path d="M90.3822 148.659V153.108C90.3822 153.108 101.888 156.444 134.691 149.771V145.322C101.888 151.995 90.3822 148.659 90.3822 148.659Z"/>
<path d="M90.3822 144.21V148.659C90.3822 148.659 101.888 151.995 134.691 145.322V140.873C101.888 147.546 90.3822 144.21 90.3822 144.21Z"/>
<path d="M90.3822 139.761V144.21C90.3822 144.21 101.888 147.546 134.691 140.873V136.424C101.888 143.097 90.3822 139.761 90.3822 139.761Z"/>
<path d="M90.3822 136.201V139.761C90.3822 139.761 101.888 143.097 134.691 136.424V132.865C101.888 139.538 90.3822 136.201 90.3822 136.201Z"/>
<path d="M90.3822 132.642V136.201C90.3822 136.201 101.888 139.538 134.691 132.865V129.306C101.888 135.979 90.3822 132.642 90.3822 132.642Z"/>
<path d="M90.3822 128.861V132.642C90.3822 132.642 101.888 135.979 134.691 129.306V125.524C101.888 132.197 90.3822 128.861 90.3822 128.861Z"/>
<path d="M90.3822 125.746V128.861C90.3822 128.861 101.888 132.197 134.691 125.524V121.075C100.174 128.193 90.3822 120.63 90.3822 125.746Z"/>
<path d="M178.999 175.515V168.84C178.999 168.84 167.493 164.897 134.691 171.571C101.888 178.245 90.3822 174.908 90.3822 174.908V177.791C90.3822 182.912 90.3821 181.576 114.874 180.859C120.429 180.226 126.818 178.676 134.691 177.074C169.425 170.84 178.999 173.068 178.999 175.515Z"/>
<path d="M178.999 168.84V164.168C178.999 164.168 167.493 160.226 134.691 166.9C101.888 173.573 90.3822 170.236 90.3822 170.236V174.908C90.3822 174.908 101.888 178.245 134.691 171.571C167.493 164.897 178.999 168.84 178.999 168.84Z"/>
<path d="M178.999 164.168V159.719C178.999 159.719 167.493 155.777 134.691 162.451C101.888 169.124 90.3822 165.787 90.3822 165.787V170.236C90.3822 170.236 101.888 173.573 134.691 166.9C167.493 160.226 178.999 164.168 178.999 164.168Z"/>
<path d="M178.999 159.719V155.715C178.999 155.715 167.493 151.773 134.691 158.446C101.888 165.12 90.3822 161.783 90.3822 161.783V165.787C90.3822 165.787 101.888 169.124 134.691 162.451C167.493 155.777 178.999 159.719 178.999 159.719Z"/>
<path d="M178.999 155.715V151.266C178.999 151.266 167.493 147.324 134.691 153.997C101.888 160.671 90.3822 157.334 90.3822 157.334V161.783C90.3822 161.783 101.888 165.12 134.691 158.446C167.493 151.773 178.999 155.715 178.999 155.715Z"/>
<path d="M178.999 151.266V147.04C178.999 147.04 167.493 143.097 134.691 149.771C101.888 156.444 90.3822 153.108 90.3822 153.108V157.334C90.3822 157.334 101.888 160.671 134.691 153.997C167.493 147.324 178.999 151.266 178.999 151.266Z"/>
<path d="M178.999 147.04V142.591C178.999 142.591 167.493 138.648 134.691 145.322V149.771C167.493 143.097 178.999 147.04 178.999 147.04Z"/>
<path d="M178.999 142.591V138.142C178.999 138.142 167.493 134.199 134.691 140.873V145.322C167.493 138.648 178.999 142.591 178.999 142.591Z"/>
<path d="M178.999 138.142V133.693C178.999 133.693 167.493 129.75 134.691 136.424V140.873C167.493 134.199 178.999 138.142 178.999 138.142Z"/>
<path d="M178.999 133.693V130.133C178.999 130.133 167.493 126.191 134.691 132.865V136.424C167.493 129.75 178.999 133.693 178.999 133.693Z"/>
<path d="M178.999 130.133V126.574C178.999 126.574 167.493 122.632 134.691 129.306V132.865C167.493 126.191 178.999 130.133 178.999 130.133Z"/>
<path d="M178.999 126.574V122.793C178.999 122.793 167.493 118.85 134.691 125.524V129.306C167.493 122.632 178.999 126.574 178.999 126.574Z"/>
<path d="M178.999 122.793V119.108C178.999 116.72 169.207 113.957 134.691 121.075V125.524C167.493 118.85 178.999 122.793 178.999 122.793Z"/>
<path d="M178.999 175.515C178.999 173.068 169.425 170.84 134.691 177.074C126.818 178.676 120.429 180.226 114.874 180.859C150.859 179.157 178.999 180.409 178.999 175.515Z"/>
</mask>
<path d="M90.3822 148.659V153.108C90.3822 153.108 101.888 156.444 134.691 149.771V145.322C101.888 151.995 90.3822 148.659 90.3822 148.659Z" fill="#002B8E"/>
<path d="M90.3822 144.21V148.659C90.3822 148.659 101.888 151.995 134.691 145.322V140.873C101.888 147.546 90.3822 144.21 90.3822 144.21Z" fill="#002B8E"/>
<path d="M90.3822 139.761V144.21C90.3822 144.21 101.888 147.546 134.691 140.873V136.424C101.888 143.097 90.3822 139.761 90.3822 139.761Z" fill="#002B8E"/>
<path d="M90.3822 136.201V139.761C90.3822 139.761 101.888 143.097 134.691 136.424V132.865C101.888 139.538 90.3822 136.201 90.3822 136.201Z" fill="#002B8E"/>
<path d="M90.3822 132.642V136.201C90.3822 136.201 101.888 139.538 134.691 132.865V129.306C101.888 135.979 90.3822 132.642 90.3822 132.642Z" fill="#002B8E"/>
<path d="M90.3822 128.861V132.642C90.3822 132.642 101.888 135.979 134.691 129.306V125.524C101.888 132.197 90.3822 128.861 90.3822 128.861Z" fill="#002B8E"/>
<path d="M90.3822 125.746V128.861C90.3822 128.861 101.888 132.197 134.691 125.524V121.075C100.174 128.193 90.3822 120.63 90.3822 125.746Z" fill="#002B8E"/>
<path d="M178.999 175.515V168.84C178.999 168.84 167.493 164.897 134.691 171.571C101.888 178.245 90.3822 174.908 90.3822 174.908V177.791C90.3822 182.912 90.3821 181.576 114.874 180.859C120.429 180.226 126.818 178.676 134.691 177.074C169.425 170.84 178.999 173.068 178.999 175.515Z" fill="#D30808"/>
<path d="M178.999 168.84V164.168C178.999 164.168 167.493 160.226 134.691 166.9C101.888 173.573 90.3822 170.236 90.3822 170.236V174.908C90.3822 174.908 101.888 178.245 134.691 171.571C167.493 164.897 178.999 168.84 178.999 168.84Z" fill="white"/>
<path d="M178.999 164.168V159.719C178.999 159.719 167.493 155.777 134.691 162.451C101.888 169.124 90.3822 165.787 90.3822 165.787V170.236C90.3822 170.236 101.888 173.573 134.691 166.9C167.493 160.226 178.999 164.168 178.999 164.168Z" fill="#D30808"/>
<path d="M178.999 159.719V155.715C178.999 155.715 167.493 151.773 134.691 158.446C101.888 165.12 90.3822 161.783 90.3822 161.783V165.787C90.3822 165.787 101.888 169.124 134.691 162.451C167.493 155.777 178.999 159.719 178.999 159.719Z" fill="white"/>
<path d="M178.999 155.715V151.266C178.999 151.266 167.493 147.324 134.691 153.997C101.888 160.671 90.3822 157.334 90.3822 157.334V161.783C90.3822 161.783 101.888 165.12 134.691 158.446C167.493 151.773 178.999 155.715 178.999 155.715Z" fill="#D30808"/>
<path d="M178.999 151.266V147.04C178.999 147.04 167.493 143.097 134.691 149.771C101.888 156.444 90.3822 153.108 90.3822 153.108V157.334C90.3822 157.334 101.888 160.671 134.691 153.997C167.493 147.324 178.999 151.266 178.999 151.266Z" fill="white"/>
<path d="M178.999 147.04V142.591C178.999 142.591 167.493 138.648 134.691 145.322V149.771C167.493 143.097 178.999 147.04 178.999 147.04Z" fill="#D30808"/>
<path d="M178.999 142.591V138.142C178.999 138.142 167.493 134.199 134.691 140.873V145.322C167.493 138.648 178.999 142.591 178.999 142.591Z" fill="white"/>
<path d="M178.999 138.142V133.693C178.999 133.693 167.493 129.75 134.691 136.424V140.873C167.493 134.199 178.999 138.142 178.999 138.142Z" fill="#D30808"/>
<path d="M178.999 133.693V130.133C178.999 130.133 167.493 126.191 134.691 132.865V136.424C167.493 129.75 178.999 133.693 178.999 133.693Z" fill="white"/>
<path d="M178.999 130.133V126.574C178.999 126.574 167.493 122.632 134.691 129.306V132.865C167.493 126.191 178.999 130.133 178.999 130.133Z" fill="#D30808"/>
<path d="M178.999 126.574V122.793C178.999 122.793 167.493 118.85 134.691 125.524V129.306C167.493 122.632 178.999 126.574 178.999 126.574Z" fill="white"/>
<path d="M178.999 122.793V119.108C178.999 116.72 169.207 113.957 134.691 121.075V125.524C167.493 118.85 178.999 122.793 178.999 122.793Z" fill="#D30808"/>
<path d="M178.999 175.515C178.999 173.068 169.425 170.84 134.691 177.074C126.818 178.676 120.429 180.226 114.874 180.859C150.859 179.157 178.999 180.409 178.999 175.515Z" fill="#880000"/>
<path d="M134.691 177.074L134.514 176.09L134.502 176.092L134.491 176.094L134.691 177.074ZM178.999 168.84L178.675 169.786L179.999 170.239V168.84H178.999ZM90.3822 174.908H89.3822V175.659L90.1037 175.868L90.3822 174.908ZM178.999 164.168L178.675 165.114L179.999 165.568V164.168H178.999ZM90.3822 170.236H89.3822V170.987L90.1037 171.197L90.3822 170.236ZM178.999 159.719L178.675 160.665L179.999 161.119V159.719H178.999ZM90.3822 165.787H89.3822V166.538L90.1037 166.748L90.3822 165.787ZM178.999 155.715L178.675 156.661L179.999 157.115V155.715H178.999ZM90.3822 161.783H89.3822V162.534L90.1037 162.744L90.3822 161.783ZM178.999 151.266L178.675 152.212L179.999 152.666V151.266H178.999ZM178.999 147.04L178.675 147.986L179.999 148.439V147.04H178.999ZM90.3822 153.108L90.6607 152.147L89.3822 151.776V153.108H90.3822ZM178.999 142.591L178.675 143.537L179.999 143.99V142.591H178.999ZM90.3822 148.659H89.3822V149.41L90.1037 149.619L90.3822 148.659ZM178.999 138.142L178.675 139.088L179.999 139.541V138.142H178.999ZM90.3822 144.21H89.3822V144.961L90.1037 145.17L90.3822 144.21ZM178.999 133.693L178.675 134.639L179.999 135.092V133.693H178.999ZM90.3822 139.761H89.3822V140.512L90.1037 140.721L90.3822 139.761ZM178.999 130.133L178.675 131.079L179.999 131.533V130.133H178.999ZM90.3822 136.201H89.3822V136.953L90.1037 137.162L90.3822 136.201ZM178.999 126.574L178.675 127.52L179.999 127.974V126.574H178.999ZM90.3822 132.642H89.3822V133.393L90.1037 133.603L90.3822 132.642ZM177.999 119.108V175.515H179.999V119.108H177.999ZM91.3822 177.791V125.746H89.3822V177.791H91.3822ZM179.999 175.515C179.999 174.843 179.658 174.284 179.171 173.865C178.699 173.461 178.049 173.145 177.262 172.897C175.683 172.397 173.287 172.082 169.882 172.039C163.054 171.954 151.905 172.968 134.514 176.09L134.867 178.058C152.211 174.945 163.216 173.957 169.858 174.039C173.188 174.081 175.356 174.391 176.658 174.803C177.312 175.01 177.681 175.222 177.868 175.383C178.04 175.531 177.999 175.576 177.999 175.515H179.999ZM178.999 168.84C179.323 167.894 179.322 167.893 179.322 167.893C179.321 167.893 179.32 167.893 179.32 167.893C179.319 167.892 179.317 167.892 179.316 167.891C179.313 167.89 179.309 167.889 179.304 167.887C179.295 167.884 179.283 167.88 179.268 167.876C179.239 167.866 179.198 167.854 179.145 167.838C179.039 167.807 178.886 167.764 178.683 167.713C178.278 167.612 177.674 167.478 176.853 167.342C175.211 167.068 172.7 166.78 169.167 166.703C162.104 166.55 150.951 167.242 134.491 170.591L134.89 172.551C151.232 169.226 162.234 168.553 169.124 168.703C172.568 168.777 174.984 169.058 176.524 169.314C177.294 169.443 177.846 169.565 178.198 169.653C178.374 169.697 178.5 169.733 178.578 169.756C178.618 169.768 178.645 169.776 178.661 169.781C178.669 169.784 178.674 169.786 178.676 169.786C178.678 169.787 178.678 169.787 178.678 169.787C178.678 169.787 178.677 169.787 178.677 169.786C178.676 169.786 178.676 169.786 178.676 169.786C178.675 169.786 178.675 169.786 178.999 168.84ZM134.491 170.591C118.143 173.917 107.133 174.742 100.235 174.742C96.7867 174.742 94.367 174.536 92.8224 174.333C92.0502 174.232 91.4968 174.132 91.1429 174.059C90.966 174.022 90.8389 173.992 90.7594 173.973C90.7196 173.963 90.6917 173.956 90.6754 173.951C90.6672 173.949 90.6619 173.948 90.6595 173.947C90.6583 173.947 90.6578 173.946 90.658 173.947C90.6581 173.947 90.6584 173.947 90.6588 173.947C90.6591 173.947 90.6595 173.947 90.6597 173.947C90.6602 173.947 90.6607 173.947 90.3822 174.908C90.1037 175.868 90.1043 175.868 90.105 175.869C90.1053 175.869 90.106 175.869 90.1066 175.869C90.1078 175.869 90.1091 175.87 90.1106 175.87C90.1137 175.871 90.1174 175.872 90.1218 175.873C90.1307 175.876 90.1425 175.879 90.1571 175.883C90.1863 175.891 90.227 175.901 90.2795 175.914C90.3845 175.94 90.5366 175.976 90.7384 176.017C91.1419 176.101 91.7436 176.209 92.5625 176.316C94.2003 176.531 96.7072 176.742 100.235 176.742C107.291 176.742 118.435 175.898 134.89 172.551L134.491 170.591ZM178.999 164.168C179.323 163.222 179.322 163.222 179.322 163.222C179.321 163.222 179.32 163.221 179.32 163.221C179.319 163.221 179.317 163.22 179.316 163.22C179.313 163.219 179.309 163.217 179.304 163.216C179.295 163.213 179.283 163.209 179.268 163.204C179.239 163.195 179.198 163.182 179.145 163.166C179.039 163.135 178.886 163.092 178.683 163.042C178.278 162.94 177.674 162.807 176.853 162.67C175.211 162.396 172.7 162.108 169.167 162.032C162.104 161.878 150.951 162.571 134.491 165.92L134.89 167.879C151.232 164.555 162.234 163.882 169.124 164.031C172.568 164.106 174.984 164.386 176.524 164.643C177.294 164.771 177.846 164.894 178.198 164.982C178.374 165.026 178.5 165.061 178.578 165.085C178.618 165.096 178.645 165.105 178.661 165.11C178.669 165.112 178.674 165.114 178.676 165.115C178.678 165.115 178.678 165.115 178.678 165.115C178.678 165.115 178.677 165.115 178.677 165.115C178.676 165.115 178.676 165.115 178.676 165.115C178.675 165.114 178.675 165.114 178.999 164.168ZM134.491 165.92C118.143 169.246 107.133 170.071 100.235 170.071C96.7867 170.07 94.367 169.864 92.8224 169.662C92.0502 169.561 91.4968 169.46 91.1429 169.387C90.966 169.351 90.8389 169.321 90.7594 169.301C90.7196 169.292 90.6917 169.284 90.6754 169.28C90.6672 169.278 90.6619 169.276 90.6595 169.275C90.6583 169.275 90.6578 169.275 90.658 169.275C90.6581 169.275 90.6584 169.275 90.6588 169.275C90.6591 169.275 90.6595 169.276 90.6597 169.276C90.6602 169.276 90.6607 169.276 90.3822 170.236C90.1037 171.197 90.1043 171.197 90.105 171.197C90.1053 171.197 90.106 171.197 90.1066 171.198C90.1078 171.198 90.1091 171.198 90.1106 171.199C90.1137 171.2 90.1174 171.201 90.1218 171.202C90.1307 171.204 90.1424 171.208 90.157 171.211C90.1862 171.219 90.227 171.23 90.2795 171.243C90.3845 171.269 90.5366 171.304 90.7384 171.346C91.1419 171.429 91.7436 171.538 92.5625 171.645C94.2003 171.86 96.7072 172.07 100.235 172.071C107.291 172.071 118.435 171.227 134.89 167.879L134.491 165.92ZM178.999 159.719C179.323 158.773 179.322 158.773 179.322 158.773C179.321 158.773 179.32 158.772 179.32 158.772C179.319 158.772 179.317 158.771 179.316 158.771C179.313 158.77 179.309 158.768 179.304 158.767C179.295 158.764 179.283 158.76 179.268 158.755C179.239 158.746 179.198 158.733 179.145 158.717C179.039 158.686 178.886 158.643 178.683 158.593C178.278 158.491 177.674 158.358 176.853 158.221C175.211 157.947 172.7 157.659 169.167 157.583C162.104 157.429 150.951 158.122 134.491 161.471L134.89 163.43C151.232 160.106 162.234 159.433 169.124 159.582C172.568 159.657 174.984 159.937 176.524 160.194C177.294 160.322 177.846 160.445 178.198 160.533C178.374 160.577 178.5 160.612 178.578 160.636C178.618 160.647 178.645 160.656 178.661 160.661C178.669 160.663 178.674 160.665 178.676 160.666C178.678 160.666 178.678 160.666 178.678 160.666C178.678 160.666 178.677 160.666 178.677 160.666C178.676 160.666 178.676 160.666 178.676 160.666C178.675 160.665 178.675 160.665 178.999 159.719ZM134.491 161.471C118.143 164.797 107.133 165.622 100.235 165.622C96.7867 165.622 94.367 165.415 92.8224 165.213C92.0502 165.112 91.4968 165.011 91.1429 164.938C90.966 164.902 90.8389 164.872 90.7594 164.852C90.7196 164.843 90.6917 164.835 90.6754 164.831C90.6672 164.829 90.6619 164.827 90.6595 164.826C90.6583 164.826 90.6578 164.826 90.658 164.826C90.6581 164.826 90.6584 164.826 90.6588 164.826C90.6591 164.826 90.6595 164.827 90.6597 164.827C90.6602 164.827 90.6607 164.827 90.3822 165.787C90.1037 166.748 90.1043 166.748 90.105 166.748C90.1053 166.748 90.106 166.748 90.1066 166.749C90.1078 166.749 90.1091 166.749 90.1106 166.75C90.1137 166.751 90.1174 166.752 90.1218 166.753C90.1307 166.755 90.1424 166.759 90.157 166.763C90.1863 166.77 90.227 166.781 90.2795 166.794C90.3845 166.82 90.5366 166.855 90.7384 166.897C91.1419 166.98 91.7436 167.089 92.5625 167.196C94.2003 167.411 96.7072 167.622 100.235 167.622C107.291 167.622 118.435 166.778 134.89 163.43L134.491 161.471ZM178.999 155.715C179.323 154.769 179.322 154.769 179.322 154.769C179.321 154.769 179.32 154.768 179.32 154.768C179.319 154.768 179.317 154.767 179.316 154.767C179.313 154.766 179.309 154.764 179.304 154.763C179.295 154.76 179.283 154.756 179.268 154.751C179.239 154.742 179.198 154.729 179.145 154.713C179.039 154.682 178.886 154.639 178.683 154.589C178.278 154.487 177.674 154.354 176.853 154.217C175.211 153.943 172.7 153.655 169.167 153.578C162.104 153.425 150.951 154.118 134.491 157.467L134.89 159.426C151.232 156.102 162.234 155.429 169.124 155.578C172.568 155.653 174.984 155.933 176.524 156.19C177.294 156.318 177.846 156.441 178.198 156.529C178.374 156.573 178.5 156.608 178.578 156.632C178.618 156.643 178.645 156.652 178.661 156.657C178.669 156.659 178.674 156.661 178.676 156.662C178.678 156.662 178.678 156.662 178.678 156.662C178.678 156.662 178.677 156.662 178.677 156.662C178.676 156.662 178.676 156.662 178.676 156.662C178.675 156.661 178.675 156.661 178.999 155.715ZM134.491 157.467C118.143 160.793 107.133 161.617 100.235 161.617C96.7867 161.617 94.367 161.411 92.8224 161.209C92.0502 161.108 91.4968 161.007 91.1429 160.934C90.966 160.898 90.8389 160.868 90.7594 160.848C90.7196 160.838 90.6917 160.831 90.6754 160.827C90.6672 160.825 90.6619 160.823 90.6595 160.822C90.6583 160.822 90.6578 160.822 90.658 160.822C90.6581 160.822 90.6584 160.822 90.6588 160.822C90.6591 160.822 90.6595 160.822 90.6597 160.822C90.6602 160.823 90.6607 160.823 90.3822 161.783C90.1037 162.744 90.1043 162.744 90.105 162.744C90.1053 162.744 90.106 162.744 90.1066 162.744C90.1078 162.745 90.1091 162.745 90.1106 162.746C90.1137 162.746 90.1174 162.748 90.1218 162.749C90.1307 162.751 90.1424 162.754 90.157 162.758C90.1863 162.766 90.227 162.777 90.2795 162.79C90.3845 162.816 90.5366 162.851 90.7384 162.893C91.1419 162.976 91.7436 163.084 92.5625 163.192C94.2003 163.406 96.7072 163.617 100.235 163.617C107.291 163.617 118.435 162.774 134.89 159.426L134.491 157.467ZM178.999 151.266C179.323 150.32 179.322 150.32 179.322 150.32C179.321 150.32 179.32 150.319 179.32 150.319C179.319 150.319 179.317 150.318 179.316 150.318C179.313 150.317 179.309 150.315 179.304 150.314C179.295 150.311 179.283 150.307 179.268 150.302C179.239 150.293 179.198 150.28 179.145 150.264C179.039 150.233 178.886 150.19 178.683 150.14C178.278 150.038 177.674 149.905 176.853 149.768C175.211 149.494 172.7 149.206 169.167 149.129C162.104 148.976 150.951 149.669 134.491 153.018L134.89 154.977C151.232 151.653 162.234 150.98 169.124 151.129C172.568 151.204 174.984 151.484 176.524 151.741C177.294 151.869 177.846 151.992 178.198 152.08C178.374 152.124 178.5 152.159 178.578 152.183C178.618 152.194 178.645 152.203 178.661 152.208C178.669 152.21 178.674 152.212 178.676 152.213C178.678 152.213 178.678 152.213 178.678 152.213C178.678 152.213 178.677 152.213 178.677 152.213C178.676 152.213 178.676 152.213 178.676 152.213C178.675 152.212 178.675 152.212 178.999 151.266ZM134.491 153.018C118.143 156.344 107.133 157.168 100.235 157.168C96.7867 157.168 94.367 156.962 92.8224 156.76C92.0502 156.659 91.4968 156.558 91.1429 156.485C90.966 156.449 90.8389 156.419 90.7594 156.399C90.7196 156.389 90.6917 156.382 90.6754 156.378C90.6672 156.376 90.6619 156.374 90.6595 156.373C90.6583 156.373 90.6578 156.373 90.658 156.373C90.6581 156.373 90.6584 156.373 90.6588 156.373C90.6591 156.373 90.6595 156.373 90.6597 156.373C90.6602 156.374 90.6607 156.374 90.3822 157.334C90.1037 158.295 90.1043 158.295 90.105 158.295C90.1053 158.295 90.106 158.295 90.1066 158.295C90.1078 158.296 90.1091 158.296 90.1106 158.297C90.1137 158.297 90.1174 158.299 90.1218 158.3C90.1307 158.302 90.1424 158.305 90.157 158.309C90.1863 158.317 90.227 158.328 90.2795 158.341C90.3845 158.367 90.5366 158.402 90.7384 158.444C91.1419 158.527 91.7436 158.635 92.5625 158.743C94.2003 158.957 96.7072 159.168 100.235 159.168C107.291 159.168 118.435 158.325 134.89 154.977L134.491 153.018ZM178.999 147.04C179.323 146.094 179.322 146.093 179.322 146.093C179.321 146.093 179.32 146.093 179.32 146.093C179.319 146.092 179.317 146.092 179.316 146.091C179.313 146.09 179.309 146.089 179.304 146.087C179.295 146.084 179.283 146.08 179.268 146.076C179.239 146.066 179.198 146.053 179.145 146.038C179.039 146.007 178.886 145.964 178.683 145.913C178.278 145.812 177.674 145.678 176.853 145.541C175.211 145.268 172.7 144.98 169.167 144.903C162.104 144.75 150.951 145.442 134.491 148.791L134.89 150.751C151.232 147.426 162.234 146.753 169.124 146.902C172.568 146.977 174.984 147.257 176.524 147.514C177.294 147.643 177.846 147.765 178.198 147.853C178.374 147.897 178.5 147.933 178.578 147.956C178.618 147.968 178.645 147.976 178.661 147.981C178.669 147.984 178.674 147.985 178.676 147.986C178.678 147.987 178.678 147.987 178.678 147.987C178.678 147.987 178.677 147.986 178.677 147.986C178.676 147.986 178.676 147.986 178.676 147.986C178.675 147.986 178.675 147.986 178.999 147.04ZM134.491 148.791C118.143 152.117 107.133 152.942 100.235 152.942C96.7867 152.942 94.367 152.736 92.8224 152.533C92.0502 152.432 91.4968 152.332 91.1429 152.259C90.966 152.222 90.8389 152.192 90.7594 152.173C90.7196 152.163 90.6917 152.156 90.6754 152.151C90.6672 152.149 90.6619 152.148 90.6595 152.147C90.6583 152.147 90.6578 152.146 90.658 152.146C90.6581 152.146 90.6584 152.147 90.6588 152.147C90.6591 152.147 90.6595 152.147 90.6597 152.147C90.6602 152.147 90.6607 152.147 90.3822 153.108C90.1037 154.068 90.1043 154.068 90.105 154.068C90.1053 154.069 90.106 154.069 90.1066 154.069C90.1078 154.069 90.1091 154.07 90.1106 154.07C90.1137 154.071 90.1174 154.072 90.1218 154.073C90.1307 154.076 90.1424 154.079 90.157 154.083C90.1863 154.091 90.227 154.101 90.2795 154.114C90.3845 154.14 90.5366 154.176 90.7384 154.217C91.1419 154.301 91.7436 154.409 92.5625 154.516C94.2003 154.731 96.7072 154.942 100.235 154.942C107.291 154.942 118.435 154.098 134.89 150.751L134.491 148.791ZM178.999 142.591C179.323 141.645 179.322 141.644 179.322 141.644C179.321 141.644 179.32 141.644 179.32 141.644C179.319 141.643 179.317 141.643 179.316 141.642C179.313 141.641 179.309 141.64 179.304 141.638C179.295 141.635 179.283 141.631 179.268 141.627C179.239 141.617 179.198 141.604 179.145 141.589C179.039 141.558 178.886 141.515 178.683 141.464C178.278 141.363 177.674 141.229 176.853 141.092C175.211 140.819 172.7 140.531 169.167 140.454C162.104 140.301 150.951 140.993 134.491 144.342L134.89 146.302C151.232 142.977 162.234 142.304 169.124 142.453C172.568 142.528 174.984 142.808 176.524 143.065C177.294 143.194 177.846 143.316 178.198 143.404C178.374 143.448 178.5 143.484 178.578 143.507C178.618 143.519 178.645 143.527 178.661 143.532C178.669 143.535 178.674 143.536 178.676 143.537C178.678 143.538 178.678 143.538 178.678 143.538C178.678 143.538 178.677 143.537 178.677 143.537C178.676 143.537 178.676 143.537 178.676 143.537C178.675 143.537 178.675 143.537 178.999 142.591ZM134.491 144.342C118.143 147.668 107.133 148.493 100.235 148.493C96.7867 148.493 94.367 148.287 92.8224 148.084C92.0502 147.983 91.4968 147.883 91.1429 147.81C90.966 147.773 90.8389 147.743 90.7594 147.724C90.7196 147.714 90.6917 147.707 90.6754 147.702C90.6672 147.7 90.6619 147.699 90.6595 147.698C90.6583 147.698 90.6578 147.697 90.658 147.697C90.6581 147.697 90.6584 147.698 90.6588 147.698C90.6591 147.698 90.6595 147.698 90.6597 147.698C90.6602 147.698 90.6607 147.698 90.3822 148.659C90.1037 149.619 90.1043 149.619 90.105 149.619C90.1053 149.62 90.106 149.62 90.1066 149.62C90.1078 149.62 90.1091 149.621 90.1106 149.621C90.1137 149.622 90.1174 149.623 90.1218 149.624C90.1307 149.627 90.1425 149.63 90.1571 149.634C90.1863 149.642 90.227 149.652 90.2795 149.665C90.3845 149.691 90.5366 149.727 90.7384 149.768C91.1419 149.852 91.7436 149.96 92.5625 150.067C94.2003 150.282 96.7072 150.493 100.235 150.493C107.291 150.493 118.435 149.649 134.89 146.302L134.491 144.342ZM178.999 138.142C179.323 137.196 179.322 137.195 179.322 137.195C179.321 137.195 179.32 137.195 179.32 137.195C179.319 137.194 179.317 137.194 179.316 137.193C179.313 137.192 179.309 137.191 179.304 137.189C179.295 137.186 179.283 137.182 179.268 137.178C179.239 137.168 179.198 137.155 179.145 137.14C179.039 137.109 178.886 137.066 178.683 137.015C178.278 136.914 177.674 136.78 176.853 136.643C175.211 136.37 172.7 136.082 169.167 136.005C162.104 135.852 150.951 136.544 134.491 139.893L134.89 141.853C151.232 138.528 162.234 137.855 169.124 138.004C172.568 138.079 174.984 138.359 176.524 138.616C177.294 138.745 177.846 138.867 178.198 138.955C178.374 138.999 178.5 139.035 178.578 139.058C178.618 139.07 178.645 139.078 178.661 139.083C178.669 139.086 178.674 139.087 178.676 139.088C178.678 139.089 178.678 139.089 178.678 139.089C178.678 139.089 178.677 139.088 178.677 139.088C178.676 139.088 178.676 139.088 178.676 139.088C178.675 139.088 178.675 139.088 178.999 138.142ZM134.491 139.893C118.143 143.219 107.133 144.044 100.235 144.044C96.7867 144.044 94.367 143.838 92.8224 143.635C92.0502 143.534 91.4968 143.434 91.1429 143.361C90.966 143.324 90.8389 143.294 90.7594 143.275C90.7196 143.265 90.6917 143.258 90.6754 143.253C90.6672 143.251 90.6619 143.25 90.6595 143.249C90.6583 143.249 90.6578 143.248 90.658 143.248C90.6581 143.248 90.6584 143.249 90.6588 143.249C90.6591 143.249 90.6595 143.249 90.6597 143.249C90.6602 143.249 90.6607 143.249 90.3822 144.21C90.1037 145.17 90.1043 145.17 90.105 145.17C90.1053 145.171 90.106 145.171 90.1066 145.171C90.1078 145.171 90.1091 145.172 90.1106 145.172C90.1137 145.173 90.1174 145.174 90.1218 145.175C90.1307 145.178 90.1424 145.181 90.157 145.185C90.1863 145.193 90.227 145.203 90.2795 145.216C90.3845 145.242 90.5366 145.278 90.7384 145.319C91.1419 145.403 91.7436 145.511 92.5625 145.618C94.2003 145.833 96.7072 146.044 100.235 146.044C107.291 146.044 118.435 145.2 134.89 141.853L134.491 139.893ZM178.999 133.693C179.323 132.747 179.322 132.746 179.322 132.746C179.321 132.746 179.32 132.746 179.32 132.746C179.319 132.745 179.317 132.745 179.316 132.744C179.313 132.743 179.309 132.742 179.304 132.74C179.295 132.737 179.283 132.733 179.268 132.729C179.239 132.719 179.198 132.706 179.145 132.691C179.039 132.66 178.886 132.617 178.683 132.566C178.278 132.465 177.674 132.331 176.853 132.194C175.211 131.921 172.7 131.633 169.167 131.556C162.104 131.403 150.951 132.095 134.491 135.444L134.89 137.404C151.232 134.079 162.234 133.406 169.124 133.555C172.568 133.63 174.984 133.91 176.524 134.167C177.294 134.296 177.846 134.418 178.198 134.506C178.374 134.55 178.5 134.586 178.578 134.609C178.618 134.621 178.645 134.629 178.661 134.634C178.669 134.637 178.674 134.638 178.676 134.639C178.678 134.64 178.678 134.64 178.678 134.64C178.678 134.64 178.677 134.639 178.677 134.639C178.676 134.639 178.676 134.639 178.676 134.639C178.675 134.639 178.675 134.639 178.999 133.693ZM134.491 135.444C118.143 138.77 107.133 139.595 100.235 139.595C96.7867 139.595 94.367 139.389 92.8224 139.186C92.0502 139.085 91.4968 138.985 91.1429 138.912C90.966 138.875 90.8389 138.845 90.7594 138.826C90.7196 138.816 90.6917 138.809 90.6754 138.804C90.6672 138.802 90.6619 138.801 90.6595 138.8C90.6583 138.8 90.6578 138.799 90.658 138.799C90.6581 138.799 90.6584 138.8 90.6588 138.8C90.6591 138.8 90.6595 138.8 90.6597 138.8C90.6602 138.8 90.6607 138.8 90.3822 139.761C90.1037 140.721 90.1043 140.721 90.105 140.721C90.1053 140.722 90.106 140.722 90.1066 140.722C90.1078 140.722 90.1091 140.723 90.1106 140.723C90.1137 140.724 90.1174 140.725 90.1218 140.726C90.1307 140.729 90.1424 140.732 90.1571 140.736C90.1863 140.744 90.227 140.754 90.2795 140.767C90.3845 140.793 90.5366 140.829 90.7384 140.87C91.1419 140.954 91.7436 141.062 92.5625 141.169C94.2003 141.384 96.7072 141.595 100.235 141.595C107.291 141.595 118.435 140.751 134.89 137.404L134.491 135.444ZM178.999 130.133C179.323 129.187 179.322 129.187 179.322 129.187C179.321 129.187 179.32 129.187 179.32 129.186C179.319 129.186 179.317 129.185 179.316 129.185C179.313 129.184 179.309 129.183 179.304 129.181C179.295 129.178 179.283 129.174 179.268 129.169C179.239 129.16 179.198 129.147 179.145 129.132C179.039 129.1 178.886 129.058 178.683 129.007C178.278 128.905 177.674 128.772 176.853 128.635C175.211 128.362 172.7 128.073 169.167 127.997C162.104 127.843 150.951 128.536 134.491 131.885L134.89 133.845C151.232 130.52 162.234 129.847 169.124 129.996C172.568 130.071 174.984 130.351 176.524 130.608C177.294 130.736 177.846 130.859 178.198 130.947C178.374 130.991 178.5 131.027 178.578 131.05C178.618 131.061 178.645 131.07 178.661 131.075C178.669 131.078 178.674 131.079 178.676 131.08C178.678 131.08 178.678 131.081 178.678 131.08C178.678 131.08 178.677 131.08 178.677 131.08C178.676 131.08 178.676 131.08 178.676 131.08C178.675 131.08 178.675 131.079 178.999 130.133ZM134.491 131.885C118.143 135.211 107.133 136.036 100.235 136.036C96.7867 136.036 94.367 135.829 92.8224 135.627C92.0502 135.526 91.4968 135.426 91.1429 135.352C90.966 135.316 90.8389 135.286 90.7594 135.267C90.7196 135.257 90.6917 135.249 90.6754 135.245C90.6672 135.243 90.6619 135.241 90.6595 135.241C90.6583 135.24 90.6578 135.24 90.658 135.24C90.6581 135.24 90.6584 135.24 90.6588 135.24C90.6591 135.241 90.6595 135.241 90.6597 135.241C90.6602 135.241 90.6607 135.241 90.3822 136.201C90.1037 137.162 90.1043 137.162 90.105 137.162C90.1053 137.162 90.106 137.163 90.1066 137.163C90.1078 137.163 90.1091 137.163 90.1106 137.164C90.1137 137.165 90.1174 137.166 90.1218 137.167C90.1307 137.17 90.1424 137.173 90.157 137.177C90.1863 137.185 90.227 137.195 90.2795 137.208C90.3845 137.234 90.5366 137.269 90.7384 137.311C91.1419 137.394 91.7436 137.503 92.5625 137.61C94.2003 137.825 96.7072 138.036 100.235 138.036C107.291 138.036 118.435 137.192 134.89 133.845L134.491 131.885ZM178.999 126.574C179.323 125.628 179.322 125.628 179.322 125.628C179.321 125.628 179.32 125.627 179.32 125.627C179.319 125.627 179.317 125.626 179.316 125.626C179.313 125.625 179.309 125.623 179.304 125.622C179.295 125.619 179.283 125.615 179.268 125.61C179.239 125.601 179.198 125.588 179.145 125.572C179.039 125.541 178.886 125.498 178.683 125.448C178.278 125.346 177.674 125.213 176.853 125.076C175.211 124.802 172.7 124.514 169.167 124.438C162.104 124.284 150.951 124.977 134.491 128.326L134.89 130.285C151.232 126.961 162.234 126.288 169.124 126.437C172.568 126.512 174.984 126.792 176.524 127.049C177.294 127.177 177.846 127.3 178.198 127.388C178.374 127.432 178.5 127.467 178.578 127.491C178.618 127.502 178.645 127.511 178.661 127.516C178.669 127.518 178.674 127.52 178.676 127.521C178.678 127.521 178.678 127.521 178.678 127.521C178.678 127.521 178.677 127.521 178.677 127.521C178.676 127.521 178.676 127.521 178.676 127.521C178.675 127.52 178.675 127.52 178.999 126.574ZM134.491 128.326C118.143 131.652 107.133 132.476 100.235 132.476C96.7867 132.476 94.367 132.27 92.8224 132.068C92.0502 131.967 91.4968 131.866 91.1429 131.793C90.966 131.757 90.8389 131.727 90.7594 131.707C90.7196 131.698 90.6917 131.69 90.6754 131.686C90.6672 131.684 90.6619 131.682 90.6595 131.681C90.6583 131.681 90.6578 131.681 90.658 131.681C90.6581 131.681 90.6584 131.681 90.6588 131.681C90.6591 131.681 90.6595 131.681 90.6597 131.682C90.6602 131.682 90.6607 131.682 90.3822 132.642C90.1037 133.603 90.1043 133.603 90.105 133.603C90.1053 133.603 90.106 133.603 90.1066 133.604C90.1078 133.604 90.1091 133.604 90.1106 133.605C90.1137 133.606 90.1174 133.607 90.1218 133.608C90.1307 133.61 90.1424 133.614 90.157 133.617C90.1863 133.625 90.227 133.636 90.2795 133.649C90.3845 133.675 90.5366 133.71 90.7384 133.752C91.1419 133.835 91.7436 133.944 92.5625 134.051C94.2003 134.266 96.7072 134.476 100.235 134.476C107.291 134.476 118.435 133.633 134.89 130.285L134.491 128.326ZM178.999 122.793C179.323 121.847 179.322 121.846 179.322 121.846C179.321 121.846 179.32 121.846 179.32 121.845C179.319 121.845 179.317 121.845 179.316 121.844C179.313 121.843 179.309 121.842 179.304 121.84C179.295 121.837 179.283 121.833 179.268 121.829C179.239 121.819 179.198 121.806 179.145 121.791C179.039 121.76 178.886 121.717 178.683 121.666C178.278 121.565 177.674 121.431 176.853 121.294C175.211 121.021 172.7 120.732 169.167 120.656C162.104 120.503 150.951 121.195 134.491 124.544L134.89 126.504C151.232 123.179 162.234 122.506 169.124 122.655C172.568 122.73 174.984 123.01 176.524 123.267C177.294 123.396 177.846 123.518 178.198 123.606C178.374 123.65 178.5 123.686 178.578 123.709C178.618 123.721 178.645 123.729 178.661 123.734C178.669 123.737 178.674 123.738 178.676 123.739C178.678 123.74 178.678 123.74 178.678 123.74C178.678 123.74 178.677 123.739 178.677 123.739C178.676 123.739 178.676 123.739 178.676 123.739C178.675 123.739 178.675 123.739 178.999 122.793ZM134.491 124.544C118.143 127.87 107.133 128.695 100.235 128.695C96.7867 128.695 94.367 128.489 92.8224 128.286C92.0502 128.185 91.4968 128.085 91.1429 128.012C90.966 127.975 90.8389 127.945 90.7594 127.926C90.7196 127.916 90.6917 127.909 90.6754 127.904C90.6672 127.902 90.6619 127.901 90.6595 127.9C90.6583 127.899 90.6578 127.899 90.658 127.899C90.6581 127.899 90.6584 127.9 90.6588 127.9C90.6591 127.9 90.6595 127.9 90.6597 127.9C90.6602 127.9 90.6607 127.9 90.3822 128.861C90.1037 129.821 90.1043 129.821 90.105 129.821C90.1053 129.822 90.106 129.822 90.1066 129.822C90.1078 129.822 90.1091 129.823 90.1106 129.823C90.1137 129.824 90.1174 129.825 90.1218 129.826C90.1307 129.829 90.1424 129.832 90.157 129.836C90.1863 129.844 90.227 129.854 90.2795 129.867C90.3845 129.893 90.5366 129.929 90.7384 129.97C91.1419 130.054 91.7436 130.162 92.5625 130.269C94.2003 130.484 96.7072 130.695 100.235 130.695C107.291 130.695 118.435 129.851 134.89 126.504L134.491 124.544ZM133.691 121.075V149.771H135.691V121.075H133.691ZM89.3822 125.746V148.659H91.3822V125.746H89.3822ZM133.691 145.322V149.771H135.691V145.322H133.691ZM89.3822 153.108V177.791H91.3822V153.108H89.3822ZM135.691 145.322V140.873H133.691V145.322H135.691ZM91.3822 144.21V125.746H89.3822V144.21H91.3822ZM89.3822 125.746V139.761H91.3822V125.746H89.3822ZM133.691 136.424V140.873H135.691V136.424H133.691ZM135.691 136.424V132.865H133.691V136.424H135.691ZM91.3822 136.201V125.746H89.3822V136.201H91.3822ZM89.3822 125.746V132.642H91.3822V125.746H89.3822ZM133.691 129.306V132.865H135.691V129.306H133.691ZM135.691 129.306V125.524H133.691V129.306H135.691ZM133.691 121.075V125.524H135.691V121.075H133.691ZM177.999 119.108V168.84H179.999V119.108H177.999ZM91.3822 174.908V153.108H89.3822V174.908H91.3822ZM89.3822 153.108V170.236H91.3822V153.108H89.3822ZM179.999 164.168V119.108H177.999V164.168H179.999ZM177.999 119.108V159.719H179.999V119.108H177.999ZM91.3822 165.787V153.108H89.3822V165.787H91.3822ZM89.3822 153.108V161.783H91.3822V153.108H89.3822ZM179.999 155.715V119.108H177.999V155.715H179.999ZM177.999 119.108V151.266H179.999V119.108H177.999ZM179.999 147.04V119.108H177.999V147.04H179.999ZM177.999 119.108V142.591H179.999V119.108H177.999ZM179.999 138.142V119.108H177.999V138.142H179.999ZM177.999 119.108V133.693H179.999V119.108H177.999ZM179.999 130.133V119.108H177.999V130.133H179.999ZM177.999 119.108V126.574H179.999V119.108H177.999ZM134.491 176.094C126.561 177.707 120.258 179.239 114.761 179.866L114.987 181.853C120.6 181.213 127.075 179.644 134.89 178.054L134.491 176.094ZM178.999 119.108H176.999H178.999ZM114.874 180.859L114.933 182.858L114.951 182.858L114.969 182.857L114.874 180.859ZM92.3822 125.746C92.3822 125.41 92.4567 125.635 92.1961 125.866C92.0322 126.011 92.0027 125.903 92.6179 125.852C93.1887 125.804 93.9986 125.825 95.1852 125.893C96.2916 125.957 97.8203 126.07 99.4859 126.159C106.39 126.528 117.641 126.633 135.094 123.034L134.287 119.116C117.223 122.635 106.321 122.518 99.6994 122.164C97.9838 122.073 96.6705 121.973 95.416 121.9C94.2417 121.832 93.1716 121.792 92.2851 121.866C91.443 121.936 90.3789 122.133 89.5446 122.871C88.6137 123.695 88.3822 124.803 88.3822 125.746H92.3822ZM135.094 123.034C152.29 119.487 163.206 118.43 169.759 118.526C173.052 118.575 175.122 118.914 176.299 119.305C176.893 119.502 177.139 119.673 177.201 119.727C177.247 119.767 176.999 119.562 176.999 119.108H180.999C180.999 118.058 180.445 117.244 179.82 116.703C179.212 116.177 178.424 115.796 177.56 115.509C175.822 114.932 173.287 114.578 169.818 114.527C162.846 114.424 151.607 115.544 134.287 119.116L135.094 123.034ZM88.3822 148.659V153.108H92.3822V148.659H88.3822ZM88.3822 144.21V148.659H92.3822V144.21H88.3822ZM88.3822 139.761V144.21H92.3822V139.761H88.3822ZM88.3822 136.201V139.761H92.3822V136.201H88.3822ZM88.3822 132.642V136.201H92.3822V132.642H88.3822ZM92.3822 128.861V125.746H88.3822V128.861H92.3822ZM88.3822 128.861V132.642H92.3822V128.861H88.3822ZM180.999 175.515V168.84H176.999V175.515H180.999ZM88.3822 174.908V177.791H92.3822V174.908H88.3822ZM180.999 168.84V164.168H176.999V168.84H180.999ZM88.3822 170.236V174.908H92.3822V170.236H88.3822ZM180.999 164.168V159.719H176.999V164.168H180.999ZM88.3822 165.787V170.236H92.3822V165.787H88.3822ZM180.999 159.719V155.715H176.999V159.719H180.999ZM88.3822 161.783V165.787H92.3822V161.783H88.3822ZM92.3822 157.334V153.108H88.3822V157.334H92.3822ZM180.999 155.715V151.266H176.999V155.715H180.999ZM88.3822 157.334V161.783H92.3822V157.334H88.3822ZM180.999 151.266V147.04H176.999V151.266H180.999ZM180.999 147.04V142.591H176.999V147.04H180.999ZM180.999 142.591V138.142H176.999V142.591H180.999ZM180.999 138.142V133.693H176.999V138.142H180.999ZM180.999 133.693V130.133H176.999V133.693H180.999ZM180.999 130.133V126.574H176.999V130.133H180.999ZM180.999 122.793V119.108H176.999V122.793H180.999ZM180.999 126.574V122.793H176.999V126.574H180.999ZM114.816 178.86C108.676 179.04 104.066 179.259 100.63 179.404C97.1449 179.552 94.9775 179.618 93.5848 179.519C92.0628 179.412 92.2426 179.138 92.4375 179.435C92.4981 179.528 92.4523 179.528 92.4189 179.212C92.3846 178.888 92.3822 178.467 92.3822 177.791H88.3822C88.3822 178.396 88.3798 179.053 88.4411 179.633C88.5034 180.222 88.649 180.952 89.0923 181.628C90.0525 183.093 91.7631 183.401 93.3026 183.509C94.9714 183.627 97.3961 183.545 100.799 183.401C104.252 183.254 108.827 183.037 114.933 182.858L114.816 178.86ZM176.999 175.515C176.999 174.984 177.422 174.98 176.795 175.307C176.222 175.605 175.216 175.922 173.673 176.21C170.625 176.778 166.109 177.13 160.342 177.386C154.6 177.641 147.735 177.796 140.023 177.995C132.322 178.193 123.799 178.435 114.78 178.861L114.969 182.857C123.943 182.432 132.431 182.192 140.126 181.993C147.812 181.795 154.729 181.639 160.52 181.382C166.286 181.126 171.054 180.767 174.407 180.142C176.064 179.832 177.537 179.43 178.643 178.854C179.696 178.306 180.999 177.27 180.999 175.515H176.999Z" fill="#112450" mask="url(#path-4-outside-1_1306_140)"/>
<path d="M95.2804 127.694L95.7803 129.232H97.398L96.0893 130.183L96.5892 131.722L95.2804 130.771L93.9717 131.722L94.4716 130.183L93.1629 129.232H94.7806L95.2804 127.694Z" fill="white"/>
<path d="M100.179 132.592L100.679 134.131H102.297L100.988 135.082L101.488 136.62L100.179 135.669L98.8702 136.62L99.3701 135.082L98.0614 134.131H99.6791L100.179 132.592Z" fill="white"/>
<path d="M109.53 132.592L110.03 134.131H111.648L110.339 135.082L110.839 136.62L109.53 135.669L108.222 136.62L108.722 135.082L107.413 134.131H109.03L109.53 132.592Z" fill="white"/>
<path d="M117.101 130.811L117.601 132.349H119.218L117.91 133.3L118.409 134.838L117.101 133.888L115.792 134.838L116.292 133.3L114.983 132.349H116.601L117.101 130.811Z" fill="white"/>
<path d="M126.452 129.92L126.952 131.459H128.57L127.261 132.41L127.761 133.948L126.452 132.997L125.143 133.948L125.643 132.41L124.335 131.459H125.952L126.452 129.92Z" fill="white"/>
<path d="M130.46 134.374L130.96 135.912H132.578L131.269 136.863L131.769 138.401L130.46 137.451L129.151 138.401L129.651 136.863L128.342 135.912H129.96L130.46 134.374Z" fill="white"/>
<path d="M121.999 134.819L122.499 136.357H124.117L122.808 137.308L123.308 138.847L121.999 137.896L120.69 138.847L121.19 137.308L119.882 136.357H121.499L121.999 134.819Z" fill="white"/>
<path d="M113.983 137.045L114.483 138.584H116.101L114.792 139.535L115.292 141.073L113.983 140.122L112.675 141.073L113.175 139.535L111.866 138.584H113.484L113.983 137.045Z" fill="white"/>
<path d="M105.077 137.045L105.577 138.584H107.195L105.886 139.535L106.386 141.073L105.077 140.122L103.769 141.073L104.268 139.535L102.96 138.584H104.577L105.077 137.045Z" fill="white"/>
<path d="M95.2804 136.155L95.7803 137.693H97.398L96.0893 138.644L96.5892 140.183L95.2804 139.232L93.9717 140.183L94.4716 138.644L93.1629 137.693H94.7806L95.2804 136.155Z" fill="white"/>
<path d="M100.179 141.499L100.679 143.037H102.297L100.988 143.988L101.488 145.526L100.179 144.576L98.8702 145.526L99.3701 143.988L98.0614 143.037H99.6791L100.179 141.499Z" fill="white"/>
<path d="M109.53 141.944L110.03 143.482H111.648L110.339 144.433L110.839 145.972L109.53 145.021L108.222 145.972L108.722 144.433L107.413 143.482H109.03L109.53 141.944Z" fill="white"/>
<path d="M118.882 140.608L119.382 142.146H120.999L119.691 143.097L120.191 144.636L118.882 143.685L117.573 144.636L118.073 143.097L116.764 142.146H118.382L118.882 140.608Z" fill="white"/>
<path d="M126.007 138.827L126.507 140.366H128.124L126.816 141.317L127.316 142.855L126.007 141.904L124.698 142.855L125.198 141.317L123.889 140.366H125.507L126.007 138.827Z" fill="white"/>
<path d="M130.015 143.28L130.515 144.818H132.132L130.824 145.769L131.323 147.308L130.015 146.357L128.706 147.308L129.206 145.769L127.897 144.818H129.515L130.015 143.28Z" fill="white"/>
<path d="M123.335 144.616L123.835 146.154H125.453L124.144 147.105L124.644 148.644L123.335 147.693L122.026 148.644L122.526 147.105L121.217 146.154H122.835L123.335 144.616Z" fill="white"/>
<path d="M114.429 145.952L114.929 147.49H116.546L115.238 148.441L115.738 149.98L114.429 149.029L113.12 149.98L113.62 148.441L112.311 147.49H113.929L114.429 145.952Z" fill="white"/>
<path d="M104.632 146.842L105.132 148.381H106.75L105.441 149.332L105.941 150.87L104.632 149.919L103.323 150.87L103.823 149.332L102.514 148.381H104.132L104.632 146.842Z" fill="white"/>
<path d="M96.1711 145.952L96.671 147.49H98.2887L96.98 148.441L97.4799 149.98L96.1711 149.029L94.8624 149.98L95.3623 148.441L94.0536 147.49H95.6713L96.1711 145.952Z" fill="white"/>
<path d="M105.077 128.139L105.577 129.678H107.195L105.886 130.629L106.386 132.167L105.077 131.216L103.769 132.167L104.268 130.629L102.96 129.678H104.577L105.077 128.139Z" fill="white"/>
<path d="M112.202 126.804L112.702 128.342H114.32L113.011 129.293L113.511 130.832L112.202 129.881L110.894 130.832L111.393 129.293L110.085 128.342H111.702L112.202 126.804Z" fill="white"/>
<path d="M121.108 125.913L121.608 127.451H123.226L121.917 128.402L122.417 129.94L121.108 128.99L119.8 129.94L120.3 128.402L118.991 127.451H120.609L121.108 125.913Z" fill="white"/>
<path d="M128.679 124.577L129.179 126.115H130.796L129.487 127.066L129.987 128.605L128.679 127.654L127.37 128.605L127.87 127.066L126.561 126.115H128.179L128.679 124.577Z" fill="white"/>
</svg>
