<svg width="220" height="220" viewBox="0 0 220 220" fill="none" xmlns="http://www.w3.org/2000/svg">
  <path d="M110 220C170.751 220 220 170.751 220 110C220 49.2487 170.751 0 110 0C49.2487 0 0 49.2487 0 110C0 170.751 49.2487 220 110 220Z" fill="#2C7DF7"/>
  <path d="M123.331 177C113.785 177 106.827 174.764 102.458 170.15C98.0887 165.536 95.9753 160.708 95.9753 155.38C95.9753 153.501 96.3315 151.837 97.1626 150.528C97.875 149.22 98.9198 148.174 100.226 147.46C101.532 146.747 103.17 146.271 105.07 146.271C106.97 146.271 108.608 146.628 109.914 147.46C111.22 148.174 112.265 149.22 112.977 150.528C113.69 151.837 114.165 153.478 114.165 155.38C114.165 157.735 113.571 159.638 112.503 161.041C111.434 162.468 110.033 163.514 108.489 163.99C109.795 165.75 111.909 167.058 114.735 167.891C117.56 168.723 120.386 169.08 123.236 169.08C127.249 169.08 130.787 168.01 133.969 165.893C137.151 163.776 139.502 160.589 141.045 156.451C142.589 152.312 143.277 147.603 143.277 142.275C143.277 136.496 142.446 131.644 140.808 127.624C139.146 123.486 136.795 120.418 133.613 118.539C130.431 116.541 127.011 115.59 123.236 115.59C120.766 115.59 117.822 116.66 114.165 118.658L107.516 121.845V118.539L137.578 78.3916H95.9753V120.085C95.9753 123.51 96.6877 126.34 98.2074 128.6C99.7509 130.835 102.102 131.906 105.165 131.906C107.635 131.906 109.89 131.073 112.123 129.432C114.355 127.767 116.254 125.769 117.893 123.534C118.13 123.058 118.368 122.701 118.605 122.582C118.961 122.344 119.199 122.226 119.555 122.226C120.149 122.226 120.742 122.463 121.55 123.058C122.262 123.89 122.618 124.818 122.618 125.888C122.618 126.364 122.381 127.077 122.262 128.005C120.6 131.906 118.249 134.855 115.186 136.853C112.123 138.851 108.822 139.921 105.165 139.921C96.094 139.921 89.9438 138.161 86.4056 134.617C82.9862 131.073 81.229 126.221 81.229 120.204V78.3916H60V70.5905H81.3477V52.8714L76.5035 48.0195V44H90.6562L95.9515 46.7114V70.4716L151.019 70.3526L156.433 75.7754L122.737 109.691C124.732 108.859 126.869 108.383 129.101 108.145C132.758 108.145 136.89 109.335 141.354 111.689C145.961 113.925 149.499 117.112 151.968 121.131C154.438 125.151 156.1 128.933 156.813 132.595C157.525 136.258 158 139.445 158 142.394C158 148.887 156.575 154.905 153.868 160.47C151.161 166.012 147.029 170.269 141.378 172.98C135.821 175.692 129.813 177 123.331 177Z" fill="white"/>
</svg>
