<svg width="220" height="220" viewBox="0 0 220 220" fill="none" xmlns="http://www.w3.org/2000/svg">
<g clip-path="url(#clip0_3991_147)">
<path d="M110 220C170.751 220 220 170.751 220 110C220 49.2487 170.751 0 110 0C49.2487 0 0 49.2487 0 110C0 170.751 49.2487 220 110 220Z" fill="#0657F9"/>
<path fill-rule="evenodd" clip-rule="evenodd" d="M64.1101 43.2682L55.4037 52.0623L76.5101 73.5204L97.6164 94.9784V115.03V135.081H109.929H122.241V115.03V94.9784L143.347 73.5204L164.454 52.0623L155.747 43.1806L147.041 34.2988L128.573 53.0308C118.46 63.3204 110.017 71.7627 109.929 71.7627C109.752 71.7627 101.399 63.4081 91.2844 53.1185C81.1711 42.8288 72.9042 34.4742 72.8165 34.4742C72.7288 34.4742 68.7712 38.4318 64.0224 43.2682H64.1101ZM55.052 93.4838C51.9742 98.936 49.1594 108.522 48.3683 116.261C48.0166 120.042 48.1919 128.309 48.72 132.091C54.0845 166.916 86.447 190.661 120.569 184.593C143.082 180.635 161.55 164.542 168.673 142.644C171.048 135.432 171.839 130.596 171.839 122.681C171.839 114.151 170.871 108.522 168.145 100.695C167.178 97.9686 164.803 92.6917 164.452 92.6917C164.364 92.6917 160.055 96.9134 155.042 102.102C146.512 110.808 145.807 111.511 145.984 112.215C146.071 112.654 146.335 113.798 146.512 114.853C147.128 117.843 147.392 121.976 147.215 125.318C146.951 128.924 146.512 131.122 145.457 134.464C142.027 145.369 132.969 154.691 122.064 158.473C117.931 159.88 115.556 160.231 110.192 160.32C104.74 160.32 102.717 160.056 98.4952 158.649C86.9751 154.868 77.6529 145.018 74.3111 133.321C73.2559 129.54 72.9042 127.077 72.9042 122.504C72.9042 118.283 73.0805 117.14 74.1357 112.215C74.2234 111.775 72.2007 109.576 64.9012 102.189L55.5791 92.6917L55.051 93.5715V93.4838H55.052Z" fill="white"/>
</g>
<defs>
<clipPath id="clip0_3991_147">
<rect width="220" height="220" rx="110" fill="white"/>
</clipPath>
</defs>
</svg>
