<svg width="220" height="220" viewBox="0 0 220 220" fill="none" xmlns="http://www.w3.org/2000/svg">
<path d="M110 216.7C168.929 216.7 216.7 168.929 216.7 110C216.7 51.0713 168.929 3.30005 110 3.30005C51.071 3.30005 3.2998 51.0713 3.2998 110C3.2998 168.929 51.071 216.7 110 216.7Z" fill="url(#paint0_linear)"/>
<path d="M156.695 152.515L120.615 65.2849C118.58 60.7749 115.555 58.575 111.568 58.575H108.378C104.39 58.575 101.365 60.7749 99.3302 65.2849L83.6277 103.29H71.7477C68.2002 103.317 65.3127 106.177 65.2852 109.752V109.835C65.3127 113.382 68.2002 116.27 71.7477 116.297H78.1277L63.1402 152.515C62.8652 153.312 62.7002 154.137 62.7002 154.99C62.7002 157.025 63.3327 158.62 64.4602 159.857C65.5877 161.095 67.2102 161.7 69.2452 161.7C70.5927 161.672 71.8852 161.26 72.9577 160.462C74.1127 159.665 74.9102 158.51 75.5427 157.19L92.0427 116.27H103.483C107.03 116.242 109.918 113.382 109.945 109.807V109.642C109.918 106.095 107.03 103.207 103.483 103.18H97.3777L109.973 71.8025L144.293 157.162C144.925 158.482 145.723 159.637 146.878 160.435C147.95 161.232 149.27 161.645 150.59 161.672C152.625 161.672 154.22 161.067 155.375 159.83C156.53 158.592 157.135 156.997 157.135 154.962C157.163 154.137 157.025 153.285 156.695 152.515Z" fill="white"/>
<defs>
<linearGradient id="paint0_linear" x1="189.554" y1="43.0613" x2="30.7842" y2="176.65" gradientUnits="userSpaceOnUse">
<stop stop-color="#B6509E"/>
<stop offset="1" stop-color="#2EBAC6"/>
</linearGradient>
</defs>
</svg>