<svg id="Layer_1" data-name="Layer 1" xmlns="http://www.w3.org/2000/svg" viewBox="0 0 220 220">
  <defs>
    <style>
      .cls-1 {
        fill: #43a047;
      }

      .cls-2 {
        fill: #fff;
        fill-rule: evenodd;
      }

    </style>
  </defs>
  <path class="cls-1" d="M220.47,110a110,110,0,1,1-110-110A110,110,0,0,1,220.47,110Z" />
  <path class="cls-2"
    d="M78.56,50.23,103.84,57l5.66-21.07,12.64,3.43L116.7,59.55,127,62.32l5.43-20.4,12.86,3.43-5.54,20.52s21,4.65,25.95,21.73S154.85,113.66,150,114c0,0,18.41,10.09,12.09,29.94s-25.73,23.4-46.13,18.85l-5.55,21.29-12.86-3.43,5.66-21L93,156.91,87.32,178l-12.75-3.43,5.65-21-25.95-7,6.55-14.52s7.31,2,10.09,2.66,4.54-2.22,5.32-5.1S88.76,79,89.87,75.07s.66-7-4-8.21-11-3.1-11-3.1Zm25.5,63.21-7,27.83s34.7,12.53,39.14-5.1S104.06,113.44,104.06,113.44Zm3.22-13.2,6.87-25.5s29.72,5.32,26.06,19.51S119,103,107.28,100.24Z" />
</svg>
