<svg id="Layer_1" data-name="Layer 1" xmlns="http://www.w3.org/2000/svg" viewBox="0 0 220 220">
  <defs>
    <style>
      .cls-1 {
        fill: #f7931a;
      }

      .cls-2 {
        fill: #fff;
        fill-rule: evenodd;
      }

    </style>
  </defs>
  <path class="cls-1" d="M220,110A110,110,0,1,1,110,0,110,110,0,0,1,220,110Z" />
  <path class="cls-2"
    d="M78.18,50.23,103.46,57l5.65-21.06,12.64,3.43-5.43,20.19,10.31,2.77,5.44-20.41,12.86,3.44-5.54,20.52s21,4.65,25.94,21.73S154.47,113.66,149.59,114c0,0,18.4,10.09,12.08,29.94s-25.72,23.4-46.13,18.85L110,184.07l-12.86-3.44,5.65-20.95-10.2-2.78L86.94,178l-12.76-3.43,5.66-21-25.95-7,6.54-14.52s7.32,2,10.09,2.66,4.55-2.22,5.33-5.1S88.38,79,89.49,75.07s.66-7-4-8.21-11-3.1-11-3.1Zm25.5,63.21-7,27.83s34.71,12.53,39.15-5.1S103.68,113.44,103.68,113.44Zm3.22-13.2,6.87-25.5s29.72,5.32,26.06,19.51S118.65,103,106.9,100.24Z" />
</svg>
