<svg id="Layer_1" data-name="Layer 1" xmlns="http://www.w3.org/2000/svg" viewBox="0 0 220 220"><defs><style>.cls-1{fill:#0983cb;}.cls-2{fill:#74c048;}.cls-3{fill:#529d27;}</style></defs><path class="cls-1" d="M63.6,209.13a6.64,6.64,0,0,1-1.32-.13,6.91,6.91,0,0,1-5.48-8.09A195.7,195.7,0,0,1,78,142c9.32-16.6,18.68-27.26,27.73-37.57,9.26-10.55,18-20.51,26.4-36.48a163.26,163.26,0,0,0,16.62-50.74,6.91,6.91,0,1,1,13.66,2.14,177.32,177.32,0,0,1-18,55c-9.15,17.42-18.86,28.48-28.25,39.18-9,10.22-17.46,19.88-26.06,35.2a181.65,181.65,0,0,0-19.68,54.81A6.92,6.92,0,0,1,63.6,209.13Z"/><path class="cls-2" d="M91.72,95.06a6.93,6.93,0,0,1-5.66-2.92A159.69,159.69,0,0,1,75.18,74.33a177.32,177.32,0,0,1-18-55A6.91,6.91,0,1,1,70.8,17.16,163.26,163.26,0,0,0,87.42,67.9a143.14,143.14,0,0,0,9.94,16.26,6.91,6.91,0,0,1-5.64,10.9Z"/><path class="cls-3" d="M98.05,103.45a6.91,6.91,0,0,1-5.39-2.59c-2.39-3-4.55-5.83-6.6-8.72a6.92,6.92,0,0,1,11.3-8c1.88,2.66,3.86,5.29,6.08,8a6.91,6.91,0,0,1-1.06,9.72A6.84,6.84,0,0,1,98.05,103.45Z"/><path class="cls-2" d="M156,209.13a6.91,6.91,0,0,1-6.78-5.61,181.92,181.92,0,0,0-19.68-54.81c-2.61-4.65-5.32-9-8.29-13.23a6.91,6.91,0,1,1,11.33-7.92,167.62,167.62,0,0,1,9,14.39,195.45,195.45,0,0,1,21.21,59,6.91,6.91,0,0,1-5.49,8.09A6.54,6.54,0,0,1,156,209.13Z"/><path class="cls-3" d="M126.87,138.44a6.9,6.9,0,0,1-5.68-3c-1.57-2.25-3.14-4.37-4.71-6.41a6.92,6.92,0,0,1,11-8.45c1.7,2.21,3.41,4.52,5.11,7a6.93,6.93,0,0,1-5.67,10.87Z"/><path class="cls-1" d="M137.9,189.34H82.1a3.46,3.46,0,0,1,0-6.91h55.8a3.46,3.46,0,0,1,0,6.91Z"/><path class="cls-1" d="M133,174.62H86.54a3.46,3.46,0,0,1,0-6.91H133a3.46,3.46,0,1,1,0,6.91Z"/><path class="cls-1" d="M126,159.9H93A3.46,3.46,0,1,1,93,153h33a3.46,3.46,0,1,1,0,6.91Z"/><path class="cls-1" d="M116.83,145.18H102.38a3.46,3.46,0,1,1,0-6.92h14.45a3.46,3.46,0,0,1,0,6.92Z"/><path class="cls-1" d="M137.9,32.58H82.1a3.46,3.46,0,0,1,0-6.91h55.8a3.46,3.46,0,0,1,0,6.91Z"/><path class="cls-1" d="M133,47.3H86.54a3.46,3.46,0,0,1,0-6.91H133a3.46,3.46,0,1,1,0,6.91Z"/><path class="cls-1" d="M126,62H93a3.46,3.46,0,1,1,0-6.91h33A3.46,3.46,0,1,1,126,62Z"/><path class="cls-1" d="M116.83,76.74H102.38a3.46,3.46,0,1,1,0-6.91h14.45a3.46,3.46,0,0,1,0,6.91Z"/><path class="cls-1" d="M110,220A110,110,0,1,1,220,110,110.12,110.12,0,0,1,110,220Zm0-206.17A96.17,96.17,0,1,0,206.17,110,96.28,96.28,0,0,0,110,13.83Z"/></svg>