<svg id="Layer_1" data-name="Layer 1" xmlns="http://www.w3.org/2000/svg" viewBox="0 0 220 220">
  <defs>
    <style>
      .cls-1 {
        fill: #039;
      }

      .cls-2 {
        fill: #fff;
      }

    </style>
  </defs>
  <path class="cls-1" d="M220,110A110,110,0,1,1,110,0,110,110,0,0,1,220,110Z" />
  <path class="cls-2"
    d="M119.61,67.33a23.51,23.51,0,0,0-9.62,2A24.32,24.32,0,0,0,102,75a33.81,33.81,0,0,0-6.09,9.1,53.6,53.6,0,0,0-3.84,12.18h32.49v10.3H91c0,.76,0,1.48-.07,2.18s-.08,1.23-.08,1.88v4.67q0,1.5.15,3.15h29v10.31H92.39q2.56,13.15,9.48,20.07t18.19,6.92a46,46,0,0,0,10.68-1.2,54.84,54.84,0,0,0,9.55-3.16v12.18a44.41,44.41,0,0,1-9.47,3.23A50.25,50.25,0,0,1,119,168a41.73,41.73,0,0,1-15.49-2.71,36.26,36.26,0,0,1-12-7.82,42.85,42.85,0,0,1-8.35-12.33,67.22,67.22,0,0,1-4.89-16.39H66V118.46H77.13q-.15-1.72-.15-2.85V112.3c0-1.1,0-2.23.07-3.38s.08-1.93.08-2.34H66V96.28H78a66.07,66.07,0,0,1,4.66-17,45.64,45.64,0,0,1,8.35-13,35.43,35.43,0,0,1,12-8.35A39.42,39.42,0,0,1,118.56,55a50.27,50.27,0,0,1,13.31,1.65,44,44,0,0,1,12,5.27l-6,11A43.53,43.53,0,0,0,129.46,69,27.81,27.81,0,0,0,119.61,67.33Z" />
</svg>
