<svg width="220" height="220" viewBox="0 0 220 220" fill="none" xmlns="http://www.w3.org/2000/svg">
<path d="M110 220C170.751 220 220 170.751 220 110C220 49.2487 170.751 0 110 0C49.2487 0 0 49.2487 0 110C0 170.751 49.2487 220 110 220Z" fill="#172852"/>
<path d="M88.6049 49.1593C101.486 44.3413 115.984 44.3303 129.107 48.2903C146.19 53.5923 160.611 66.4844 168.146 82.6654C170.225 87.2744 172.216 92.0814 172.414 97.2074C162.811 91.6414 152.284 88.0334 141.735 84.7444C124.861 78.6614 107.195 74.4374 91.2229 66.0774C87.5049 63.8553 82.7639 61.5783 81.7519 56.9473C81.3449 52.9433 85.5799 50.7103 88.6049 49.1593Z" fill="#FFD83D"/>
<path d="M49.7194 88.1C53.4484 77.98 59.5644 68.586 67.8694 61.623C69.9814 78.992 77.3734 95.778 89.5834 108.406C104.224 123.619 125.08 132.958 146.299 132.606C154.725 132.87 162.964 130.923 171.181 129.35C163.096 158.566 131.075 177.959 101.408 173.295C83.5004 171.007 66.9674 160.403 56.9904 145.432C45.7374 128.888 42.8994 106.921 49.7194 88.1Z" fill="#FFD83D"/>
<path d="M141.734 84.7441C152.283 88.0331 162.81 91.6411 172.413 97.2071L173.062 97.5481C173.953 104.247 174.602 111.078 173.414 117.788C168.585 115.742 164.669 112.145 160.577 108.966C152.701 102.41 144.66 94.9081 141.734 84.7441Z" fill="#FF6F03"/>
</svg>