<svg id="Layer_1" data-name="Layer 1" xmlns="http://www.w3.org/2000/svg" viewBox="0 0 220 220">
  <defs>
    <style>
      .cls-1 {
        fill: #fff;
      }

      .cls-2 {
        fill: #1a53f0;
      }

    </style>
  </defs>
  <circle class="cls-1" cx="110" cy="110" r="110" />
  <circle class="cls-2" cx="110" cy="110" r="110" />
  <path class="cls-1"
    d="M136.62,78c-.62,0-1.18-.16-1.69-.16-8.87,0-17.75,0-26.62-.06-1.86,0-2.48.56-2.48,2.41.06,10.28.12,20.56,0,30.79,0,2,.79,2.53,2.65,2.53,9.88,0,19.77.16,29.65,0,2.76-.06,3.71,1,3.71,3.48v15.95c0,3.15-2.64,1.46-4.1,2.42-.11,1-.28,2.13-.45,3.65H86c-2.64,0-5.23.28-4.1-3.82-1.41-.17-2.36-.28-3.66-.4V80.65c1.24-.17,2.42-.28,3.77-.45V64.64H66.4v15.5a7.06,7.06,0,0,0,1.86.29c1.4-.06,2,.44,2,2-.06,7.08,0,14.21-.11,21.29,0,.68-1,1.91-1.58,1.91-11.57.06-23.14,0-34.71-.06a2.07,2.07,0,0,1-.73-.33c.22-36.57,34.38-72,72.74-72.3v3.54c0,9.72.11,19.44,0,29.1,0,2.47.79,3.2,3.2,3.2q12.3-.17,24.66,0c2.14,0,3.43-.39,3.15-2.86-.23-1.91.9-2.36,2.58-2.31,4.1.12,8.2.23,12.3.23,1.91,0,2.64.67,2.59,2.64-.11,4.77-.11,9.55,0,14.27,0,2-.84,2.3-2.53,2.24-4-.11-8-.17-12,0-2.47.12-3.48-.73-3-3.2A5.4,5.4,0,0,0,136.62,78Z" />
  <path class="cls-1"
    d="M137.4,146.65c.12,1.46.17,2.64.28,4h15.56V135c-4.26.9-3.81-2-3.76-4.66.06-4.78.06-9.55,0-14.27,0-1.8.51-2.53,2.36-2.53,10.9.06,21.85.06,32.75,0,3.31,0,2.3,2.36,2.13,3.93a74.19,74.19,0,0,1-10.44,31.24c-13.26,21.57-32.53,34-57.58,37.63-.45.06-1,.06-1.41.11-3.48.12-3.42.12-3.42-3.37q.07-16.52,0-33c0-2.64.56-3.82,3.59-3.65,5.4.28,10.84.06,16.24.06C134.93,146.48,136.11,146.6,137.4,146.65Z" />
  <path class="cls-1"
    d="M66,150.7H81.68a6.42,6.42,0,0,1,.34-2.25c.5-.78,1.35-1.85,2.08-1.85q9.93-.25,19.88,0a2.55,2.55,0,0,1,1.8,1.74q.07,18.61,0,37.24a6.62,6.62,0,0,1-.56,1.52c-5.4-1.07-11.07-1.69-16.41-3.37-27.41-8.54-45.16-26.8-53.36-54.26C34.1,125.14,33.77,120.53,33,116c-.34-1.85.34-2.7,2.41-2.64,10.85.11,21.63.17,32.47.11,2,0,2.59.73,2.53,2.64-.11,4.55-.06,9.16-.06,13.71s0,4.55-4.32,5.33Z" />
</svg>
