<svg id="Layer_1" data-name="Layer 1" xmlns="http://www.w3.org/2000/svg" viewBox="0 0 220 220"><defs><style>.cls-1{fill:#fff;}.cls-2{fill:#015cc6;}.cls-3{fill:#01c753;}</style></defs><circle class="cls-1" cx="110" cy="110" r="110"/><path class="cls-2" d="M103.55,0V114.48c0,2,0,2,2,2h46.83c.57,0,1.14,0,1.72,0s.57.22.57.64c0,1.87,0,3.73,0,5.59v23.2c0,.35,0,.71,0,1.07,0,.93-.34,1.28-1.23,1.29-1.5,0-3,0-4.51,0-.55,0-.73.15-.72.72,0,1.5,0,3,0,4.51,0,.89-.35,1.19-1.28,1.23h-1.08q-35.87,0-71.74,0c-2.22,0-2.46,0-2.38-2.31,0-1.14,0-2.29,0-3.44,0-.55-.15-.74-.71-.72-1.44,0-2.87,0-4.3,0-1.19,0-1.42-.27-1.45-1.51,0-.5,0-1,0-1.5q0-35.55,0-71.09c0-2.23,0-2.47,2.31-2.39,1.21,0,2.43,0,3.65,0,.17,0,.41-.28.48-.48a3,3,0,0,0,0-.85v-23c0-1,.19-1-1-1-7.8,0-15.61,0-23.41,0-.81,0-.92.24-.92,1,0,7.8,0,15.6,0,23.41,0,1,0,1,1.06,1h3.86c1.51,0,1.52,0,1.52,1.4v29a8.19,8.19,0,0,0,0,.86c0,.51-.26.57-.67.55s-1,0-1.5,0H0V98.83c.12,0,.35-.1.35-.15,0-1.53.59-3,.58-4.52,0-1.06.48-2.14.36-3.25.88-.61,0-1.68.6-2.32s0-1.74.63-2.56c.45-.55.3-1.56.5-2.35.34-1.42.69-2.85,1.14-4.25.75-2.33,1.46-4.68,2.26-7,.92-2.69,2.15-5.26,3.19-7.9.46-1.17,1.1-2.26,1.66-3.39s1.08-2.28,1.67-3.39a40.42,40.42,0,0,1,2.75-4.85c2.13-2.9,4-6,6.12-8.88a103.61,103.61,0,0,1,7.39-8.91A101.29,101.29,0,0,1,40.61,24.42c1.67-1.31,3.34-2.6,5.1-3.79,3.07-2.08,6.12-4.17,9.25-6.16a32.52,32.52,0,0,1,5.26-2.83c2.46-1,4.78-2.26,7.21-3.3,2.26-1,4.67-1.52,6.8-2.75,2.4-.08,4.48-1.32,6.77-1.85,2.65-.61,5.29-1.43,8-1.94a27.33,27.33,0,0,1,6.93-1c.43,0,.87-.3,1.32-.4S98.29.29,98.83.21a1.4,1.4,0,0,0,0-.21Z"/><path class="cls-2" d="M0,116.45H50.7c.5,0,1,0,1.5,0s.69,0,.66.56c0,.35,0,.71,0,1.07v28.57a4.7,4.7,0,0,0,0,.65c.09.69,0,1-.9,1-1.64-.09-3.29,0-4.94,0-.44,0-.64.12-.62.6,0,.78,0,1.57,0,2.36q0,10.63,0,21.27c0,1.25-.11,1.14,1.14,1.14h23.2c1,0,1,0,1-1,0-1.51.07-3,0-4.51,0-.86.29-.91,1-.91q14.94,0,29.86,0c1,0,1,0,1,1.08q0,25.88,0,51.77H98.83c0-.12-.1-.35-.15-.35-1.53,0-3-.77-4.52-.52-.26,0-.65,0-.79-.12-.49-.5-1.08-.2-1.61-.31s-1-.33-1.54-.41a24.62,24.62,0,0,1-3.46-.47c-3.12-1-6.35-1.51-9.45-2.56-2.19-.75-4.43-1.39-6.6-2.2a97.53,97.53,0,0,1-9.39-4.25,88,88,0,0,1-10.42-5.95c-3-2-6-3.92-8.81-6.21-2.47-2-5-4-7.29-6.14a85.58,85.58,0,0,1-9.9-10.68c-1.28-1.72-2.87-3.22-4-5-2.54-3.79-5.14-7.54-7.29-11.56q-3.06-5.7-5.62-11.62c-.42-1-.71-2-1.07-3a97.23,97.23,0,0,1-3.18-9.84c-.53-2.22-1.17-4.4-1.59-6.65-.2-1-.05-2.2-.48-3s0-1.68-.5-2.38S1,125.15.85,124.34c-.19-1.06-.42-2.11-.64-3.17a1.4,1.4,0,0,0-.21,0Z"/><path class="cls-2" d="M116.45,220V169.3c0-.5,0-1,0-1.5s0-.69.56-.66c.35,0,.71,0,1.07,0h28.57a4.7,4.7,0,0,0,.65,0c.69-.09,1,0,1,.9-.09,1.64,0,3.29,0,4.94,0,.44.12.64.6.62.78,0,1.57,0,2.36,0h21.27c1.25,0,1.14.11,1.14-1.14,0-7.74,0-15.47,0-23.2,0-1,0-1-1-1-1.51,0-3-.07-4.51,0-.86,0-.91-.29-.91-1q0-14.94,0-29.86c0-1,0-1,1.08-1q25.88,0,51.77,0v4.72c-.12,0-.35.1-.35.15,0,1.53-.77,3-.52,4.52a2.26,2.26,0,0,1-.1.81,20.6,20.6,0,0,0-.76,3.55,14.57,14.57,0,0,1-.48,3.24c-.55,1.72-.92,3.48-1.35,5.23s-1.05,3.42-1.6,5.13a101.44,101.44,0,0,1-5.15,13.1,93.69,93.69,0,0,1-6.17,11.37,100.59,100.59,0,0,1-6.85,9.66c-1.77,2.09-3.42,4.34-5.28,6.34A93.78,93.78,0,0,1,180,195c-2.49,1.93-4.9,4-7.51,5.73a108.21,108.21,0,0,1-9.22,5.74c-3.78,2-7.67,3.9-11.61,5.63a18.93,18.93,0,0,1-2.57,1c-4,1-7.79,2.67-11.83,3.59-3.08.7-6.16,1.34-9.24,2-.79.17-1.59.32-2.4.42-1.57.19-3.15.34-4.72.52-.07,0-.11.23-.16.35Z"/><path class="cls-3" d="M171.88,31.19c0,5.37,0,10.74,0,16.11,0,.64.15.84.82.84,5.8,0,11.6,0,17.39,0h1.51c.52,0,.63.36.43.68-.61,1-1.27,1.93-2,2.84-2,2.65-3.87,5.44-5.89,8.1s-3.58,5.25-5.42,7.83c-1.7,2.39-3.5,4.71-5.23,7.08-1,1.42-2,2.88-3,4.32l-4.09,5.82c-2.38,3.38-4.94,6.64-7.15,10.14a3.83,3.83,0,0,1-.6.61c-.09.09-.2.17-.3.26-.07-.12-.18-.23-.19-.35,0-.57,0-1.15,0-1.72V63c0-1.18.19-1.15-1.13-1.15H139.6a6.81,6.81,0,0,1-1.28,0,.67.67,0,0,1-.36-.57,1.66,1.66,0,0,1,.41-.89c2-2.11,3.33-4.67,5.13-6.91,1.1-1.37,2-2.87,3.05-4.31,1.42-2,2.86-4,4.25-6,2.31-3.34,4.65-6.67,7-10s4.79-6.8,7.35-10.09c1.94-2.49,3.6-5.22,5.39-7.84a3.39,3.39,0,0,1,1.17-1,3.06,3.06,0,0,1,.11.59c0,3.72,0,7.45,0,11.17Z"/></svg>