<svg width="220" height="220" viewBox="0 0 220 220" fill="none" xmlns="http://www.w3.org/2000/svg">
<path d="M109.988 219.976C170.733 219.976 219.976 170.733 219.976 109.988C219.976 49.2434 170.733 0 109.988 0C49.2434 0 0 49.2434 0 109.988C0 170.733 49.2434 219.976 109.988 219.976Z" fill="url(#paint0_linear)"/>
<path d="M73.761 82.6426C72.8818 81.5512 71.5479 80.9449 70.123 80.9449H40.7464C40.5038 80.9449 40.2916 80.8539 40.1097 80.7024C39.9581 80.5508 39.8672 80.3689 39.8672 80.1567V60.36C39.8672 60.1478 39.9581 59.9659 40.1097 59.8143C40.2916 59.6324 40.5038 59.5415 40.7464 59.5718H71.7904C79.6121 59.5718 86.3726 62.7853 92.0721 69.1821L99.6209 78.3983L84.9175 96.3153L73.761 82.6426ZM128.027 69.0912C133.697 62.755 140.488 59.5718 148.4 59.5718H179.353C179.565 59.5415 179.778 59.6324 179.929 59.7537C180.081 59.9053 180.141 60.1175 180.111 60.36V80.1567C180.111 80.3689 180.051 80.5508 179.929 80.7024C179.778 80.8843 179.565 80.9752 179.353 80.9449H149.977C148.582 80.9146 147.248 81.5512 146.339 82.6426L124.693 108.988L146.43 135.515C147.309 136.515 148.612 137.121 149.946 137.091H179.323C179.535 137.061 179.778 137.182 179.899 137.334C180.02 137.515 180.111 137.758 180.081 137.97V157.767C180.081 157.979 180.02 158.161 179.899 158.312C179.747 158.494 179.535 158.585 179.323 158.555H148.4C140.488 158.555 133.757 155.341 128.118 148.945L110.11 126.965L92.1024 148.945C86.4333 155.341 79.6424 158.555 71.7298 158.555H40.7464C40.5341 158.585 40.2916 158.464 40.1704 158.312C40.0188 158.131 39.9581 157.888 39.9885 157.676V137.879C39.9885 137.667 40.0491 137.485 40.1704 137.334C40.3219 137.152 40.5341 137.061 40.7464 137.091H70.123C71.5176 137.091 72.8515 136.454 73.761 135.393L95.0128 109.442L128.027 69.0912Z" fill="#00D1FF"/>
<defs>
<linearGradient id="paint0_linear" x1="110.003" y1="-0.000636646" x2="110.003" y2="58.207" gradientUnits="userSpaceOnUse">
<stop stop-color="#090220"/>
<stop offset="1" stop-color="#170659"/>
</linearGradient>
</defs>
</svg>