<svg id="Layer_1" data-name="Layer 1" xmlns="http://www.w3.org/2000/svg" viewBox="0 0 220 220"><defs><style>.cls-1{fill:#002768;}.cls-2{fill:#fff;}</style></defs><path class="cls-1" d="M220,110A110,110,0,1,1,110,0,110,110,0,0,1,220,110Z"/><path class="cls-2" d="M104.08,181.44V163.87c-10.09-.18-20.53-3.31-26.63-7.66l4.18-11.66A46.39,46.39,0,0,0,106.69,152c12.36,0,20.71-7.13,20.71-17.06,0-9.57-6.78-15.48-19.66-20.71C90,107.3,79,99.3,79,84.15c0-14.44,10.27-25.4,26.28-28V38.56h10.79V55.44c10.44.35,17.58,3.13,22.63,6.09L134.37,73a42.06,42.06,0,0,0-21.93-5.92C99,67.1,94,75.1,94,82.07c0,9.05,6.44,13.57,21.58,19.84,17.93,7.31,27,16.36,27,31.85,0,13.75-9.58,26.63-27.5,29.58v18.1Z"/></svg>
