<svg width="54" height="54" viewBox="0 0 54 54" fill="none" xmlns="http://www.w3.org/2000/svg">
<path d="M27.0711 53.4123C41.755 53.4123 53.6586 41.4931 53.6586 26.7901C53.6586 12.0872 41.755 0.16803 27.0711 0.16803C12.3873 0.16803 0.483643 12.0872 0.483643 26.7901C0.483643 41.4931 12.3873 53.4123 27.0711 53.4123Z" fill="#32407B"/>
<path d="M27.071 4.25696C39.4976 4.25696 49.5749 14.3474 49.5749 26.7901C49.5749 39.2328 39.4976 49.3233 27.071 49.3233C14.6445 49.3233 4.5672 39.2328 4.5672 26.7901C4.5672 14.3474 14.6445 4.25696 27.071 4.25696Z" fill="#32407B"/>
<path d="M27.0711 49.8289C14.3811 49.8289 4.06226 39.5186 4.06226 26.8121C4.06226 14.1056 14.3591 3.77332 27.0711 3.77332C39.783 3.77332 50.0799 14.0836 50.0799 26.7901C50.0579 39.4966 39.761 49.8069 27.0711 49.8289ZM27.0711 4.76258C14.908 4.76258 5.07218 14.6332 5.05023 26.7901C5.05023 38.969 14.908 48.8177 27.0491 48.8396C39.2122 48.8396 49.048 38.991 49.048 26.8121C49.0699 14.6332 39.2341 4.78456 27.0711 4.76258Z" fill="white"/>
<path d="M36.9391 35.5287H17.1752C16.9081 35.5287 16.6856 35.3131 16.6856 35.0544V18.2385C16.6633 15.4143 19.0003 13.129 21.9159 13.129H32.2207C35.114 13.129 37.451 15.4143 37.451 18.2169V35.0328C37.451 35.2915 37.2284 35.5071 36.9391 35.5287C36.9613 35.5071 36.9613 35.5287 36.9391 35.5287ZM17.5098 34.6935H36.6195V18.2169C36.6195 15.9532 34.5576 13.895 32.2207 13.895H21.9159C19.5789 13.895 17.5098 15.9748 17.5098 18.2385V34.6935Z" fill="white"/>
<path d="M22.0726 32.9809C20.9309 32.9809 20.0088 32.0576 20.0088 30.9145C20.0088 29.7713 20.9309 28.87 22.0726 28.87C23.2142 28.87 24.1363 29.7933 24.1363 30.9145C24.1363 32.0356 23.2142 32.9809 22.0726 32.9809ZM22.0726 29.8593C21.4798 29.8593 20.9968 30.3429 20.9968 30.9365C20.9968 31.53 21.4798 31.9917 22.0726 31.9917C22.6653 31.9917 23.1483 31.508 23.1483 30.9365C23.1483 30.3429 22.6653 29.8593 22.0726 29.8593Z" fill="white"/>
<path d="M32.0429 32.9809C30.9012 32.9809 29.9791 32.0576 29.9791 30.9145C29.9791 29.7713 30.9012 28.87 32.0429 28.87C33.1845 28.87 34.1067 29.7933 34.1067 30.9145C34.1067 32.0356 33.1845 32.9809 32.0429 32.9809ZM32.0429 29.8593C31.4501 29.8593 30.9671 30.3429 30.9671 30.9145C30.9671 31.486 31.4501 31.9917 32.0209 31.9917C32.6137 31.9917 33.0967 31.508 33.0967 30.9365C33.0967 30.3429 32.6357 29.8593 32.0429 29.8593Z" fill="white"/>
<path d="M29.5134 16.3909H23.798C23.544 16.3909 23.3323 16.2018 23.3323 15.9749C23.3323 15.748 23.544 15.559 23.798 15.559H29.5134C29.7675 15.559 29.9791 15.748 29.9791 15.9749C29.9791 16.2018 29.7886 16.3909 29.5134 16.3909Z" fill="white"/>
<path d="M36.5556 40.7277C36.4019 40.7277 36.2482 40.6398 36.1604 40.5079L32.6278 35.3638C32.4742 35.1439 32.6679 35.2635 32.8874 35.1096C33.107 34.9558 33.2645 34.5724 33.4182 34.7922L36.9508 39.9583C37.1045 40.1782 37.0606 40.4859 36.841 40.6398C36.7532 40.6838 36.6434 40.7277 36.5556 40.7277Z" fill="white"/>
<path d="M17.5866 40.7278C17.4769 40.7278 17.389 40.7058 17.3012 40.6398C17.0817 40.4859 17.0158 40.1782 17.1915 39.9583L20.331 35.4737C20.4847 35.2538 20.7921 35.1879 21.0116 35.3638C21.2312 35.5176 21.297 35.8254 21.1214 36.0453L17.9818 40.5299C17.916 40.6398 17.7623 40.7278 17.5866 40.7278Z" fill="white"/>
<path d="M18.8301 39.0371C18.5667 39.0371 18.3471 38.8172 18.3471 38.5534C18.3471 38.4435 18.3691 38.3556 18.4349 38.2676L20.8061 34.9042C20.9597 34.6843 21.2671 34.6184 21.4867 34.7942C21.7062 34.9481 21.7721 35.2559 21.5964 35.4757L19.2253 38.8392C19.1375 38.9711 18.9838 39.0371 18.8301 39.0371Z" fill="white"/>
<path d="M36.9448 20.5506H17.1752C16.908 20.5506 16.6854 20.3615 16.6854 20.1346C16.6854 19.9077 16.908 19.7186 17.1752 19.7186H36.967C37.2342 19.7186 37.4568 19.9077 37.4568 20.1346C37.4568 20.3615 37.2342 20.5506 36.9448 20.5506Z" fill="white"/>
<path d="M36.9448 27.2061H17.1752C16.908 27.2061 16.6854 27.017 16.6854 26.7901C16.6854 26.5632 16.908 26.3741 17.1752 26.3741H36.967C37.2342 26.3741 37.4568 26.5632 37.4568 26.7901C37.4568 27.017 37.2342 27.2061 36.9448 27.2061Z" fill="white"/>
<path d="M21.8458 26.8561C21.5824 26.8561 20.8394 26.7902 20.8394 26.7902L21.4726 26.0427L23.7339 23.4707C23.9096 23.2728 24.2169 23.2508 24.4365 23.4267C24.6341 23.6026 24.656 23.9103 24.4804 24.1302L22.219 26.6802C22.1312 26.7902 21.9995 26.8561 21.8458 26.8561Z" fill="white"/>
<path d="M24.8097 26.8561C24.5463 26.8561 24.1414 26.966 24.1634 26.6802C24.1634 26.5703 23.7328 26.7682 23.8206 26.6802L28.4459 21.4266C28.6216 21.2287 28.929 21.2067 29.1485 21.3826C29.3461 21.5585 29.3681 21.8662 29.1924 22.0861L25.2049 26.6802C25.0951 26.7901 24.9634 26.8561 24.8097 26.8561Z" fill="white"/>
<path d="M34.4639 38.0213H19.6784C19.4054 38.0213 19.178 37.8323 19.178 37.6054C19.178 37.3785 19.4054 37.1894 19.6784 37.1894H34.4639C34.7368 37.1894 34.9643 37.3785 34.9643 37.6054C34.9643 37.8323 34.7368 38.0213 34.4639 38.0213Z" fill="white"/>
<path d="M35.336 39.6852H18.8063C18.5558 39.6852 18.3471 39.4961 18.3471 39.2692C18.3471 39.0423 18.5558 38.8533 18.8063 38.8533H35.336C35.5864 38.8533 35.7951 39.0423 35.7951 39.2692C35.7951 39.4961 35.6073 39.6852 35.336 39.6852Z" fill="white"/>
<path d="M27.0711 46.7952C16.0277 46.7952 7.09204 37.8479 7.09204 26.7902C7.09204 15.7324 16.0277 6.7851 27.0711 6.7851C38.1144 6.7851 47.0501 15.7324 47.0501 26.7902C47.0501 37.8259 38.1144 46.7732 27.0711 46.7952ZM27.0711 7.77436C16.5766 7.77436 8.08001 16.282 8.08001 26.7902C8.08001 37.2983 16.5766 45.806 27.0711 45.806C37.5655 45.806 46.0621 37.2983 46.0621 26.7902C46.0402 16.304 37.5655 7.79634 27.0711 7.77436Z" fill="white"/>
</svg>
