<svg id="Layer_1" data-name="Layer 1" xmlns="http://www.w3.org/2000/svg" viewBox="0 0 220 220">
  <defs>
    <style>
      .cls-1 {
        fill: #001b69;
      }

      .cls-2 {
        fill: #fff;
      }

    </style>
  </defs>
  <path class="cls-1" d="M220,110A110,110,0,1,1,110,0,110,110,0,0,1,220,110Z" />
  <path class="cls-2"
    d="M117.71,54.32a56.44,56.44,0,0,1,14.51,1.73,51.62,51.62,0,0,1,11.51,4.28l-5,10.83a54.31,54.31,0,0,0-9.55-3.76,36.22,36.22,0,0,0-10.9-1.65,20.58,20.58,0,0,0-6.69,1A13,13,0,0,0,106.28,70a14.86,14.86,0,0,0-3.54,5.72,26.55,26.55,0,0,0-1.2,8.5v22.18h28.27v10.3H101.54V132.6a31.55,31.55,0,0,1-.9,8,19.85,19.85,0,0,1-2.33,5.72,15.93,15.93,0,0,1-3.39,4.06A28.73,28.73,0,0,1,91,153.2h56.25v12.48H72.74V154.1a24.72,24.72,0,0,0,6-2.33,15.6,15.6,0,0,0,4.73-4.13,18.72,18.72,0,0,0,3.16-6.17,30,30,0,0,0,1.13-8.72v-16H72.89v-10.3H87.78V82.07A29.53,29.53,0,0,1,90,70.41a24.86,24.86,0,0,1,6.17-8.72,26.72,26.72,0,0,1,9.47-5.49A37,37,0,0,1,117.71,54.32Z" />
</svg>
