<svg id="Layer_1" data-name="Layer 1" xmlns="http://www.w3.org/2000/svg" viewBox="0 0 220 220">
  <defs>
    <style>
      .cls-1 {
        fill: #006aa8;
      }

      .cls-2 {
        fill: #fff;
      }

    </style>
  </defs>
  <path class="cls-1" d="M220,111.51a110,110,0,1,1-110-110A110,110,0,0,1,220,111.51Z" />
  <path class="cls-2"
    d="M101.71,132.56a21.75,21.75,0,0,1-2.12,9.72,19.89,19.89,0,0,1-5.91,7.2A27.61,27.61,0,0,1,84.26,154a47.45,47.45,0,0,1-12.49,1.51,74.12,74.12,0,0,1-12.55-1,35.76,35.76,0,0,1-9.72-2.84v-9.94c1.37.59,2.92,1.19,4.65,1.78s3.62,1.07,5.55,1.51,3.92.82,6,1.12a48.64,48.64,0,0,0,6.1.39q9.66,0,14.24-3.35a11.12,11.12,0,0,0,4.65-9.6,14,14,0,0,0-.9-5.25,9.92,9.92,0,0,0-3.08-4.08,24.92,24.92,0,0,0-5.86-3.63q-3.67-1.78-9.29-3.85a60.59,60.59,0,0,1-9.36-4.25,27.83,27.83,0,0,1-6.51-5.24,19.84,19.84,0,0,1-3.81-6.59,27,27,0,0,1-1.2-8.38,19.3,19.3,0,0,1,1.93-8.77A18.3,18.3,0,0,1,58,77.06,24.83,24.83,0,0,1,66.34,73a39.06,39.06,0,0,1,10.74-1.39A59.15,59.15,0,0,1,90,72.87a53.74,53.74,0,0,1,10.2,3.18l-4,8.71A57.84,57.84,0,0,0,87.22,82,42.39,42.39,0,0,0,77,80.74q-7.36,0-11.41,3.19a10.16,10.16,0,0,0-4,8.48,15.19,15.19,0,0,0,.91,5.53,11.21,11.21,0,0,0,3,4.19A25.32,25.32,0,0,0,71,105.65q3.49,1.62,8.57,3.46a83.88,83.88,0,0,1,9.59,4.13,28.85,28.85,0,0,1,6.94,4.8,17.59,17.59,0,0,1,4.17,6.2A21.91,21.91,0,0,1,101.71,132.56Z" />
  <path class="cls-2"
    d="M130.3,122.73l8.15-9.49,17.69-20.16h12.73l-24.2,26.53,25.83,34.78H157.89l-20.28-28.14L131,130.83v23.56H120.17V67.51H131v39.87l-1,15.35Z" />
</svg>
