<svg width="220" height="220" viewBox="0 0 220 220" fill="none" xmlns="http://www.w3.org/2000/svg">
<path d="M110 220C170.751 220 220 170.751 220 110C220 49.2487 170.751 0 110 0C49.2487 0 0 49.2487 0 110C0 170.751 49.2487 220 110 220Z" fill="white"/>
<path d="M179.245 126.62L190.62 115.245C193.793 112.072 193.793 106.928 190.62 103.755L179.245 92.3796C176.072 89.2068 170.928 89.2068 167.755 92.3796L156.379 103.755C153.207 106.928 153.207 112.072 156.379 115.245L167.755 126.62C170.928 129.793 176.072 129.793 179.245 126.62Z" fill="black"/>
<path d="M29.372 103.797C26.2094 106.934 26.2093 112.066 29.372 115.202L72.2151 157.693C75.3164 160.769 80.2986 160.769 83.3998 157.693L94.6281 146.557C97.789 143.422 97.7909 138.293 94.6319 135.156L74.5364 115.199C71.3788 112.063 71.3788 106.937 74.5364 103.801L94.6319 83.8437C97.7909 80.7069 97.789 75.5773 94.6281 72.4424L83.3998 61.3066C80.2986 58.2311 75.3164 58.2311 72.2151 61.3066L29.372 103.797Z" fill="black"/>
<path d="M135.764 124.345L92.3786 167.119C89.2071 170.246 89.2071 175.316 92.3786 178.443L103.751 189.655C106.922 192.782 112.065 192.782 115.236 189.655L158.621 146.881C161.793 143.754 161.793 138.684 158.621 135.557L147.249 124.345C144.078 121.218 138.935 121.218 135.764 124.345Z" fill="#FFA800"/>
<path d="M92.4062 40.5717C89.198 43.7393 89.198 48.9222 92.4062 52.0898L112.813 72.241C116.022 75.4084 116.022 80.5915 112.813 83.7589L92.4057 103.91C89.198 107.078 89.198 112.261 92.4062 115.428L103.791 126.671C106.937 129.776 111.991 129.776 115.136 126.671L158.594 83.7589C161.802 80.5915 161.802 75.4084 158.594 72.241L115.136 29.3294C111.991 26.2235 106.937 26.2235 103.791 29.3295L92.4062 40.5717Z" fill="#FFA800"/>
</svg>
