<svg id="Layer_1" data-name="Layer 1" xmlns="http://www.w3.org/2000/svg" viewBox="0 0 220 220">
  <defs>
    <style>
      .cls-1 {
        fill: #fff;
      }

      .cls-1,
      .cls-2,
      .cls-3,
      .cls-4,
      .cls-5,
      .cls-6,
      .cls-7 {
        fill-rule: evenodd;
      }

      .cls-2 {
        fill: #343434;
      }

      .cls-3 {
        fill: #313131;
      }

      .cls-4 {
        fill: #151515;
      }

      .cls-5 {
        fill: #8c8c8c;
      }

      .cls-6 {
        fill: #8a8a8a;
      }

      .cls-7 {
        fill: #353535;
      }

    </style>
  </defs>
  <path class="cls-1" d="M109.57,0A110,110,0,1,1-.43,110,110,110,0,0,1,109.57,0Z" />
  <path class="cls-2"
    d="M109.57,23.62l28.94,43.24,28.94,43.25-57.88,29.16L51.69,110,80.63,66.75Zm0,127.3L54.9,121.75l54.67,74.63,54.67-74.63Z" />
  <path class="cls-2" d="M109.57,23.62l28.94,43.13L167.45,110,109.57,88.15Z" />
  <path class="cls-3" d="M109.57,150.92l54.78-29.17-54.78,74.74Z" />
  <path class="cls-4" d="M109.57,88.15,167.45,110l-57.88,29.16Z" />
  <path class="cls-5" d="M109.57,23.62,80.63,66.75,51.69,110l57.88-21.85Z" />
  <path class="cls-6" d="M109.57,150.92,54.9,121.75l54.67,74.74Z" />
  <path class="cls-7" d="M109.57,88.15,51.69,110l57.88,29.16Z" />
</svg>
