<svg width="220" height="220" viewBox="0 0 220 220" fill="none" xmlns="http://www.w3.org/2000/svg">
<path d="M110 220C170.751 220 220 170.751 220 110C220 49.2487 170.751 0 110 0C49.2487 0 0 49.2487 0 110C0 170.751 49.2487 220 110 220Z" fill="black"/>
<g clip-path="url(#clip0)">
<path d="M109.562 97.8516C115.987 97.8925 121.164 103.09 121.184 109.515C121.205 116.002 115.905 121.261 109.377 121.22C102.973 121.179 97.7546 115.9 97.7955 109.495C97.8569 103.029 103.095 97.8312 109.562 97.8516Z" fill="white"/>
<path d="M75.2865 69.6541C68.8204 69.6336 63.5615 64.3338 63.6228 57.9085C63.7047 51.4219 68.9431 46.2448 75.4093 46.3062C81.8346 46.3471 87.0321 51.606 87.0116 58.0108C86.9912 64.477 81.7527 69.6745 75.2865 69.6541Z" fill="white"/>
<path d="M109.541 63.6387C116.007 63.6592 121.287 68.959 121.205 75.3843C121.123 81.8709 115.864 87.0684 109.418 87.0275C103.014 86.9866 97.7957 81.7072 97.7957 75.3229C97.8161 68.8567 103.075 63.6183 109.541 63.6387Z" fill="white"/>
<path d="M109.5 52.3226C103.034 52.3226 97.775 47.0433 97.8159 40.5975C97.8364 34.1518 103.136 28.8929 109.582 28.9338C115.966 28.9543 121.205 34.2132 121.225 40.618C121.225 47.0637 115.946 52.3431 109.5 52.3226Z" fill="white"/>
<path d="M178.296 63.6387C184.762 63.6183 190.021 68.8772 190.021 75.3229C190.021 81.7277 184.803 86.9866 178.398 87.0275C171.932 87.0684 166.693 81.8709 166.652 75.3843C166.611 68.8976 171.809 63.6592 178.296 63.6387Z" fill="white"/>
<path d="M75.3275 103.889C68.8613 103.889 63.6024 98.6095 63.6433 92.1637C63.6638 85.718 68.9431 80.4796 75.4093 80.5001C81.8141 80.5205 87.0116 85.759 87.0525 92.1842C87.0525 98.6299 81.7936 103.889 75.3275 103.889Z" fill="white"/>
<path d="M132.48 57.9287C132.521 51.4216 137.738 46.265 144.225 46.3059C150.691 46.3468 155.889 51.6467 155.827 58.0924C155.766 64.5586 150.487 69.7356 144 69.6538C137.575 69.5924 132.439 64.3744 132.48 57.9287Z" fill="white"/>
<path d="M52.348 75.3434C52.348 81.83 47.1096 87.048 40.6434 87.0275C34.2182 87.0071 28.9797 81.7277 29.0002 75.2615C29.0206 68.8362 34.2386 63.6387 40.6639 63.6387C47.1505 63.6183 52.3685 68.8362 52.348 75.3434Z" fill="white"/>
<path d="M144.021 103.868C137.493 103.745 132.377 98.5063 132.48 92.0196C132.582 85.4716 137.882 80.356 144.43 80.4787C150.794 80.6015 155.95 85.9832 155.828 92.388C155.705 98.8337 150.405 103.99 144.021 103.868Z" fill="white"/>
<path d="M40.9707 116.084C36.203 116.105 32.2946 112.237 32.2741 107.469C32.2537 102.702 36.1211 98.7932 40.8889 98.7523C45.6158 98.7113 49.5446 102.62 49.5855 107.367C49.606 112.135 45.7181 116.064 40.9707 116.084Z" fill="white"/>
<path d="M66.4467 124.76C66.4467 120.013 70.355 116.105 75.1228 116.125C79.8701 116.125 83.7785 120.054 83.758 124.801C83.7376 129.549 79.8292 133.457 75.0819 133.457C70.3346 133.436 66.4467 129.508 66.4467 124.76Z" fill="white"/>
<path d="M143.919 116.104C148.666 116.104 152.574 120.033 152.554 124.781C152.533 129.528 148.625 133.436 143.878 133.436C139.13 133.416 135.222 129.487 135.242 124.74C135.263 119.992 139.171 116.104 143.919 116.104Z" fill="white"/>
<path d="M169.926 107.387C169.947 102.599 173.835 98.7316 178.582 98.752C183.35 98.793 187.197 102.66 187.176 107.449C187.156 112.237 183.289 116.084 178.521 116.063C173.753 116.063 169.906 112.176 169.926 107.387Z" fill="white"/>
<path d="M109.725 150.277C104.958 150.277 101.07 146.389 101.09 141.622C101.111 136.854 104.999 132.986 109.766 132.986C114.555 133.007 118.402 136.874 118.402 141.642C118.381 146.43 114.514 150.298 109.725 150.277Z" fill="white"/>
<path d="M115.557 168.346C115.557 171.579 112.958 174.198 109.725 174.198C106.513 174.198 103.873 171.538 103.894 168.325C103.914 165.154 106.513 162.555 109.684 162.534C112.958 162.514 115.557 165.092 115.557 168.346Z" fill="white"/>
<path d="M149.73 151.055C149.709 154.288 147.11 156.866 143.836 156.845C140.665 156.825 138.066 154.206 138.066 151.034C138.066 147.821 140.726 145.161 143.918 145.182C147.131 145.182 149.75 147.821 149.73 151.055Z" fill="white"/>
<path d="M75.0614 156.846C71.8079 156.826 69.25 154.227 69.2705 150.953C69.291 147.781 71.8897 145.183 75.0819 145.162C78.2741 145.162 80.9342 147.822 80.9342 151.014C80.9342 154.248 78.2945 156.846 75.0614 156.846Z" fill="white"/>
<path d="M35.1184 133.642C35.1389 130.429 37.8195 127.769 41.0116 127.83C44.1833 127.892 46.7821 130.511 46.7821 133.682C46.7821 136.895 44.122 139.535 40.9298 139.535C37.6762 139.494 35.0979 136.875 35.1184 133.642Z" fill="white"/>
<path d="M184.373 133.661C184.393 136.895 181.774 139.534 178.562 139.534C175.349 139.534 172.689 136.854 172.709 133.661C172.73 130.49 175.349 127.87 178.5 127.83C181.692 127.789 184.352 130.428 184.373 133.661Z" fill="white"/>
<path d="M178.582 151.279C180.219 151.3 181.57 152.65 181.59 154.267C181.611 155.924 180.199 157.336 178.521 157.295C176.884 157.275 175.533 155.924 175.533 154.287C175.513 152.63 176.884 151.279 178.582 151.279Z" fill="white"/>
<path d="M112.733 188.951C112.754 190.65 111.424 192.021 109.725 192.021C108.068 192.021 106.758 190.691 106.738 189.033C106.717 187.335 108.068 185.964 109.746 185.964C111.383 185.964 112.713 187.273 112.733 188.951Z" fill="white"/>
<path d="M43.9379 154.349C43.9174 156.006 42.5873 157.316 40.9299 157.336C39.2315 157.336 37.9014 155.965 37.9219 154.267C37.9423 152.568 39.3133 151.259 41.0322 151.3C42.6692 151.341 43.9583 152.671 43.9379 154.349Z" fill="white"/>
<path d="M78.1106 171.64C78.1106 173.338 76.7601 174.648 75.0412 174.628C73.3837 174.607 72.0946 173.277 72.0946 171.62C72.0946 169.942 73.3838 168.653 75.0617 168.632C76.7601 168.612 78.1106 169.942 78.1106 171.64Z" fill="white"/>
<path d="M143.898 174.648C142.2 174.648 140.89 173.297 140.911 171.578C140.931 169.921 142.241 168.632 143.919 168.632C145.637 168.632 146.947 169.982 146.906 171.701C146.886 173.379 145.576 174.648 143.898 174.648Z" fill="white"/>
</g>
<defs>
<clipPath id="clip0">
<rect width="161" height="163.067" fill="white" transform="translate(29 28.9336)"/>
</clipPath>
</defs>
</svg>
