<svg id="Layer_1" data-name="Layer 1" xmlns="http://www.w3.org/2000/svg" viewBox="0 0 220 220"><defs><style>.cls-1{fill:#fff;}.cls-2{fill:#ee3919;}</style></defs><circle class="cls-1" cx="110" cy="110" r="110"/><path class="cls-2" d="M182.81,83.17l3.29,41.76,13.74-1.11a5,5,0,0,0,4.62-5.41L202.35,90A5.08,5.08,0,0,0,198,85.37Z"/><path class="cls-2" d="M153.33,44.19a156.49,156.49,0,0,1-6.46,15.69l35.94,23.29,2-7.61A37,37,0,0,0,169.7,35.31L158,27.49S156.06,36.27,153.33,44.19Z"/><path class="cls-2" d="M110.43,80.64l36.44-20.76S125.4,33.78,109.81,18A62.51,62.51,0,0,0,97,8.19a6.34,6.34,0,0,0-5.42-.42L60.86,19.66a1.93,1.93,0,0,0-.76,3.07Z"/><path class="cls-2" d="M113.72,130.5l-3.29-49.86-90,6.94a5.42,5.42,0,0,0-5,5.56l2,31.35a8.6,8.6,0,0,0,8.78,8.06Z"/><path class="cls-2" d="M155,149.48c-.76-.25-41.25-19-41.25-19L77.39,204.11a3.81,3.81,0,0,0,3,5.47c5.11.59,13,1.5,19.68,2.3a22,22,0,0,0,21.14-9.95Z"/><path class="cls-2" d="M192.76,138.07a32.78,32.78,0,0,0-6.66-13.14L155,149.48l15.61,28.9a4.52,4.52,0,0,0,7.4.8l14.52-17.34a11.26,11.26,0,0,0,2.62-7.3A59.17,59.17,0,0,0,192.76,138.07Z"/></svg>