<svg xmlns="http://www.w3.org/2000/svg" viewBox="50 50 738 738">
  <defs/>
  <defs>
    <clipPath id="a">
      <circle cx="419" cy="418" r="50%"/>
    </clipPath>
  </defs>
  <g clip-path="url(#a)">
    <path fill="#fba629" d="M1-1h838v838H1z"/>
    <path fill="#fad125" d="M837 364v-47l-170-8-1-9 170-16v-78l-174 80-7-14 181-87V91L644 257l-11-10L837 44V0H729L611 234l-12-5L632-1h-72l13 227-18 3L479 0h-56l110 237c-8 4-15 10-21 16L326-1H179l321 268c-4 5-7 11-9 18L2 25v147l483 136v10L2 291v96l486-44a91 91 0 00133 55l215 193V482L657 363l3-6 177 100v-66l-170-55 1-8 170 36z"/>
    <path fill="#f67b13" d="M838 8H0V0h838v8zm0 7H0v8h838v-8zm0 15H0v8h838v-8zm0 15H0v8h838v-8zm0 15H0v8h838v-8zm0 15H0v8h838v-8zm0 15H0v8h838v-8zm0 15H0v8h838v-8zm0 15H0v8h838v-8zm0 15H0v8h838v-8zm0 15H0v8h838v-8zm0 15H0v8h838v-8zm0 15H0v8h838v-8zm0 15H0v8h838v-8zm0 15H0v8h838v-8zm0 15H0v8h838v-8zm0 15H0v8h838v-8zm0 15H0v8h838v-8zm0 15H0v8h838v-8zm0 15H0v8h838v-8zm0 15H0v8h838v-8zm0 15H0v8h838v-8zm0 15H0v8h838v-8zm0 15H0v8h838v-8zm0 15H0v8h838v-8zm0 15H0v8h838v-8zm0 15H0v8h838v-8zm0 15H0v8h838v-8zm0 15H0v8h838v-8zm0 15H0v8h838v-8zm0 15H0v8h838v-8zm0 15H0v8h838v-8zm0 15H0v8h838v-8z" opacity=".5"/>
    <path fill="#f9d124" d="M928 384l-1-1 1 1z"/>
    <path fill="#f68627" d="M1 496l119-62 147-91 68-45h5l7-5 9 3 9-3 21 4 8-4h25l8 4 15-4 32 9 81 53 92 49 192 85s0 346-2 347H1V496z"/>
    <path fill="#ffcb1d" d="M187 410l26 8 36-18-24 27 24-4-8 23 8 16-21 19h13v8h13l7-12v-7l17-9 40-46 17 35-6 21-2 15 15-14 23-15 14 8v20l14 4v-18l8-10-5-17 17 6 7 22-1 17 8 6v-17l10-9 10 1 21-19 18-4 69 37v-12l37 17-37-25-5-11 5-6-33-20 33 7v-7l21 12v12l9 20 23 11-11-15 11 2-14-22 40 20-11 5 7 6 1 12 15-10-6-7 3-8-18-23 36 29 25-10 19-14-139-50-74-49-26-15c-2-1-8-21-8-21l-19-12-12 5-11-5c-3-2-20 0-20 0l-13 5-17-6-9 6-13-1-157 106z" opacity=".4"/>
    <path fill="#d63700" d="M187 361v21h-29v13h10v23h-10v39h-21v-39h-9v-23h9v-12h-27v-22h77zm16 0v96h68v-34h6v-22h-41v22h14v12h-26v-53h48v-21h-69zm165 36v-35l-78-1v21h10v53h-10v22h79v-39h10v-21h-11zm-21 37h-25v-14h25v14zm0-37h-25v-14h25v14zm42-35v95h69v-22h-48v-73h-21zm154 95v-22h-38l38-33v-40h-69v20h48v9l-48 44v22h69zm12-95l25 40h-16v21h23v34h21v-34h23v-21h-16l25-40h-27l-15 28-17-28h-26zm140 59h25v-59h-77v22h10v73h21v-29l30 29h29l-38-36zm-21-37h25v16h-25v-16z"/>
  </g>
</svg>
