<svg id="Layer_1" data-name="Layer 1" xmlns="http://www.w3.org/2000/svg" xmlns:xlink="http://www.w3.org/1999/xlink" viewBox="0 0 220 220"><defs><style>.cls-1{fill:#fff;}.cls-2{fill:url(#linear-gradient);}</style><linearGradient id="linear-gradient" x1="49.15" y1="118.2" x2="170.85" y2="118.2" gradientUnits="userSpaceOnUse"><stop offset="0" stop-color="#437678"/><stop offset="1" stop-color="#68a0ae"/></linearGradient></defs><polygon class="cls-1" points="110 3.55 202.19 56.78 202.19 163.22 110 216.45 17.81 163.22 17.81 56.78 110 3.55"/><path class="cls-2" d="M169.64,67.24a4.11,4.11,0,0,0-5-.61L124,91a4.1,4.1,0,0,0,4.21,7l26.84-16-18.39,31.14L55.28,66.59a4.1,4.1,0,0,0-5.56,5.64l56.75,96.1a4.1,4.1,0,0,0,7.06,0l56.75-96.1A4.1,4.1,0,0,0,169.64,67.24ZM110,158.18,88.46,121.71,100.65,114a4.1,4.1,0,0,0-4.39-6.92l-12,7.6L64.64,81.37l67.83,38.76Z"/></svg>