<svg id="Layer_1" data-name="Layer 1" xmlns="http://www.w3.org/2000/svg" viewBox="0 0 220 220">
  <defs>
    <style>
      .cls-1 {
        fill: #fff;
      }

    </style>
  </defs>
  <path class="cls-1" d="M110,220.23a110,110,0,1,0-110-110A110,110,0,0,0,110,220.23Z" />
  <path
    d="M163,61.61l-17.77,9-85.79,43.7A51.11,51.11,0,0,1,135,63.13L145.15,58l1.52-.77A62.42,62.42,0,0,0,47.58,107.7c0,1.59.06,3.17.18,4.75a11.39,11.39,0,0,1-6.17,11l-5.36,2.73v12.75l15.79-8,5.11-2.61,5-2.57L152.6,79.61l10.17-5.17,21-10.71V51Z" />
  <path
    d="M183.77,76.49,67.3,135.79,57.14,141,36.23,151.64v12.74L57,153.79l17.76-9L160.64,101a51.9,51.9,0,0,1,.43,6.71A51.12,51.12,0,0,1,85,152.25l-.62.33-11,5.62a62.42,62.42,0,0,0,99.09-50.5c0-1.6-.06-3.21-.18-4.79a11.36,11.36,0,0,1,6.16-11l5.37-2.73Z" />
</svg>
