<svg width="29" height="20" viewBox="0 0 29 20" fill="none" xmlns="http://www.w3.org/2000/svg">
<rect x="0.234863" width="28" height="20" rx="2" fill="white"/>
<mask id="mask0" mask-type="alpha" maskUnits="userSpaceOnUse" x="0" y="0" width="29" height="20">
<rect x="0.234863" width="28" height="20" rx="2" fill="white"/>
</mask>
<g mask="url(#mask0)">
<rect x="0.234863" width="28" height="20" fill="#19BFBF"/>
<path fill-rule="evenodd" clip-rule="evenodd" d="M14.2347 17.3334C18.2848 17.3334 21.568 14.0501 21.568 10C21.568 5.94993 18.2848 2.66669 14.2347 2.66669C10.1846 2.66669 6.90137 5.94993 6.90137 10C6.90137 14.0501 10.1846 17.3334 14.2347 17.3334ZM20.1981 10.6667C19.9506 12.9059 18.4708 14.7737 16.452 15.577C17.1021 14.253 17.4819 12.5281 17.555 10.6667H20.1981ZM16.2203 10.6667C16.123 12.9157 15.5358 14.9034 14.6202 15.9878C14.4927 15.9959 14.3642 16 14.2347 16C14.1052 16 13.9767 15.9959 13.8492 15.9878C12.9336 14.9034 12.3464 12.9157 12.2491 10.6667H16.2203ZM10.9144 10.6667C10.9875 12.5281 11.3673 14.253 12.0174 15.577C9.99856 14.7737 8.51885 12.9059 8.27132 10.6667H10.9144ZM12.2491 9.33335H16.2203C16.123 7.08431 15.5358 5.09659 14.6202 4.01221C14.4927 4.00412 14.3642 4.00002 14.2347 4.00002C14.1052 4.00002 13.9767 4.00412 13.8492 4.01221C12.9336 5.09659 12.3464 7.08431 12.2491 9.33335ZM12.0174 4.42304C11.3673 5.74707 10.9875 7.47199 10.9144 9.33335H8.27132C8.51885 7.09419 9.99856 5.22639 12.0174 4.42304ZM20.1981 9.33335H17.555C17.4819 7.47199 17.1021 5.74707 16.452 4.42304C18.4708 5.22639 19.9506 7.09419 20.1981 9.33335Z" fill="white"/>
</g>
</svg>
