<svg width="220" height="220" viewBox="0 0 220 220" fill="none" xmlns="http://www.w3.org/2000/svg">
<g clip-path="url(#clip0_3804_46)">
<path d="M110 220C170.751 220 220 170.751 220 110C220 49.2487 170.751 0 110 0C49.2487 0 0 49.2487 0 110C0 170.751 49.2487 220 110 220Z" fill="url(#paint0_linear_3804_46)"/>
<path d="M138.442 49.9224L52.8264 170.078H78.9448L164.859 49.9224H138.442Z" fill="white"/>
<path d="M81.8488 49.9224L107.096 85.3336L93.7464 104.482L55.1408 49.9224H81.8488Z" fill="url(#paint1_linear_3804_46)"/>
<path d="M140.765 170.078L112.904 130.9L125.963 112.033L167.174 170.078H140.765Z" fill="url(#paint2_linear_3804_46)"/>
</g>
<defs>
<linearGradient id="paint0_linear_3804_46" x1="145.348" y1="-38.1151" x2="91.9435" y2="185.66" gradientUnits="userSpaceOnUse">
<stop stop-color="#2C2C3D"/>
<stop offset="1" stop-color="#1A1A27"/>
</linearGradient>
<linearGradient id="paint1_linear_3804_46" x1="72.5139" y1="58.9077" x2="107.923" y2="101.283" gradientUnits="userSpaceOnUse">
<stop stop-color="white"/>
<stop offset="1" stop-color="white" stop-opacity="0.549"/>
</linearGradient>
<linearGradient id="paint2_linear_3804_46" x1="147.253" y1="159.997" x2="103.427" y2="100.208" gradientUnits="userSpaceOnUse">
<stop stop-color="#6966FF"/>
<stop offset="1" stop-color="#6966FF" stop-opacity="0.3608"/>
</linearGradient>
<clipPath id="clip0_3804_46">
<rect width="220" height="220" rx="110" fill="white"/>
</clipPath>
</defs>
</svg>
