<svg width="220" height="220" viewBox="0 0 220 220" fill="none" xmlns="http://www.w3.org/2000/svg">
<g clip-path="url(#clip0_997_583)">
<path d="M110 220C170.751 220 220 170.751 220 110C220 49.2487 170.751 0 110 0C49.2487 0 0 49.2487 0 110C0 170.751 49.2487 220 110 220Z" fill="#0E1821"/>
<path d="M175.092 172.539H129.974L129.944 172.517L129.589 172.245L73.6759 128.863L96.5608 110.619L174.715 172.245L175.092 172.539Z" fill="#4A9079"/>
<path d="M175.092 48.698H129.974L129.944 48.7201L129.589 48.9928L73.6759 92.3743L96.5608 110.619L174.715 48.9928L175.092 48.698Z" fill="#4A9079"/>
<path d="M73.6839 113.369V128.82V128.871L73.6911 172.245V172.54L73.6616 172.518L73.3134 172.245L46.1048 150.868L46.0382 150.816L45.6458 150.514V70.7242L46.0382 70.4221L46.1048 70.3702L73.3134 48.9928L73.6616 48.7201L73.6911 48.698V48.9928L73.6839 92.3672V92.4187V110.619V113.369Z" fill="#4A9079"/>
</g>
<defs>
<clipPath id="clip0_997_583">
<rect width="220" height="220" fill="white"/>
</clipPath>
</defs>
</svg>
