<svg width="220" height="220" viewBox="0 0 220 220" fill="none" xmlns="http://www.w3.org/2000/svg">
<g clip-path="url(#clip0_1001_261)">
<path d="M110 220C170.751 220 220 170.751 220 110C220 49.2487 170.751 0 110 0C49.2487 0 0 49.2487 0 110C0 170.751 49.2487 220 110 220Z" fill="#B8A6FE"/>
<path d="M110 220C170.751 220 220 170.751 220 110C220 49.2487 170.751 0 110 0C49.2487 0 0 49.2487 0 110C0 170.751 49.2487 220 110 220Z" fill="url(#paint0_diamond_1001_261)"/>
<path d="M110 220C170.751 220 220 170.751 220 110C220 49.2487 170.751 0 110 0C49.2487 0 0 49.2487 0 110C0 170.751 49.2487 220 110 220Z" fill="url(#paint1_diamond_1001_261)"/>
<path d="M110 220C170.751 220 220 170.751 220 110C220 49.2487 170.751 0 110 0C49.2487 0 0 49.2487 0 110C0 170.751 49.2487 220 110 220Z" fill="url(#paint2_diamond_1001_261)"/>
<path d="M110 220C170.751 220 220 170.751 220 110C220 49.2487 170.751 0 110 0C49.2487 0 0 49.2487 0 110C0 170.751 49.2487 220 110 220Z" fill="url(#paint3_diamond_1001_261)"/>
<path fill-rule="evenodd" clip-rule="evenodd" d="M106.662 33.4031L43.1779 70.0555L71.7093 86.5281C72.8162 85.4357 74.3367 84.7615 76.0147 84.7615C76.4727 84.7615 76.919 84.8117 77.3483 84.907L106.662 34.1338V33.4031ZM42 73.3074V146.132L71.5001 95.0365C70.4975 93.9452 69.8854 92.4895 69.8854 90.8908C69.8854 90.4119 69.9403 89.9459 70.0441 89.4987L42 73.3074ZM43.8794 150.821L106.593 187.028L77.3502 136.379C76.9203 136.474 76.4734 136.524 76.0147 136.524C74.335 136.524 72.8132 135.849 71.7061 134.755L43.8794 150.821ZM113.472 187.471L176.604 151.022L148.428 134.755C147.321 135.849 145.799 136.524 144.119 136.524C143.66 136.524 143.214 136.474 142.784 136.379L113.472 187.148V187.471ZM178.832 147.341V72.9044L150.09 89.4986C150.194 89.9458 150.249 90.4119 150.249 90.8908C150.249 92.4895 149.637 93.9452 148.634 95.0365L178.832 147.341ZM178.832 71.7453V70.7356L177.957 70.2305L178.832 71.7453ZM177.305 69.8539L113.472 33V34.1333L142.786 84.9068C143.215 84.8116 143.661 84.7615 144.119 84.7615C145.797 84.7615 147.318 85.4358 148.425 86.5283L177.305 69.8539ZM77.5617 96.8232V124.463C78.564 124.724 79.4666 125.232 80.2003 125.918L106.662 110.64L80.2039 95.365C79.4695 96.0529 78.5656 96.5621 77.5617 96.8232ZM81.9466 92.4396L106.662 106.709V40.9434L80.3348 86.5428C81.4522 87.653 82.144 89.1911 82.144 90.8908C82.144 91.4258 82.0754 91.9449 81.9466 92.4396ZM69.8854 130.395C69.8854 127.658 71.6796 125.34 74.156 124.553V97.2446L46.302 145.49L70.043 131.782C69.9399 131.337 69.8854 130.872 69.8854 130.395ZM82.144 130.395C82.144 132.094 81.4529 133.631 80.3366 134.741L106.662 180.338V114.573L81.9454 128.842C82.075 129.338 82.144 129.859 82.144 130.395ZM150.091 131.783L173.831 145.49L145.977 97.2446V124.553C148.454 125.34 150.249 127.658 150.249 130.395C150.249 130.873 150.194 131.337 150.091 131.783ZM142.572 124.463V96.8232C141.568 96.5622 140.664 96.053 139.93 95.3651L113.472 110.641L139.934 125.918C140.667 125.232 141.57 124.724 142.572 124.463ZM138.188 128.842L113.472 114.573V180.337L139.797 134.741C138.681 133.631 137.99 132.094 137.99 130.395C137.99 129.859 138.059 129.338 138.188 128.842ZM137.99 90.8908C137.99 89.1912 138.682 87.6532 139.799 86.5429L113.472 40.9437V106.708L138.187 92.4394C138.059 91.9448 137.99 91.4258 137.99 90.8908Z" fill="white"/>
</g>
<defs>
<radialGradient id="paint0_diamond_1001_261" cx="0" cy="0" r="1" gradientUnits="userSpaceOnUse" gradientTransform="translate(220 90) rotate(146.418) scale(221.464)">
<stop stop-color="#BAB1FE"/>
<stop offset="0.192708" stop-color="#BAB1FE" stop-opacity="0.807292"/>
<stop offset="1" stop-color="#BAB1FE" stop-opacity="0"/>
</radialGradient>
<radialGradient id="paint1_diamond_1001_261" cx="0" cy="0" r="1" gradientUnits="userSpaceOnUse" gradientTransform="translate(21 191.5) rotate(-38.4827) scale(227.39)">
<stop stop-color="#E0CAE4"/>
<stop offset="0.306977" stop-color="#E0CAE4" stop-opacity="0.807292"/>
<stop offset="1" stop-color="#E0CAE4" stop-opacity="0"/>
</radialGradient>
<radialGradient id="paint2_diamond_1001_261" cx="0" cy="0" r="1" gradientUnits="userSpaceOnUse" gradientTransform="translate(65.5 30) rotate(76.8183) scale(195.142)">
<stop stop-color="#596BFC"/>
<stop offset="0.306977" stop-color="#5C6DFC" stop-opacity="0.807292"/>
<stop offset="1" stop-color="#5C6DFC" stop-opacity="0"/>
</radialGradient>
<radialGradient id="paint3_diamond_1001_261" cx="0" cy="0" r="1" gradientUnits="userSpaceOnUse" gradientTransform="translate(162.5 212.5) rotate(-118.081) scale(194.382)">
<stop stop-color="#C173FB"/>
<stop offset="0.369792" stop-color="#C575FF" stop-opacity="0.807292"/>
<stop offset="1" stop-color="#C575FF" stop-opacity="0"/>
</radialGradient>
<clipPath id="clip0_1001_261">
<rect width="220" height="220" fill="white"/>
</clipPath>
</defs>
</svg>
