<svg width="220" height="220" viewBox="0 0 220 220" fill="none" xmlns="http://www.w3.org/2000/svg">
  <path d="M110 220C170.751 220 220 170.751 220 110C220 49.2487 170.751 0 110 0C49.2487 0 0 49.2487 0 110C0 170.751 49.2487 220 110 220Z" fill="#1A53F0"/>
  <path d="M65.7014 137.347V154.117H82.5475V149.842H106V187C67.0226 184.698 34.9819 152.802 33 114H70.3258V137.018L65.7014 137.347Z" fill="white"/>
  <path d="M137.667 149.674V153.968H154.667V137.122H150.333V114H188C186 152.977 153.333 184.688 114 187V149.674H137.667Z" fill="white"/>
  <path d="M106 69.9848H137.854V65.0303H155V83.8576H138.184V78.5727H106V113.585L142.47 113.915V137.036H138.184V141H82.4595V136.706H78.5027V81.8758H82.7892V65.0303H65.973V81.8758H70.2595V104.997H33C34.9784 65.6909 67.4216 33.9818 106 32V69.9848Z" fill="white"/>
</svg>
