<svg width="220" height="220" viewBox="0 0 220 220" fill="none" xmlns="http://www.w3.org/2000/svg">
<path d="M220 110C220 170.751 170.751 220 110 220C49.2489 220 0 170.751 0 110C0 49.2489 49.2489 0 110 0C170.751 0 220 49.2489 220 110Z" fill="#49C1BF"/>
<path fill-rule="evenodd" clip-rule="evenodd" d="M84.6047 47L66 54.2844L135.202 87.95L154.495 79.6813L84.6047 47Z" fill="#80D4D2"/>
<path fill-rule="evenodd" clip-rule="evenodd" d="M154.495 98.8766V79.6813L135.202 87.95V108.228L154.495 98.8766Z" fill="#C2EAE9"/>
<path d="M135.202 154.198V173L154.495 163.845V109.114L135.202 117.973V154.198Z" fill="#C2EAE9"/>
<path d="M66 138.547L135.202 173V154.198L88.3453 131.263L135.202 108.228V87.95L66 54.2844V72.2984L114.727 96.7109L66 120.533V138.547Z" fill="white"/>
</svg>
