<svg width="220" height="220" viewBox="0 0 220 220" fill="none" xmlns="http://www.w3.org/2000/svg">
<g clip-path="url(#clip0_3991_162)">
<path d="M110 220C170.751 220 220 170.751 220 110C220 49.2487 170.751 0 110 0C49.2487 0 0 49.2487 0 110C0 170.751 49.2487 220 110 220Z" fill="white"/>
<g clip-path="url(#clip1_3991_162)">
<path d="M126.813 72.1787H118.279V85.2177H126.813V72.1787Z" fill="#1682FE"/>
<path d="M102.319 48H93.7842V61.039H102.319V48Z" fill="#1682FE"/>
<path d="M77.8245 60.4346H69.2899V73.4736H77.8245V60.4346Z" fill="#60D8A4"/>
<path d="M65.62 110H57V147.217H65.62V110Z" fill="#F4BB3B"/>
<path d="M65.62 72.7832H57V110H65.62V72.7832Z" fill="#60D8A4"/>
<path d="M139.018 84.6133H130.483V97.6523H139.018V84.6133Z" fill="#1682FE"/>
<path d="M139.018 122.349H130.483V135.388H139.018V122.349Z" fill="#FF5A5A"/>
<path d="M126.813 134.783H118.279V147.822H126.813V134.783Z" fill="#FF5A5A"/>
<path d="M102.319 158.961H93.7842V172H102.319V158.961Z" fill="#FF5A5A"/>
<path d="M77.8245 146.526H69.2899V159.565H77.8245V146.526Z" fill="#F4BB3B"/>
<path d="M163 97.5655V72.7827H150.71V60.4345H126.216V48H101.721V60.4345H77.2271V72.8691H64.9372V147.217H77.2271V159.652H101.721V172.086H126.216V159.652H150.71V147.217H163V122.348H138.506V134.783H126.216V147.217H101.721V134.783H89.5169V85.2173H101.807V72.7827H126.301V85.2173H138.591V97.6518H163V97.5655Z" fill="#3A3A3A"/>
</g>
</g>
<defs>
<clipPath id="clip0_3991_162">
<rect width="220" height="220" rx="110" fill="white"/>
</clipPath>
<clipPath id="clip1_3991_162">
<rect width="106" height="124" fill="white" transform="translate(57 48)"/>
</clipPath>
</defs>
</svg>
