<svg width="220" height="220" viewBox="0 0 220 220" fill="none" xmlns="http://www.w3.org/2000/svg">
<g clip-path="url(#clip0_3804_100)">
<path d="M110 220C170.751 220 220 170.751 220 110C220 49.2487 170.751 0 110 0C49.2487 0 0 49.2487 0 110C0 170.751 49.2487 220 110 220Z" fill="url(#paint0_linear_3804_100)"/>
<path d="M110 220C170.751 220 220 170.751 220 110C220 49.2487 170.751 0 110 0C49.2487 0 0 49.2487 0 110C0 170.751 49.2487 220 110 220Z" fill="white" fill-opacity="0.2"/>
<path d="M61.5021 95.9777C62.9216 98.9827 66.4704 104.993 66.4704 104.993L107.105 38L67.5351 65.5748C65.2283 67.1656 63.2765 69.2868 61.8569 71.7614C58.1307 79.3622 58.1307 88.2002 61.5021 95.9777Z" fill="white"/>
<path d="M45.5323 117.896C46.4195 130.8 52.9849 142.82 63.2765 150.597L107.105 181C107.105 181 79.6011 141.582 56.5337 102.341C54.227 98.2757 52.63 93.6799 51.9202 88.9074C51.5653 86.7862 51.5653 84.6651 51.9202 82.5439C51.3879 83.6045 50.1458 85.9024 50.1458 85.9024C47.8391 90.675 46.2421 95.8011 45.3549 101.104C44.8226 106.76 44.8226 112.417 45.5323 117.896Z" fill="white"/>
<path d="M157.32 123.199C155.901 120.194 152.352 114.185 152.352 114.185L111.718 181L151.465 153.602C153.772 152.012 155.724 149.89 157.143 147.416C160.692 139.815 160.869 130.977 157.32 123.199Z" fill="white"/>
<path d="M173.468 101.104C172.58 88.2002 166.015 76.1805 155.724 68.403L111.895 38C111.895 38 139.399 77.4178 162.466 116.659C164.773 120.724 166.37 125.32 167.08 130.093C167.435 132.214 167.435 134.335 167.08 136.456C167.612 135.396 168.854 133.098 168.854 133.098C171.161 128.325 172.758 123.199 173.645 118.073C174 112.24 174 106.76 173.468 101.104Z" fill="white"/>
<path d="M61.8569 71.7614C63.2765 69.2868 65.0509 67.1656 67.5351 65.5748L107.105 38L66.4704 104.816C66.4704 104.816 62.9216 98.8059 61.5021 95.801C58.1307 88.2002 58.1307 79.3622 61.8569 71.7614ZM45.5323 117.896C46.4195 130.8 52.9849 142.82 63.2765 150.597L107.105 181C107.105 181 79.6011 141.582 56.5337 102.341C54.227 98.2757 52.63 93.6799 51.9202 88.9073C51.5653 86.7862 51.5653 84.665 51.9202 82.5439C51.3879 83.6045 50.1458 85.9024 50.1458 85.9024C47.8391 90.6749 46.2421 95.801 45.3549 101.104C44.8226 106.76 44.8226 112.417 45.5323 117.896ZM157.32 123.199C155.901 120.194 152.352 114.184 152.352 114.184L111.718 181L151.465 153.602C153.772 152.011 155.724 149.89 157.143 147.415C160.692 139.815 160.869 130.977 157.32 123.199ZM173.29 101.281C172.403 88.377 165.838 76.3572 155.546 68.5797L111.895 38C111.895 38 139.399 77.4178 162.466 116.659C164.773 120.724 166.37 125.32 167.08 130.093C167.435 132.214 167.435 134.335 167.08 136.456C167.612 135.396 168.854 133.098 168.854 133.098C171.161 128.325 172.758 123.199 173.645 118.073C174 112.24 174 106.76 173.29 101.281Z" fill="white"/>
</g>
<defs>
<linearGradient id="paint0_linear_3804_100" x1="110.042" y1="-1.08749" x2="110.042" y2="220.816" gradientUnits="userSpaceOnUse">
<stop stop-color="#513EFF"/>
<stop offset="0.18" stop-color="#5157FF"/>
<stop offset="0.57" stop-color="#5298FF"/>
<stop offset="1" stop-color="#52E5FF"/>
</linearGradient>
<clipPath id="clip0_3804_100">
<rect width="220" height="220" rx="110" fill="white"/>
</clipPath>
</defs>
</svg>
