<svg width="220" height="220" viewBox="0 0 220 220" fill="none" xmlns="http://www.w3.org/2000/svg">
<g clip-path="url(#clip0_3920_120)">
<path d="M110 220C170.751 220 220 170.751 220 110C220 49.2487 170.751 0 110 0C49.2487 0 0 49.2487 0 110C0 170.751 49.2487 220 110 220Z" fill="#0A0B0D"/>
<g clip-path="url(#clip1_3920_120)">
<path d="M67.4667 135.56C68.2271 134.798 69.2726 134.354 70.3815 134.354H170.941C172.778 134.354 173.697 136.577 172.398 137.879L152.533 157.793C151.773 158.556 150.727 159 149.619 159H49.0593C47.2218 159 46.303 156.777 47.602 155.475L67.4667 135.56Z" fill="url(#paint0_linear_3920_120)"/>
<path d="M67.4668 61.2069C68.2588 60.4447 69.3043 60 70.3815 60H170.941C172.778 60 173.697 62.2233 172.398 63.5255L152.533 83.4398C151.773 84.2021 150.728 84.6468 149.619 84.6468H49.0594C47.2219 84.6468 46.3031 82.4235 47.6021 81.1213L67.4668 61.2069Z" fill="url(#paint1_linear_3920_120)"/>
<path d="M152.533 98.1454C151.773 97.3831 150.727 96.9385 149.619 96.9385H49.0593C47.2218 96.9385 46.303 99.1618 47.602 100.464L67.4667 120.378C68.2271 121.141 69.2726 121.585 70.3815 121.585H170.941C172.778 121.585 173.697 119.362 172.398 118.06L152.533 98.1454Z" fill="url(#paint2_linear_3920_120)"/>
</g>
</g>
<defs>
<linearGradient id="paint0_linear_3920_120" x1="161.334" y1="48.104" x2="91.4661" y2="181.596" gradientUnits="userSpaceOnUse">
<stop stop-color="#00FFA3"/>
<stop offset="1" stop-color="#DC1FFF"/>
</linearGradient>
<linearGradient id="paint1_linear_3920_120" x1="130.904" y1="32.1766" x2="61.0355" y2="165.669" gradientUnits="userSpaceOnUse">
<stop stop-color="#00FFA3"/>
<stop offset="1" stop-color="#DC1FFF"/>
</linearGradient>
<linearGradient id="paint2_linear_3920_120" x1="146.022" y1="40.0896" x2="76.1538" y2="173.582" gradientUnits="userSpaceOnUse">
<stop stop-color="#00FFA3"/>
<stop offset="1" stop-color="#DC1FFF"/>
</linearGradient>
<clipPath id="clip0_3920_120">
<rect width="220" height="220" rx="110" fill="white"/>
</clipPath>
<clipPath id="clip1_3920_120">
<rect width="126" height="99" fill="white" transform="translate(47 60)"/>
</clipPath>
</defs>
</svg>
