<svg id="Layer_1" data-name="Layer 1" xmlns="http://www.w3.org/2000/svg" viewBox="0 0 220 220">
  <defs>
    <style>
      .cls-1 {
        fill: #2775ca;
      }

      .cls-2 {
        fill: #fff;
      }

    </style>
  </defs>
  <path class="cls-1" d="M110,220A110,110,0,1,0,0,110,109.73,109.73,0,0,0,110,220Z" />
  <path class="cls-2"
    d="M140.25,127.42c0-16-9.62-21.55-28.87-23.84-13.76-1.83-16.5-5.5-16.5-11.91s4.58-10.55,13.74-10.55c8.26,0,12.84,2.75,15.13,9.63A3.45,3.45,0,0,0,127,93h7.33a3.13,3.13,0,0,0,3.21-3.21v-.45a22.9,22.9,0,0,0-20.62-18.8v-11c0-1.83-1.38-3.2-3.67-3.66h-6.88c-1.83,0-3.2,1.37-3.66,3.66V70.12C88.92,72,80.21,81.12,80.21,92.58c0,15.13,9.17,21.09,28.42,23.38,12.83,2.29,17,5,17,12.37s-6.41,12.38-15.12,12.38c-11.92,0-16-5-17.42-11.92A3.35,3.35,0,0,0,89.83,126H82a3.14,3.14,0,0,0-3.21,3.21v.46c1.84,11.46,9.17,19.71,24.3,22v11c0,1.83,1.37,3.21,3.66,3.67h6.88c1.83,0,3.21-1.38,3.66-3.67v-11c13.75-2.29,22.92-11.92,22.92-24.29Z" />
  <path class="cls-2"
    d="M86.62,175.54a68.59,68.59,0,0,1,0-128.79,4.6,4.6,0,0,0,2.76-4.58V35.75a3.49,3.49,0,0,0-2.76-3.67,2.75,2.75,0,0,0-1.83.46,82.48,82.48,0,0,0,0,157.21,2.79,2.79,0,0,0,4.13-1.83c.46-.46.46-.92.46-1.84v-6.41C89.38,178.29,88,176.46,86.62,175.54Zm48.59-143a2.79,2.79,0,0,0-4.13,1.84c-.45.45-.45.91-.45,1.83v6.41a6.07,6.07,0,0,0,2.75,4.59,68.59,68.59,0,0,1,0,128.79,4.59,4.59,0,0,0-2.75,4.58V187a3.49,3.49,0,0,0,2.75,3.67,2.75,2.75,0,0,0,1.83-.46,82.83,82.83,0,0,0,0-157.67Z" />
</svg>
