<svg id="Layer_1" data-name="Layer 1" xmlns="http://www.w3.org/2000/svg" viewBox="0 0 220 220">
  <defs>
    <style>
      .cls-1 {
        fill: #001b69;
      }

      .cls-2 {
        fill: #fff;
      }

    </style>
  </defs>
  <path class="cls-1" d="M220,111.51a110,110,0,1,1-110-110A110,110,0,0,1,220,111.51Z" />
  <path class="cls-2"
    d="M105.41,154l-9.32-26.81H64.37L54.94,154H44L75.26,67.1h9.89L116.46,154ZM92.66,117.4,84,92.31q-.35-1.07-.87-2.61c-.31-1-.64-2.13-1-3.31s-.7-2.41-1.05-3.67-.67-2.56-1-3.79c-.28,1.23-.59,2.49-.94,3.79s-.69,2.56-1,3.79-.7,2.29-1,3.31-.58,1.82-.82,2.49L67.86,117.4Z" />
  <path class="cls-2"
    d="M176,127.57a18.78,18.78,0,0,1-1.46,7.52,16.79,16.79,0,0,1-4.19,5.86,22.21,22.21,0,0,1-6.57,4.14,35.88,35.88,0,0,1-8.73,2.31V161h-8V147.93q-2.91,0-5.87-.24c-2-.19-3.9-.47-5.77-.82a46.1,46.1,0,0,1-5.24-1.31,24.63,24.63,0,0,1-4.3-1.77V133.61q1.92.94,4.42,1.95c1.71.64,3.49,1.21,5.36,1.72s3.76.95,5.7,1.3a35.74,35.74,0,0,0,5.7.48V113.37a68.85,68.85,0,0,1-9-3.73,25.46,25.46,0,0,1-6.28-4.43,16.54,16.54,0,0,1-3.73-5.8,21.83,21.83,0,0,1-1.22-7.64,18,18,0,0,1,1.4-7.22,17.17,17.17,0,0,1,4.07-5.74,21.5,21.5,0,0,1,6.4-4A30.93,30.93,0,0,1,147,72.66V62h8V72.42A54.89,54.89,0,0,1,165.76,74,49.09,49.09,0,0,1,174.6,77l-3.84,8.58A54.43,54.43,0,0,0,163.43,83a40,40,0,0,0-8.38-1.6v25a82.16,82.16,0,0,1,9,3.79,26.46,26.46,0,0,1,6.58,4.44,15.67,15.67,0,0,1,4,5.62A18.75,18.75,0,0,1,176,127.57Zm-10.24,0a10.19,10.19,0,0,0-.59-3.54,7.65,7.65,0,0,0-1.86-3,12.21,12.21,0,0,0-3.26-2.49,35.16,35.16,0,0,0-5-2.19v22.07c3.61-.55,6.28-1.79,8-3.72A10.2,10.2,0,0,0,165.76,127.57ZM137,91.89a14.76,14.76,0,0,0,.47,3.85,9.24,9.24,0,0,0,1.69,3.08,12,12,0,0,0,3.08,2.48,27.82,27.82,0,0,0,4.77,2.13V81.6q-5.17.95-7.62,3.61A9.49,9.49,0,0,0,137,91.89Z" />
</svg>
