<svg width="160" height="32" viewBox="0 0 160 32" fill="none" xmlns="http://www.w3.org/2000/svg">
<path fill-rule="evenodd" clip-rule="evenodd" d="M97.5299 12.6681L97.104 1.3204C97.0899 0.94563 97.3773 0.628018 97.7516 0.604624L105.313 0.130976L106.642 0.0479526L107.404 0.00136952C107.785 -0.0224428 108.113 0.267113 108.137 0.648112C108.138 0.662466 108.138 0.676845 108.138 0.691227V13.0567C108.138 13.4384 107.829 13.7478 107.447 13.7478C107.436 13.7478 107.426 13.7476 107.416 13.7471L98.1896 13.3328C97.8303 13.3166 97.5434 13.0276 97.5299 12.6681ZM105.608 5.26521C105.365 5.45411 103.553 5.58299 103.553 5.31408C103.591 4.28794 103.132 4.24295 102.877 4.24295C102.634 4.24295 102.226 4.31625 102.226 4.86596C102.226 5.42615 102.823 5.7424 103.523 6.1136C104.518 6.64091 105.723 7.27914 105.723 8.88502C105.723 10.4242 104.472 11.2745 102.877 11.2745C101.231 11.2745 99.792 10.6084 99.9544 8.29936C100.018 8.02826 102.111 8.09267 102.111 8.29936C102.086 9.25223 102.303 9.53247 102.851 9.53247C103.272 9.53247 103.464 9.30034 103.464 8.90942C103.464 8.31786 102.842 7.96873 102.127 7.56716C101.158 7.02336 100.018 6.38338 100.018 4.91483C100.018 3.44891 101.026 2.47164 102.826 2.47164C104.625 2.47164 105.608 3.43394 105.608 5.26521ZM105.313 0.130976L106.642 0.0479526L106.642 0.0489952L106.697 1.63441C106.699 1.69132 106.654 1.73907 106.598 1.74106C106.573 1.7419 106.549 1.73409 106.53 1.719L106.019 1.31633L105.414 1.77541C105.368 1.80983 105.304 1.80095 105.269 1.75558C105.255 1.73648 105.247 1.71293 105.248 1.68898L105.313 0.132024L105.313 0.130976Z" fill="#FF4785"/>
<path d="M105.608 5.26521C105.365 5.45411 103.553 5.58299 103.553 5.31408C103.591 4.28794 103.132 4.24295 102.877 4.24295C102.634 4.24295 102.226 4.31625 102.226 4.86596C102.226 5.42615 102.823 5.7424 103.523 6.1136C104.518 6.64091 105.723 7.27914 105.723 8.88502C105.723 10.4242 104.472 11.2745 102.877 11.2745C101.231 11.2745 99.792 10.6084 99.9544 8.29936C100.018 8.02826 102.111 8.09267 102.111 8.29936C102.086 9.25223 102.303 9.53247 102.851 9.53247C103.272 9.53247 103.464 9.30034 103.464 8.90942C103.464 8.31786 102.842 7.96873 102.127 7.56716C101.158 7.02336 100.018 6.38338 100.018 4.91483C100.018 3.44891 101.026 2.47164 102.826 2.47164C104.625 2.47164 105.608 3.43394 105.608 5.26521Z" fill="white"/>
<path d="M106.642 0.0489952L105.313 0.132024L105.248 1.68898C105.247 1.71293 105.255 1.73648 105.269 1.75558C105.304 1.80095 105.368 1.80983 105.414 1.77541L106.019 1.31633L106.53 1.719C106.549 1.73409 106.573 1.7419 106.598 1.74106C106.654 1.73907 106.699 1.69132 106.697 1.63441L106.642 0.0489952Z" fill="white"/>
<path d="M41.6466 22.3802C42.0425 22.3802 42.389 22.2857 42.6859 22.0967C42.9919 21.9078 43.2303 21.6468 43.4014 21.3138C43.5813 20.9718 43.6713 20.5894 43.6713 20.1664C43.6713 19.7345 43.5813 19.3565 43.4014 19.0326C43.2303 18.6996 42.9919 18.4386 42.6859 18.2497C42.389 18.0517 42.0425 17.9527 41.6466 17.9527C41.2416 17.9527 40.8861 18.0517 40.5802 18.2497C40.2742 18.4386 40.0312 18.6996 39.8513 19.0326C39.6802 19.3565 39.5948 19.7345 39.5948 20.1664C39.5948 20.5894 39.6802 20.9718 39.8513 21.3138C40.0312 21.6468 40.2742 21.9078 40.5802 22.0967C40.8861 22.2857 41.2416 22.3802 41.6466 22.3802Z" fill="#FF4D15"/>
<path d="M93.2164 22.3802C93.6124 22.3802 93.9588 22.2857 94.2558 22.0967C94.5618 21.9078 94.8002 21.6468 94.9712 21.3138C95.1512 20.9718 95.241 20.5894 95.241 20.1664C95.241 19.7345 95.1512 19.3565 94.9712 19.0326C94.8002 18.6996 94.5618 18.4386 94.2558 18.2497C93.9588 18.0517 93.6124 17.9527 93.2164 17.9527C92.8114 17.9527 92.456 18.0517 92.15 18.2497C91.8441 18.4386 91.6011 18.6996 91.4211 19.0326C91.2501 19.3565 91.1646 19.7345 91.1646 20.1664C91.1646 20.5894 91.2501 20.9718 91.4211 21.3138C91.6011 21.6468 91.8441 21.9078 92.15 22.0967C92.456 22.2857 92.8114 22.3802 93.2164 22.3802Z" fill="#FF4D15"/>
<path fill-rule="evenodd" clip-rule="evenodd" d="M92.6897 5.51709H13.2414C5.92837 5.51709 0 11.4455 0 18.7585C0 26.0715 5.92837 31.9999 13.2414 31.9999H92.6897C100.003 31.9999 105.931 26.0715 105.931 18.7585C105.931 17.2546 105.841 16.2436 105.379 14.8964L97.5434 14.4067C96.9797 14.3714 96.5336 13.9163 96.5097 13.352L96.198 5.98686C95.0806 5.68062 93.9042 5.51709 92.6897 5.51709ZM30.6099 23.6084C31.2218 23.8694 31.8877 23.9998 32.6077 23.9998C33.3276 23.9998 33.971 23.8783 34.5379 23.6354C35.1138 23.3924 35.5998 23.073 35.9958 22.677C36.3918 22.272 36.6752 21.8311 36.8462 21.3541L35.1994 20.5847C35.0104 21.0887 34.6909 21.5071 34.241 21.8401C33.791 22.164 33.2466 22.326 32.6077 22.326C31.9777 22.326 31.4198 22.1775 30.9338 21.8806C30.4569 21.5836 30.0834 21.1741 29.8135 20.6522C29.5525 20.1212 29.422 19.5048 29.422 18.8029C29.422 18.101 29.5525 17.4891 29.8135 16.9671C30.0834 16.4452 30.4569 16.0357 30.9338 15.7387C31.4198 15.4418 31.9777 15.2933 32.6077 15.2933C33.2466 15.2933 33.791 15.4598 34.241 15.7927C34.6909 16.1167 35.0104 16.5307 35.1994 17.0346L36.8462 16.2652C36.6752 15.7882 36.3918 15.3518 35.9958 14.9558C35.5998 14.5509 35.1138 14.2269 34.5379 13.9839C33.971 13.741 33.3276 13.6195 32.6077 13.6195C31.8877 13.6195 31.2218 13.75 30.6099 14.0109C29.9979 14.2629 29.4625 14.6229 29.0036 15.0908C28.5536 15.5498 28.2026 16.0987 27.9507 16.7376C27.7077 17.3676 27.5862 18.056 27.5862 18.8029C27.5862 19.5498 27.7122 20.2383 27.9642 20.8682C28.2161 21.4981 28.5671 22.0471 29.0171 22.515C29.476 22.9829 30.0069 23.3474 30.6099 23.6084ZM39.6758 23.5006C40.2697 23.8335 40.9266 24 41.6466 24C42.3575 24 43.0054 23.8335 43.5903 23.5006C44.1752 23.1676 44.6432 22.7131 44.9942 22.1372C45.3451 21.5613 45.5206 20.9043 45.5206 20.1664C45.5206 19.4195 45.3451 18.7626 44.9942 18.1957C44.6522 17.6197 44.1887 17.1653 43.6038 16.8323C43.0189 16.4994 42.3664 16.3329 41.6466 16.3329C40.9176 16.3329 40.2607 16.4994 39.6758 16.8323C39.0908 17.1653 38.6229 17.6197 38.2719 18.1957C37.93 18.7716 37.759 19.4285 37.759 20.1664C37.759 20.9043 37.93 21.5613 38.2719 22.1372C38.6229 22.7131 39.0908 23.1676 39.6758 23.5006ZM46.8632 16.4945V23.8377H48.6315V16.4945H46.8632ZM46.8632 13.7813V15.6711H48.6315V13.7813H46.8632ZM50.2643 23.838V16.4949H51.9246V17.3958C52.0945 17.0944 52.3285 16.8571 52.6266 16.6838C53.0225 16.4499 53.4815 16.3329 54.0034 16.3329C54.5433 16.3329 55.0203 16.4499 55.4342 16.6838C55.8572 16.9178 56.1856 17.2463 56.4196 17.6692C56.6536 18.0832 56.7706 18.5646 56.7706 19.1136V23.838H55.0023V19.532C55.0023 19.2081 54.9393 18.9291 54.8133 18.6951C54.6873 18.4611 54.5118 18.2812 54.2869 18.1552C54.0709 18.0202 53.8144 17.9527 53.5175 17.9527C53.2295 17.9527 52.973 18.0202 52.748 18.1552C52.5231 18.2812 52.3476 18.4611 52.2216 18.6951C52.0956 18.9291 52.0326 19.2081 52.0326 19.532V23.838H50.2643ZM58.2636 23.838V16.4949H59.9239V17.4088C60.0733 17.123 60.2802 16.8949 60.5448 16.7243C60.9498 16.4634 61.4267 16.3329 61.9757 16.3329C62.5786 16.3329 63.1096 16.4904 63.5685 16.8053C63.8578 17.0039 64.0827 17.2417 64.2433 17.5189C64.4397 17.2105 64.6827 16.9637 64.9724 16.7783C65.4223 16.4814 65.9397 16.3329 66.5247 16.3329C67.0466 16.3329 67.5101 16.4499 67.915 16.6838C68.329 16.9178 68.6529 17.2463 68.8869 17.6692C69.1208 18.0832 69.2379 18.5646 69.2379 19.1136V23.838H67.4696V19.532C67.4696 19.2081 67.4111 18.9291 67.2941 18.6951C67.1771 18.4611 67.0151 18.2812 66.8081 18.1552C66.6011 18.0202 66.3492 17.9527 66.0522 17.9527C65.7732 17.9527 65.5258 18.0202 65.3098 18.1552C65.0938 18.2812 64.9273 18.4611 64.8104 18.6951C64.6933 18.9291 64.6349 19.2081 64.6349 19.532V23.838H62.8666V19.532C62.8666 19.2081 62.8081 18.9291 62.6911 18.6951C62.5741 18.4611 62.4076 18.2812 62.1917 18.1552C61.9847 18.0202 61.7372 17.9527 61.4492 17.9527C61.1702 17.9527 60.9228 18.0202 60.7068 18.1552C60.4909 18.2812 60.3243 18.4611 60.2074 18.6951C60.0903 18.9291 60.0319 19.2081 60.0319 19.532V23.838H58.2636ZM74.2165 24C73.4606 24 72.7991 23.8291 72.2322 23.4871C71.6653 23.1451 71.2243 22.6817 70.9093 22.0967C70.5944 21.5118 70.4369 20.8638 70.4369 20.153C70.4369 19.415 70.5944 18.7626 70.9093 18.1957C71.2333 17.6197 71.6698 17.1653 72.2187 16.8323C72.7767 16.4994 73.3976 16.3329 74.0815 16.3329C74.6575 16.3329 75.1614 16.4274 75.5933 16.6163C76.0343 16.8053 76.4077 17.0663 76.7137 17.3993C77.0197 17.7322 77.2536 18.1147 77.4156 18.5466C77.5776 18.9696 77.6586 19.4285 77.6586 19.9235C77.6586 20.0495 77.6496 20.1799 77.6316 20.3149C77.6226 20.4499 77.6001 20.5669 77.5641 20.6659H72.2733C72.296 20.9185 72.3543 21.1525 72.4482 21.3678C72.6102 21.7098 72.8442 21.9752 73.1501 22.1642C73.4651 22.3532 73.825 22.4477 74.23 22.4477C74.6349 22.4477 74.9769 22.3622 75.2559 22.1912C75.5438 22.0203 75.7688 21.7908 75.9308 21.5028L77.3616 22.2047C77.2177 22.5557 76.9927 22.8661 76.6867 23.1361C76.3808 23.4061 76.0163 23.6175 75.5933 23.7705C75.1794 23.9236 74.7204 24 74.2165 24ZM80.4162 23.2437C80.8752 23.6937 81.5187 23.9186 82.3465 23.9186C82.4815 23.9186 82.63 23.9096 82.792 23.8916C82.9539 23.8736 83.098 23.8556 83.2239 23.8376V22.3258C83.1429 22.3348 83.0575 22.3438 82.9674 22.3528C82.8865 22.3618 82.8145 22.3663 82.7515 22.3663C82.4635 22.3663 82.225 22.3213 82.0361 22.2313C81.8561 22.1413 81.7211 22.0108 81.6311 21.8398C81.5501 21.6689 81.5096 21.4619 81.5096 21.2189V18.0738H83.1969V16.4944H81.5096V14.8206H79.7413V15.3876C79.7413 15.7475 79.6424 16.022 79.4443 16.211C79.2464 16.4 78.9674 16.4944 78.6074 16.4944H78.4724V18.0738H79.7413V21.3134C79.7413 22.1413 79.9663 22.7847 80.4162 23.2437ZM84.5772 23.8373V16.4941H86.2376V17.5276C86.4024 17.1662 86.6229 16.9027 86.899 16.7371C87.2679 16.5211 87.7089 16.4131 88.2218 16.4131H88.6538V17.9789H88.0194C87.5154 17.9789 87.1104 18.1364 86.8045 18.4514C86.4985 18.7573 86.3455 19.1893 86.3455 19.7472V23.8373H84.5772ZM91.2456 23.5006C91.8395 23.8335 92.4965 24 93.2164 24C93.9273 24 94.5753 23.8335 95.16 23.5006C95.7452 23.1676 96.2129 22.7131 96.5639 22.1372C96.9148 21.5613 97.0903 20.9043 97.0903 20.1664C97.0903 19.4195 96.9148 18.7626 96.5639 18.1957C96.2224 17.6197 95.7587 17.1653 95.1735 16.8323C94.5888 16.4994 93.9363 16.3329 93.2164 16.3329C92.4875 16.3329 91.8306 16.4994 91.2456 16.8323C90.6607 17.1653 90.1927 17.6197 89.8417 18.1957C89.4998 18.7716 89.3288 19.4285 89.3288 20.1664C89.3288 20.9043 89.4998 21.5613 89.8417 22.1372C90.1927 22.7131 90.6607 23.1676 91.2456 23.5006ZM20.1078 21.994L19.6643 22.3331C18.0194 23.5907 15.6738 23.4327 14.2075 21.9658C13.8205 21.5807 13.5137 21.1227 13.3049 20.6183C13.096 20.1139 12.9892 19.5731 12.9907 19.027C12.9892 18.4811 13.096 17.9401 13.3049 17.4357C13.5137 16.9313 13.8205 16.4733 14.2075 16.0883C14.5923 15.7011 15.0501 15.3942 15.5544 15.1852C16.0586 14.9762 16.5992 14.8694 17.145 14.8708C17.6908 14.8694 18.2314 14.9762 18.7356 15.1852C19.2399 15.3942 19.6976 15.7011 20.0824 16.0883L20.9863 15.1841C20.4831 14.6778 19.8844 14.2765 19.2251 14.0032C18.5656 13.73 17.8586 13.5903 17.145 13.5923C16.4313 13.5903 15.7243 13.73 15.065 14.0032C14.4055 14.2764 13.8069 14.6778 13.3037 15.1841C12.7976 15.6875 12.3964 16.2865 12.1232 16.946C11.8501 17.6057 11.7105 18.3131 11.7124 19.027C11.7105 19.741 11.8501 20.4483 12.1232 21.1079C12.3963 21.7676 12.7975 22.3665 13.3035 22.87C15.0865 24.6535 17.8638 24.9568 19.9749 23.6673L20.9009 24.5919C19.7149 25.3945 18.3027 25.7951 16.8721 25.7349C15.1876 25.6684 13.5903 24.9682 12.3996 23.7742C9.78351 21.1566 9.78351 16.8977 12.3996 14.2798C13.6672 13.0118 15.3523 12.3135 17.1448 12.3135C18.9373 12.3135 20.6224 13.0118 21.89 14.2798L22.7939 13.3756C21.2853 11.8662 19.2792 11.0343 17.1457 11.0343C15.0121 11.0343 13.0058 11.8656 11.4966 13.3756C8.38159 16.4919 8.38159 21.5621 11.4966 24.6771C12.914 26.0984 14.8154 26.932 16.8208 27.0112C16.9298 27.0155 17.0385 27.0178 17.1472 27.0178C19.0264 27.0199 20.8456 26.3569 22.2828 25.1459L22.8155 24.6968L20.1078 21.994ZM10.6073 12.4865L9.70343 11.5823C7.71563 13.5708 6.62069 16.2146 6.62069 19.0268C6.62069 21.8389 7.71531 24.4828 9.70343 26.4713L10.6073 25.5671C8.86093 23.82 7.89914 21.4971 7.89914 19.0263C7.89914 16.5555 8.86093 14.2333 10.6073 12.4865Z" fill="#FF4D15"/>
<path d="M75.6608 18.8436C75.5438 18.5196 75.3459 18.2632 75.0669 18.0742C74.7969 17.8852 74.4685 17.7907 74.0815 17.7907C73.7126 17.7907 73.3841 17.8852 73.0961 18.0742C72.8082 18.2542 72.5877 18.5241 72.4347 18.8841C72.3801 19.0171 72.3385 19.1611 72.3098 19.316H75.7687C75.7544 19.1492 75.7184 18.9917 75.6608 18.8436Z" fill="#FF4D15"/>
<path d="M32.6077 23.9998C31.8877 23.9998 31.2218 23.8694 30.6099 23.6084C30.0069 23.3474 29.476 22.9829 29.0171 22.515C28.5671 22.0471 28.2161 21.4981 27.9642 20.8682C27.7122 20.2383 27.5862 19.5498 27.5862 18.8029C27.5862 18.056 27.7077 17.3676 27.9507 16.7376C28.2026 16.0987 28.5536 15.5498 29.0036 15.0908C29.4625 14.6229 29.9979 14.2629 30.6099 14.0109C31.2218 13.75 31.8877 13.6195 32.6077 13.6195C33.3276 13.6195 33.971 13.741 34.5379 13.9839C35.1138 14.2269 35.5998 14.5509 35.9958 14.9558C36.3918 15.3518 36.6752 15.7882 36.8462 16.2652L35.1994 17.0346C35.0104 16.5307 34.6909 16.1167 34.241 15.7927C33.791 15.4598 33.2466 15.2933 32.6077 15.2933C31.9777 15.2933 31.4198 15.4418 30.9338 15.7387C30.4569 16.0357 30.0834 16.4452 29.8135 16.9671C29.5525 17.4891 29.422 18.101 29.422 18.8029C29.422 19.5048 29.5525 20.1212 29.8135 20.6522C30.0834 21.1741 30.4569 21.5836 30.9338 21.8806C31.4198 22.1775 31.9777 22.326 32.6077 22.326C33.2466 22.326 33.791 22.164 34.241 21.8401C34.6909 21.5071 35.0104 21.0887 35.1994 20.5847L36.8462 21.3541C36.6752 21.8311 36.3918 22.272 35.9958 22.677C35.5998 23.073 35.1138 23.3924 34.5379 23.6354C33.971 23.8783 33.3276 23.9998 32.6077 23.9998Z" fill="white"/>
<path d="M19.6643 22.3331L20.1078 21.994L22.8155 24.6968L22.2828 25.1459C20.8456 26.3569 19.0264 27.0199 17.1472 27.0178C17.0385 27.0178 16.9298 27.0155 16.8208 27.0112C14.8154 26.932 12.914 26.0984 11.4966 24.6771C8.38159 21.5621 8.38159 16.4919 11.4966 13.3756C13.0058 11.8656 15.0121 11.0343 17.1457 11.0343C19.2792 11.0343 21.2853 11.8662 22.7939 13.3756L21.89 14.2798C20.6224 13.0118 18.9373 12.3135 17.1448 12.3135C15.3523 12.3135 13.6672 13.0118 12.3996 14.2798C9.78351 16.8977 9.78351 21.1566 12.3996 23.7742C13.5903 24.9682 15.1876 25.6684 16.8721 25.7349C18.3027 25.7951 19.7149 25.3945 20.9009 24.5919L19.9749 23.6673C17.8638 24.9568 15.0865 24.6535 13.3035 22.87C12.7975 22.3665 12.3963 21.7676 12.1232 21.1079C11.8501 20.4483 11.7105 19.741 11.7124 19.027C11.7105 18.3131 11.8501 17.6057 12.1232 16.946C12.3964 16.2865 12.7976 15.6875 13.3037 15.1841C13.8069 14.6778 14.4055 14.2764 15.065 14.0032C15.7243 13.73 16.4313 13.5903 17.145 13.5923C17.8586 13.5903 18.5656 13.73 19.2251 14.0032C19.8844 14.2765 20.4831 14.6778 20.9863 15.1841L20.0824 16.0883C19.6976 15.7011 19.2399 15.3942 18.7356 15.1852C18.2314 14.9762 17.6908 14.8694 17.145 14.8708C16.5992 14.8694 16.0586 14.9762 15.5544 15.1852C15.0501 15.3942 14.5923 15.7011 14.2075 16.0883C13.8205 16.4733 13.5137 16.9313 13.3049 17.4357C13.096 17.9401 12.9892 18.4811 12.9907 19.027C12.9892 19.5731 13.096 20.1139 13.3049 20.6183C13.5137 21.1227 13.8205 21.5807 14.2075 21.9658C15.6738 23.4327 18.0194 23.5907 19.6643 22.3331Z" fill="white"/>
<path d="M9.70343 11.5823L10.6073 12.4865C8.86093 14.2333 7.89914 16.5555 7.89914 19.0263C7.89914 21.4971 8.86093 23.82 10.6073 25.5671L9.70343 26.4713C7.71531 24.4828 6.62069 21.8389 6.62069 19.0268C6.62069 16.2146 7.71563 13.5708 9.70343 11.5823Z" fill="white"/>
<path fill-rule="evenodd" clip-rule="evenodd" d="M41.6466 24C40.9266 24 40.2697 23.8335 39.6758 23.5006C39.0908 23.1676 38.6229 22.7131 38.2719 22.1372C37.93 21.5613 37.759 20.9043 37.759 20.1664C37.759 19.4285 37.93 18.7716 38.2719 18.1957C38.6229 17.6197 39.0908 17.1653 39.6758 16.8323C40.2607 16.4994 40.9176 16.3329 41.6466 16.3329C42.3664 16.3329 43.0189 16.4994 43.6038 16.8323C44.1887 17.1653 44.6522 17.6197 44.9942 18.1957C45.3451 18.7626 45.5206 19.4195 45.5206 20.1664C45.5206 20.9043 45.3451 21.5613 44.9942 22.1372C44.6432 22.7131 44.1752 23.1676 43.5903 23.5006C43.0054 23.8335 42.3575 24 41.6466 24ZM42.6859 22.0967C42.389 22.2857 42.0425 22.3802 41.6466 22.3802C41.2416 22.3802 40.8861 22.2857 40.5802 22.0967C40.2742 21.9078 40.0312 21.6468 39.8513 21.3138C39.6802 20.9718 39.5948 20.5894 39.5948 20.1664C39.5948 19.7345 39.6802 19.3565 39.8513 19.0326C40.0312 18.6996 40.2742 18.4386 40.5802 18.2497C40.8861 18.0517 41.2416 17.9527 41.6466 17.9527C42.0425 17.9527 42.389 18.0517 42.6859 18.2497C42.9919 18.4386 43.2303 18.6996 43.4014 19.0326C43.5813 19.3565 43.6713 19.7345 43.6713 20.1664C43.6713 20.5894 43.5813 20.9718 43.4014 21.3138C43.2303 21.6468 42.9919 21.9078 42.6859 22.0967Z" fill="white"/>
<path d="M46.8632 23.8377V16.4945H48.6315V23.8377H46.8632Z" fill="white"/>
<path d="M46.8632 15.6711V13.7813H48.6315V15.6711H46.8632Z" fill="white"/>
<path d="M50.2643 16.4949V23.838H52.0326V19.532C52.0326 19.2081 52.0956 18.9291 52.2216 18.6951C52.3476 18.4611 52.5231 18.2812 52.748 18.1552C52.973 18.0202 53.2295 17.9527 53.5175 17.9527C53.8144 17.9527 54.0709 18.0202 54.2869 18.1552C54.5118 18.2812 54.6873 18.4611 54.8133 18.6951C54.9393 18.9291 55.0023 19.2081 55.0023 19.532V23.838H56.7706V19.1136C56.7706 18.5646 56.6536 18.0832 56.4196 17.6692C56.1856 17.2463 55.8572 16.9178 55.4342 16.6838C55.0203 16.4499 54.5433 16.3329 54.0034 16.3329C53.4815 16.3329 53.0225 16.4499 52.6266 16.6838C52.3285 16.8571 52.0945 17.0944 51.9246 17.3958V17.9392L51.7896 17.6827C51.8289 17.5814 51.8739 17.4858 51.9246 17.3958V16.4949H50.2643Z" fill="white"/>
<path d="M51.7896 17.6827L51.9246 17.9392V17.3958C51.8739 17.4858 51.8289 17.5814 51.7896 17.6827Z" fill="white"/>
<path d="M58.2636 16.4949V23.838H60.0319V19.532C60.0319 19.2081 60.0903 18.9291 60.2074 18.6951C60.3243 18.4611 60.4909 18.2812 60.7068 18.1552C60.9228 18.0202 61.1702 17.9527 61.4492 17.9527C61.7372 17.9527 61.9847 18.0202 62.1917 18.1552C62.4076 18.2812 62.5741 18.4611 62.6911 18.6951C62.8081 18.9291 62.8666 19.2081 62.8666 19.532V23.838H64.6349V19.532C64.6349 19.2081 64.6933 18.9291 64.8104 18.6951C64.9273 18.4611 65.0938 18.2812 65.3098 18.1552C65.5258 18.0202 65.7732 17.9527 66.0522 17.9527C66.3492 17.9527 66.6011 18.0202 66.8081 18.1552C67.0151 18.2812 67.1771 18.4611 67.2941 18.6951C67.4111 18.9291 67.4696 19.2081 67.4696 19.532V23.838H69.2379V19.1136C69.2379 18.5646 69.1208 18.0832 68.8869 17.6692C68.6529 17.2463 68.329 16.9178 67.915 16.6838C67.5101 16.4499 67.0466 16.3329 66.5247 16.3329C65.9397 16.3329 65.4223 16.4814 64.9724 16.7783C64.6827 16.9637 64.4397 17.2105 64.2433 17.5189C64.3375 17.6815 64.4095 17.8576 64.4594 18.0472L63.96 18.0877C64.0401 17.8792 64.1346 17.6897 64.2433 17.5189C64.0827 17.2417 63.8578 17.0039 63.5685 16.8053C63.1096 16.4904 62.5786 16.3329 61.9757 16.3329C61.4267 16.3329 60.9498 16.4634 60.5448 16.7243C60.2802 16.8949 60.0733 17.123 59.9239 17.4088V18.1957L59.7349 17.9122C59.7817 17.7282 59.8447 17.5604 59.9239 17.4088V16.4949H58.2636Z" fill="white"/>
<path d="M59.7349 17.9122L59.9239 18.1957V17.4088C59.8447 17.5604 59.7817 17.7282 59.7349 17.9122Z" fill="white"/>
<path d="M63.96 18.0877L64.4594 18.0472C64.4095 17.8576 64.3375 17.6815 64.2433 17.5189C64.1346 17.6897 64.0401 17.8792 63.96 18.0877Z" fill="white"/>
<path d="M72.2322 23.4871C72.7991 23.8291 73.4606 24 74.2165 24C74.7204 24 75.1794 23.9236 75.5933 23.7705C76.0163 23.6175 76.3808 23.4061 76.6867 23.1361C76.9927 22.8661 77.2177 22.5557 77.3616 22.2047L75.9308 21.5028C75.7688 21.7908 75.5438 22.0203 75.2559 22.1912C74.9769 22.3622 74.6349 22.4477 74.23 22.4477C73.825 22.4477 73.4651 22.3532 73.1501 22.1642C72.8442 21.9752 72.6102 21.7098 72.4482 21.3678C72.3543 21.1525 72.296 20.9185 72.2733 20.6659H71.8947V19.316H72.3098C72.3385 19.1611 72.3801 19.0171 72.4347 18.8841C72.5877 18.5241 72.8082 18.2542 73.0961 18.0742C73.3841 17.8852 73.7126 17.7907 74.0815 17.7907C74.4685 17.7907 74.7969 17.8852 75.0669 18.0742C75.3459 18.2632 75.5438 18.5196 75.6608 18.8436C75.7184 18.9917 75.7544 19.1492 75.7687 19.316H76.5652L75.7283 19.9505C75.7723 19.7257 75.7857 19.5143 75.7687 19.316H72.3098C72.2627 19.57 72.2503 19.8535 72.2727 20.1664C72.2588 20.3403 72.259 20.5068 72.2733 20.6659H77.5641C77.6001 20.5669 77.6226 20.4499 77.6316 20.3149C77.6496 20.1799 77.6586 20.0495 77.6586 19.9235C77.6586 19.4285 77.5776 18.9696 77.4156 18.5466C77.2536 18.1147 77.0197 17.7322 76.7137 17.3993C76.4077 17.0663 76.0343 16.8053 75.5933 16.6163C75.1614 16.4274 74.6575 16.3329 74.0815 16.3329C73.3976 16.3329 72.7767 16.4994 72.2187 16.8323C71.6698 17.1653 71.2333 17.6197 70.9093 18.1957C70.5944 18.7626 70.4369 19.415 70.4369 20.153C70.4369 20.8638 70.5944 21.5118 70.9093 22.0967C71.2243 22.6817 71.6653 23.1451 72.2322 23.4871Z" fill="white"/>
<path d="M75.7283 19.9505L76.5652 19.316H75.7687C75.7857 19.5143 75.7723 19.7257 75.7283 19.9505Z" fill="white"/>
<path d="M71.8947 19.316V20.6659H72.2733C72.259 20.5068 72.2588 20.3403 72.2727 20.1664C72.2503 19.8535 72.2627 19.57 72.3098 19.316H71.8947Z" fill="white"/>
<path d="M82.3465 23.9186C81.5187 23.9186 80.8752 23.6937 80.4162 23.2437C79.9663 22.7847 79.7413 22.1413 79.7413 21.3134V18.0738H78.4724V16.4944H78.6074C78.9674 16.4944 79.2464 16.4 79.4443 16.211C79.6424 16.022 79.7413 15.7475 79.7413 15.3876V14.8206H81.5096V16.4944H83.1969V18.0738H81.5096V21.2189C81.5096 21.4619 81.5501 21.6689 81.6311 21.8398C81.7211 22.0108 81.8561 22.1413 82.0361 22.2313C82.225 22.3213 82.4635 22.3663 82.7515 22.3663C82.8145 22.3663 82.8865 22.3618 82.9674 22.3528C83.0575 22.3438 83.1429 22.3348 83.2239 22.3258V23.8376C83.098 23.8556 82.9539 23.8736 82.792 23.8916C82.63 23.9096 82.4815 23.9186 82.3465 23.9186Z" fill="white"/>
<path d="M84.5772 16.4941V23.8373H86.3455V19.7472C86.3455 19.1893 86.4985 18.7573 86.8045 18.4514C87.1104 18.1364 87.5154 17.9789 88.0194 17.9789H88.6538V16.4131H88.2218C87.7089 16.4131 87.2679 16.5211 86.899 16.7371C86.6229 16.9027 86.4024 17.1662 86.2376 17.5276V18.1274L86.1026 17.8844C86.1424 17.7564 86.1874 17.6375 86.2376 17.5276V16.4941H84.5772Z" fill="white"/>
<path d="M86.1026 17.8844L86.2376 18.1274V17.5276C86.1874 17.6375 86.1424 17.7564 86.1026 17.8844Z" fill="white"/>
<path fill-rule="evenodd" clip-rule="evenodd" d="M93.2164 24C92.4965 24 91.8395 23.8335 91.2456 23.5006C90.6607 23.1676 90.1927 22.7131 89.8417 22.1372C89.4998 21.5613 89.3288 20.9043 89.3288 20.1664C89.3288 19.4285 89.4998 18.7716 89.8417 18.1957C90.1927 17.6197 90.6607 17.1653 91.2456 16.8323C91.8306 16.4994 92.4875 16.3329 93.2164 16.3329C93.9363 16.3329 94.5888 16.4994 95.1735 16.8323C95.7587 17.1653 96.2224 17.6197 96.5639 18.1957C96.9148 18.7626 97.0903 19.4195 97.0903 20.1664C97.0903 20.9043 96.9148 21.5613 96.5639 22.1372C96.2129 22.7131 95.7452 23.1676 95.16 23.5006C94.5753 23.8335 93.9273 24 93.2164 24ZM94.2558 22.0967C93.9588 22.2857 93.6124 22.3802 93.2164 22.3802C92.8114 22.3802 92.456 22.2857 92.15 22.0967C91.8441 21.9078 91.6011 21.6468 91.4211 21.3138C91.2501 20.9718 91.1646 20.5894 91.1646 20.1664C91.1646 19.7345 91.2501 19.3565 91.4211 19.0326C91.6011 18.6996 91.8441 18.4386 92.15 18.2497C92.456 18.0517 92.8114 17.9527 93.2164 17.9527C93.6124 17.9527 93.9588 18.0517 94.2558 18.2497C94.5618 18.4386 94.8002 18.6996 94.9712 19.0326C95.1512 19.3565 95.241 19.7345 95.241 20.1664C95.241 20.5894 95.1512 20.9718 94.9712 21.3138C94.8002 21.6468 94.5618 21.9078 94.2558 22.0967Z" fill="white"/>
</svg>
