<svg width="160" height="32" viewBox="0 0 160 32" fill="none" xmlns="http://www.w3.org/2000/svg">
<g clip-path="url(#clip0_86_900)">
<path fill-rule="evenodd" clip-rule="evenodd" d="M117.06 14.4779L116.573 1.50903C116.557 1.08072 116.885 0.717735 117.313 0.690999L125.955 0.149687L127.473 0.054803L128.344 0.00156517C128.779 -0.025649 129.154 0.305273 129.182 0.740699C129.183 0.757105 129.183 0.773538 129.183 0.789974V14.9219C129.183 15.3581 128.829 15.7118 128.393 15.7118C128.381 15.7118 128.37 15.7116 128.358 15.711L117.813 15.2375C117.403 15.219 117.075 14.8887 117.06 14.4779ZM126.291 6.01739C126.013 6.23327 123.943 6.38057 123.943 6.07324C123.987 4.9005 123.462 4.84909 123.17 4.84909C122.893 4.84909 122.426 4.93286 122.426 5.5611C122.426 6.20132 123.108 6.56275 123.909 6.98697C125.046 7.58962 126.423 8.31902 126.423 10.1543C126.423 11.9134 124.993 12.8851 123.17 12.8851C121.289 12.8851 119.645 12.1239 119.83 9.48499C119.903 9.17516 122.295 9.24877 122.295 9.48499C122.266 10.574 122.514 10.8943 123.141 10.8943C123.622 10.8943 123.841 10.629 123.841 10.1822C123.841 9.50613 123.131 9.10713 122.313 8.64818C121.206 8.0267 119.903 7.29529 119.903 5.61695C119.903 3.94162 121.056 2.82473 123.112 2.82473C125.168 2.82473 126.291 3.92451 126.291 6.01739ZM125.955 0.149687L127.473 0.054803L127.473 0.0559946L127.536 1.86789C127.539 1.93294 127.488 1.98751 127.423 1.98978C127.395 1.99075 127.367 1.98182 127.346 1.96458L126.761 1.50438L126.07 2.02904C126.018 2.06838 125.944 2.05823 125.905 2.00638C125.888 1.98455 125.88 1.95763 125.881 1.93026L125.955 0.150885L125.955 0.149687Z" fill="#FF4785"/>
<path d="M126.291 6.01739C126.013 6.23327 123.943 6.38057 123.943 6.07324C123.987 4.9005 123.462 4.84909 123.17 4.84909C122.893 4.84909 122.426 4.93286 122.426 5.5611C122.426 6.20132 123.108 6.56275 123.909 6.98697C125.046 7.58962 126.423 8.31902 126.423 10.1543C126.423 11.9134 124.993 12.8851 123.17 12.8851C121.289 12.8851 119.645 12.1239 119.83 9.48499C119.903 9.17516 122.295 9.24877 122.295 9.48499C122.266 10.574 122.514 10.8943 123.141 10.8943C123.622 10.8943 123.841 10.629 123.841 10.1822C123.841 9.50613 123.131 9.10713 122.313 8.64818C121.206 8.0267 119.903 7.29529 119.903 5.61695C119.903 3.94162 121.056 2.82473 123.112 2.82473C125.168 2.82473 126.291 3.92451 126.291 6.01739Z" fill="white"/>
<path d="M127.473 0.0559946L125.955 0.150885L125.881 1.93026C125.88 1.95763 125.888 1.98455 125.905 2.00638C125.944 2.05823 126.018 2.06838 126.07 2.02904L126.761 1.50438L127.346 1.96458C127.367 1.98182 127.395 1.99075 127.423 1.98978C127.488 1.98751 127.539 1.93294 127.536 1.86789L127.473 0.0559946Z" fill="white"/>
<path d="M47.5961 21.006C48.0486 21.006 48.4446 20.898 48.784 20.6821C49.1336 20.4661 49.4061 20.1678 49.6016 19.7873C49.8072 19.3965 49.9101 18.9594 49.9101 18.476C49.9101 17.9824 49.8072 17.5504 49.6016 17.1802C49.4061 16.7996 49.1336 16.5014 48.784 16.2854C48.4446 16.0592 48.0486 15.946 47.5961 15.946C47.1333 15.946 46.727 16.0592 46.3774 16.2854C46.0276 16.5014 45.75 16.7996 45.5443 17.1802C45.3489 17.5504 45.2512 17.9824 45.2512 18.476C45.2512 18.9594 45.3489 19.3965 45.5443 19.7873C45.75 20.1678 46.0276 20.4661 46.3774 20.6821C46.727 20.898 47.1333 21.006 47.5961 21.006Z" fill="#FF4D15"/>
<path d="M106.533 21.006C106.986 21.006 107.382 20.898 107.721 20.6821C108.071 20.4661 108.343 20.1678 108.539 19.7873C108.744 19.3965 108.847 18.9594 108.847 18.476C108.847 17.9824 108.744 17.5504 108.539 17.1802C108.343 16.7996 108.071 16.5014 107.721 16.2854C107.382 16.0592 106.986 15.946 106.533 15.946C106.07 15.946 105.664 16.0592 105.314 16.2854C104.965 16.5014 104.687 16.7996 104.481 17.1802C104.286 17.5504 104.188 17.9824 104.188 18.476C104.188 18.9594 104.286 19.3965 104.481 19.7873C104.687 20.1678 104.965 20.4661 105.314 20.6821C105.664 20.898 106.07 21.006 106.533 21.006Z" fill="#FF4D15"/>
<path fill-rule="evenodd" clip-rule="evenodd" d="M34.9827 22.4097C35.6821 22.7079 36.4431 22.857 37.2659 22.857C38.0887 22.857 38.824 22.7182 39.472 22.4405C40.1301 22.1628 40.6855 21.7977 41.1381 21.3452C41.5906 20.8824 41.9146 20.3785 42.1099 19.8334L40.2279 18.954C40.0119 19.53 39.6468 20.0082 39.1326 20.3887C38.6183 20.759 37.9961 20.9441 37.2659 20.9441C36.546 20.9441 35.9083 20.7744 35.353 20.435C34.8079 20.0956 34.3811 19.6276 34.0726 19.0312C33.7743 18.4244 33.6252 17.7199 33.6252 16.9177C33.6252 16.1155 33.7743 15.4161 34.0726 14.8196C34.3811 14.2231 34.8079 13.7552 35.353 13.4158C35.9083 13.0764 36.546 12.9067 37.2659 12.9067C37.9961 12.9067 38.6183 13.097 39.1326 13.4775C39.6468 13.8477 40.0119 14.3208 40.2279 14.8968L42.1099 14.0174C41.9146 13.4724 41.5906 12.9736 41.1381 12.521C40.6855 12.0582 40.1301 11.688 39.472 11.4103C38.824 11.1326 38.0887 10.9938 37.2659 10.9938C36.4431 10.9938 35.6821 11.1429 34.9827 11.4412C34.2834 11.7291 33.6715 12.1405 33.1469 12.6753C32.6327 13.1998 32.2316 13.8272 31.9436 14.5574C31.666 15.2773 31.5271 16.0641 31.5271 16.9177C31.5271 17.7713 31.6711 18.5581 31.9591 19.278C32.247 19.9979 32.6481 20.6253 33.1624 21.1601C33.6869 21.6948 34.2937 22.1114 34.9827 22.4097ZM45.3438 22.2865C46.0226 22.667 46.7733 22.8573 47.5961 22.8573C48.4086 22.8573 49.149 22.667 49.8176 22.2865C50.486 21.906 51.0209 21.3865 51.422 20.7283C51.8231 20.0702 52.0236 19.3193 52.0236 18.476C52.0236 17.6224 51.8231 16.8716 51.422 16.2237C51.0311 15.5655 50.5014 15.0461 49.833 14.6656C49.1645 14.2851 48.4188 14.0948 47.5961 14.0948C46.7631 14.0948 46.0122 14.2851 45.3438 14.6656C44.6753 15.0461 44.1405 15.5655 43.7394 16.2237C43.3485 16.8819 43.1532 17.6327 43.1532 18.476C43.1532 19.3193 43.3485 20.0702 43.7394 20.7283C44.1405 21.3865 44.6753 21.906 45.3438 22.2865ZM53.5579 14.2795V22.6717H55.5789V14.2795H53.5579ZM53.5579 11.1787V13.3385H55.5789V11.1787H53.5579ZM57.445 22.6721V14.2799H59.3425V15.3096C59.5367 14.9652 59.8041 14.6939 60.1447 14.4959C60.5972 14.2285 61.1217 14.0948 61.7182 14.0948C62.3353 14.0948 62.8804 14.2285 63.3535 14.4959C63.8369 14.7633 64.2122 15.1387 64.4796 15.6221C64.747 16.0951 64.8807 16.6454 64.8807 17.2727V22.6721H62.8598V17.751C62.8598 17.3807 62.7878 17.0619 62.6438 16.7945C62.4998 16.5271 62.2993 16.3214 62.0422 16.1774C61.7953 16.0232 61.5022 15.946 61.1628 15.946C60.8337 15.946 60.5406 16.0232 60.2835 16.1774C60.0264 16.3214 59.8259 16.5271 59.6819 16.7945C59.5379 17.0619 59.4659 17.3807 59.4659 17.751V22.6721H57.445ZM66.587 22.6721V14.2799H68.4845V15.3245C68.6552 14.9978 68.8917 14.7371 69.1942 14.5422C69.657 14.2439 70.202 14.0948 70.8294 14.0948C71.5184 14.0948 72.1253 14.2748 72.6498 14.6347C72.9804 14.8616 73.2375 15.1335 73.421 15.4503C73.6454 15.0978 73.9232 14.8157 74.2542 14.6039C74.7683 14.2645 75.3597 14.0948 76.0283 14.0948C76.6247 14.0948 77.1544 14.2285 77.6172 14.4959C78.0903 14.7633 78.4605 15.1387 78.7279 15.6221C78.9953 16.0951 79.1291 16.6454 79.1291 17.2727V22.6721H77.1081V17.751C77.1081 17.3807 77.0413 17.0619 76.9076 16.7945C76.7738 16.5271 76.5887 16.3214 76.3522 16.1774C76.1156 16.0232 75.8277 15.946 75.4883 15.946C75.1694 15.946 74.8867 16.0232 74.6398 16.1774C74.393 16.3214 74.2027 16.5271 74.069 16.7945C73.9353 17.0619 73.8685 17.3807 73.8685 17.751V22.6721H71.8476V17.751C71.8476 17.3807 71.7807 17.0619 71.647 16.7945C71.5133 16.5271 71.3231 16.3214 71.0762 16.1774C70.8397 16.0232 70.5568 15.946 70.2278 15.946C69.9089 15.946 69.6261 16.0232 69.3793 16.1774C69.1324 16.3214 68.9422 16.5271 68.8085 16.7945C68.6747 17.0619 68.6079 17.3807 68.6079 17.751V22.6721H66.587ZM84.8189 22.8573C83.955 22.8573 83.1991 22.6619 82.5511 22.271C81.9032 21.8802 81.3993 21.3506 81.0393 20.6821C80.6794 20.0135 80.4994 19.2731 80.4994 18.4606C80.4994 17.6173 80.6794 16.8716 81.0393 16.2237C81.4096 15.5655 81.9084 15.0461 82.5357 14.6656C83.1734 14.2851 83.883 14.0948 84.6646 14.0948C85.3229 14.0948 85.8988 14.2028 86.3924 14.4188C86.8964 14.6347 87.3232 14.933 87.6728 15.3135C88.0226 15.694 88.2899 16.1311 88.4751 16.6248C88.6602 17.1082 88.7527 17.6327 88.7527 18.1983C88.7527 18.3423 88.7425 18.4915 88.7219 18.6457C88.7116 18.8 88.6859 18.9337 88.6447 19.0468H82.5981C82.6241 19.3355 82.6907 19.6029 82.798 19.849C82.9831 20.2399 83.2505 20.5432 83.6002 20.7592C83.9601 20.9752 84.3715 21.0832 84.8343 21.0832C85.2971 21.0832 85.6879 20.9854 86.0067 20.7901C86.3359 20.5947 86.593 20.3324 86.7781 20.0033L88.4133 20.8055C88.2488 21.2066 87.9917 21.5614 87.642 21.8699C87.2924 22.1785 86.8758 22.4201 86.3924 22.595C85.9194 22.7699 85.3948 22.8573 84.8189 22.8573ZM91.9043 21.9929C92.4288 22.5071 93.1642 22.7642 94.1104 22.7642C94.2646 22.7642 94.4343 22.754 94.6194 22.7334C94.8046 22.7128 94.9692 22.6923 95.1131 22.6717V20.9438C95.0205 20.9541 94.9229 20.9644 94.82 20.9747C94.7274 20.985 94.6452 20.9901 94.5732 20.9901C94.2441 20.9901 93.9715 20.9387 93.7555 20.8359C93.5499 20.733 93.3956 20.5839 93.2927 20.3885C93.2002 20.1931 93.1539 19.9565 93.1539 19.6788V16.0844H95.0823V14.2794H93.1539V12.3665H91.133V13.0144C91.133 13.4258 91.0199 13.7395 90.7936 13.9555C90.5674 14.1715 90.2486 14.2794 89.8371 14.2794H89.6829V16.0844H91.133V19.7868C91.133 20.733 91.3901 21.4684 91.9043 21.9929ZM96.6598 22.6712V14.279H98.5573V15.4602C98.7457 15.0472 98.9977 14.746 99.3132 14.5567C99.7348 14.3099 100.239 14.1865 100.825 14.1865H101.319V15.976H100.594C100.018 15.976 99.5548 16.156 99.2052 16.5159C98.8555 16.8656 98.6807 17.3593 98.6807 17.9969V22.6712H96.6598ZM104.281 22.2865C104.96 22.667 105.71 22.8573 106.533 22.8573C107.346 22.8573 108.086 22.667 108.754 22.2865C109.423 21.906 109.958 21.3865 110.359 20.7283C110.76 20.0702 110.96 19.3193 110.96 18.476C110.96 17.6224 110.76 16.8716 110.359 16.2237C109.968 15.5655 109.439 15.0461 108.77 14.6656C108.102 14.2851 107.356 14.0948 106.533 14.0948C105.7 14.0948 104.949 14.2851 104.281 14.6656C103.612 15.0461 103.077 15.5655 102.676 16.2237C102.286 16.8819 102.09 17.6327 102.09 18.476C102.09 19.3193 102.286 20.0702 102.676 20.7283C103.077 21.3865 103.612 21.906 104.281 22.2865ZM22.9804 20.5646L22.4735 20.9522C20.5937 22.3894 17.9129 22.2088 16.2371 20.5324C15.7949 20.0923 15.4443 19.5689 15.2056 18.9924C14.9669 18.4159 14.8448 17.7979 14.8465 17.1738C14.8448 16.5499 14.9669 15.9317 15.2056 15.3552C15.4443 14.7787 15.7949 14.2553 16.2371 13.8153C16.6769 13.3728 17.2002 13.022 17.7765 12.7832C18.3526 12.5443 18.9705 12.4222 19.5943 12.4238C20.2181 12.4222 20.8359 12.5443 21.4122 12.7832C21.9884 13.022 22.5116 13.3728 22.9514 13.8153L23.9844 12.7819C23.4092 12.2033 22.725 11.7446 21.9715 11.4324C21.2179 11.1201 20.4099 10.9605 19.5943 10.9627C18.7786 10.9604 17.9706 11.12 17.2171 11.4323C16.4635 11.7446 15.7794 12.2033 15.2042 12.7819C14.6259 13.3573 14.1673 14.0417 13.8551 14.7956C13.543 15.5495 13.3834 16.3579 13.3856 17.1738C13.3834 17.9898 13.543 18.7981 13.8551 19.552C14.1672 20.3059 14.6258 20.9904 15.204 21.5658C17.2417 23.6041 20.4158 23.9508 22.8284 22.477L23.8868 23.5336C22.5313 24.4509 20.9174 24.9088 19.2824 24.84C17.3573 24.764 15.5318 23.9637 14.171 22.5992C11.1812 19.6077 11.1812 14.7403 14.171 11.7484C15.6196 10.2993 17.5455 9.5012 19.5941 9.5012C21.6427 9.5012 23.5684 10.2993 25.0171 11.7484L26.0501 10.7151C24.326 8.99003 22.0334 8.03931 19.5951 8.03931C17.1567 8.03931 14.8638 8.9893 13.139 10.7151C9.57896 14.2766 9.57896 20.071 13.139 23.6311C14.7588 25.2554 16.9319 26.2081 19.2237 26.2985C19.3484 26.3036 19.4726 26.3061 19.5969 26.3061C21.7444 26.3086 23.8235 25.5508 25.4661 24.1668L26.0748 23.6536L22.9804 20.5646ZM12.1226 9.69894L11.0896 8.66554C8.81787 10.9381 7.56651 13.9596 7.56651 17.1735C7.56651 20.3874 8.8175 23.409 11.0896 25.6816L12.1226 24.6482C10.1268 22.6515 9.02759 19.9968 9.02759 17.1731C9.02759 14.3492 10.1268 11.6953 12.1226 9.69894Z" fill="#FF4D15"/>
<path d="M86.4696 16.9642C86.3359 16.5939 86.1096 16.3008 85.7908 16.0849C85.4822 15.8689 85.1069 15.7609 84.6646 15.7609C84.243 15.7609 83.8676 15.8689 83.5385 16.0849C83.2094 16.2906 82.9574 16.5991 82.7825 17.0105C82.7202 17.1625 82.6726 17.327 82.6398 17.5041H86.5929C86.5765 17.3134 86.5354 17.1334 86.4696 16.9642Z" fill="#FF4D15"/>
<path d="M37.2659 22.857C36.4431 22.857 35.6821 22.7079 34.9827 22.4097C34.2937 22.1114 33.6869 21.6948 33.1624 21.1601C32.6481 20.6253 32.247 19.9979 31.9591 19.278C31.6711 18.5581 31.5271 17.7713 31.5271 16.9177C31.5271 16.0641 31.666 15.2773 31.9436 14.5574C32.2316 13.8272 32.6327 13.1998 33.1469 12.6753C33.6715 12.1405 34.2834 11.7291 34.9827 11.4412C35.6821 11.1429 36.4431 10.9938 37.2659 10.9938C38.0887 10.9938 38.824 11.1326 39.472 11.4103C40.1301 11.688 40.6855 12.0582 41.1381 12.521C41.5906 12.9736 41.9146 13.4724 42.1099 14.0174L40.2279 14.8968C40.0119 14.3208 39.6468 13.8477 39.1326 13.4775C38.6183 13.097 37.9961 12.9067 37.2659 12.9067C36.546 12.9067 35.9083 13.0764 35.353 13.4158C34.8079 13.7552 34.3811 14.2231 34.0726 14.8196C33.7743 15.4161 33.6252 16.1155 33.6252 16.9177C33.6252 17.7199 33.7743 18.4244 34.0726 19.0312C34.3811 19.6276 34.8079 20.0956 35.353 20.435C35.9083 20.7744 36.546 20.9441 37.2659 20.9441C37.9961 20.9441 38.6183 20.759 39.1326 20.3887C39.6468 20.0082 40.0119 19.53 40.2279 18.954L42.1099 19.8334C41.9146 20.3785 41.5906 20.8824 41.1381 21.3452C40.6855 21.7977 40.1301 22.1628 39.472 22.4405C38.824 22.7182 38.0887 22.857 37.2659 22.857Z" fill="white"/>
<path d="M22.4735 20.9522L22.9804 20.5646L26.0748 23.6536L25.4661 24.1668C23.8235 25.5508 21.7444 26.3086 19.5969 26.3061C19.4726 26.3061 19.3484 26.3036 19.2237 26.2985C16.9319 26.2081 14.7588 25.2554 13.139 23.6311C9.57896 20.071 9.57896 14.2766 13.139 10.7151C14.8638 8.9893 17.1567 8.03931 19.5951 8.03931C22.0334 8.03931 24.326 8.99003 26.0501 10.7151L25.0171 11.7484C23.5684 10.2993 21.6427 9.5012 19.5941 9.5012C17.5455 9.5012 15.6196 10.2993 14.171 11.7484C11.1812 14.7403 11.1812 19.6077 14.171 22.5992C15.5318 23.9637 17.3573 24.764 19.2824 24.84C20.9174 24.9088 22.5313 24.4509 23.8868 23.5336L22.8284 22.477C20.4158 23.9508 17.2417 23.6041 15.204 21.5658C14.6258 20.9904 14.1672 20.3059 13.8551 19.552C13.543 18.7981 13.3834 17.9898 13.3856 17.1738C13.3834 16.3579 13.543 15.5495 13.8551 14.7956C14.1673 14.0417 14.6259 13.3573 15.2042 12.7819C15.7794 12.2033 16.4635 11.7446 17.2171 11.4323C17.9706 11.12 18.7786 10.9604 19.5943 10.9627C20.4099 10.9605 21.2179 11.1201 21.9715 11.4324C22.725 11.7446 23.4092 12.2033 23.9844 12.7819L22.9514 13.8153C22.5116 13.3728 21.9884 13.022 21.4122 12.7832C20.8359 12.5443 20.2181 12.4222 19.5943 12.4238C18.9705 12.4222 18.3526 12.5443 17.7765 12.7832C17.2002 13.022 16.6769 13.3728 16.2371 13.8153C15.7949 14.2553 15.4443 14.7787 15.2056 15.3552C14.9669 15.9317 14.8448 16.5499 14.8465 17.1738C14.8448 17.7979 14.9669 18.4159 15.2056 18.9924C15.4443 19.5689 15.7949 20.0923 16.2371 20.5324C17.9129 22.2088 20.5937 22.3894 22.4735 20.9522Z" fill="white"/>
<path d="M11.0896 8.66554L12.1226 9.69894C10.1268 11.6953 9.02759 14.3492 9.02759 17.1731C9.02759 19.9968 10.1268 22.6515 12.1226 24.6482L11.0896 25.6816C8.8175 23.409 7.56651 20.3874 7.56651 17.1735C7.56651 13.9596 8.81787 10.9381 11.0896 8.66554Z" fill="white"/>
<path fill-rule="evenodd" clip-rule="evenodd" d="M47.5961 22.8573C46.7733 22.8573 46.0226 22.667 45.3438 22.2865C44.6753 21.906 44.1405 21.3865 43.7394 20.7283C43.3485 20.0702 43.1532 19.3193 43.1532 18.476C43.1532 17.6327 43.3485 16.8819 43.7394 16.2237C44.1405 15.5655 44.6753 15.0461 45.3438 14.6656C46.0122 14.2851 46.7631 14.0948 47.5961 14.0948C48.4188 14.0948 49.1645 14.2851 49.833 14.6656C50.5014 15.0461 51.0311 15.5655 51.422 16.2237C51.8231 16.8716 52.0236 17.6224 52.0236 18.476C52.0236 19.3193 51.8231 20.0702 51.422 20.7283C51.0209 21.3865 50.486 21.906 49.8176 22.2865C49.149 22.667 48.4086 22.8573 47.5961 22.8573ZM48.784 20.6821C48.4446 20.898 48.0486 21.006 47.5961 21.006C47.1333 21.006 46.727 20.898 46.3774 20.6821C46.0276 20.4661 45.75 20.1678 45.5443 19.7873C45.3489 19.3965 45.2512 18.9594 45.2512 18.476C45.2512 17.9824 45.3489 17.5504 45.5443 17.1802C45.75 16.7996 46.0276 16.5014 46.3774 16.2854C46.727 16.0592 47.1333 15.946 47.5961 15.946C48.0486 15.946 48.4446 16.0592 48.784 16.2854C49.1336 16.5014 49.4061 16.7996 49.6016 17.1802C49.8072 17.5504 49.9101 17.9824 49.9101 18.476C49.9101 18.9594 49.8072 19.3965 49.6016 19.7873C49.4061 20.1678 49.1336 20.4661 48.784 20.6821Z" fill="white"/>
<path d="M53.5579 22.6717V14.2795H55.5789V22.6717H53.5579Z" fill="white"/>
<path d="M53.5579 13.3385V11.1787H55.5789V13.3385H53.5579Z" fill="white"/>
<path d="M57.445 14.2799V22.6721H59.4659V17.751C59.4659 17.3807 59.5379 17.0619 59.6819 16.7945C59.8259 16.5271 60.0264 16.3214 60.2835 16.1774C60.5406 16.0232 60.8337 15.946 61.1628 15.946C61.5022 15.946 61.7953 16.0232 62.0422 16.1774C62.2993 16.3214 62.4998 16.5271 62.6438 16.7945C62.7878 17.0619 62.8598 17.3807 62.8598 17.751V22.6721H64.8807V17.2727C64.8807 16.6454 64.747 16.0951 64.4796 15.6221C64.2122 15.1387 63.8369 14.7633 63.3535 14.4959C62.8804 14.2285 62.3353 14.0948 61.7182 14.0948C61.1217 14.0948 60.5972 14.2285 60.1447 14.4959C59.8041 14.6939 59.5367 14.9652 59.3425 15.3096V15.9306L59.1882 15.6375C59.2331 15.5217 59.2845 15.4124 59.3425 15.3096V14.2799H57.445Z" fill="white"/>
<path d="M59.1882 15.6375L59.3425 15.9306V15.3096C59.2845 15.4124 59.2331 15.5217 59.1882 15.6375Z" fill="white"/>
<path d="M66.587 14.2799V22.6721H68.6079V17.751C68.6079 17.3807 68.6747 17.0619 68.8085 16.7945C68.9422 16.5271 69.1324 16.3214 69.3793 16.1774C69.6261 16.0232 69.9089 15.946 70.2278 15.946C70.5568 15.946 70.8397 16.0232 71.0762 16.1774C71.3231 16.3214 71.5133 16.5271 71.647 16.7945C71.7807 17.0619 71.8476 17.3807 71.8476 17.751V22.6721H73.8685V17.751C73.8685 17.3807 73.9353 17.0619 74.069 16.7945C74.2027 16.5271 74.393 16.3214 74.6398 16.1774C74.8867 16.0232 75.1694 15.946 75.4883 15.946C75.8277 15.946 76.1156 16.0232 76.3522 16.1774C76.5887 16.3214 76.7738 16.5271 76.9076 16.7945C77.0413 17.0619 77.1081 17.3807 77.1081 17.751V22.6721H79.1291V17.2727C79.1291 16.6454 78.9953 16.0951 78.7279 15.6221C78.4605 15.1387 78.0903 14.7633 77.6172 14.4959C77.1544 14.2285 76.6247 14.0948 76.0283 14.0948C75.3597 14.0948 74.7683 14.2645 74.2542 14.6039C73.9232 14.8157 73.6454 15.0978 73.421 15.4503C73.5286 15.6361 73.6109 15.8373 73.6679 16.054L73.0972 16.1003C73.1888 15.8621 73.2967 15.6454 73.421 15.4503C73.2375 15.1335 72.9804 14.8616 72.6498 14.6347C72.1253 14.2748 71.5184 14.0948 70.8294 14.0948C70.202 14.0948 69.657 14.2439 69.1942 14.5422C68.8917 14.7371 68.6552 14.9978 68.4845 15.3245V16.2237L68.2685 15.8997C68.322 15.6894 68.394 15.4977 68.4845 15.3245V14.2799H66.587Z" fill="white"/>
<path d="M68.2685 15.8997L68.4845 16.2237V15.3245C68.394 15.4977 68.322 15.6894 68.2685 15.8997Z" fill="white"/>
<path d="M73.0972 16.1003L73.6679 16.054C73.6109 15.8373 73.5286 15.6361 73.421 15.4503C73.2967 15.6454 73.1888 15.8621 73.0972 16.1003Z" fill="white"/>
<path d="M82.5511 22.271C83.1991 22.6619 83.955 22.8573 84.8189 22.8573C85.3948 22.8573 85.9194 22.7699 86.3924 22.595C86.8758 22.4201 87.2924 22.1785 87.642 21.8699C87.9917 21.5614 88.2488 21.2066 88.4133 20.8055L86.7781 20.0033C86.593 20.3324 86.3359 20.5947 86.0067 20.7901C85.6879 20.9854 85.2971 21.0832 84.8343 21.0832C84.3715 21.0832 83.9601 20.9752 83.6002 20.7592C83.2505 20.5432 82.9831 20.2399 82.798 19.849C82.6907 19.6029 82.6241 19.3355 82.5981 19.0468H82.1655V17.5041H82.6398C82.6726 17.327 82.7202 17.1625 82.7825 17.0105C82.9574 16.5991 83.2094 16.2906 83.5385 16.0849C83.8676 15.8689 84.243 15.7609 84.6646 15.7609C85.1069 15.7609 85.4822 15.8689 85.7908 16.0849C86.1096 16.3008 86.3359 16.5939 86.4696 16.9642C86.5354 17.1334 86.5765 17.3134 86.5929 17.5041H87.5032L86.5467 18.2292C86.5969 17.9723 86.6123 17.7307 86.5929 17.5041H82.6398C82.586 17.7944 82.5719 18.1183 82.5974 18.476C82.5815 18.6747 82.5818 18.865 82.5981 19.0468H88.6447C88.6859 18.9337 88.7116 18.8 88.7219 18.6457C88.7425 18.4915 88.7527 18.3423 88.7527 18.1983C88.7527 17.6327 88.6602 17.1082 88.4751 16.6248C88.2899 16.1311 88.0226 15.694 87.6728 15.3135C87.3232 14.933 86.8964 14.6347 86.3924 14.4188C85.8988 14.2028 85.3229 14.0948 84.6646 14.0948C83.883 14.0948 83.1734 14.2851 82.5357 14.6656C81.9084 15.0461 81.4096 15.5655 81.0393 16.2237C80.6794 16.8716 80.4994 17.6173 80.4994 18.4606C80.4994 19.2731 80.6794 20.0135 81.0393 20.6821C81.3993 21.3506 81.9032 21.8802 82.5511 22.271Z" fill="white"/>
<path d="M86.5467 18.2292L87.5032 17.5041H86.5929C86.6123 17.7307 86.5969 17.9723 86.5467 18.2292Z" fill="white"/>
<path d="M82.1655 17.5041V19.0468H82.5981C82.5818 18.865 82.5815 18.6747 82.5974 18.476C82.5719 18.1183 82.586 17.7944 82.6398 17.5041H82.1655Z" fill="white"/>
<path d="M94.1104 22.7642C93.1642 22.7642 92.4288 22.5071 91.9043 21.9929C91.3901 21.4684 91.133 20.733 91.133 19.7868V16.0844H89.6829V14.2794H89.8371C90.2486 14.2794 90.5674 14.1715 90.7936 13.9555C91.0199 13.7395 91.133 13.4258 91.133 13.0144V12.3665H93.1539V14.2794H95.0823V16.0844H93.1539V19.6788C93.1539 19.9565 93.2002 20.1931 93.2927 20.3885C93.3956 20.5839 93.5499 20.733 93.7555 20.8359C93.9715 20.9387 94.2441 20.9901 94.5732 20.9901C94.6452 20.9901 94.7274 20.985 94.82 20.9747C94.9229 20.9644 95.0205 20.9541 95.1131 20.9438V22.6717C94.9692 22.6923 94.8046 22.7128 94.6194 22.7334C94.4343 22.754 94.2646 22.7642 94.1104 22.7642Z" fill="white"/>
<path d="M96.6598 14.279V22.6712H98.6807V17.9969C98.6807 17.3593 98.8555 16.8656 99.2052 16.5159C99.5548 16.156 100.018 15.976 100.594 15.976H101.319V14.1865H100.825C100.239 14.1865 99.7348 14.3099 99.3132 14.5567C98.9977 14.746 98.7457 15.0472 98.5573 15.4602V16.1457L98.403 15.868C98.4485 15.7217 98.5 15.5858 98.5573 15.4602V14.279H96.6598Z" fill="white"/>
<path d="M98.403 15.868L98.5573 16.1457V15.4602C98.5 15.5858 98.4485 15.7217 98.403 15.868Z" fill="white"/>
<path fill-rule="evenodd" clip-rule="evenodd" d="M106.533 22.8573C105.71 22.8573 104.96 22.667 104.281 22.2865C103.612 21.906 103.077 21.3865 102.676 20.7283C102.286 20.0702 102.09 19.3193 102.09 18.476C102.09 17.6327 102.286 16.8819 102.676 16.2237C103.077 15.5655 103.612 15.0461 104.281 14.6656C104.949 14.2851 105.7 14.0948 106.533 14.0948C107.356 14.0948 108.102 14.2851 108.77 14.6656C109.439 15.0461 109.968 15.5655 110.359 16.2237C110.76 16.8716 110.96 17.6224 110.96 18.476C110.96 19.3193 110.76 20.0702 110.359 20.7283C109.958 21.3865 109.423 21.906 108.754 22.2865C108.086 22.667 107.346 22.8573 106.533 22.8573ZM107.721 20.6821C107.382 20.898 106.986 21.006 106.533 21.006C106.07 21.006 105.664 20.898 105.314 20.6821C104.965 20.4661 104.687 20.1678 104.481 19.7873C104.286 19.3965 104.188 18.9594 104.188 18.476C104.188 17.9824 104.286 17.5504 104.481 17.1802C104.687 16.7996 104.965 16.5014 105.314 16.2854C105.664 16.0592 106.07 15.946 106.533 15.946C106.986 15.946 107.382 16.0592 107.721 16.2854C108.071 16.5014 108.343 16.7996 108.539 17.1802C108.744 17.5504 108.847 17.9824 108.847 18.476C108.847 18.9594 108.744 19.3965 108.539 19.7873C108.343 20.1678 108.071 20.4661 107.721 20.6821Z" fill="white"/>
<path fill-rule="evenodd" clip-rule="evenodd" d="M105.931 1.73389H15.133C6.77528 1.73389 0 8.50917 0 16.8669C0 25.2246 6.77528 31.9999 15.133 31.9999H105.931C114.289 31.9999 121.143 24.9292 121.143 16.5715L117.048 16.3437C116.455 16.3107 115.987 15.8295 115.969 15.2361L115.682 5.43205C114.009 3.96556 112.049 2.84861 109.941 2.27077C108.664 1.92078 107.319 1.73389 105.931 1.73389ZM34.9827 22.4097C35.6821 22.7079 36.4431 22.857 37.2659 22.857C38.0887 22.857 38.824 22.7182 39.472 22.4405C40.1301 22.1628 40.6855 21.7977 41.1381 21.3452C41.5906 20.8824 41.9146 20.3785 42.1099 19.8334L40.2279 18.954C40.0119 19.53 39.6468 20.0082 39.1326 20.3887C38.6183 20.759 37.9961 20.9441 37.2659 20.9441C36.546 20.9441 35.9083 20.7744 35.353 20.435C34.8079 20.0956 34.3811 19.6276 34.0726 19.0312C33.7743 18.4244 33.6252 17.7199 33.6252 16.9177C33.6252 16.1155 33.7743 15.4161 34.0726 14.8196C34.3811 14.2231 34.8079 13.7552 35.353 13.4158C35.9083 13.0764 36.546 12.9067 37.2659 12.9067C37.9961 12.9067 38.6183 13.097 39.1326 13.4775C39.6468 13.8477 40.0119 14.3208 40.2279 14.8968L42.1099 14.0174C41.9146 13.4724 41.5906 12.9736 41.1381 12.521C40.6855 12.0582 40.1301 11.688 39.472 11.4103C38.824 11.1326 38.0887 10.9938 37.2659 10.9938C36.4431 10.9938 35.6821 11.1429 34.9827 11.4412C34.2834 11.7291 33.6715 12.1405 33.1469 12.6753C32.6327 13.1998 32.2316 13.8272 31.9436 14.5574C31.666 15.2773 31.5271 16.0641 31.5271 16.9177C31.5271 17.7713 31.6711 18.5581 31.9591 19.278C32.247 19.9979 32.6481 20.6253 33.1624 21.1601C33.6869 21.6948 34.2937 22.1114 34.9827 22.4097ZM45.3438 22.2865C46.0226 22.667 46.7733 22.8573 47.5961 22.8573C48.4086 22.8573 49.149 22.667 49.8176 22.2865C50.486 21.906 51.0209 21.3865 51.422 20.7283C51.8231 20.0702 52.0236 19.3193 52.0236 18.476C52.0236 17.6224 51.8231 16.8716 51.422 16.2237C51.0311 15.5655 50.5014 15.0461 49.833 14.6656C49.1645 14.2851 48.4188 14.0948 47.5961 14.0948C46.7631 14.0948 46.0122 14.2851 45.3438 14.6656C44.6753 15.0461 44.1405 15.5655 43.7394 16.2237C43.3485 16.8819 43.1532 17.6327 43.1532 18.476C43.1532 19.3193 43.3485 20.0702 43.7394 20.7283C44.1405 21.3865 44.6753 21.906 45.3438 22.2865ZM53.5579 14.2795V22.6717H55.5789V14.2795H53.5579ZM53.5579 11.1787V13.3385H55.5789V11.1787H53.5579ZM57.445 22.6721V14.2799H59.3425V15.3096C59.5367 14.9652 59.8041 14.6939 60.1447 14.4959C60.5972 14.2285 61.1217 14.0948 61.7182 14.0948C62.3353 14.0948 62.8804 14.2285 63.3535 14.4959C63.8369 14.7633 64.2122 15.1387 64.4796 15.6221C64.747 16.0951 64.8807 16.6454 64.8807 17.2727V22.6721H62.8598V17.751C62.8598 17.3807 62.7878 17.0619 62.6438 16.7945C62.4998 16.5271 62.2993 16.3214 62.0422 16.1774C61.7953 16.0232 61.5022 15.946 61.1628 15.946C60.8337 15.946 60.5406 16.0232 60.2835 16.1774C60.0264 16.3214 59.8259 16.5271 59.6819 16.7945C59.5379 17.0619 59.4659 17.3807 59.4659 17.751V22.6721H57.445ZM66.587 22.6721V14.2799H68.4845V15.3245C68.6552 14.9978 68.8917 14.7371 69.1942 14.5422C69.657 14.2439 70.202 14.0948 70.8294 14.0948C71.5184 14.0948 72.1253 14.2748 72.6498 14.6347C72.9804 14.8616 73.2375 15.1335 73.421 15.4503C73.6454 15.0978 73.9232 14.8157 74.2542 14.6039C74.7683 14.2645 75.3597 14.0948 76.0283 14.0948C76.6247 14.0948 77.1544 14.2285 77.6172 14.4959C78.0903 14.7633 78.4605 15.1387 78.7279 15.6221C78.9953 16.0951 79.1291 16.6454 79.1291 17.2727V22.6721H77.1081V17.751C77.1081 17.3807 77.0413 17.0619 76.9076 16.7945C76.7738 16.5271 76.5887 16.3214 76.3522 16.1774C76.1156 16.0232 75.8277 15.946 75.4883 15.946C75.1694 15.946 74.8867 16.0232 74.6398 16.1774C74.393 16.3214 74.2027 16.5271 74.069 16.7945C73.9353 17.0619 73.8685 17.3807 73.8685 17.751V22.6721H71.8476V17.751C71.8476 17.3807 71.7807 17.0619 71.647 16.7945C71.5133 16.5271 71.3231 16.3214 71.0762 16.1774C70.8397 16.0232 70.5568 15.946 70.2278 15.946C69.9089 15.946 69.6261 16.0232 69.3793 16.1774C69.1324 16.3214 68.9422 16.5271 68.8085 16.7945C68.6747 17.0619 68.6079 17.3807 68.6079 17.751V22.6721H66.587ZM84.8189 22.8573C83.955 22.8573 83.1991 22.6619 82.5511 22.271C81.9032 21.8802 81.3993 21.3506 81.0393 20.6821C80.6794 20.0135 80.4994 19.2731 80.4994 18.4606C80.4994 17.6173 80.6794 16.8716 81.0393 16.2237C81.4096 15.5655 81.9084 15.0461 82.5357 14.6656C83.1734 14.2851 83.883 14.0948 84.6646 14.0948C85.3229 14.0948 85.8988 14.2028 86.3924 14.4188C86.8964 14.6347 87.3232 14.933 87.6728 15.3135C88.0226 15.694 88.2899 16.1311 88.4751 16.6248C88.6602 17.1082 88.7527 17.6327 88.7527 18.1983C88.7527 18.3423 88.7425 18.4915 88.7219 18.6457C88.7116 18.8 88.6859 18.9337 88.6447 19.0468H82.5981C82.6241 19.3355 82.6907 19.6029 82.798 19.849C82.9831 20.2399 83.2505 20.5432 83.6002 20.7592C83.9601 20.9752 84.3715 21.0832 84.8343 21.0832C85.2971 21.0832 85.6879 20.9854 86.0067 20.7901C86.3359 20.5947 86.593 20.3324 86.7781 20.0033L88.4133 20.8055C88.2488 21.2066 87.9917 21.5614 87.642 21.8699C87.2924 22.1785 86.8758 22.4201 86.3924 22.595C85.9194 22.7699 85.3948 22.8573 84.8189 22.8573ZM91.9043 21.9929C92.4288 22.5071 93.1642 22.7642 94.1104 22.7642C94.2646 22.7642 94.4343 22.754 94.6194 22.7334C94.8046 22.7128 94.9692 22.6923 95.1131 22.6717V20.9438C95.0205 20.9541 94.9229 20.9644 94.82 20.9747C94.7274 20.985 94.6452 20.9901 94.5732 20.9901C94.2441 20.9901 93.9715 20.9387 93.7555 20.8359C93.5499 20.733 93.3956 20.5839 93.2927 20.3885C93.2002 20.1931 93.1539 19.9565 93.1539 19.6788V16.0844H95.0823V14.2794H93.1539V12.3665H91.133V13.0144C91.133 13.4258 91.0199 13.7395 90.7936 13.9555C90.5674 14.1715 90.2486 14.2794 89.8371 14.2794H89.6829V16.0844H91.133V19.7868C91.133 20.733 91.3901 21.4684 91.9043 21.9929ZM96.6598 22.6712V14.279H98.5573V15.4602C98.7457 15.0472 98.9977 14.746 99.3132 14.5567C99.7348 14.3099 100.239 14.1865 100.825 14.1865H101.319V15.976H100.594C100.018 15.976 99.5548 16.156 99.2052 16.5159C98.8555 16.8656 98.6807 17.3593 98.6807 17.9969V22.6712H96.6598ZM104.281 22.2865C104.96 22.667 105.71 22.8573 106.533 22.8573C107.346 22.8573 108.086 22.667 108.754 22.2865C109.423 21.906 109.958 21.3865 110.359 20.7283C110.76 20.0702 110.96 19.3193 110.96 18.476C110.96 17.6224 110.76 16.8716 110.359 16.2237C109.968 15.5655 109.439 15.0461 108.77 14.6656C108.102 14.2851 107.356 14.0948 106.533 14.0948C105.7 14.0948 104.949 14.2851 104.281 14.6656C103.612 15.0461 103.077 15.5655 102.676 16.2237C102.286 16.8819 102.09 17.6327 102.09 18.476C102.09 19.3193 102.286 20.0702 102.676 20.7283C103.077 21.3865 103.612 21.906 104.281 22.2865ZM22.9804 20.5646L22.4735 20.9522C20.5937 22.3894 17.9129 22.2088 16.2371 20.5324C15.7949 20.0923 15.4443 19.5689 15.2056 18.9924C14.9669 18.4159 14.8448 17.7979 14.8465 17.1738C14.8448 16.5499 14.9669 15.9317 15.2056 15.3552C15.4443 14.7787 15.7949 14.2553 16.2371 13.8153C16.6769 13.3728 17.2002 13.022 17.7765 12.7832C18.3526 12.5443 18.9705 12.4222 19.5943 12.4238C20.2181 12.4222 20.8359 12.5443 21.4122 12.7832C21.9884 13.022 22.5116 13.3728 22.9514 13.8153L23.9844 12.7819C23.4092 12.2033 22.725 11.7446 21.9715 11.4324C21.2179 11.1201 20.4099 10.9605 19.5943 10.9627C18.7786 10.9604 17.9706 11.12 17.2171 11.4323C16.4635 11.7446 15.7794 12.2033 15.2042 12.7819C14.6259 13.3573 14.1673 14.0417 13.8551 14.7956C13.543 15.5495 13.3834 16.3579 13.3856 17.1738C13.3834 17.9898 13.543 18.7981 13.8551 19.552C14.1672 20.3059 14.6258 20.9904 15.204 21.5658C17.2417 23.6041 20.4158 23.9508 22.8284 22.477L23.8868 23.5336C22.5313 24.4509 20.9174 24.9088 19.2824 24.84C17.3573 24.764 15.5318 23.9637 14.171 22.5992C11.1812 19.6077 11.1812 14.7403 14.171 11.7484C15.6196 10.2993 17.5455 9.5012 19.5941 9.5012C21.6427 9.5012 23.5684 10.2993 25.0171 11.7484L26.0501 10.7151C24.326 8.99003 22.0334 8.03931 19.5951 8.03931C17.1567 8.03931 14.8638 8.9893 13.139 10.7151C9.57896 14.2766 9.57896 20.071 13.139 23.6311C14.7588 25.2554 16.9319 26.2081 19.2237 26.2985C19.3484 26.3036 19.4726 26.3061 19.5969 26.3061C21.7444 26.3086 23.8235 25.5508 25.4661 24.1668L26.0748 23.6536L22.9804 20.5646ZM12.1226 9.69894L11.0896 8.66554C8.81787 10.9381 7.56651 13.9596 7.56651 17.1735C7.56651 20.3874 8.8175 23.409 11.0896 25.6816L12.1226 24.6482C10.1268 22.6515 9.02759 19.9968 9.02759 17.1731C9.02759 14.3492 10.1268 11.6953 12.1226 9.69894Z" fill="#FF4D15"/>
</g>
<defs>
<clipPath id="clip0_86_900">
<rect width="160" height="32" fill="white"/>
</clipPath>
</defs>
</svg>
