<svg width="220" height="220" viewBox="0 0 220 220" fill="none" xmlns="http://www.w3.org/2000/svg">
<g clip-path="url(#clip0_3179_498)">
<path d="M110 220C170.753 220 220 170.753 220 110C220 49.247 170.753 0 110 0C49.247 0 0 49.247 0 110C0 170.753 49.247 220 110 220Z" fill="#070A0E"/>
<path d="M219.8 110C219.8 49.1918 170.49 0 109.8 0C48.9919 0 -0.199951 49.1918 -0.199951 110C-0.199951 170.69 48.9919 220 109.8 220C170.49 220 219.8 170.69 219.8 110Z" fill="url(#paint0_radial_3179_498)"/>
<path d="M184.595 75.6247C184.121 78.351 183.647 79.6549 182.936 81.0773C182.225 82.7368 181.513 84.5148 180.802 88.3079C180.565 89.7303 180.328 90.9156 180.209 91.8639V91.9825C179.972 93.5234 179.854 94.5902 179.261 96.3682C178.787 97.9092 177.957 100.398 175.942 103.006C174.283 105.14 171.556 108.814 167.882 109.288C167.526 109.288 166.934 109.288 166.578 109.17C156.147 103.836 147.257 99.9243 144.175 99.0945C140.619 98.0277 141.093 90.2044 141.449 83.3294C141.686 80.2475 141.804 77.2842 141.686 74.795C141.212 66.0234 139.671 56.5406 132.084 51.9178C127.58 49.1915 121.653 48.3618 116.082 48.3618C117.149 47.8876 118.216 47.1764 119.52 46.4652C122.839 44.5687 126.869 42.198 131.018 41.7238C132.322 41.6053 133.625 41.4868 134.929 41.2497C143.108 40.3014 150.22 39.4717 157.688 42.0794C161.125 43.2648 168 47.0579 169.778 50.7325C171.082 53.2217 173.216 55.2368 177.365 59.1484C179.617 61.1635 181.039 62.3488 182.106 63.2971C183.647 64.4825 183.884 64.8381 184.358 65.6678C185.781 68.5126 185.306 71.476 184.595 75.6247Z" fill="white"/>
<path d="M146.783 111.541C147.257 111.66 147.494 112.252 147.138 112.726C146.072 114.386 144.768 116.757 143.227 119.483C142.515 120.787 141.804 122.091 141.212 123.039C139.197 126.476 139.078 129.44 138.959 131.692C138.841 134.181 138.722 135.248 137.181 136.196C135.996 137.026 134.692 137.263 126.158 138.567C124.617 138.804 124.024 139.041 123.431 139.397C123.313 139.515 123.076 139.515 122.957 139.634C122.483 139.871 122.009 139.397 122.009 138.923C122.128 137.737 122.128 136.196 122.128 134.181V133.826C122.128 132.166 122.128 130.744 122.009 129.677C121.89 127.543 121.89 126.595 122.483 125.647C123.194 124.461 123.787 124.106 124.617 123.513C125.921 122.683 127.699 121.617 130.188 118.06C131.61 116.164 131.847 115.097 132.084 114.267C132.203 113.912 132.203 113.793 133.27 112.964C134.337 112.134 137.774 109.526 142.16 110.237C143.582 110.474 145.123 110.948 146.783 111.541Z" fill="white"/>
<path d="M112.763 150.894C112.526 151.131 112.408 151.25 112.052 151.25C111.104 151.25 110.511 151.013 110.156 150.539C109.326 149.472 109.444 147.338 109.563 146.034L113.237 145.086C113.475 147.101 113.593 149.827 112.763 150.894Z" fill="white"/>
<path d="M113 137.856C112.882 138.33 112.882 138.923 112.882 139.634C112.882 139.871 112.882 140.108 112.882 140.345C112.882 140.938 112.882 141.886 112.882 142.36C111.697 142.716 110.748 142.716 109.563 142.716C109.563 142.36 109.563 141.767 109.563 141.412C109.563 141.175 109.563 140.819 109.563 140.582C109.563 140.226 109.563 139.989 109.563 139.634C109.563 138.923 109.563 137.856 109.681 137.5C110.037 137.5 110.393 137.382 110.748 137.263C111.459 137.144 112.526 136.907 113.119 137.026C113.119 137.263 113.119 137.619 113 137.856Z" fill="white"/>
<path d="M106.362 149.828C106.244 151.724 105.651 153.976 103.873 154.332C103.043 154.45 102.688 154.213 102.451 153.976C101.265 152.91 101.147 149.591 101.265 147.22C102.095 147.22 103.043 147.101 104.229 146.864C104.94 146.746 105.651 146.509 106.244 146.39C106.362 147.338 106.481 148.524 106.362 149.828Z" fill="white"/>
<path d="M105.533 143.19L101.621 144.612C101.858 143.071 102.095 140.937 102.214 139.515C102.332 138.567 102.569 138.211 102.688 138.093C102.688 138.093 102.806 137.974 102.925 137.974C102.925 137.974 102.925 137.974 103.043 137.974H103.162L105.651 137.855C105.533 139.041 105.533 141.649 105.533 143.19Z" fill="white"/>
<path d="M99.1319 142.004C98.8948 142.597 98.6577 144.256 98.5392 145.441L93.6793 145.323C93.9163 143.782 94.3905 142.241 94.7461 141.056C95.2202 139.87 95.5758 138.922 96.0499 138.685C96.5241 138.448 97.5909 138.329 98.3021 138.922C99.3689 139.633 99.606 140.7 99.1319 142.004Z" fill="white"/>
<path d="M97.3539 157.058C96.9983 157.532 96.5241 157.888 96.05 157.888C95.4573 158.006 95.1017 157.769 94.7461 157.532C93.2051 156.11 93.3237 151.487 93.4422 149.235C95.4573 148.761 97.7095 148.405 98.7763 148.287C98.7763 150.065 98.8948 154.925 97.3539 157.058Z" fill="white"/>
<path d="M90.953 145.086C90.7159 145.679 90.4788 146.272 90.3603 146.864C89.7676 147.102 87.9896 146.864 86.2116 146.509L87.3969 138.804C89.412 138.211 91.7827 138.093 92.2568 138.686C93.0866 139.515 91.5456 143.427 90.953 145.086Z" fill="white"/>
<path d="M88.7008 158.125C87.7525 159.31 86.3301 159.903 84.315 159.784C82.8926 159.784 82.4185 159.191 82.1814 158.836C81.1146 157.058 82.1814 152.909 83.2482 150.301L89.8861 150.657C90.0047 151.131 90.0047 151.724 90.0047 152.316C90.1232 154.331 89.8861 156.702 88.7008 158.125Z" fill="white"/>
<path d="M143.701 102.058C137.656 100.399 138.248 91.6271 138.722 83.0926C138.841 80.1292 139.078 77.2844 138.959 74.9137C138.485 66.9719 137.181 58.3189 130.781 54.4072C123.906 50.2585 112.645 51.2068 105.77 52.0365C103.281 52.7477 100.91 53.3404 99.0133 53.2219C94.9832 52.9848 91.7827 51.3253 88.9379 49.7844C86.8043 48.599 84.9077 47.5322 83.0112 47.5322C82.8926 47.5322 82.7741 47.5322 82.7741 47.5322C77.4401 47.8878 74.9508 49.1917 72.6987 51.2068C72.106 51.6809 71.3948 53.1033 69.1426 59.6227C67.9573 62.9417 67.8388 64.7197 67.6017 66.3792C67.3646 67.9202 67.2461 69.5796 66.4163 72.0689C65.8237 73.7283 65.3495 75.1508 64.9939 76.5732C63.9271 80.2477 62.9788 83.2111 60.3711 86.7671C60.0155 87.1227 59.6599 87.834 59.1857 88.4266C58.5931 89.3749 57.8819 90.5602 56.8151 91.8641C56.1038 92.8124 54.5629 96.3684 54.6814 97.4352C54.8 99.2133 55.3926 100.28 55.9853 101.465C56.578 102.651 57.4077 104.073 57.5263 106.088V106.444C57.7633 109.526 57.2892 111.067 51.481 116.282C47.8064 119.601 45.0801 122.802 43.3021 125.172C43.1836 125.409 43.3021 125.646 43.6577 125.646C43.7763 125.646 43.7763 125.646 43.7763 125.646C43.8948 125.646 44.0133 125.646 44.1319 125.646C44.2504 125.646 44.3689 125.646 44.4875 125.646C44.606 125.646 44.7245 125.646 44.8431 125.646C46.2655 125.765 47.6879 126.358 48.6362 127.424C48.7547 127.662 49.1103 127.662 49.3474 127.543C50.2957 127.187 51.3625 127.187 52.3107 127.306C53.4961 127.424 54.8 127.78 55.6297 128.61C55.8668 128.847 56.2224 128.965 56.578 128.847C57.5263 128.61 58.5931 128.61 59.5414 128.965C60.2526 129.202 60.9638 129.677 61.4379 130.269C61.7935 130.625 62.3862 130.743 62.8603 130.506C63.0974 130.388 63.453 130.151 63.8086 130.032C65.1125 129.558 66.5349 129.795 67.7202 130.269C68.3129 130.506 68.9056 130.625 69.4982 131.099C70.4465 131.81 71.1577 132.759 71.5133 133.825C71.7504 134.418 72.5801 134.655 73.0543 134.181C74.0026 133.47 74.7138 133.351 75.425 133.588C75.7806 133.707 76.0176 133.944 76.2547 134.299C76.6103 134.774 77.203 135.248 77.6771 135.011C79.6922 134.418 82.0629 134.774 83.8409 135.722C84.4336 136.077 85.1448 136.552 85.5004 137.263V136.907C85.5004 136.789 85.6189 136.67 85.7375 136.552L86.0931 136.433C87.0414 136.077 92.0198 134.655 93.9163 136.67C94.0349 136.789 94.1534 136.789 94.2719 136.67C94.509 136.433 94.7461 136.196 94.8646 136.196C96.1685 135.485 98.3021 135.366 99.7245 136.67C99.9616 136.907 100.436 136.789 100.673 136.552C100.791 136.315 100.91 136.196 101.147 136.077C101.621 135.603 102.332 135.485 103.043 135.485L105.77 135.366C106.481 135.366 108.615 135.129 109.207 135.011H109.326C109.563 135.011 109.918 134.892 110.274 134.774C111.578 134.537 113.119 134.181 114.304 134.774C115.49 135.366 115.371 136.67 115.253 137.856C115.253 138.33 115.134 138.804 115.134 139.278C115.134 139.515 115.134 139.752 115.134 139.989C115.134 141.056 115.134 142.004 115.015 142.715L115.134 143.308C115.134 143.308 115.134 143.308 115.134 143.427C115.253 143.901 115.845 144.256 116.201 143.901C117.149 143.308 118.097 142.597 118.453 142.123V142.004C118.453 141.886 118.572 141.649 118.69 141.174C118.809 140.108 119.046 138.093 119.046 133.944C119.046 133.707 119.046 133.588 119.046 133.47C119.046 131.929 119.046 130.625 118.927 129.558C118.809 127.306 118.69 125.528 119.875 123.75C120.942 121.972 122.009 121.379 123.076 120.668C124.261 119.957 125.565 119.127 127.817 116.045C128.884 114.504 129.003 113.912 129.121 113.437C129.358 112.252 129.714 111.541 131.492 110.356C132.914 109.289 137.063 106.088 142.753 107.037C144.649 107.392 147.612 108.34 150.694 109.526C150.813 109.526 150.931 109.644 151.05 109.644H151.169C153.895 110.711 156.384 111.896 158.162 112.845C158.518 113.082 158.992 112.963 159.347 112.608C159.94 111.896 160.533 111.541 161.125 111.067C161.362 110.948 161.6 110.83 161.718 110.711C161.837 110.711 161.837 110.593 161.837 110.593C162.311 110.237 162.311 109.289 161.718 109.052C153.776 105.14 146.19 102.769 143.701 102.058ZM86.5672 103.836C84.6707 111.896 72.106 120.905 66.4163 120.905H66.2978C66.1793 120.905 66.0607 120.905 66.0607 120.905C65.9422 120.905 65.8237 120.905 65.7051 120.787C65.5866 120.787 65.5866 120.787 65.4681 120.787C64.4013 120.431 62.9789 119.72 61.912 118.653C61.2008 117.942 60.6082 116.993 60.3711 116.164C60.3711 116.045 60.2526 115.808 60.2526 115.69C59.897 114.267 59.5414 112.608 60.7267 109.763C60.8452 109.407 61.0823 109.052 61.2008 108.696C61.2008 108.577 61.3194 108.459 61.3194 108.34C61.4379 107.985 61.5564 107.748 61.675 107.511C61.7935 107.037 62.0306 106.681 62.1491 106.444C62.1491 106.325 62.2676 106.207 62.2676 106.088C62.6232 105.14 62.6232 104.784 62.7418 104.429C62.7418 104.192 62.8603 103.718 62.9788 103.243C63.3345 101.702 63.5715 100.399 63.6901 99.3318C63.9271 97.3167 64.2827 95.5387 65.3495 93.8792C65.5866 93.6421 65.7051 93.4051 65.9422 93.168C66.0607 93.0495 66.0607 93.0495 66.1793 92.9309C66.2978 92.8124 66.2978 92.8124 66.4163 92.6939C66.6534 92.4568 67.009 92.3383 67.2461 92.2197C67.3646 92.2197 67.4832 92.1012 67.6017 92.1012C67.8388 91.9827 68.0758 91.9827 68.3129 91.8641C69.3797 91.6271 70.5651 91.6271 71.9875 91.7456C73.5284 91.8641 74.9508 92.1012 76.1362 92.4568C77.203 92.6939 78.1513 93.0495 78.8625 93.4051C78.981 93.4051 78.981 93.5236 79.0995 93.5236C79.2181 93.6421 79.3366 93.6421 79.5737 93.7607C79.8107 93.8792 79.9293 93.8792 80.1664 93.9977C80.4034 94.1163 80.6405 94.2348 80.8776 94.3533L81.1146 94.4719C81.9444 94.8275 82.7741 95.3016 83.3668 95.7758C83.7224 96.0128 83.9594 96.2499 84.1965 96.487C84.315 96.6055 84.4336 96.6055 84.4336 96.724C84.5521 96.8426 84.5521 96.8426 84.6707 96.9611C87.1599 99.0947 87.0413 102.058 86.5672 103.836ZM92.4939 73.1357L92.2569 74.5581C91.6642 77.8771 90.3603 82.3814 85.6189 83.5667C80.9961 84.6335 79.9293 84.8706 76.7289 85.1077C76.6103 85.1077 76.6103 85.1077 76.4918 85.1077C74.1211 85.1077 69.4982 83.5667 68.6685 79.8921C68.1944 77.5215 69.2612 75.7434 70.9207 72.8986C71.1577 72.4245 71.5133 71.9503 71.8689 71.3577C74.2396 67.446 75.0694 64.6012 75.7806 62.349C76.4918 60.0969 77.0845 58.3189 78.6254 56.7779C78.981 56.4223 79.3366 56.0667 79.8107 55.8296C80.0478 55.5926 80.4034 55.474 80.759 55.237C81.2332 54.9999 81.7073 54.8814 82.1814 54.6443C83.2482 54.2887 84.4336 54.1702 85.5004 54.1702C87.7526 54.1702 90.0047 54.7628 91.5457 56.0667C92.2569 56.6594 93.3237 57.7262 93.9163 61.1637C94.1534 62.9417 93.6793 66.1421 92.4939 73.1357ZM126.513 82.6184C124.854 85.4633 124.024 87.0042 122.602 88.1896C119.757 90.5602 116.556 91.0344 113.83 91.0344C111.934 91.0344 110.274 90.6788 109.207 90.5602C106.362 90.0861 101.265 89.1378 99.4875 84.9891C99.1319 84.1594 99.1319 83.6852 99.1319 82.974C99.1319 82.3814 99.1319 81.196 98.7763 78.7068V78.5883C98.6577 77.4029 98.5392 76.099 98.7763 74.4396V74.2025C99.7245 69.224 100.08 68.5128 100.199 68.0387C100.673 67.0904 101.858 66.6163 102.925 67.209C103.873 67.6831 104.229 68.8684 103.873 69.8167C103.755 70.0538 103.518 71.1206 102.688 75.0322V75.2693C102.451 76.3361 102.569 77.1658 102.688 78.2327V78.3512C103.044 81.196 103.043 82.3814 103.043 83.0926C103.043 83.2111 103.043 83.3296 103.043 83.4482V83.5667C103.399 84.3965 104.11 84.8706 104.94 85.3447C105.533 85.5818 106.125 85.1077 106.007 84.515C105.177 80.1292 105.177 75.0322 106.837 71.8318C107.429 70.765 108.378 69.1055 109.326 67.446C109.444 67.3275 109.563 67.0904 109.563 66.9719C109.681 66.8533 109.681 66.7348 109.8 66.6163C110.274 65.9051 110.63 65.3124 110.985 64.7197C110.985 64.6012 111.104 64.6012 111.104 64.4827L111.222 64.3641C111.341 64.2456 111.341 64.1271 111.459 64.0085C111.459 64.0085 111.459 63.89 111.578 63.89L111.697 63.7715C111.697 63.6529 111.815 63.6529 111.815 63.5344C112.171 63.0602 112.526 62.5861 112.763 62.112C113.237 61.5193 112.645 60.8081 112.052 61.0452C110.393 61.7564 109.326 62.5861 109.089 62.7046C108.259 63.4159 106.955 63.2973 106.244 62.349C105.533 61.5193 105.651 60.2154 106.6 59.5042C107.666 58.6745 113.119 54.7628 119.638 56.5408C124.38 57.8447 126.75 61.5193 127.699 62.8232C128.41 63.89 130.781 67.209 130.662 71.9503C130.662 75.3878 129.24 77.9956 126.513 82.6184Z" fill="white"/>
<path d="M84.078 58.3188C83.7224 59.1486 83.3668 60.0969 82.8927 61.1637C81.9444 63.6529 80.7591 66.4977 80.1664 67.5645C79.2181 69.3426 78.5069 70.5279 77.9142 71.3576C77.203 72.4245 76.7289 73.2542 76.2548 74.4395C75.5436 76.4546 75.425 78.7068 75.8992 81.196C74.5953 81.0775 72.5802 80.2477 72.3431 79.0624C72.2246 78.2326 72.6987 77.4029 74.1211 74.9137C74.3582 74.4395 74.7138 73.8469 75.0694 73.3727C77.5586 69.1055 78.6254 65.9051 79.3367 63.5344C80.1664 61.0451 80.522 59.9783 81.8259 59.0301C82.6556 58.6744 83.3668 58.4374 84.078 58.3188Z" fill="white"/>
<path d="M81.5887 147.931C80.1663 150.776 78.5068 153.383 77.44 154.687C76.4917 152.317 74.9508 146.745 75.4249 142.36C75.4249 142.241 75.4249 142.123 75.4249 142.004C75.5435 140.582 75.8991 139.396 76.6103 138.329C77.0844 137.618 78.2698 137.263 79.5736 137.263C80.5219 137.263 81.5887 137.5 82.537 137.974C83.0111 138.211 83.7223 138.804 83.7223 140.345C83.9594 142.478 82.8926 145.323 81.5887 147.931Z" fill="white"/>
<path d="M157.451 116.282C157.569 116.401 157.569 116.519 157.569 116.638C157.214 117.468 156.621 118.06 156.028 118.771C155.317 119.601 154.487 120.549 153.776 122.09C152.709 124.224 152.354 126.121 152.235 131.099C151.998 136.907 152.235 140.108 152.472 142.478C152.591 144.731 152.709 146.153 152.354 148.405C151.524 152.909 149.628 155.873 147.138 159.666C144.056 164.407 140.975 169.267 135.759 170.808C135.285 170.927 135.285 170.927 133.862 170.927C132.677 170.927 130.662 170.927 126.987 171.045C120.112 171.282 116.675 171.401 113.83 171.993C110.748 172.586 109.207 173.297 107.548 173.89C106.125 174.483 104.821 174.957 102.332 175.549C100.791 175.905 98.5392 176.142 90.8344 176.261C82.7741 176.261 77.9142 176.261 71.6318 175.549C62.8603 174.601 58.4745 174.009 55.5112 172.468C48.6362 168.793 45.6728 162.155 40.9314 151.25C40.9314 151.131 41.0499 151.013 41.1685 151.013C41.4056 151.131 41.6426 151.25 41.8797 151.368C42.1168 151.487 42.3538 151.487 42.4724 151.487C42.9465 151.606 43.4206 151.606 43.8948 151.487C44.0133 151.487 44.0133 151.487 44.1318 151.368C44.2504 151.368 44.3689 151.368 44.3689 151.487C44.7245 152.317 45.1987 153.028 46.0284 153.502C46.8581 153.976 47.8064 153.976 48.6362 153.976C49.5844 153.976 50.5327 153.858 51.481 153.739C51.9551 153.739 52.4293 153.976 52.6663 154.332C53.4961 156.465 54.5629 157.888 56.2224 158.125C56.3409 158.125 56.4594 158.125 56.578 158.125C56.9336 158.125 57.5262 158.006 58.2374 157.532C58.8301 157.058 59.7784 157.414 60.2525 158.006C60.6081 158.599 61.0823 158.955 61.5564 159.31C63.2159 160.97 67.2461 161.799 70.565 161.799C72.3431 161.799 74.0025 161.562 74.9508 161.088C76.3732 160.377 76.3732 159.429 76.2547 158.955C76.1362 158.243 76.0176 157.414 75.8991 156.702C75.8991 156.584 76.0176 156.584 76.0176 156.702C76.2547 157.177 76.4918 157.651 77.0844 157.769C77.203 157.769 77.203 157.769 77.3215 157.769C78.2698 157.769 79.6922 158.125 79.9293 158.955C80.0478 159.429 80.2849 159.784 80.5219 160.259C81.1146 161.088 82.1814 162.155 84.4336 162.274H84.5521C87.1599 162.274 89.1749 161.444 90.4788 159.784C90.5974 159.666 90.5974 159.547 90.7159 159.429C91.19 158.718 92.6124 158.718 93.2051 159.31C93.9163 159.903 94.7461 160.259 95.6943 160.259C95.8129 160.259 96.0499 160.259 96.1685 160.259C97.3538 160.14 98.3021 159.547 99.1318 158.481C99.606 157.769 99.9616 156.94 100.199 155.991C100.317 155.754 100.673 155.636 100.91 155.873C101.384 156.347 102.214 156.821 103.399 156.821C103.636 156.821 103.992 156.821 104.347 156.702C106.6 156.228 107.785 154.332 108.259 152.317C108.259 152.198 108.378 152.198 108.378 152.317C108.97 153.028 110.037 153.858 111.815 153.858C111.934 153.858 112.052 153.858 112.052 153.858C113 153.858 113.83 153.384 114.423 152.672C115.134 151.724 115.371 150.302 115.49 148.998C115.49 148.642 115.727 148.287 116.201 148.049C118.097 147.22 120.468 145.442 121.179 144.256C121.179 144.256 121.179 144.138 121.298 144.138C121.416 143.782 121.772 143.545 122.009 143.545C123.55 143.308 124.143 142.953 124.735 142.715C125.209 142.478 125.565 142.36 126.75 142.123C135.403 140.819 137.063 140.463 138.959 139.278C141.804 137.381 141.923 134.774 142.041 132.284C142.16 130.151 142.278 127.78 143.938 124.935C144.531 123.868 145.242 122.683 145.953 121.261C147.257 118.89 149.035 115.571 150.339 113.793C150.576 113.437 151.05 113.319 151.406 113.556C154.369 114.623 156.977 115.808 157.451 116.282Z" fill="white"/>
<path d="M73.2914 142.122C72.9358 145.086 72.6987 149.116 73.1728 154.331C73.2914 155.754 73.5284 157.295 73.7655 158.836C73.4099 159.073 72.106 159.428 69.9724 159.31C66.8905 159.191 63.8086 158.48 62.8603 157.413L62.7418 157.295C62.0306 156.702 61.4379 156.228 61.4379 155.161C61.4379 154.805 61.5565 154.45 61.9121 153.857C62.1491 153.62 62.3862 153.265 62.6233 152.79C63.0974 152.079 63.8086 151.249 64.5198 150.064C66.5349 146.745 67.2461 145.678 68.1944 144.374C68.3129 144.256 68.3129 144.137 68.4315 144.019C69.0241 143.308 69.6168 142.359 70.6836 140.818C71.3948 139.752 71.9875 138.803 72.5802 138.092C73.4099 136.907 74.0026 136.314 74.3582 135.958C74.3582 136.433 74.2397 137.144 74.1211 137.855C73.647 139.277 73.4099 140.581 73.2914 142.122Z" fill="white"/>
<path d="M71.7504 95.4202C71.7504 95.5387 71.7504 95.5387 71.7504 95.4202C71.2763 96.0128 70.8022 96.724 70.2095 97.9094C68.6685 101.228 68.6685 103.125 68.6685 104.666C68.6685 105.496 68.6685 106.088 68.4315 106.799C68.3129 107.274 68.0759 107.866 67.7203 108.459C66.8905 110.474 65.7052 113.082 66.1793 116.638C65.4681 116.282 64.4013 115.452 64.1642 115.097C64.1642 114.86 64.0457 114.741 64.0457 114.504C63.8086 113.437 63.6901 112.726 64.2828 111.067C66.1793 106.799 66.4164 105.733 66.5349 104.547C66.5349 104.31 66.6534 104.073 66.6534 103.718C67.0091 102.058 67.2461 100.636 67.3647 99.4503C67.6017 97.6723 67.8388 96.487 68.4315 95.6572C68.6685 95.3016 69.2612 95.1831 70.0909 95.1831C70.4465 95.1831 70.8022 95.1831 71.2763 95.3016H71.3948C71.7504 95.4202 71.7504 95.4202 71.7504 95.4202Z" fill="white"/>
<path d="M69.3797 137.737C69.2612 136.671 69.1426 135.722 68.6685 134.655C68.6685 134.655 68.55 134.418 68.55 134.3C68.4314 134.181 68.4314 134.063 68.3129 133.944L68.1944 133.826C68.0758 133.707 68.0758 133.707 67.9573 133.707L67.8388 133.589C67.7202 133.589 67.7202 133.47 67.6017 133.47H67.4832C66.8905 133.233 66.2978 132.996 65.5866 132.877C65.4681 132.877 65.3495 132.877 65.3495 132.877C65.231 132.877 65.231 132.877 65.1125 132.877H64.9939C64.8754 132.877 64.7569 132.996 64.5198 132.996C64.4013 132.996 64.4013 133.115 64.2827 133.115L64.1642 133.233C64.0457 133.352 64.0457 133.352 63.9271 133.47L63.8086 133.589V133.707C63.5715 134.063 63.3345 134.418 63.0974 134.774C62.5047 135.604 61.912 136.552 61.3194 137.382C60.7267 138.211 60.2526 138.923 59.6599 139.752C59.3043 140.227 59.0672 140.582 58.7116 141.056C58.7116 141.175 58.5931 141.175 58.5931 141.293C58.9487 141.412 59.3043 141.412 59.6599 141.53C60.4896 141.649 61.3194 141.768 62.0306 141.886C63.6901 142.123 65.4681 142.242 67.1276 142.123C67.2461 142.123 67.2461 142.123 67.3646 142.123C67.7202 141.53 68.3129 140.819 68.9056 139.871C69.2612 139.397 69.6168 138.923 69.8539 138.449C69.4983 138.33 69.3797 137.974 69.3797 137.737Z" fill="white"/>
<path d="M63.3344 144.73C63.2159 146.034 61.7935 149.353 59.5413 152.554C57.6448 155.161 56.4594 155.873 56.2223 155.873C55.2741 155.754 54.4443 153.502 53.7331 151.25C53.496 150.302 53.1404 149.472 53.0219 148.642C52.5478 146.983 52.4292 144.612 52.5478 143.189C54.4443 144.256 57.7633 144.493 62.5047 144.493C62.7417 144.612 63.0973 144.612 63.3344 144.73Z" fill="white"/>
<path d="M60.0155 134.062C59.1857 135.366 58.356 136.552 57.5262 137.737C57.0521 138.33 56.6965 138.922 56.2224 139.515C55.9853 139.871 55.6297 140.226 55.3926 140.582C54.6814 140.463 54.0887 140.226 53.3775 140.108C52.7849 139.989 52.3107 139.752 51.718 139.515C51.5995 139.515 51.481 139.397 51.3624 139.397C51.2439 139.278 51.1254 139.041 51.0068 138.922C51.2439 138.567 51.3624 138.093 51.5995 137.737C51.9551 137.026 52.3107 136.315 52.7849 135.603C53.4961 134.418 54.3258 133.114 55.6297 132.284C55.7482 132.284 55.7482 132.166 55.8667 132.166C56.3409 131.929 56.815 131.692 57.4077 131.573C57.5262 131.573 57.8818 131.573 58.1189 131.573H58.2374C58.2374 131.573 58.2374 131.573 58.356 131.573C58.4745 131.573 58.593 131.692 58.8301 131.692C58.8301 131.692 58.9486 131.692 58.9486 131.81C59.0672 131.929 59.1857 131.929 59.3042 132.047C59.0672 131.929 59.5413 132.403 59.5413 132.284C59.7784 132.996 59.8969 133.351 60.0155 134.062Z" fill="white"/>
<path d="M53.6145 130.624C52.0736 131.81 51.0068 133.469 50.177 135.247C49.7029 136.195 49.2288 137.144 48.7546 138.092C48.7546 138.211 48.6361 138.329 48.6361 138.329C48.162 138.211 47.6878 138.092 47.3322 137.974C46.8581 137.855 46.3839 137.618 45.9098 137.499C45.6727 137.381 45.5542 137.262 45.3171 137.144C45.7913 136.314 46.2654 135.484 46.8581 134.655C47.5693 133.588 48.399 132.402 49.2288 131.454C49.5844 131.099 49.94 130.624 50.2956 130.387C50.7697 130.15 51.2438 130.15 51.8365 130.269C52.4292 130.269 53.0219 130.269 53.496 130.506C53.3775 130.506 53.496 130.624 53.6145 130.624Z" fill="white"/>
<path d="M51.2439 150.776C51.1253 150.894 51.1253 150.894 51.0068 151.013H50.8883C50.5326 151.013 50.177 151.131 49.8214 151.131C49.1102 151.131 48.399 151.25 47.6878 151.131C47.3322 151.131 46.9766 151.013 46.7395 150.776C46.5025 150.42 46.3839 149.709 46.2654 149.235C45.7913 146.627 45.7913 144.019 46.0283 141.412C47.3322 141.886 48.7546 142.241 50.177 142.478C49.8214 144.849 50.4141 148.287 50.6512 149.235C51.0068 149.709 51.1253 150.302 51.2439 150.776Z" fill="white"/>
<path d="M46.9767 129.795C45.7913 131.218 44.7245 132.759 43.7762 134.418C43.4206 135.011 42.9465 135.722 42.5909 136.433C42.1168 136.315 41.6426 136.077 41.287 135.84C40.9314 135.603 40.5758 135.366 40.3387 135.129C40.2202 135.011 39.9831 134.892 39.8646 134.774C39.8646 134.774 39.7461 134.774 39.7461 134.655C39.8646 134.299 40.1017 134.062 40.1017 133.825C40.3387 133.233 40.5758 132.759 40.9314 132.284C41.5241 131.336 42.1168 130.388 42.828 129.44C43.065 129.084 43.3021 128.728 43.7762 128.61C44.1318 128.491 44.606 128.61 44.9616 128.61C45.6728 128.728 46.384 129.202 46.9767 129.795Z" fill="white"/>
<path d="M37.8495 136.078C37.8495 135.959 37.968 135.959 37.8495 136.078C38.3237 136.552 38.6793 136.907 39.1534 137.263C39.3905 137.382 39.509 137.619 39.7461 137.737C39.7461 137.737 39.7461 137.737 39.7461 137.856C39.2719 139.871 38.9163 142.004 38.9163 144.138C38.9163 144.257 38.7978 144.257 38.7978 144.138C38.2051 141.649 37.4939 137.619 37.8495 136.078Z" fill="white"/>
<path d="M43.6577 140.463C43.4206 142.241 43.3021 144.019 43.4206 145.797C43.4206 146.745 43.5392 147.694 43.6577 148.76C43.4206 148.76 43.1836 148.76 42.9465 148.76H42.828H42.7094C42.4724 148.642 42.4724 148.642 42.2353 148.523C41.9982 148.405 41.7612 148.049 41.5241 147.694C41.05 146.864 40.9314 145.916 40.9314 144.967C40.8129 143.189 41.05 141.293 41.4056 139.515C41.6426 139.633 41.9982 139.752 42.3538 139.87C42.828 140.107 43.1836 140.344 43.6577 140.463Z" fill="white"/>
<g opacity="0.8">
<path opacity="0.8" d="M90.3604 232.92C82.3001 232.92 74.7139 232.446 68.313 231.972L66.535 231.854L64.757 231.616C63.9272 231.498 62.979 231.379 61.9122 231.261C55.7484 230.55 44.2505 229.364 31.5673 223.438L29.5522 222.489L27.7742 221.422C3.35612 207.672 -5.6525 187.166 -10.631 176.142C-10.9866 175.431 -11.3422 174.601 -11.6978 173.772C-14.187 168.675 -15.7279 164.17 -17.0318 159.903L-17.2689 158.955L-17.506 158.007C-21.062 145.442 -21.8917 134.655 -20.3508 123.869C-18.6913 113.082 -14.7797 103.362 -7.78612 93.0497L-4.23009 87.2415C-3.51888 86.0561 -3.04474 84.7522 -2.68914 83.4484C0.0371523 69.9354 6.20095 60.3341 9.28284 55.7113C10.1126 50.1402 11.535 44.6876 13.4315 39.3535L13.6686 38.5238L14.0242 37.694C14.0242 37.5755 14.1428 37.3384 14.2613 36.9828C15.6837 32.8341 18.8841 23.2328 27.063 13.0389L30.1449 9.48284L33.3453 6.63802C41.4057 -0.711122 51.1255 -6.16371 61.5565 -9.24561C67.3647 -11.0236 73.41 -12.0904 79.5738 -12.446H80.1665H80.9962C82.063 -12.446 83.1298 -12.5646 84.0781 -12.5646C87.8712 -12.5646 91.6643 -12.209 95.4574 -11.6163C97.8281 -11.2607 100.199 -11.4978 102.451 -12.446C108.97 -15.1723 115.727 -16.9503 122.72 -17.8986C123.313 -18.0172 123.787 -18.0172 124.261 -18.1357C125.328 -18.2542 127.106 -18.4913 129.24 -18.7284C132.914 -19.084 138.604 -19.5581 144.649 -19.5581C156.621 -19.5581 166.934 -18.0172 176.179 -14.8167L177.009 -14.5797L177.72 -14.3426C198.108 -6.63785 208.421 4.14879 215.888 13.513L216.244 13.9872L217.311 14.9354C224.067 20.1509 229.757 26.6703 234.261 33.9009L235.684 36.1531L236.869 38.5238C246.826 58.7932 243.626 77.6402 242.44 84.6337L242.322 84.9893C241.492 90.2048 240.069 95.3018 238.291 100.28C237.58 105.022 236.513 109.763 234.972 114.267C232.365 122.328 228.453 130.032 223.475 136.907C220.63 140.938 217.311 144.849 213.755 148.287C212.451 149.472 211.621 151.132 211.384 152.91C211.266 153.976 211.029 155.043 210.91 156.11C207.947 171.757 201.19 182.662 198.345 187.047L189.929 199.138C179.735 211.821 167.645 220.119 153.065 224.623L149.509 225.69L145.716 226.401C141.33 227.231 136.944 227.586 132.44 227.586C131.848 227.586 131.255 227.586 130.544 227.586H130.307H129.595H128.766C127.106 227.586 125.447 227.942 123.787 228.416C114.067 231.498 103.399 232.92 90.3604 232.92Z" stroke="url(#paint1_linear_3179_498)" stroke-width="1.25101" stroke-miterlimit="10"/>
<path opacity="0.8" d="M90.3604 224.504C82.6556 224.504 75.188 224.03 69.0242 223.556L67.6018 223.438L66.1793 223.201C65.2311 223.082 64.1643 222.964 63.0974 222.845C57.0522 222.252 47.0953 221.067 35.953 215.851L34.2936 215.022L32.7526 214.192C11.0608 202.22 3.119 184.321 -1.62238 173.653C-1.97799 172.942 -2.33359 171.994 -2.80773 171.164C-5.05988 166.66 -6.4823 162.392 -7.66764 158.599L-7.90471 157.77L-8.14178 157.058C-11.2237 145.798 -12.0534 136.315 -10.631 126.951C-9.20859 117.705 -5.65256 109.052 0.511237 100.043L5.13408 92.5756C5.96382 91.2717 6.5565 89.7308 6.79356 88.1898C9.04572 75.3881 15.091 66.3795 17.8173 62.2308L18.1729 61.7566L18.2914 61.5196C18.2914 61.401 18.4099 61.2825 18.4099 61.164C18.5285 60.5713 18.7655 60.0972 18.8841 59.623C19.5953 54.4075 20.8992 49.192 22.6772 44.2135L22.9143 43.5023L23.1513 42.7911C23.2699 42.554 23.2699 42.317 23.5069 41.6058C24.8108 37.6941 27.5371 29.5153 34.6492 20.7437L37.2569 17.6618L39.8647 15.2911C46.8582 8.89025 55.2742 4.14887 64.2828 1.54112C69.4983 0.000168118 74.7138 -0.948107 80.1664 -1.18518H80.6405H81.3518C82.3 -1.18518 83.1298 -1.30371 83.9595 -1.30371C87.8712 -1.30371 91.6643 -2.37052 95.4574 -1.65931C98.4207 -1.06664 101.384 -1.42225 104.11 -2.60759C109.207 -4.85975 116.082 -5.68949 123.906 -6.7563C124.498 -6.87483 124.972 -6.87483 125.328 -6.99337C126.395 -7.1119 128.054 -7.34897 129.951 -7.4675C133.388 -7.82311 138.722 -8.17871 144.531 -8.17871C155.436 -8.17871 164.681 -6.7563 172.86 -4.03L173.572 -3.79294L174.164 -3.55587C192.182 3.31913 201.072 12.3278 208.065 21.2178C208.421 21.692 208.895 22.1661 209.013 22.4032L209.132 22.5217L210.436 23.7071L210.554 23.9441C216.6 28.567 221.697 34.2566 225.608 40.6575L226.794 42.5541L227.742 44.5691C236.276 61.9937 233.669 77.9959 232.483 84.7523L232.365 85.1079C231.535 90.0864 230.231 94.8278 228.453 99.5691C227.86 104.073 226.794 108.578 225.371 112.845C223 119.957 219.563 126.714 215.177 132.877C212.214 137.145 208.658 141.056 204.865 144.494C203.087 146.153 201.901 148.287 201.664 150.776C201.427 152.554 201.19 154.214 200.953 155.992C198.345 169.86 192.419 179.343 189.574 183.61L182.699 193.567C173.572 205.302 162.785 212.888 149.746 216.918L146.783 217.867L143.582 218.459C139.789 219.17 135.878 219.526 132.085 219.407C131.492 219.407 130.899 219.407 130.306 219.407H130.188H129.832C129.832 219.407 129.714 219.407 129.477 219.407H128.766H128.054H126.75C124.972 219.526 123.194 219.763 121.416 220.356C112.763 223.201 102.688 224.504 90.3604 224.504Z" stroke="url(#paint2_linear_3179_498)" stroke-width="1.25101" stroke-miterlimit="10"/>
<path opacity="0.8" d="M90.3604 214.666C83.0113 214.666 75.7807 214.192 69.7354 213.717L68.5501 213.599L67.3647 213.48C66.2979 213.362 65.1126 213.243 63.9272 213.125C58.2376 212.532 49.5845 211.584 39.8647 206.961L38.5608 206.368L37.3755 205.657C18.7656 195.226 11.8906 179.817 7.38626 169.623C7.03066 168.793 6.55652 167.726 6.20092 166.896C4.18583 162.866 2.88195 159.073 1.81514 155.517L1.57807 154.924L1.45954 154.332C-1.26675 144.612 -1.97796 136.314 -0.792616 128.491C0.392729 120.549 3.59316 113.082 9.04575 105.14L9.75695 104.192L10.4682 103.243C10.9423 102.651 11.2979 102.058 11.772 101.584L14.4983 96.4868C15.4466 94.8273 16.0393 93.0493 16.2763 91.1527C18.0544 79.7734 23.507 71.5945 25.9962 67.8014C26.1147 67.5644 26.3518 67.3273 26.4703 67.2087L27.063 66.379C27.3001 65.9049 27.5371 65.3122 27.7742 64.601C28.0113 63.8898 28.3669 62.823 28.6039 61.8747C29.1966 57.0148 30.382 52.2734 32.0414 47.6506L32.2785 47.0579L32.5156 46.4652C32.6341 45.9911 32.8712 45.6355 33.1082 44.8057C34.2936 41.1312 36.5457 34.3747 42.591 27.0256L44.6061 24.5363L46.7397 22.6398C52.6664 17.1872 59.7785 13.2756 67.4832 10.9049C71.9876 9.60099 76.4919 8.77125 81.2332 8.53418H81.5889H82.1815C82.8927 8.53418 83.6039 8.53418 84.4337 8.53418C88.4639 8.53418 92.3755 9.00832 96.2871 10.0751C99.6061 10.9049 103.162 10.5493 106.244 9.00832C111.222 6.63763 117.86 4.02987 125.565 3.08159C126.039 2.96306 126.513 2.96306 126.869 2.84452C127.817 2.72599 129.358 2.48892 131.255 2.37039C134.455 2.01478 139.552 1.65918 144.886 1.65918C154.606 1.65918 162.785 2.84452 170.016 5.33375L170.49 5.57082L170.964 5.80789C187.559 12.0902 194.908 20.2691 200.597 27.4997C201.901 29.0406 202.02 29.2777 202.85 30.1075L203.916 31.0557L204.272 31.5299C206.998 33.6635 212.569 38.0493 217.429 45.9911L218.378 47.532L219.207 49.073C226.438 63.6527 224.186 76.9286 223.119 83.3294L223 83.685C222.289 88.3079 220.985 92.9307 219.089 97.3165V97.6721C218.615 101.821 217.666 105.97 216.363 109.881C214.347 116.163 211.384 121.972 207.472 127.306C204.272 131.929 200.36 136.077 195.975 139.633C194.908 140.463 194.078 141.53 193.485 142.715C192.893 143.901 192.537 145.204 192.419 146.508C192.3 149.116 191.944 151.724 191.47 154.332C189.218 166.304 184.003 174.601 181.395 178.75L176.061 186.573C168.119 197.241 158.636 204.116 147.138 207.672L144.768 208.383L142.16 208.857C138.96 209.45 135.641 209.687 132.322 209.687C131.847 209.687 131.255 209.687 130.662 209.687H130.544H129.951C129.832 209.687 129.595 209.687 129.003 209.687H128.41H127.936L125.21 209.806C123.313 209.924 121.416 210.161 119.638 210.873C111.46 213.48 102.095 214.666 90.3604 214.666Z" stroke="url(#paint3_linear_3179_498)" stroke-width="1.17278" stroke-miterlimit="10"/>
<path opacity="0.8" d="M90.3603 204.828C83.3668 204.828 76.3733 204.354 70.5651 203.879L69.7353 203.761L68.9056 203.642C67.7203 203.524 66.4164 203.287 65.231 203.168C59.897 202.575 52.5479 201.746 44.2504 197.953L43.3022 197.479L42.3539 197.004C26.5888 188.114 20.7806 175.075 16.5134 165.593C16.0392 164.644 15.5651 163.578 15.2095 162.629C13.4315 158.955 12.2461 155.517 11.2979 152.554L11.1793 152.08L10.8237 151.724C6.20087 135.366 7.97889 123.869 16.9875 110.711L17.4616 110L17.9358 109.289C18.5285 108.578 19.1211 107.748 19.7138 107.037C20.5435 105.97 21.3733 104.785 22.3216 103.718C22.9142 103.007 23.3884 102.177 23.744 101.347L24.8108 98.7393C25.2849 97.5539 25.522 96.3686 25.6405 95.1833C26.5888 84.6337 31.6858 77.0475 34.175 73.2544C34.4121 73.0173 34.6491 72.5432 34.7677 72.4246L35.3604 71.4764L35.5974 71.2393C35.953 70.6466 36.5457 69.2242 37.0198 67.8018C37.2569 66.8535 37.731 65.3126 38.2052 64.0087V63.8902C38.6793 59.5044 39.7461 55.1186 41.2871 50.9699L41.4056 50.6143L41.5241 50.2587C41.7612 49.5475 41.9983 48.9548 42.2354 48.1251C43.3022 44.9246 45.0802 39.4721 49.9401 33.4268L51.481 31.5302L53.022 30.1078C64.5198 19.6768 77.3216 18.8471 81.5888 18.4914H81.8259H82.3C82.8927 18.4914 83.4853 18.4914 84.078 18.4914C89.175 18.4914 94.1534 19.5583 98.8948 21.5733C99.7246 21.9289 100.673 22.0475 101.503 22.0475C102.451 22.0475 103.281 21.8104 104.11 21.3363C108.496 18.8471 116.438 14.2242 126.632 13.0389C127.106 12.9203 127.58 12.9203 127.936 12.9203C128.884 12.8018 130.306 12.6833 131.966 12.4462C135.048 12.2091 139.671 11.8535 144.649 11.8535C153.302 11.8535 160.414 12.9203 166.459 14.9354L166.815 15.0539L167.171 15.1725C181.395 20.5065 187.44 27.263 192.537 33.6639C193.841 35.4419 194.552 36.1531 195.975 37.5755L196.804 38.2867L197.397 38.9979L197.871 39.3535C200.242 41.2501 204.746 44.6876 208.776 51.207L209.487 52.3923L210.08 53.5777C215.888 65.4311 213.992 76.0992 213.044 81.7889V82.1445C212.332 86.2932 211.147 90.4419 209.487 94.3535L209.369 94.7091C209.369 94.8277 209.369 94.8276 209.25 95.0647C209.132 95.4203 209.132 95.7759 209.132 96.1315L209.013 96.6057C208.658 100.162 207.828 103.599 206.643 106.918C204.865 112.252 202.375 117.231 199.056 121.735C195.856 126.358 192.181 130.151 188.151 133.114C186.373 134.418 184.951 136.078 183.884 138.093C182.817 140.108 182.343 142.241 182.343 144.494C182.343 147.22 181.987 150.065 181.513 152.791C179.617 162.985 175.35 169.86 172.623 174.009L168.712 179.817C161.837 189.418 153.658 195.582 143.819 198.664L143.345 198.782C142.516 199.019 141.686 199.257 140.856 199.375L140.263 199.494C137.537 199.968 134.811 200.205 132.084 200.205C131.61 200.205 131.136 200.205 130.662 200.205H130.544C130.306 200.205 130.069 200.205 129.832 200.205C129.595 200.205 129.121 200.205 128.173 200.205H127.817H127.462C126.158 200.205 124.498 200.323 123.076 200.323C121.061 200.442 119.164 200.797 117.268 201.509C110.156 203.642 101.503 204.828 90.3603 204.828Z" stroke="url(#paint4_linear_3179_498)" stroke-width="1.09467" stroke-miterlimit="10"/>
<path opacity="0.8" d="M90.3604 194.99C83.6039 194.99 76.966 194.516 71.2764 194.041H70.6837L70.091 193.923C68.7871 193.686 67.3647 193.567 66.0608 193.449C61.0824 192.856 54.9186 192.263 48.2807 189.063L47.5695 188.707L46.9768 188.352C34.0565 181.121 29.1966 170.216 25.4035 161.444C24.9294 160.378 24.4552 159.311 23.9811 158.125C22.4402 155.044 21.3733 151.962 20.5436 149.354L20.4251 148.998L20.3065 148.643C16.5134 135.13 17.8173 126.595 25.1664 115.927L25.5221 115.453L25.8777 114.979C26.4703 114.149 27.063 113.438 27.6557 112.608C29.5522 110.119 31.4488 107.63 34.1751 104.666C34.7677 104.074 35.1233 103.125 35.2419 102.296L35.3604 99.5694L35.2419 98.5026V97.4358C35.4789 88.6642 39.8647 82.1448 42.2354 78.5888C42.4725 78.2332 42.8281 77.7591 42.9466 77.522L43.3022 76.9293L43.6578 76.4552C44.132 75.744 45.1988 73.2548 46.1471 71.0026C46.5027 70.0543 46.9768 68.1578 47.5695 66.6168C47.688 66.1427 47.688 66.0242 47.8065 64.9573C48.1621 61.2828 49.1104 57.6082 50.2958 54.1707L50.4143 53.9336L50.5328 53.6966C50.8884 52.7483 51.1255 52.0371 51.4811 51.0888C52.4294 48.244 53.8518 44.0953 57.5264 39.4724L58.5932 38.1686L59.66 37.2203C67.7203 29.9897 76.3733 28.5673 82.3001 28.2117H82.5371H82.7742C83.2483 28.2117 83.6039 28.2117 84.0781 28.2117C89.0565 28.2117 95.1018 30.5823 98.3022 32.1233C99.0134 32.4789 99.8432 32.716 100.673 32.716C101.503 32.716 102.332 32.5974 103.162 32.3604C105.177 31.6492 107.074 30.8194 108.852 29.8711C112.882 27.5005 119.52 23.7074 127.817 22.7591C128.291 22.6405 128.647 22.6405 129.003 22.6405C129.832 22.522 131.136 22.4035 132.796 22.1664C135.641 21.9293 139.908 21.5737 144.531 21.5737C151.998 21.5737 158.162 22.4035 163.141 24.1815L163.378 24.3L163.615 24.4186C175.468 28.9229 180.21 34.0198 184.714 39.828C186.136 41.7246 187.203 43.0285 189.337 44.925L189.811 45.3992L190.285 45.8733C190.759 46.3474 191.233 46.703 191.707 47.0586C193.722 48.5996 197.16 51.3259 200.123 56.3043L200.597 57.0155L200.953 57.8453C205.339 66.7354 203.916 75.1513 203.087 80.1298V80.4854C202.494 83.9229 201.546 87.2418 200.123 90.4423C199.768 91.272 199.531 92.1017 199.294 93.05C199.175 93.6427 199.057 94.2354 199.057 94.7095L198.938 95.1836C198.582 98.0285 197.99 100.873 197.041 103.6C195.619 107.985 193.485 112.134 190.878 115.809C186.847 121.498 182.225 125.528 176.654 128.136C175.35 128.729 174.164 129.677 173.335 130.981C172.505 132.166 172.031 133.707 171.912 135.13C171.912 135.722 171.912 136.197 171.912 136.552C172.149 140.819 172.505 145.679 171.557 150.776C170.016 159.074 166.46 164.645 163.852 168.794C163.852 168.794 151.761 185.625 140.738 189.063L139.552 189.419L138.248 189.656C136.115 190.011 133.981 190.248 131.729 190.248C131.373 190.248 130.899 190.248 130.425 190.248C130.188 190.248 129.832 190.248 129.477 190.248C129.003 190.248 128.291 190.248 127.225 190.367H126.988H126.75C122.483 190.485 118.572 190.604 117.386 190.841C116.794 190.959 116.201 191.078 115.608 191.315C109.8 193.804 101.621 194.99 90.3604 194.99Z" stroke="url(#paint5_linear_3179_498)" stroke-width="1.01643" stroke-miterlimit="10"/>
<path opacity="0.8" d="M90.3604 185.269C83.9595 185.269 77.5587 184.795 72.1061 184.44H71.869H71.632C70.091 184.203 68.6686 184.084 67.3647 183.966C62.7419 183.491 57.882 182.899 52.6664 180.528L52.3108 180.41L51.9552 180.291C41.8798 174.601 38.0867 166.185 34.5307 158.007C34.0565 156.821 33.4639 155.636 32.8712 154.451C31.6858 152.08 30.7376 149.472 30.0264 146.983V146.864V146.746C26.9445 135.959 27.7742 130.507 33.4639 122.209L33.5824 121.972L33.7009 121.735C34.4121 120.905 35.0048 120.076 35.5975 119.364C38.3238 115.808 40.6945 112.726 46.0285 107.748C46.3841 107.392 46.7397 106.918 46.8583 106.326C46.9768 105.851 46.9768 105.259 46.7397 104.785L45.7914 102.058C45.5544 101.229 45.4358 100.28 45.4358 99.4505V98.7393V98.1467C45.6729 92.2199 48.7548 87.5971 50.7699 84.5152C51.1255 84.0411 51.3626 83.5669 51.5996 83.2113L51.8367 82.8557L52.0738 82.5001C53.1406 81.0777 54.9186 76.929 55.8669 74.4398C56.1039 73.61 56.6966 71.5949 57.2893 70.054C57.6449 68.8686 57.882 67.6833 58.0005 66.4979C58.3561 63.5346 58.9488 60.5712 60.0156 57.8449V57.7264V57.6079C60.4897 56.4225 60.8453 55.4742 61.0824 54.526C61.9121 52.0367 62.8604 49.1919 65.4682 45.9915L65.9423 45.3988L66.4164 44.9247C72.1061 39.7092 78.3884 38.7609 83.1298 38.4053H83.2483H83.3669C83.6039 38.4053 83.9595 38.4053 84.1966 38.4053C88.938 38.4053 92.494 40.3018 94.8647 41.6057L95.4574 41.8428H95.5759C96.2871 42.1984 96.7613 42.554 97.3539 42.791C98.7764 43.5023 100.554 43.7393 102.095 43.2652C105.414 42.4354 110.511 40.4204 113.83 38.5238H113.949C117.505 36.3902 122.957 33.3083 129.358 32.5971C129.714 32.4785 130.188 32.4785 130.544 32.4785C131.255 32.36 132.559 32.2415 133.981 32.1229C136.589 31.8859 140.619 31.5303 144.768 31.5303C151.169 31.5303 156.266 32.2415 160.177 33.5454H160.296H160.414C169.897 37.1014 173.453 40.8945 177.246 45.8729C178.787 47.888 180.328 49.7846 183.173 52.2738L183.41 52.5109L183.647 52.7479C184.358 53.4592 185.188 54.1704 186.136 54.8816C187.796 56.1854 190.166 57.9635 192.182 61.401L192.419 61.7566L192.656 62.1122C195.619 68.276 194.671 74.0842 193.96 78.4699V78.8255C193.485 81.5518 192.774 84.1596 191.589 86.7673C190.996 88.1898 190.522 89.7307 190.285 91.2717C190.166 92.2199 190.048 92.9311 189.929 93.5238L189.811 93.998C189.574 96.2501 189.1 98.3837 188.388 100.517C187.322 103.955 185.662 107.155 183.529 110.119C179.972 115.334 175.942 118.535 170.608 120.194C168 121.024 165.867 122.683 164.444 124.935L163.97 125.528L163.496 126.121C162.192 127.662 162.548 133.588 162.785 137.144C163.022 141.056 163.259 145.086 162.548 148.879C161.363 155.399 158.518 159.785 156.029 163.578C156.029 163.578 146.783 176.972 138.367 179.461L137.774 179.698L137.182 179.817C135.641 180.054 133.981 180.291 132.322 180.291C131.966 180.291 131.61 180.291 131.136 180.291C130.781 180.291 130.425 180.291 129.951 180.291C129.358 180.291 128.529 180.291 127.106 180.41H126.988H126.869C121.298 180.647 117.86 180.765 115.964 181.121C114.66 181.358 113.475 181.713 112.289 182.188C107.192 184.203 100.317 185.269 90.3604 185.269Z" stroke="url(#paint6_linear_3179_498)" stroke-width="1.01643" stroke-miterlimit="10"/>
</g>
</g>
<defs>
<radialGradient id="paint0_radial_3179_498" cx="0" cy="0" r="1" gradientUnits="userSpaceOnUse" gradientTransform="translate(109.804 121.492) rotate(90) scale(123.567)">
<stop offset="0.1667" stop-color="#073183"/>
<stop offset="1" stop-color="#0054F9"/>
</radialGradient>
<linearGradient id="paint1_linear_3179_498" x1="-15.6049" y1="-24.732" x2="236.432" y2="239.796" gradientUnits="userSpaceOnUse">
<stop offset="0.2057" stop-color="#89D0FF"/>
<stop offset="0.3984" stop-color="#EBBF9A"/>
<stop offset="0.6015" stop-color="#EB8280"/>
<stop offset="0.8411" stop-color="#A281FF"/>
</linearGradient>
<linearGradient id="paint2_linear_3179_498" x1="-5.83154" y1="-13.35" x2="226.519" y2="231.513" gradientUnits="userSpaceOnUse">
<stop offset="0.2057" stop-color="#89D0FF"/>
<stop offset="0.3984" stop-color="#EBBF9A"/>
<stop offset="0.6015" stop-color="#EB80DA"/>
<stop offset="0.8411" stop-color="#A281FF"/>
</linearGradient>
<linearGradient id="paint3_linear_3179_498" x1="4.03945" y1="-3.5094" x2="216.699" y2="221.684" gradientUnits="userSpaceOnUse">
<stop offset="0.2057" stop-color="#89D0FF"/>
<stop offset="0.3984" stop-color="#EBBF9A"/>
<stop offset="0.6015" stop-color="#EB8280"/>
<stop offset="0.8411" stop-color="#A281FF"/>
</linearGradient>
<linearGradient id="paint4_linear_3179_498" x1="13.8968" y1="6.3662" x2="206.822" y2="211.829" gradientUnits="userSpaceOnUse">
<stop offset="0.2057" stop-color="#89D0FF"/>
<stop offset="0.3984" stop-color="#EBBF9A"/>
<stop offset="0.6015" stop-color="#EB80E7"/>
<stop offset="0.8411" stop-color="#A281FF"/>
</linearGradient>
<linearGradient id="paint5_linear_3179_498" x1="23.6969" y1="16.2608" x2="196.925" y2="201.979" gradientUnits="userSpaceOnUse">
<stop offset="0.2057" stop-color="#89D0FF"/>
<stop offset="0.3984" stop-color="#EBBF9A"/>
<stop offset="0.6015" stop-color="#EB80D3"/>
<stop offset="0.8411" stop-color="#A281FF"/>
</linearGradient>
<linearGradient id="paint6_linear_3179_498" x1="33.6241" y1="26.0356" x2="187.138" y2="192.083" gradientUnits="userSpaceOnUse">
<stop offset="0.2057" stop-color="#89D0FF"/>
<stop offset="0.3984" stop-color="#EBBF9A"/>
<stop offset="0.6015" stop-color="#A280EB"/>
<stop offset="0.8411" stop-color="#A281FF"/>
</linearGradient>
<clipPath id="clip0_3179_498">
<rect width="220" height="220" rx="110" fill="white"/>
</clipPath>
</defs>
</svg>
