<svg width="220" height="220" viewBox="0 0 220 220" fill="none" xmlns="http://www.w3.org/2000/svg">
<path d="M110 220C170.751 220 220 170.751 220 110C220 49.2487 170.751 0 110 0C49.2487 0 0 49.2487 0 110C0 170.751 49.2487 220 110 220Z" fill="#0C0D11"/>
<path d="M97.1584 40L47.163 64.3243L111.565 100.141L171.53 65.3243L120.809 41L114.614 44.01L158.56 63.9412L148.347 69.6207L127.681 81.1144L120.809 84.9367L114.614 88.3821L111.565 90.0779L103.289 85.709L97.2389 82.5154L89.9307 78.6574L72.0717 69.2298L62.0533 63.9412L103.289 43.337L97.1584 40Z" fill="#565656"/>
<path d="M103.289 43.337L62.0533 63.9412L72.0717 69.2298L89.9307 59.9263L97.2389 56.1192V82.5154L103.289 85.709V43.337Z" fill="#8E8E8E"/>
<path d="M158.56 63.9412L114.614 44.01V88.3821L120.809 84.9367V56.1192L127.681 59.4887L148.347 69.6207L158.56 63.9412Z" fill="#3E3E3D"/>
<path d="M97.2389 82.5154V56.1192L89.9307 59.9263V78.6574L97.2389 82.5154Z" fill="#3E3E3D"/>
<path d="M120.809 56.1192V84.9367L127.681 81.1144V59.4887L120.809 56.1192Z" fill="#8E8E8E"/>
<path d="M114.614 106.064V110.825L120.809 107.138V102.398L114.614 106.064Z" fill="#3E3E3D"/>
<path d="M114.614 110.825L118.341 112.494L124.584 108.965L120.809 107.138L114.614 110.825Z" fill="#3E3E3D"/>
<path d="M130.827 105.293L126.859 103.528L120.809 107.138L124.584 108.965L130.827 105.293Z" fill="#565656"/>
<path d="M126.859 103.528V98.8178L120.809 102.398V107.138L126.859 103.528Z" fill="#8E8E8E"/>
<path d="M124.584 108.965L118.341 112.494L116.211 113.83V118.218V124.531V131.354V176.358L124.584 181.509V117.169L180 83.5437L173.031 80.3959L130.827 105.293L124.584 108.965Z" fill="#565656"/>
<path d="M180 83.5437L124.584 117.169V181.509L162.911 154.488V144.45L133.392 165.483V155.754V140.348V134.529V127.804V121.413L133.953 121.081L141 116.83L146 113.83L163.581 103.528L171.53 98.8178L169.594 142.256L177.29 136.819L180 83.5437Z" fill="#8E8E8E"/>
<path d="M169.594 142.256L171.53 98.8178L163.581 103.528L162.911 122.32L162.673 128.424L141 116.83L133.953 121.081L169.594 142.256Z" fill="#3E3E3D"/>
<path d="M141 116.83L162.673 128.424L162.911 122.32L146 113.83L141 116.83Z" fill="#565656"/>
<path d="M133.392 165.483L162.911 144.45L133.392 127.804V134.529L150.671 144.45L145.589 147.741L133.392 155.754V165.483Z" fill="#565656"/>
<path d="M150.671 144.45L133.392 134.529V140.348L145.589 147.741L150.671 144.45Z" fill="#3E3E3D"/>
<path d="M103.289 110.157V103.155L97.9966 100.141V107.138L96.6024 107.945L101.949 110.985L103.289 110.157Z" fill="#8E8E8E"/>
<path d="M57.3102 103.155L50.3409 98.8178L51.3572 142.256L87.0503 120.194L81.2377 116.83L57.3102 130.666V121.413V103.155Z" fill="#8E8E8E"/>
<path d="M57.3102 121.413V130.666L81.2377 116.83L73.1775 112.164L57.3102 121.413Z" fill="#565656"/>
<path d="M55.1323 146.453V153.997L98.2552 182V116.83L41 84.9367L43.6135 136.819L51.3572 142.256L50.3409 98.8178L57.3102 103.155L73.1775 112.164L81.2377 116.83L87.0503 120.194L89.1563 121.413V125.754V131.792V137.534V157.948V168.25L55.1323 146.453Z" fill="#3E3E3D"/>
<path d="M67.7643 144.45L73.1775 147.741L89.1563 137.534V131.792L67.7643 144.45Z" fill="#8E8E8E"/>
<path d="M116.211 118.218L108.758 113.83L104.602 116.358V122.653L108.758 120.194L116.211 124.531V118.218Z" fill="#565656"/>
<path d="M89.1563 125.754L55.1323 146.453L89.1563 168.25V157.948L73.1775 147.741L67.7643 144.45L89.1563 131.792V125.754Z" fill="#565656"/>
<path fill-rule="evenodd" clip-rule="evenodd" d="M116.211 124.531V131.354L108.758 126.632V120.194L116.211 124.531Z" fill="#3E3E3D"/>
<path d="M108.758 120.194L104.602 122.653L104.558 129.188L108.758 126.632V120.194Z" fill="#8E8E8E"/>
<path fill-rule="evenodd" clip-rule="evenodd" d="M111.565 100.141V107.868L114.614 106.064L120.809 102.398L126.859 98.8178L171.53 72.3831V65.3243L111.565 100.141Z" fill="#8E8E8E"/>
<path d="M111.565 100.141L47.163 64.3243V70.7631L89.9307 95.5483L97.9966 100.141L103.289 103.155L111.565 107.868V100.141Z" fill="#3E3E3D"/>
<path fill-rule="evenodd" clip-rule="evenodd" d="M104.353 177.502L98.2552 182V116.83L104.602 112.494V116.358V122.653L104.558 129.188L104.353 177.502Z" fill="#8E8E8E"/>
<path d="M41 84.9367L98.2552 116.83L104.602 112.494L101.949 110.985L96.6024 107.945L88.4091 103.285L48.163 80.3959L41 84.9367Z" fill="#565656"/>
<path fill-rule="evenodd" clip-rule="evenodd" d="M97.9966 100.141V107.138L89.9307 102.398V95.5483L97.9966 100.141Z" fill="#3E3E3D"/>
<path d="M89.9307 102.398L88.4091 103.285L96.6024 107.945L97.9966 107.138L89.9307 102.398Z" fill="#565656"/>
<mask id="mask0_1147_136" style="mask-type:alpha" maskUnits="userSpaceOnUse" x="41" y="40" width="139" height="142">
<path d="M97.1584 40L47.163 64.3243L111.565 100.141L171.53 65.3243L120.809 41L114.614 44.01L158.56 63.9412L148.347 69.6207L127.681 81.1144L120.809 84.9367L114.614 88.3821L111.565 90.0779L103.289 85.709L97.2389 82.5154L89.9307 78.6574L72.0717 69.2298L62.0533 63.9412L103.289 43.337L97.1584 40Z" fill="#565656"/>
<path d="M103.289 43.337L62.0533 63.9412L72.0717 69.2298L89.9307 59.9263L97.2389 56.1192V82.5154L103.289 85.709V43.337Z" fill="#8E8E8E"/>
<path d="M158.56 63.9412L114.614 44.01V88.3821L120.809 84.9367V56.1192L127.681 59.4887L148.347 69.6207L158.56 63.9412Z" fill="#3E3E3D"/>
<path d="M97.2389 82.5154V56.1192L89.9307 59.9263V78.6574L97.2389 82.5154Z" fill="#3E3E3D"/>
<path d="M120.809 56.1192V84.9367L127.681 81.1144V59.4887L120.809 56.1192Z" fill="#8E8E8E"/>
<path d="M114.614 106.064V110.825L120.809 107.138V102.398L114.614 106.064Z" fill="#3E3E3D"/>
<path d="M114.614 110.825L118.341 112.494L124.584 108.965L120.809 107.138L114.614 110.825Z" fill="#3E3E3D"/>
<path d="M130.827 105.293L126.859 103.528L120.809 107.138L124.584 108.965L130.827 105.293Z" fill="#565656"/>
<path d="M126.859 103.528V98.8178L120.809 102.398V107.138L126.859 103.528Z" fill="#8E8E8E"/>
<path d="M124.584 108.965L118.341 112.494L116.211 113.83V118.218V124.531V131.354V176.358L124.584 181.509V117.169L180 83.5437L173.031 80.3959L130.827 105.293L124.584 108.965Z" fill="#565656"/>
<path d="M180 83.5437L124.584 117.169V181.509L162.911 154.488V144.45L133.392 165.483V155.754V140.348V134.529V127.804V121.413L133.953 121.081L141 116.83L146 113.83L163.581 103.528L171.53 98.8178L169.594 142.256L177.29 136.819L180 83.5437Z" fill="#8E8E8E"/>
<path d="M169.594 142.256L171.53 98.8178L163.581 103.528L162.911 122.32L162.673 128.424L141 116.83L133.953 121.081L169.594 142.256Z" fill="#3E3E3D"/>
<path d="M141 116.83L162.673 128.424L162.911 122.32L146 113.83L141 116.83Z" fill="#565656"/>
<path d="M133.392 165.483L162.911 144.45L133.392 127.804V134.529L150.671 144.45L145.589 147.741L133.392 155.754V165.483Z" fill="#565656"/>
<path d="M150.671 144.45L133.392 134.529V140.348L145.589 147.741L150.671 144.45Z" fill="#3E3E3D"/>
<path d="M103.289 110.157V103.155L97.9966 100.141V107.138L96.6024 107.945L101.949 110.985L103.289 110.157Z" fill="#8E8E8E"/>
<path d="M57.3102 103.155L50.3409 98.8178L51.3572 142.256L87.0503 120.194L81.2377 116.83L57.3102 130.666V121.413V103.155Z" fill="#8E8E8E"/>
<path d="M57.3102 121.413V130.666L81.2377 116.83L73.1775 112.164L57.3102 121.413Z" fill="#565656"/>
<path d="M55.1323 146.453V153.997L98.2552 182V116.83L41 84.9367L43.6135 136.819L51.3572 142.256L50.3409 98.8178L57.3102 103.155L73.1775 112.164L81.2377 116.83L87.0503 120.194L89.1563 121.413V125.754V131.792V137.534V157.948V168.25L55.1323 146.453Z" fill="#3E3E3D"/>
<path d="M67.7643 144.45L73.1775 147.741L89.1563 137.534V131.792L67.7643 144.45Z" fill="#8E8E8E"/>
<path d="M116.211 118.218L108.758 113.83L104.602 116.358V122.653L108.758 120.194L116.211 124.531V118.218Z" fill="#565656"/>
<path d="M89.1563 125.754L55.1323 146.453L89.1563 168.25V157.948L73.1775 147.741L67.7643 144.45L89.1563 131.792V125.754Z" fill="#565656"/>
<path fill-rule="evenodd" clip-rule="evenodd" d="M116.211 124.531V131.354L108.758 126.632V120.194L116.211 124.531Z" fill="#3E3E3D"/>
<path d="M108.758 120.194L104.602 122.653L104.558 129.188L108.758 126.632V120.194Z" fill="#8E8E8E"/>
<path fill-rule="evenodd" clip-rule="evenodd" d="M111.565 100.141V107.868L114.614 106.064L120.809 102.398L126.859 98.8178L171.53 72.3831V65.3243L111.565 100.141Z" fill="#8E8E8E"/>
<path d="M111.565 100.141L47.163 64.3243V70.7631L89.9307 95.5483L97.9966 100.141L103.289 103.155L111.565 107.868V100.141Z" fill="#3E3E3D"/>
<path fill-rule="evenodd" clip-rule="evenodd" d="M104.353 177.502L98.2552 182V116.83L104.602 112.494V116.358V122.653L104.558 129.188L104.353 177.502Z" fill="#8E8E8E"/>
<path d="M41 84.9367L98.2552 116.83L104.602 112.494L101.949 110.985L96.6024 107.945L88.4091 103.285L48.163 80.3959L41 84.9367Z" fill="#565656"/>
<path fill-rule="evenodd" clip-rule="evenodd" d="M97.9966 100.141V107.138L89.9307 102.398V95.5483L97.9966 100.141Z" fill="#3E3E3D"/>
<path d="M89.9307 102.398L88.4091 103.285L96.6024 107.945L97.9966 107.138L89.9307 102.398Z" fill="#565656"/>
</mask>
<g mask="url(#mask0_1147_136)">
<g opacity="0.29" filter="url(#filter0_f_1147_136)">
<circle cx="137" cy="101" r="47" fill="white"/>
</g>
</g>
<defs>
<filter id="filter0_f_1147_136" x="53" y="17" width="168" height="168" filterUnits="userSpaceOnUse" color-interpolation-filters="sRGB">
<feFlood flood-opacity="0" result="BackgroundImageFix"/>
<feBlend mode="normal" in="SourceGraphic" in2="BackgroundImageFix" result="shape"/>
<feGaussianBlur stdDeviation="18.5" result="effect1_foregroundBlur_1147_136"/>
</filter>
</defs>
</svg>
