<svg width="220" height="220" viewBox="0 0 220 220" fill="none" xmlns="http://www.w3.org/2000/svg">
  <path d="M110 220C170.751 220 220 170.751 220 110C220 49.2487 170.751 0 110 0C49.2487 0 0 49.2487 0 110C0 170.751 49.2487 220 110 220Z" fill="#1246FF"/>
  <path d="M118.895 154.917C102.117 154.917 87.6126 145.213 80.3937 131H118.895L125.579 117.333H75.9821C75.6479 115.078 75.4474 112.823 75.4474 110.5C75.4474 108.177 75.6479 105.922 75.9821 103.667H118.895L125.579 90H80.3937C87.6126 75.7867 102.184 66.0833 118.895 66.0833C129.656 66.0833 139.549 70.115 147.169 76.8117L159 64.7167C148.372 54.945 134.268 49 118.895 49C92.6926 49 70.5011 66.1517 62.2126 90H38.6842L32 103.667H59.1379C58.8705 105.922 58.7368 108.177 58.7368 110.5C58.7368 112.823 58.8705 115.078 59.1379 117.333H38.6842L32 131H62.2126C70.5011 154.848 92.6926 172 118.895 172C134.335 172 148.372 166.055 159 156.283L147.102 144.188C139.549 150.885 129.723 154.917 118.895 154.917Z" fill="white"/>
</svg>