<svg width="220" height="220" viewBox="0 0 220 220" fill="none" xmlns="http://www.w3.org/2000/svg">
<g clip-path="url(#clip0_4318_182)">
<path d="M110 220C170.751 220 220 170.751 220 110C220 49.2487 170.751 0 110 0C49.2487 0 0 49.2487 0 110C0 170.751 49.2487 220 110 220Z" fill="#121212"/>
<path d="M110 36.9062L48.8781 70.0386L110.084 105.363L133.437 91.8738L123.573 86.2253L110.084 93.9815L69.0272 70.3758L110.084 48.119L114.047 50.3109L161.258 75.8557L171.206 70.0386L110 36.9062Z" fill="white"/>
<path d="M83.275 97.0169V108.398L97.1012 116.407V165.473L54.8638 139.423V80.5772L45 74.9287V144.987L106.965 183.093V110.675L83.275 97.0169Z" fill="white"/>
<path d="M167.581 79.2267L113.119 110.673V138.325L122.899 132.677V116.406L165.22 91.9569V139.506L122.899 165.472L113.119 171.458V183.008L175 144.901V74.8428L167.581 79.2267Z" fill="white"/>
</g>
<defs>
<clipPath id="clip0_4318_182">
<rect width="220" height="220" rx="110" fill="white"/>
</clipPath>
</defs>
</svg>
