<svg width="220" height="220" viewBox="0 0 220 220" fill="none" xmlns="http://www.w3.org/2000/svg">
<g clip-path="url(#clip0_4073_36)">
<path d="M218.5 110C218.5 169.923 169.923 218.5 110 218.5C50.0771 218.5 1.5 169.923 1.5 110C1.5 50.0771 50.0771 1.5 110 1.5C169.923 1.5 218.5 50.0771 218.5 110Z" fill="url(#paint0_linear_4073_36)" stroke="#9665FF" stroke-width="3"/>
<path fill-rule="evenodd" clip-rule="evenodd" d="M57 158.352C57 163.68 61.3196 168 66.6482 168C71.9767 168 76.2963 163.68 76.2963 158.352V64.6482C76.2963 59.3196 71.9767 55 66.6482 55C61.3196 55 57 59.3196 57 64.6482V158.352ZM142.704 158.352C142.704 163.68 147.023 168 152.352 168C157.68 168 162 163.68 162 158.352V64.6482C162 59.3196 157.68 55 152.352 55C147.023 55 142.704 59.3196 142.704 64.6482V158.352Z" fill="white" fill-opacity="0.52"/>
<g filter="url(#filter0_d_4073_36)">
<path fill-rule="evenodd" clip-rule="evenodd" d="M111.357 81.8446C118.539 81.8446 123.582 76.7798 123.582 70.2254C123.582 64.1179 118.386 59.5 111.357 59.5C104.328 59.5 99.1328 64.4159 99.1328 70.6722C99.1328 76.9285 104.328 81.8446 111.357 81.8446ZM109.093 68.5551C109.093 67.0548 107.877 65.8386 106.377 65.8386C104.876 65.8386 103.66 67.0548 103.66 68.5551C103.66 70.0554 104.877 71.2717 106.377 71.2717C107.877 71.2717 109.093 70.0554 109.093 68.5551ZM119.054 68.5551C119.054 67.0548 117.838 65.8386 116.338 65.8386C114.837 65.8386 113.621 67.0548 113.621 68.5551C113.621 70.0554 114.837 71.2717 116.338 71.2717C117.838 71.2717 119.054 70.0554 119.054 68.5551Z" fill="white"/>
<path d="M101.73 158.45C101.73 163.724 106.006 168 111.28 168C116.555 168 120.83 163.724 120.83 158.45V103.05C120.83 97.7758 116.555 93.5 111.28 93.5C106.006 93.5 101.73 97.7758 101.73 103.05V158.45Z" fill="white"/>
</g>
</g>
<defs>
<filter id="filter0_d_4073_36" x="57.9328" y="19.3" width="106.849" height="190.9" filterUnits="userSpaceOnUse" color-interpolation-filters="sRGB">
<feFlood flood-opacity="0" result="BackgroundImageFix"/>
<feColorMatrix in="SourceAlpha" type="matrix" values="0 0 0 0 0 0 0 0 0 0 0 0 0 0 0 0 0 0 127 0" result="hardAlpha"/>
<feOffset dy="1"/>
<feGaussianBlur stdDeviation="20.6"/>
<feComposite in2="hardAlpha" operator="out"/>
<feColorMatrix type="matrix" values="0 0 0 0 0 0 0 0 0 0.412114 0 0 0 0 0.65 0 0 0 1 0"/>
<feBlend mode="normal" in2="BackgroundImageFix" result="effect1_dropShadow_4073_36"/>
<feBlend mode="normal" in="SourceGraphic" in2="effect1_dropShadow_4073_36" result="shape"/>
</filter>
<linearGradient id="paint0_linear_4073_36" x1="110" y1="205" x2="110" y2="-66.5" gradientUnits="userSpaceOnUse">
<stop stop-color="#B265FF"/>
<stop offset="1" stop-color="#050ED7"/>
</linearGradient>
<clipPath id="clip0_4073_36">
<rect width="220" height="220" rx="110" fill="white"/>
</clipPath>
</defs>
</svg>
