<svg width="220" height="220" viewBox="0 0 220 220" fill="none" xmlns="http://www.w3.org/2000/svg">
<circle cx="110" cy="110" r="110" fill="white"/>
<path d="M64.109 46.7139L185.009 129.264L155.109 173.464L34.209 90.2639L64.109 46.7139Z" fill="url(#paint0_linear)"/>
<path d="M185.013 129.267C174.613 144.217 139.513 138.367 106.363 114.967C72.5627 92.2166 54.3627 61.6666 64.1127 46.7166C74.5127 31.7666 109.613 37.6166 142.763 61.0166C176.563 83.1166 194.763 114.317 185.013 129.267Z" fill="url(#paint1_linear)"/>
<path d="M155.114 172.814C144.714 187.764 109.614 181.914 76.4636 158.514C43.3136 135.114 24.4636 105.214 34.8636 89.614C45.2636 74.664 80.3636 80.514 113.514 103.914C146.664 127.314 164.864 157.864 155.114 172.814Z" fill="url(#paint2_linear)"/>
<path d="M185.016 129.267L155.116 173.467C144.716 188.417 109.616 181.917 76.4656 159.167C69.9656 154.617 64.1156 150.067 58.2656 144.867C62.8156 144.217 68.6656 141.617 74.5156 135.117C84.9156 124.067 90.1156 121.467 94.6656 122.117C99.2156 122.117 104.416 126.667 112.866 137.717C121.316 148.767 133.016 152.017 140.166 146.167C140.816 145.517 141.466 145.517 142.116 144.867C147.966 140.317 149.916 138.367 160.966 117.567C163.566 112.367 172.666 103.917 185.016 107.817C188.266 116.267 188.266 123.417 185.016 129.267Z" fill="#0E0F23"/>
<path fill-rule="evenodd" clip-rule="evenodd" d="M180.462 126.665C171.362 139.665 139.512 133.165 108.962 111.715C77.7624 90.2653 59.5624 62.9653 68.6624 49.9653C77.7624 36.9653 109.612 43.4653 140.162 64.9153C170.712 86.3653 188.912 113.665 180.462 126.665ZM151.862 107.165C147.312 113.665 131.712 110.415 116.112 100.015C101.162 89.6153 92.0624 75.9653 96.6124 69.4653C101.162 62.9653 116.762 66.2153 132.362 76.6153C147.312 87.0153 156.412 100.665 151.862 107.165Z" fill="white"/>
<path d="M61.5141 61.6673C61.5141 61.0173 60.8641 60.3673 60.2141 61.0173C59.5641 61.6673 58.9141 61.6673 58.9141 62.3173C59.5641 64.2673 60.2141 65.5673 60.2141 66.8673C60.2141 67.5173 60.8641 68.1673 61.5141 67.5173C62.1641 67.5173 62.8141 66.8673 62.1641 66.2173C62.1641 64.9173 62.1641 63.6173 61.5141 61.6673Z" fill="white"/>
<path d="M64.7625 72.0657C64.7625 71.4157 64.1125 70.7657 63.4625 71.4157C62.8125 72.0657 62.8125 72.0657 62.8125 72.7157C69.9625 88.9657 84.9125 106.516 104.413 119.516C105.063 120.166 105.713 119.516 106.363 119.516C107.013 118.866 106.363 118.216 106.363 117.566C86.2125 104.566 71.9125 87.6657 64.7625 72.0657Z" fill="white"/>
<path d="M143.419 135.766C142.769 135.766 142.119 135.766 142.119 136.416C142.119 137.066 142.119 137.716 142.769 137.716C144.719 138.366 147.319 139.016 149.269 139.666C149.919 139.666 150.569 139.666 150.569 139.016C150.569 138.366 150.569 137.716 149.919 137.716C147.969 137.066 145.369 136.416 143.419 135.766Z" fill="white"/>
<path d="M155.113 138.367C154.463 138.367 153.812 139.017 153.812 139.667C153.812 140.317 154.463 140.967 155.113 140.967C160.313 141.617 166.163 142.267 170.713 141.617C171.363 141.617 172.013 140.967 172.013 140.317C172.013 139.667 171.363 139.017 170.713 139.017C165.513 139.667 160.313 139.017 155.113 138.367Z" fill="white"/>
<defs>
<linearGradient id="paint0_linear" x1="87.7963" y1="34.9768" x2="111.772" y2="117.307" gradientUnits="userSpaceOnUse">
<stop stop-color="#03B8FF"/>
<stop offset="1" stop-color="#FA52A0"/>
</linearGradient>
<linearGradient id="paint1_linear" x1="107.544" y1="29.229" x2="131.521" y2="111.56" gradientUnits="userSpaceOnUse">
<stop stop-color="#03B8FF"/>
<stop offset="1" stop-color="#FA52A0"/>
</linearGradient>
<linearGradient id="paint2_linear" x1="68.1176" y1="40.7087" x2="92.0942" y2="123.04" gradientUnits="userSpaceOnUse">
<stop stop-color="#03B8FF"/>
<stop offset="1" stop-color="#FA52A0"/>
</linearGradient>
</defs>
</svg>