<svg width="220" height="220" viewBox="0 0 220 220" fill="none" xmlns="http://www.w3.org/2000/svg">
  <g clip-path="url(#clip0_4149_40)">
    <path d="M110 220C170.751 220 220 170.751 220 110C220 49.2487 170.751 0 110 0C49.2487 0 0 49.2487 0 110C0 170.751 49.2487 220 110 220Z" fill="white"/>
    <path fill-rule="evenodd" clip-rule="evenodd" d="M176.969 58.8964C164.237 42.3698 145.716 31.9142 125.047 31.9142C85.1969 31.9142 56.0946 69.6894 56.0946 110.668C56.0946 139.168 74.6143 160.586 95.2836 160.586C97.2679 160.586 99.0867 160.417 101.071 160.08C87.1812 149.624 78.2521 130.737 78.2521 110.5C78.2521 78.1213 99.7482 52.994 125.047 52.994C152.662 52.994 171.843 80.9882 171.843 110.5C171.843 132.423 164.071 154.177 150.678 170.198C138.937 184.195 123.725 193.133 107.024 195.832C107.024 195.832 108.347 196 110.166 196C156.465 196 194 157.719 194 110.5C194 91.1065 187.717 73.2308 176.969 58.8964ZM164.237 110.5C164.237 82 145.716 60.5828 125.047 60.5828C123.063 60.5828 121.244 60.7515 119.26 61.0888C133.15 71.3757 141.914 90.0947 141.914 110.5C141.914 142.879 120.417 168.006 95.1182 168.006C67.504 168.006 48.3229 140.011 48.3229 110.5C48.3229 88.5769 56.0946 66.8225 69.4882 50.8018C81.2284 36.8047 96.4411 27.8669 113.142 25.1686C113.142 25.1686 111.819 25 109.835 25C63.5355 25 26 63.2811 26 110.5C26 129.894 32.2835 147.77 43.0315 162.103C55.7638 178.63 74.4489 189.086 94.9529 189.086C135.134 189.254 164.237 151.479 164.237 110.5Z" fill="#3333C9"/>
  </g>
  <defs>
    <clipPath id="clip0_4149_40">
      <rect width="220" height="220" rx="110" fill="white"/>
    </clipPath>
  </defs>
</svg>
