<svg width="220" height="220" viewBox="0 0 220 220" fill="none" xmlns="http://www.w3.org/2000/svg">
 <g clip-path="url(#clip0_3179_626)">
  <path d="M110 220C170.751 220 220 170.751 220 110C220 49.2487 170.751 0 110 0C49.2487 0 0 49.2487 0 110C0 170.751 49.2487 220 110 220Z" fill="#2E3148"/>
  <path d="M110 173.827C145.251 173.827 173.827 145.251 173.827 110C173.827 74.7493 145.251 46.1729 110 46.1729C74.7492 46.1729 46.1727 74.7493 46.1727 110C46.1727 145.251 74.7492 173.827 110 173.827Z" fill="#1B1E36"/>
  <path d="M110.226 14.0332C98.3523 14.0332 88.7242 57.1004 88.7242 110.227C88.7242 163.353 98.3523 206.421 110.226 206.421C122.1 206.421 131.728 163.353 131.728 110.227C131.728 57.1004 122.1 14.0332 110.226 14.0332ZM111.711 200.992C110.353 202.803 108.995 201.444 108.995 201.444C103.527 195.108 100.793 183.337 100.793 183.337C91.2278 152.556 93.5044 86.4651 93.5044 86.4651C97.9994 33.996 106.176 21.6012 108.959 18.8494C109.243 18.5686 109.617 18.397 110.015 18.3648C110.414 18.3326 110.811 18.4419 111.136 18.6734C115.174 21.5343 118.56 33.4988 118.56 33.4988C128.559 70.6181 127.654 105.474 127.654 105.474C128.559 135.803 122.643 169.754 122.643 169.754C118.089 195.555 111.711 200.992 111.711 200.992Z" fill="#6F7390"/>
  <path d="M193.663 62.3561C187.752 52.053 145.607 65.1351 99.5034 91.5721C53.3993 118.009 20.878 147.794 26.7855 158.093C32.6929 168.392 74.8414 155.314 120.945 128.877C167.05 102.44 199.571 72.6547 193.663 62.3561ZM32.2397 156.68C29.9763 156.395 30.4876 154.534 30.4876 154.534C33.264 146.64 42.0992 138.41 42.0992 138.41C64.0491 114.794 122.513 83.8809 122.513 83.8809C170.256 61.6679 185.086 62.6051 188.848 63.6409C189.234 63.7486 189.57 63.9896 189.795 64.3211C190.021 64.6526 190.122 65.0532 190.08 65.4519C189.628 70.3799 180.913 79.2679 180.913 79.2679C153.711 106.424 123.024 122.987 123.024 122.987C97.167 138.871 64.7742 150.627 64.7742 150.627C40.1263 159.509 32.2406 156.68 32.2406 156.68H32.2397Z" fill="#6F7390"/>
  <path d="M193.455 158.436C199.412 148.16 166.973 118.239 121.031 91.6028C75.0886 64.967 32.9498 51.723 26.9975 62.0164C21.0452 72.3097 53.4793 102.214 99.4479 128.85C145.416 155.486 187.502 168.73 193.455 158.436ZM30.9452 65.9869C30.0652 63.9004 31.9229 63.398 31.9229 63.398C40.1473 61.8448 51.7 65.3841 51.7 65.3841C83.1292 72.5412 139.172 107.646 139.172 107.646C182.321 137.84 188.939 151.139 189.93 154.914C190.031 155.302 189.992 155.712 189.82 156.073C189.647 156.434 189.353 156.723 188.989 156.888C184.489 158.948 172.439 155.879 172.439 155.879C135.296 145.92 105.592 127.673 105.592 127.673C78.9025 113.278 52.5113 91.1285 52.5113 91.1285C32.4579 74.244 30.9513 66.0098 30.9513 66.0098L30.9452 65.9869Z" fill="#6F7390"/>
  <path d="M110 121.317C116.25 121.317 121.317 116.25 121.317 110C121.317 103.75 116.25 98.6831 110 98.6831C103.75 98.6831 98.6832 103.75 98.6832 110C98.6832 116.25 103.75 121.317 110 121.317Z" fill="#B7B9C8"/>
  <path d="M156.399 73.3331C160.024 73.3331 162.963 70.2931 162.963 66.543C162.963 62.7929 160.024 59.7529 156.399 59.7529C152.774 59.7529 149.835 62.7929 149.835 66.543C149.835 70.2931 152.774 73.3331 156.399 73.3331Z" fill="#B7B9C8"/>
  <path d="M48.6622 96.42C52.2873 96.42 55.2261 93.38 55.2261 89.6299C55.2261 85.8799 52.2873 82.8398 48.6622 82.8398C45.037 82.8398 42.0983 85.8799 42.0983 89.6299C42.0983 93.38 45.037 96.42 48.6622 96.42Z" fill="#B7B9C8"/>
  <path d="M96.646 179.712C100.271 179.712 103.21 176.672 103.21 172.922C103.21 169.172 100.271 166.132 96.646 166.132C93.0208 166.132 90.082 169.172 90.082 172.922C90.082 176.672 93.0208 179.712 96.646 179.712Z" fill="#B7B9C8"/>
 </g>
  <defs>
   <clipPath id="clip0_3179_626">
    <rect width="220" height="220" fill="white"/>
   </clipPath>
  </defs>
</svg>
