<svg width="220" height="220" viewBox="0 0 220 220" fill="none" xmlns="http://www.w3.org/2000/svg">
<g clip-path="url(#clip0_3932_586)">
<mask id="mask0_3932_586" style="mask-type:alpha" maskUnits="userSpaceOnUse" x="0" y="0" width="220" height="220">
<circle cx="110" cy="110" r="110" fill="#D9D9D9"/>
</mask>
<g mask="url(#mask0_3932_586)">
<circle cx="110" cy="110" r="110" fill="#2B0E8E"/>
<path fill-rule="evenodd" clip-rule="evenodd" d="M-65.75 122.873L-20.6028 33.0788L13.0182 25.832L61.5639 86.56L86.7978 138.013L127.678 189.735L168.416 222.597L196.432 230.98L257.767 224.893L307.431 204.165L326.604 194.663L337.357 195.836L357.806 227.413C309.969 269.363 261.021 286.612 197.66 282.545C138.688 278.56 103.899 240.717 100.036 237.169C96.1732 233.62 72.9049 202.616 72.9049 202.616C72.9049 202.616 42.8163 152.637 21.1602 134.102C-0.495886 115.566 -28.8092 111.207 -65.9138 123.265L-65.75 122.873Z" fill="#811BC7"/>
<path fill-rule="evenodd" clip-rule="evenodd" d="M-69.3206 120.829L-24.3501 31.2377C-23.8586 30.0606 -22.7591 29.4139 -21.6338 29.1467L11.9871 21.8998C13.4918 21.6067 15.0612 22.262 16.0873 23.3356L64.633 84.0636C64.8486 84.4301 65.0641 84.7965 65.2797 85.163L90.2851 136.06L130.544 187.061L170.27 219.04L196.729 226.957L256.736 220.961L305.654 200.474L324.638 190.985C325.371 190.554 326.129 190.502 326.901 190.64L337.654 191.813C338.995 191.912 340.198 192.783 340.844 193.882L361.09 225.283C362.155 226.926 361.931 229.228 360.314 230.673C311.365 273.079 261.507 290.962 197.184 286.77C140.515 283.009 105.782 248.784 98.0434 241.497L97.0173 240.424C92.9517 236.699 69.4679 205.328 69.2652 205.151C69.2523 204.961 69.0626 204.974 69.0497 204.785C69.0367 204.595 39.3792 155.349 18.1285 137.167C7.807 128.341 -3.79933 123.033 -17.4623 121.106C-31.315 119.191 -46.9958 121.213 -64.8971 127.007C-67.1348 127.732 -69.3121 126.546 -70.0363 124.308C-70.3036 123.183 -70.1915 122.032 -69.687 121.044L-69.3206 120.829ZM-65.7636 122.683L-20.6164 32.889L13.0045 25.6422L61.5503 86.3702L86.7841 137.824L127.664 189.545L168.403 222.408L196.418 230.79L257.753 224.703L307.417 203.975L326.591 194.473L337.343 195.646L357.792 227.223C309.955 269.173 261.007 286.422 197.646 282.355C138.674 278.37 103.885 240.527 100.022 236.979C96.1595 233.431 72.8912 202.426 72.8912 202.426C72.8912 202.426 42.8026 152.447 21.1465 133.912C-0.509523 115.376 -28.8228 111.017 -65.9275 123.075L-65.7636 122.683Z" fill="#7319BC"/>
<path fill-rule="evenodd" clip-rule="evenodd" d="M-20.6941 31.7506L6.75818 -24.0564L38.4303 -31.9327L79.444 24.544L117.121 57.2343L197.825 189.908L306.288 167.84L317.339 164.991L336.304 194.382C295.176 239.686 236.057 255.913 177.849 237.963C128.004 222.493 103.736 174.023 72.2028 130.813C72.2028 130.813 49.1719 89.3101 37.2209 73.3531C25.2698 57.3961 8.0202 33.6051 -20.5044 31.7376L-20.6941 31.7506Z" fill="#5312B7"/>
<path fill-rule="evenodd" clip-rule="evenodd" d="M-24.4404 29.9095L3.0119 -25.8975C3.50343 -27.0745 4.60287 -27.7212 5.72817 -27.9885L37.4003 -35.8648C39.0818 -36.3606 40.8538 -35.5284 41.9058 -34.0755L82.4884 21.6683L119.95 53.9921C120.355 54.3457 120.558 54.5224 120.773 54.8889L199.981 185.187L305.435 163.706L316.486 160.856C318.167 160.36 319.939 161.192 320.991 162.645L339.957 192.037C341.021 193.68 340.784 195.792 339.357 197.224C318.256 220.389 292.642 236.047 264.764 243.665C236.885 251.283 206.744 250.86 176.956 241.645C135.097 228.68 110.975 193.541 86.2062 157.303C80.705 149.292 75.1908 141.091 69.3101 133.106C69.2972 132.917 69.0946 132.74 69.0946 132.74C69.0816 132.55 46.0895 91.6166 34.3282 75.6467L33.6944 74.737C22.1616 59.3233 5.80006 37.3776 -20.4222 35.7344C-22.7245 35.5101 -24.3715 33.7165 -24.1472 31.4142C-24.186 30.8451 -24.0351 30.263 -23.6816 29.8578L-24.4404 29.9095ZM-20.6938 31.7506L6.75852 -24.0564L38.4307 -31.9327L79.4444 24.544L117.122 57.2343L197.825 189.908L306.289 167.84L317.339 164.991L336.305 194.382C295.177 239.686 236.058 255.913 177.849 237.963C128.004 222.493 103.736 174.023 72.2032 130.813C72.2032 130.813 49.1722 89.3101 37.2212 73.3531C25.2702 57.3961 8.02054 33.6051 -20.504 31.7376L-20.6938 31.7506Z" fill="#A823D8"/>
<path fill-rule="evenodd" clip-rule="evenodd" d="M6.75819 -24.056L35.2194 -81.8375L90.3673 -80.8318L179.309 97.2119L219.189 148.239L274.022 150.219L301.508 142.437L316.58 165.043C316.58 165.043 294.082 192.877 265.536 201.874C236.989 210.872 214.557 214.497 178.72 194.832C142.897 175.356 120.56 140.096 120.56 140.096L86.8889 72.2552C65.3627 30.4594 38.2961 -3.14469 6.55555 -24.2327L6.75819 -24.056Z" fill="#791AC4"/>
<path fill-rule="evenodd" clip-rule="evenodd" d="M35.0303 -81.8255L66.6822 -145.923L130.986 -77.6931L159.794 -21.3374L178.699 9.96426L277.007 115.709L284.319 116.736L301.698 142.424C301.698 142.424 280.748 165.007 268.728 170.4C256.72 175.983 250.003 183.683 217.391 172.184C184.982 160.861 154.967 100.776 153.393 97.2621C151.82 93.7483 115.976 26.437 102.973 0.641241C89.9701 -25.1545 66.5594 -49.8597 63.0499 -53.8134C59.5405 -57.767 35.0045 -82.2049 35.0045 -82.2049L35.0303 -81.8255Z" fill="#A11FD0"/>
<path fill-rule="evenodd" clip-rule="evenodd" d="M31.4732 -83.6792L63.125 -147.777C64.134 -149.752 66.5484 -150.679 68.523 -149.67C69.118 -149.329 69.5233 -148.975 69.9285 -148.622L134.043 -80.3788C134.258 -80.0123 134.461 -79.8355 134.677 -79.469L163.472 -23.303L182.148 7.4424L279.214 111.747L285.186 112.674C286.337 112.787 287.337 113.481 287.971 114.39L305.35 140.079C306.415 141.721 306.177 143.834 304.927 145.063C304.75 145.265 283.257 168.266 270.693 174.078C269.215 174.751 267.736 175.423 266.46 176.272C255.97 181.752 246.389 186.598 216.511 176.056C204.603 171.912 193.04 161.646 183.107 150.126C164.671 128.512 151.009 101.427 150.082 99.0128C149.612 97.7108 142.179 83.7328 133.009 66.6334C121.619 44.9206 107.185 17.6978 99.6873 2.77132C87.357 -21.5456 65.7571 -44.8495 61.006 -50.2432L60.3981 -50.7736L60.1955 -50.9503C56.0911 -55.2446 32.5682 -78.7986 32.5553 -78.9883C31.3266 -80.2387 31.0076 -82.1228 31.8526 -83.7051L31.4732 -83.6792ZM35.2198 -81.8382L66.8717 -145.936L131.176 -77.7057L159.984 -21.35L178.889 9.9516L277.196 115.697L284.509 116.723L301.888 142.411C301.888 142.411 280.938 164.994 268.917 170.387C256.91 175.97 250.192 183.671 217.581 172.171C185.172 160.849 155.156 100.763 153.583 97.2495C152.009 93.7356 116.165 26.4244 103.162 0.628605C90.1596 -25.1671 66.7489 -49.8723 63.2394 -53.826C59.73 -57.7797 35.194 -82.2176 35.194 -82.2176L35.2198 -81.8382Z" fill="#901FCE"/>
<path fill-rule="evenodd" clip-rule="evenodd" d="M66.6818 -145.923L74.3738 -161.694C74.3738 -161.694 75.7967 -165.984 82.7382 -167.601C89.6797 -169.217 93.9479 -165.315 95.3535 -164.268C96.759 -163.22 96.759 -163.22 96.759 -163.22L109.525 -143.697L284.129 116.749C272.272 138.521 248.874 147.549 225.463 139.615C196.585 129.767 185.708 87.627 178.017 61.4692C172.08 41.4811 144.769 -29.2706 137.258 -44.3867C114.283 -90.6578 103.225 -110.297 66.6818 -145.923Z" fill="#D100D2"/>
<path fill-rule="evenodd" clip-rule="evenodd" d="M63.1245 -147.777L70.8165 -163.548C71.4719 -165.118 74.1968 -169.877 81.8842 -171.736C90.1407 -173.632 95.3704 -169.605 97.5864 -167.851L99.9922 -166.109L112.986 -146.03L288.871 116.425L287.686 118.603C281.24 130.287 271.715 138.75 260.579 143.13C249.442 147.51 236.693 147.807 224.013 143.526C194.553 133.527 182.87 93.538 175.114 66.4316C174.097 62.6893 174.873 65.6858 173.894 62.5125C171.135 52.7901 162.983 31.0472 154.64 9.31728C146.057 -13.1586 137.133 -35.0394 133.175 -42.7743C121.694 -65.815 113.334 -82.2073 103.168 -97.1424C93.1919 -112.09 81.396 -125.771 63.2322 -143.401L61.18 -145.548L62.5295 -148.118L63.1245 -147.777ZM66.8711 -145.936L74.5631 -161.707C74.5631 -161.707 75.986 -165.997 82.9275 -167.614C89.8689 -169.23 94.1372 -165.328 95.5427 -164.281L96.9482 -163.233L109.714 -143.71L284.318 116.736C272.461 138.508 249.063 147.536 225.652 139.603C196.774 129.755 185.897 87.6141 178.206 61.4563C172.269 41.4682 144.958 -29.2835 137.448 -44.3996C114.473 -90.6707 103.414 -110.31 66.8711 -145.936Z" fill="#C02BDC"/>
<path fill-rule="evenodd" clip-rule="evenodd" d="M81.0929 -144.376C96.446 -153.122 143.191 -69.7786 152.717 -45.679C160.692 -25.5069 173.834 0.546088 187.079 30.8085C193.573 45.3985 202.302 82.0184 212.347 94.8998C228.217 115.267 246.776 118.585 261.262 115.948C270.859 114.194 289.269 99.1897 286.54 104.875C281.92 115.09 261.755 136.63 229.743 126.896C201.675 118.543 191.503 76.8881 184.105 51.7269C178.395 32.5003 152.124 -35.5557 144.9 -50.096C122.8 -94.6042 116.426 -110.119 81.0805 -144.558L81.0929 -144.376Z" fill="url(#paint0_linear_3932_586)"/>
<g filter="url(#filter0_d_3932_586)">
<path d="M144.445 99.7323L128.689 72.4702L110.964 41.7697C110.373 40.7382 109.24 40.0996 108.059 40.0996C106.877 40.0996 105.744 40.7382 105.154 41.7697L71.4261 99.7323L57.7874 123.458C57.4919 123.998 57.295 124.587 57.295 125.177C57.295 126.994 58.7721 128.468 60.5939 128.468H86.5911H86.6403C87.8713 128.468 88.9545 127.829 89.5453 126.749L103.086 103.564L105.203 100.027C105.35 99.8797 105.449 99.7814 105.449 99.6832C106.089 98.8481 107.074 98.406 108.108 98.406C109.289 98.406 110.422 99.0446 111.013 100.076L125.045 124.293L127.655 128.714C127.803 128.959 127.901 129.205 128 129.45C128.098 129.745 128.147 130.04 128.147 130.384C128.147 132.25 126.67 133.724 124.799 133.773H94.0259H93.9767C92.7457 133.773 91.6625 134.412 91.0717 135.492L78.1223 157.99C77.8269 158.481 77.6792 159.07 77.6792 159.66C77.6792 161.526 79.2055 163 81.0273 163H81.0765H175.021C176.892 163 178.418 161.477 178.418 159.611C178.418 159.021 178.271 158.481 178.025 157.99L144.543 99.8305L144.445 99.7323Z" fill="white"/>
</g>
</g>
</g>
<defs>
<filter id="filter0_d_3932_586" x="36.5648" y="20.554" width="162.584" height="164.361" filterUnits="userSpaceOnUse" color-interpolation-filters="sRGB">
<feFlood flood-opacity="0" result="BackgroundImageFix"/>
<feColorMatrix in="SourceAlpha" type="matrix" values="0 0 0 0 0 0 0 0 0 0 0 0 0 0 0 0 0 0 127 0" result="hardAlpha"/>
<feOffset dy="1.18458"/>
<feGaussianBlur stdDeviation="10.3651"/>
<feComposite in2="hardAlpha" operator="out"/>
<feColorMatrix type="matrix" values="0 0 0 0 0 0 0 0 0 0 0 0 0 0 0 0 0 0 0.33 0"/>
<feBlend mode="normal" in2="BackgroundImageFix" result="effect1_dropShadow_3932_586"/>
<feBlend mode="normal" in="SourceGraphic" in2="effect1_dropShadow_3932_586" result="shape"/>
</filter>
<linearGradient id="paint0_linear_3932_586" x1="90.9058" y1="5.32102" x2="277.696" y2="-27.2097" gradientUnits="userSpaceOnUse">
<stop stop-color="#E200DB"/>
<stop offset="1" stop-color="#D100D2"/>
</linearGradient>
<clipPath id="clip0_3932_586">
<rect width="220" height="220" rx="110" fill="white"/>
</clipPath>
</defs>
</svg>
