<svg width="220" height="220" viewBox="0 0 220 220" fill="none" xmlns="http://www.w3.org/2000/svg">
  <path d="M0 110C0 49.2487 49.2487 0 110 0C170.751 0 220 49.2487 220 110C220 170.751 170.751 220 110 220C49.2487 220 0 170.751 0 110Z" fill="#FF4D15"/>
  <path fill-rule="evenodd" clip-rule="evenodd" d="M152.598 172.501C162.18 172.501 167.613 161.418 161.785 153.799L159.118 150.435C155.463 145.685 149.733 142.815 143.707 142.815H119.9C110.021 142.815 100.735 138.363 94.5117 130.348C91.0542 125.796 88.7821 120.354 88.0906 114.714C86.9052 104.621 90.2639 94.9234 97.2777 87.8979C103.304 81.8619 111.404 78.4976 119.998 78.4976H139.756C142.818 78.4976 145.683 77.1123 147.56 74.6386L148.548 73.3522C150.029 71.4721 148.646 68.6026 146.177 68.6026H119.998C108.243 68.6026 97.1789 73.4511 89.0785 82.2577C82.3611 89.4811 78.4096 99.0793 78.0145 108.974C77.5206 120.848 81.9659 132.129 90.2639 140.441C98.2656 148.456 108.737 152.809 119.998 152.809H143.707C146.769 152.809 149.634 154.195 151.511 156.668L152.499 157.955C153.981 159.934 152.598 162.704 150.128 162.704H119.998C106.168 162.704 93.1287 157.262 83.3489 147.466C63.0978 127.181 63.0978 94.2307 83.3489 73.9459C93.1287 64.1498 106.168 58.7075 119.998 58.7075H154.87C157.932 58.7075 160.797 57.3222 162.674 54.8485L163.662 53.5621C165.144 51.6821 163.76 48.8125 161.291 48.8125H119.9C103.402 48.8125 87.8931 55.2443 76.2364 66.9204C52.1326 91.0643 52.1326 130.249 76.2364 154.393C87.8931 166.069 103.402 172.501 119.9 172.501H152.598ZM67.3454 61.874C68.5309 60.6866 67.543 58.6086 65.8636 58.6086L60.9244 58.5097C58.4547 58.5097 56.0838 59.6971 54.6021 61.6761C44.2296 75.6281 38.5 92.5486 38.5 110.459C38.5 128.468 44.2296 145.487 54.7008 159.439C56.1826 161.418 58.5535 162.507 61.0231 162.507H65.9624C67.7405 162.507 68.6296 160.528 67.4442 159.241C55.1948 146.18 48.3786 128.962 48.3786 110.558C48.3786 92.2518 55.096 75.1333 67.3454 61.874Z" fill="white"/>
</svg>
