<svg width="220" height="220" viewBox="0 0 220 220" fill="none" xmlns="http://www.w3.org/2000/svg">
  <path d="M110 220C170.751 220 220 170.751 220 110C220 49.2487 170.751 0 110 0C49.2487 0 0 49.2487 0 110C0 170.751 49.2487 220 110 220Z" fill="#74C048"/>
  <path d="M78.7855 176.687C78.4873 176.688 78.1898 176.659 77.8975 176.6C76.687 176.367 75.6185 175.663 74.9272 174.642C74.2359 173.622 73.9782 172.368 74.2109 171.158C76.8072 157.268 81.6228 143.887 88.4727 131.527C94.7425 120.36 101.039 113.189 107.127 106.253C113.357 99.1557 119.237 92.4553 124.887 81.7119C130.462 71.0244 134.24 59.4922 136.068 47.5777C136.163 46.9743 136.375 46.3954 136.693 45.8741C137.011 45.3528 137.429 44.8993 137.923 44.5396C138.417 44.1797 138.976 43.9207 139.57 43.777C140.163 43.6335 140.779 43.6083 141.383 43.7028C141.986 43.7973 142.565 44.0097 143.086 44.328C143.607 44.6462 144.061 45.064 144.421 45.5575C144.781 46.0511 145.04 46.6106 145.184 47.2042C145.327 47.7979 145.352 48.4139 145.258 49.0173C143.274 61.9305 139.184 74.4303 133.149 86.0173C126.993 97.7362 120.461 105.177 114.144 112.375C108.089 119.25 102.398 125.749 96.6127 136.055C90.2454 147.554 85.7748 160.004 83.3735 172.927C83.1654 173.989 82.5934 174.946 81.756 175.633C80.9186 176.319 79.8682 176.692 78.7855 176.687Z" fill="white"/>
  <path d="M97.7025 99.9496C96.957 99.9505 96.2222 99.7725 95.5597 99.4307C94.8972 99.089 94.3263 98.5932 93.8949 97.9852C91.1965 94.1553 88.7515 90.1531 86.5756 86.0039C80.5403 74.417 76.4495 61.9171 74.4665 49.0039C74.3267 48.3841 74.3154 47.7421 74.4334 47.1177C74.5514 46.4933 74.7962 45.8996 75.1526 45.3736C75.509 44.8475 75.9695 44.4001 76.5056 44.0589C77.0417 43.7178 77.6421 43.4902 78.2697 43.3902C78.8973 43.2902 79.5386 43.3199 80.1542 43.4776C80.7699 43.6352 81.3466 43.9174 81.8488 44.3067C82.3511 44.696 82.7682 45.1841 83.0744 45.7409C83.3806 46.2978 83.5694 46.9115 83.6291 47.5441C85.4576 59.4587 89.235 70.9909 94.8098 81.6783C96.7933 85.469 99.0272 89.1232 101.497 92.6169C101.989 93.3126 102.28 94.1302 102.339 94.9803C102.398 95.8305 102.222 96.6805 101.83 97.4373C101.438 98.1942 100.846 98.8288 100.118 99.2719C99.3904 99.7149 98.5547 99.9494 97.7025 99.9496Z" fill="white"/>
  <path d="M140.945 176.687C139.865 176.686 138.819 176.309 137.987 175.621C137.154 174.932 136.588 173.974 136.384 172.913C133.98 159.992 129.51 147.542 123.145 136.041C121.389 132.913 119.566 129.987 117.568 127.141C117.218 126.641 116.971 126.076 116.839 125.48C116.707 124.883 116.694 124.267 116.801 123.666C116.907 123.065 117.131 122.491 117.46 121.976C117.788 121.461 118.215 121.016 118.715 120.666C119.216 120.316 119.78 120.069 120.376 119.937C120.973 119.805 121.589 119.792 122.19 119.899C122.791 120.005 123.366 120.229 123.88 120.558C124.395 120.886 124.84 121.313 125.19 121.813C127.37 124.936 129.391 128.166 131.245 131.494C138.106 143.87 142.924 157.273 145.513 171.185C145.628 171.785 145.624 172.401 145.501 173C145.377 173.598 145.137 174.165 144.795 174.671C144.452 175.177 144.012 175.61 143.502 175.945C142.991 176.28 142.42 176.513 141.82 176.627C141.531 176.676 141.238 176.696 140.945 176.687Z" fill="white"/>
  <path d="M128.769 163.374H91.2309C90.6361 163.342 90.0762 163.084 89.6665 162.651C89.2567 162.218 89.0283 161.645 89.0283 161.05C89.0283 160.454 89.2567 159.881 89.6665 159.449C90.0762 159.016 90.6361 158.758 91.2309 158.726H128.769C129.364 158.758 129.923 159.016 130.334 159.449C130.744 159.881 130.972 160.454 130.972 161.05C130.972 161.645 130.744 162.218 130.334 162.651C129.923 163.084 129.364 163.342 128.769 163.374Z" fill="white"/>
  <path d="M125.473 153.472H94.2178C93.623 153.439 93.0631 153.181 92.6534 152.749C92.2437 152.316 92.0153 151.743 92.0153 151.147C92.0153 150.552 92.2437 149.979 92.6534 149.546C93.0631 149.114 93.623 148.855 94.2178 148.823H125.473C125.788 148.806 126.104 148.853 126.401 148.963C126.698 149.072 126.97 149.24 127.199 149.458C127.428 149.675 127.611 149.937 127.736 150.228C127.861 150.518 127.926 150.831 127.926 151.147C127.926 151.464 127.861 151.776 127.736 152.067C127.611 152.358 127.428 152.619 127.199 152.837C126.97 153.055 126.698 153.223 126.401 153.332C126.104 153.441 125.788 153.489 125.473 153.472Z" fill="white"/>
  <path d="M120.764 143.569H98.5636C98.244 143.593 97.9227 143.552 97.6201 143.446C97.3174 143.34 97.0398 143.174 96.8047 142.956C96.5695 142.738 96.3819 142.473 96.2537 142.18C96.1254 141.886 96.0591 141.569 96.0591 141.248C96.0591 140.927 96.1254 140.611 96.2537 140.317C96.3819 140.023 96.5695 139.759 96.8047 139.541C97.0398 139.323 97.3174 139.156 97.6201 139.05C97.9227 138.945 98.244 138.903 98.5636 138.927H120.764C121.079 138.911 121.395 138.958 121.692 139.067C121.989 139.176 122.26 139.344 122.49 139.562C122.719 139.78 122.902 140.041 123.027 140.332C123.152 140.623 123.216 140.935 123.216 141.252C123.216 141.568 123.152 141.881 123.027 142.171C122.902 142.462 122.719 142.724 122.49 142.941C122.26 143.159 121.989 143.327 121.692 143.436C121.395 143.546 121.079 143.593 120.764 143.576V143.569Z" fill="white"/>
  <path d="M114.595 133.667H104.874C104.256 133.667 103.664 133.421 103.228 132.985C102.791 132.548 102.546 131.956 102.546 131.339C102.546 130.721 102.791 130.129 103.228 129.693C103.664 129.257 104.256 129.011 104.874 129.011H114.595C115.212 129.011 115.804 129.257 116.241 129.693C116.677 130.129 116.922 130.721 116.922 131.339C116.922 131.956 116.677 132.548 116.241 132.985C115.804 133.421 115.212 133.667 114.595 133.667Z" fill="white"/>
  <path d="M128.769 57.9173H91.2309C90.6361 57.8853 90.0762 57.6265 89.6665 57.1941C89.2567 56.7617 89.0283 56.1888 89.0283 55.5931C89.0283 54.9974 89.2567 54.4244 89.6665 53.992C90.0762 53.5596 90.6361 53.3008 91.2309 53.2688H128.769C129.364 53.3008 129.923 53.5596 130.334 53.992C130.744 54.4244 130.972 54.9974 130.972 55.5931C130.972 56.1888 130.744 56.7617 130.334 57.1941C129.923 57.6265 129.364 57.8853 128.769 57.9173Z" fill="white"/>
  <path d="M125.473 67.8199H94.2178C93.623 67.7879 93.0631 67.5291 92.6534 67.0966C92.2437 66.6643 92.0153 66.0913 92.0153 65.4956C92.0153 64.8999 92.2437 64.327 92.6534 63.8946C93.0631 63.4622 93.623 63.2034 94.2178 63.1713H125.473C125.788 63.1543 126.104 63.2019 126.401 63.311C126.698 63.4201 126.97 63.5886 127.199 63.8061C127.428 64.0236 127.611 64.2856 127.736 64.5761C127.861 64.8665 127.926 65.1794 127.926 65.4956C127.926 65.8118 127.861 66.1247 127.736 66.4152C127.611 66.7056 127.428 66.9677 127.199 67.1852C126.97 67.4027 126.698 67.5711 126.401 67.6802C126.104 67.7893 125.788 67.8369 125.473 67.8199Z" fill="white"/>
  <path d="M120.764 77.709H98.5637C98.2479 77.7261 97.932 77.6785 97.6352 77.5694C97.3385 77.4603 97.067 77.2918 96.8375 77.0743C96.608 76.8568 96.4252 76.5948 96.3003 76.3043C96.1753 76.0138 96.111 75.701 96.111 75.3848C96.111 75.0686 96.1753 74.7557 96.3003 74.4652C96.4252 74.1747 96.608 73.9127 96.8375 73.6952C97.067 73.4777 97.3385 73.3093 97.6352 73.2002C97.932 73.091 98.2479 73.0435 98.5637 73.0605H120.764C121.079 73.0435 121.395 73.091 121.692 73.2002C121.989 73.3093 122.26 73.4777 122.49 73.6952C122.719 73.9127 122.902 74.1747 123.027 74.4652C123.152 74.7557 123.216 75.0686 123.216 75.3848C123.216 75.701 123.152 76.0138 123.027 76.3043C122.902 76.5948 122.719 76.8568 122.49 77.0743C122.26 77.2918 121.989 77.4603 121.692 77.5694C121.395 77.6785 121.079 77.7261 120.764 77.709Z" fill="white"/>
  <path d="M114.595 87.625H104.874C104.558 87.6421 104.242 87.5945 103.945 87.4854C103.649 87.3763 103.377 87.2078 103.148 86.9903C102.918 86.7728 102.735 86.5108 102.61 86.2203C102.486 85.9298 102.421 85.617 102.421 85.3008C102.421 84.9846 102.486 84.6717 102.61 84.3812C102.735 84.0907 102.918 83.8287 103.148 83.6112C103.377 83.3937 103.649 83.2253 103.945 83.1162C104.242 83.007 104.558 82.9595 104.874 82.9765H114.595C115.189 83.0085 115.749 83.2674 116.16 83.6997C116.569 84.1321 116.797 84.7051 116.797 85.3008C116.797 85.8965 116.569 86.4694 116.16 86.9019C115.749 87.3342 115.189 87.593 114.595 87.625Z" fill="white"/>
  <path d="M110 184C95.3642 184 81.057 179.66 68.8878 171.529C56.7186 163.398 47.2338 151.84 41.6329 138.318C36.032 124.797 34.5666 109.918 37.4219 95.5634C40.2772 81.2088 47.325 68.0232 57.6741 57.6742C68.0231 47.3251 81.2087 40.2772 95.5633 37.4219C109.918 34.5666 124.797 36.0321 138.318 41.6329C151.84 47.2338 163.398 56.7186 171.529 68.8879C179.66 81.0571 184 95.3642 184 110C183.978 129.619 176.175 148.43 162.302 162.303C148.43 176.176 129.619 183.979 110 184ZM110 45.3038C97.2043 45.3038 84.6959 49.0982 74.0567 56.2071C63.4174 63.3161 55.1252 73.4202 50.2285 85.2419C45.3318 97.0636 44.0506 110.072 46.5469 122.622C49.0432 135.171 55.2049 146.699 64.2528 155.747C73.3008 164.795 84.8285 170.957 97.3784 173.453C109.928 175.95 122.937 174.668 134.758 169.771C146.58 164.875 156.684 156.582 163.793 145.943C170.902 135.304 174.696 122.796 174.696 110C174.677 92.8476 167.854 76.4032 155.725 64.2746C143.597 52.1459 127.153 45.3234 110 45.3038Z" fill="white"/>
  <path d="M101.961 105.594C101.265 105.594 100.577 105.437 99.9497 105.135C99.3221 104.834 98.7702 104.395 98.3349 103.851C96.7271 101.833 95.274 99.9294 93.8949 97.9852C93.1812 96.9771 92.8972 95.7268 93.1054 94.5094C93.3136 93.2919 93.9968 92.207 95.0049 91.4933C96.013 90.7797 97.2632 90.4957 98.4807 90.7038C99.6981 90.912 100.783 91.5953 101.497 92.6034C102.761 94.3928 104.093 96.1621 105.587 97.9852C105.97 98.4612 106.255 99.008 106.426 99.5944C106.598 100.181 106.652 100.795 106.586 101.402C106.519 102.01 106.334 102.598 106.04 103.134C105.747 103.669 105.35 104.142 104.874 104.524C104.056 105.207 103.026 105.585 101.961 105.594Z" fill="white"/>
  <path d="M121.349 129.132C120.596 129.131 119.855 128.947 119.189 128.595C118.523 128.244 117.954 127.735 117.528 127.114C116.472 125.6 115.415 124.174 114.359 122.802C113.605 121.82 113.272 120.58 113.433 119.353C113.594 118.126 114.235 117.014 115.217 116.26C116.198 115.506 117.439 115.173 118.666 115.333C119.892 115.494 121.005 116.136 121.759 117.117C122.903 118.604 124.053 120.158 125.197 121.826C125.679 122.525 125.962 123.341 126.015 124.188C126.067 125.035 125.888 125.881 125.495 126.633C125.103 127.386 124.512 128.017 123.788 128.458C123.063 128.9 122.231 129.135 121.383 129.139L121.349 129.132Z" fill="white"/>
</svg>
