<svg width="220" height="220" viewBox="0 0 220 220" fill="none" xmlns="http://www.w3.org/2000/svg">
  <path d="M110.052 1.97656H110.056C169.433 1.97656 217.567 50.0148 217.567 109.273V109.277C217.567 168.536 169.433 216.574 110.056 216.574H110.052C50.6745 216.574 2.53992 168.536 2.53992 109.277V109.273C2.53992 50.0148 50.6745 1.97656 110.052 1.97656Z" fill="#111111"/>
  <path fill-rule="evenodd" clip-rule="evenodd" d="M86.0947 58.4531H83.7617L82.2486 60.2258L43.1963 106.004L40.4086 109.272L43.1963 112.54L82.2486 158.318L83.7617 160.092H86.0947H156.403H161.454V155.051V125.948H151.352V150.01H97.1407L129.587 112.57L132.445 109.272L129.587 105.974L97.1407 68.535H151.352V92.5964H161.454V63.494V58.4531H156.403H86.0947ZM86.1244 71.2352L53.6759 109.272L86.1244 147.309L119.088 109.272L86.1244 71.2352Z" fill="white"/>
</svg>
