<svg width="220" height="220" viewBox="0 0 220 220" fill="none" xmlns="http://www.w3.org/2000/svg">
  <path d="M0 110C0 49.2487 49.2487 0 110 0C170.751 0 220 49.2487 220 110C220 170.751 170.751 220 110 220C49.2487 220 0 170.751 0 110Z" fill="#7567CE"/>
  <path d="M97.85 55C61.25 55 46 70.9674 46 92.3719V126.628C46 148.033 61.25 164 97.85 164H133.306C166.475 164 168 159.913 168 153.1C168 145.315 164.95 142.201 157.325 142.201H97.85C79.55 142.201 70.4 132.879 70.4 123.515V120.4H157.325C163.425 120.4 168 116.312 168 109.5C168 102.688 163.425 98.6005 157.325 98.6005H70.4V95.4855C70.4 86.1213 79.55 76.8001 97.85 76.8001H157.325C164.95 76.8001 168 73.6854 168 65.9C168 59.0871 166.475 55 133.306 55H97.85Z" fill="white"/>
</svg>
