<svg width="220" height="220" viewBox="0 0 220 220" fill="none" xmlns="http://www.w3.org/2000/svg">
  <path d="M110 220C170.751 220 220 170.751 220 110C220 49.2487 170.751 0 110 0C49.2487 0 0 49.2487 0 110C0 170.751 49.2487 220 110 220Z" fill="#5012FF"/>
  <path d="M152.303 171H65.6428V152.336H152.303V171ZM127.817 122.449H65.2227V104.264H127.817V122.449ZM99.3707 83.6793L101.291 135.112C101.531 140.433 100.651 145.034 98.6506 148.915C96.6901 152.756 93.2293 155.916 88.2681 158.397L72.4244 152.336C74.3848 152.056 75.8852 151.035 76.9254 149.275C77.9657 147.514 78.6658 145.434 79.0259 143.033C79.386 140.593 79.526 138.272 79.446 136.072L77.6456 83.6793C77.3655 75.5574 78.9059 68.7358 82.2667 63.2145C85.6675 57.6532 90.2886 53.4722 96.13 50.6715C101.971 47.8308 108.433 46.4105 115.515 46.4105C121.596 46.4105 127.037 47.3307 131.838 49.1712C136.68 51.0116 140.741 53.5722 144.021 56.853C147.342 60.1338 149.763 63.9347 151.283 68.2557C152.843 72.5767 153.344 77.2378 152.783 82.239L131.958 80.4986C132.239 76.8577 131.638 73.877 130.158 71.5565C128.718 69.1959 126.717 67.4755 124.157 66.3952C121.636 65.275 118.935 64.7148 116.055 64.7148C113.094 64.7148 110.333 65.395 107.773 66.7553C105.252 68.1156 103.212 70.1961 101.651 72.9968C100.131 75.7975 99.3707 79.3583 99.3707 83.6793Z" fill="white"/>
</svg>
