<svg width="220" height="220" viewBox="0 0 220 220" fill="none" xmlns="http://www.w3.org/2000/svg">
<path d="M220 110C220 170.751 170.751 220 110 220C49.2489 220 0 170.751 0 110C0 49.2489 49.2489 0 110 0C170.751 0 220 49.2489 220 110Z" fill="#ECECEC"/>
<path d="M205 110C205 162.467 162.467 205 110 205C57.5331 205 15 162.467 15 110C15 57.5331 57.5331 15 110 15C162.467 15 205 57.5331 205 110Z" fill="#ECECEC"/>
<path fill-rule="evenodd" clip-rule="evenodd" d="M213 110C213 166.885 166.885 213 110 213C53.1148 213 7 166.885 7 110C7 53.1148 53.1148 7 110 7C166.885 7 213 53.1148 213 110ZM110 205C162.467 205 205 162.467 205 110C205 57.5331 162.467 15 110 15C57.5331 15 15 57.5331 15 110C15 162.467 57.5331 205 110 205Z" fill="#171EA8"/>
<path fill-rule="evenodd" clip-rule="evenodd" d="M137.988 40L145 47.0038L130.74 61.2472C134.357 66.2255 136.489 72.3491 136.489 78.9702C136.489 93.968 125.548 106.413 111.203 108.776V119.984C125.548 122.347 136.489 134.792 136.489 149.79C136.489 166.475 122.948 180 106.245 180C89.5409 180 76 166.475 76 149.79C76 134.792 86.9416 122.347 101.286 119.984V108.776C86.9416 106.413 76 93.968 76 78.9702C76 62.2857 89.5409 48.7603 106.245 48.7603C112.74 48.7603 118.757 50.8055 123.686 54.2863L137.988 40ZM106.245 98.78C117.198 98.78 126.077 89.9108 126.077 78.9702C126.077 68.0296 117.198 59.1604 106.245 59.1604C95.2914 59.1604 86.4121 68.0296 86.4121 78.9702C86.4121 89.9108 95.2914 98.78 106.245 98.78ZM106.245 169.6C117.198 169.6 126.077 160.731 126.077 149.79C126.077 138.849 117.198 129.98 106.245 129.98C95.2914 129.98 86.4121 138.849 86.4121 149.79C86.4121 160.731 95.2914 169.6 106.245 169.6Z" fill="#171EA8"/>
</svg>
