<svg width="220" height="220" viewBox="0 0 220 220" fill="none" xmlns="http://www.w3.org/2000/svg">
<path d="M110 0C49.2483 0 0 49.2483 0 110C0 170.752 49.2483 220 110 220C170.752 220 220 170.752 220 110C220 49.2483 170.752 0 110 0Z" fill="#050505"/>
<path d="M171.817 71.5956C169.711 69.9252 167.199 67.6436 162.622 67.0732C158.328 66.5028 153.953 69.3955 150.995 71.3104C148.038 73.2253 142.448 78.8479 140.139 80.5591C137.83 82.2703 131.916 83.8592 122.396 89.604C112.876 95.3488 75.5266 119.469 75.5266 119.469L85.2488 119.591L41.9039 142.04H46.2384L40 146.807C40 146.807 45.5093 148.274 50.1273 145.34V146.685C50.1273 146.685 101.736 126.232 111.701 131.528L105.625 133.321C106.152 133.321 115.955 133.973 115.955 133.973C116.193 136.015 116.875 137.979 117.953 139.725C119.032 141.471 120.479 142.957 122.193 144.077C128.108 147.989 128.229 150.148 128.229 150.148C128.229 150.148 125.15 151.411 125.15 153C125.15 153 129.688 151.615 133.9 151.737C136.574 151.839 139.226 152.263 141.8 153C141.8 153 141.476 151.289 137.384 150.148C133.293 149.007 129.242 144.525 127.257 142.081C126.041 140.525 125.249 138.677 124.958 136.72C124.666 134.763 124.886 132.763 125.596 130.917C127.014 127.21 131.956 125.173 142.164 119.876C154.196 113.602 156.95 108.957 158.652 105.331C160.353 101.705 162.865 94.4932 164.282 91.1115C166.065 86.752 168.252 84.4296 170.075 83.0444C171.898 81.6591 180 78.6034 180 78.6034C180 78.6034 173.802 73.1846 171.817 71.5956Z" fill="white"/>
</svg>
