<svg width="220" height="220" viewBox="0 0 220 220" fill="none" xmlns="http://www.w3.org/2000/svg">
<path d="M110 0C49.2483 0 0 49.2483 0 110C0 170.752 49.2483 220 110 220C170.752 220 220 170.752 220 110C220 49.2483 170.752 0 110 0Z" fill="#050505"/>
<path fill-rule="evenodd" clip-rule="evenodd" d="M169 86.8218C161.5 82.8361 152.5 82.8361 145.5 86.8218L110 107.249L145.5 127.676C153 131.662 162 131.662 169 127.676C176.5 123.69 181 115.719 181 107.249C181 98.7791 176.5 90.8076 169 86.8218Z" fill="#FAFAFA"/>
<path fill-rule="evenodd" clip-rule="evenodd" d="M51 86.8218C43.5 90.8076 39 98.7791 39 107.249C39 115.719 43.5 123.192 51 127.676C58.5 131.662 67.5 131.662 74.5 127.676L110 107.249L74.5 86.8218C67 82.8361 58 82.8361 51 86.8218Z" fill="#FAFAFA"/>
<path fill-rule="evenodd" clip-rule="evenodd" d="M89.5 165.541C93.5 173.014 101.5 177 110 177C118.5 177 126.5 172.516 130.5 165.541C134.5 158.068 134.5 149.598 130.5 142.124L110 107.249L89.5 142.124C85.5 149.598 85.5 158.068 89.5 165.541Z" fill="#FAFAFA"/>
<path fill-rule="evenodd" clip-rule="evenodd" d="M130.5 48.4591C126.5 41.484 118.5 37 110 37C101.5 37 93.5 41.484 89.5 48.4591C85.5 55.9324 85.5 64.4021 89.5 71.8754L110 106.751L130.5 71.8754C134.5 64.9004 134.5 55.9324 130.5 48.4591Z" fill="#FAFAFA"/>
</svg>
