<svg width="220" height="220" viewBox="0 0 220 220" fill="none" xmlns="http://www.w3.org/2000/svg">
  <path d="M110 220C170.751 220 220 170.751 220 110C220 49.2487 170.751 0 110 0C49.2487 0 0 49.2487 0 110C0 170.751 49.2487 220 110 220Z" fill="#1A53F0"/>
  <path d="M65.7014 137.347V154.117H82.5475V149.842H106V187C67.0226 184.698 34.9819 152.802 33 114H70.3258V137.018L65.7014 137.347Z" fill="white"/>
  <path d="M137.667 149.674V153.968H154.667V137.122H150.333V114H188C186 152.977 153.333 184.688 114 187V149.674H137.667Z" fill="white"/>
  <path d="M105.87 113.915V78.9025V69.9848V32C67.2919 33.9818 34.9784 65.6909 33 104.997H70.2595V81.8758H65.973V65.0303H82.7892V81.8758H78.5027V136.706H82.4595V141H138.184V137.036H142.47V113.915L105.87 113.915Z" fill="white"/>
  <path d="M149.545 55.2197C149.545 58.7742 149.545 62.3288 149.545 65.8833C149.545 66.3069 149.645 66.4393 150.09 66.4393C153.945 66.4393 157.8 66.4393 161.648 66.4393H162.652C162.998 66.4393 163.071 66.6776 162.938 66.8894C162.532 67.5514 162.094 68.167 161.608 68.7693C160.279 70.5234 159.036 72.3702 157.694 74.1309C156.351 75.8916 155.314 77.606 154.091 79.3138C152.961 80.8958 151.765 82.4315 150.615 84.0002C149.95 84.9402 149.286 85.9066 148.621 86.8598L145.903 90.7122C144.321 92.9495 142.619 95.1074 141.15 97.4241C141.033 97.5731 140.899 97.7086 140.752 97.8279C140.692 97.8875 140.619 97.9404 140.552 98C140.506 97.9206 140.433 97.8478 140.426 97.7683C140.426 97.391 140.426 97.0071 140.426 96.6298V76.2756C140.426 75.4945 140.552 75.5143 139.675 75.5143H128.09C127.807 75.5409 127.522 75.5409 127.239 75.5143C127.169 75.4781 127.111 75.4241 127.069 75.3578C127.026 75.2916 127.003 75.2154 127 75.137C127.029 74.9178 127.124 74.7125 127.272 74.5479C128.602 73.1513 129.486 71.4567 130.682 69.974C131.413 69.0672 132.011 68.0743 132.709 67.1211C133.653 65.7973 134.61 64.4734 135.534 63.1495C137.069 60.9387 138.625 58.7345 140.187 56.5303C141.749 54.3261 143.37 52.0292 145.072 49.8514C146.361 48.2032 147.465 46.3962 148.654 44.6619C148.859 44.3848 149.125 44.1583 149.432 44C149.469 44.1275 149.494 44.2583 149.505 44.3905C149.505 46.8529 149.505 49.3219 149.505 51.7843L149.545 55.2197Z" fill="#01C753"/>
</svg>
