<svg width="220" height="220" viewBox="0 0 220 220" fill="none" xmlns="http://www.w3.org/2000/svg">
  <path d="M110 220C170.751 220 220 170.751 220 110C220 49.2487 170.751 0 110 0C49.2487 0 0 49.2487 0 110C0 170.751 49.2487 220 110 220Z" fill="#6850FF"/>
  <path d="M107.206 131.051C107.206 134.662 106.501 137.9 105.093 140.766C103.725 143.596 101.754 145.997 99.1786 147.97C96.6035 149.942 93.4651 151.45 89.7635 152.492C86.0618 153.497 81.8974 154 77.2703 154C72.8042 154 68.6197 153.665 64.7169 152.995C60.8543 152.362 57.6153 151.413 55 150.147V140.208C56.368 140.804 57.9171 141.399 59.6472 141.995C61.4176 142.553 63.2684 143.056 65.1997 143.503C67.131 143.949 69.1227 144.321 71.1747 144.619C73.2267 144.88 75.2586 145.01 77.2703 145.01C83.708 145.01 88.4558 143.893 91.5137 141.66C94.6118 139.426 96.1609 136.225 96.1609 132.056C96.1609 130.046 95.8591 128.296 95.2556 126.807C94.6923 125.318 93.6663 123.959 92.1776 122.731C90.7291 121.465 88.7777 120.256 86.3233 119.102C83.869 117.91 80.7708 116.626 77.0289 115.249C73.448 113.946 70.3297 112.531 67.6742 111.005C65.0589 109.442 62.8862 107.692 61.156 105.756C59.4661 103.821 58.1987 101.624 57.3538 99.1675C56.5491 96.7107 56.1467 93.9188 56.1467 90.7919C56.1467 87.5161 56.7905 84.5939 58.078 82.0254C59.3655 79.4569 61.1761 77.2978 63.5098 75.5482C65.8435 73.7614 68.6197 72.4027 71.8385 71.4721C75.0976 70.5415 78.6786 70.0761 82.5814 70.0761C87.3694 70.0761 91.6746 70.5042 95.497 71.3604C99.3194 72.1794 102.719 73.2403 105.697 74.5431L101.653 83.2538C99.0377 82.1743 96.0603 81.2437 92.7208 80.4619C89.4215 79.643 86.0014 79.2335 82.4607 79.2335C77.552 79.2335 73.7497 80.2944 71.054 82.4162C68.3582 84.5008 67.0103 87.3299 67.0103 90.9036C67.0103 93.0254 67.3121 94.868 67.9156 96.4315C68.5191 97.9577 69.525 99.3536 70.9333 100.619C72.3415 101.848 74.1923 103.02 76.4857 104.137C78.8194 105.217 81.6761 106.371 85.0559 107.599C88.7173 108.939 91.9161 110.316 94.6521 111.731C97.4283 113.146 99.7419 114.746 101.593 116.533C103.444 118.32 104.832 120.386 105.757 122.731C106.723 125.076 107.206 127.849 107.206 131.051Z" fill="white"/>
  <path d="M135.805 121.223L143.952 111.731L161.636 91.5736H174.37L150.169 118.096L176 152.883H163.386L143.107 124.741L136.529 129.32V152.883H125.665V66H136.529V105.868L135.563 121.223H135.805Z" fill="white"/>
</svg>

