<svg width="220" height="220" viewBox="0 0 220 220" fill="none" xmlns="http://www.w3.org/2000/svg">
  <path d="M110 220C170.751 220 220 170.751 220 110C220 49.2487 170.751 0 110 0C49.2487 0 0 49.2487 0 110C0 170.751 49.2487 220 110 220Z" fill="#00C04D"/>
  <path d="M113.603 100.761C95.5413 96.0739 89.7328 91.2278 89.7328 83.6806C89.7328 75.0211 97.7692 68.9833 111.216 68.9833C125.379 68.9833 130.631 75.7361 131.108 85.6667H148.693C148.136 72.0022 139.781 59.45 123.151 55.3983V38H99.2809V55.16C83.8448 58.4967 71.4322 68.5067 71.4322 83.8394C71.4322 102.191 86.6297 111.327 108.829 116.65C128.721 121.417 132.699 128.408 132.699 135.796C132.699 141.278 128.801 150.017 111.216 150.017C94.8251 150.017 88.3802 142.708 87.5049 133.333H70C70.9548 150.732 84.0039 160.503 99.2809 163.761V181H123.151V163.919C138.667 160.98 151 152.003 151 135.717C151 113.154 131.665 105.448 113.603 100.761Z" fill="white"/>
</svg>
