<svg width="220" height="220" viewBox="0 0 220 220" fill="none" xmlns="http://www.w3.org/2000/svg">
  <path d="M110 220C170.751 220 220 170.751 220 110C220 49.2487 170.751 0 110 0C49.2487 0 0 49.2487 0 110C0 170.751 49.2487 220 110 220Z" fill="white"/>
  <path fill-rule="evenodd" clip-rule="evenodd" d="M46.02 67.8702L105.867 171.034C106.385 171.926 107.168 172.637 108.108 173.069C109.397 173.662 110.879 173.682 112.184 173.125L112.266 173.09C113.307 172.646 114.175 171.876 114.738 170.898L173.955 67.9283C174.621 66.7701 174.773 65.388 174.373 64.1141C173.927 62.6929 172.843 61.5585 171.439 61.0438L171.068 60.9076C169.5 60.3326 167.757 60.4815 166.31 61.314L110.938 93.1817L54.7446 61.1422C53.449 60.4035 51.9368 60.1335 50.4641 60.3778L49.496 60.5384C47.5722 60.8576 46.0154 62.2707 45.5191 64.1483C45.1866 65.4062 45.3666 66.7438 46.02 67.8702ZM64.2197 79.1329L81.1229 105.914C82.2681 107.728 84.641 108.316 86.5007 107.245L99.8866 99.5417L64.2197 79.1329ZM111.665 155.42C111.888 155.23 112.073 155.001 112.212 154.743L131.137 119.576C131.63 118.66 131.303 117.518 130.4 117.002L110 105.329L89.6375 116.98C88.7152 117.508 88.3844 118.676 88.8931 119.609L108.056 154.749C108.194 155.003 108.378 155.23 108.598 155.417C109.481 156.17 110.783 156.173 111.665 155.42ZM135.461 107.164C137.391 108.264 139.847 107.582 140.933 105.644L155.78 79.1329L121.101 98.9765L135.461 107.164Z" fill="url(#paint0_linear_2093_727)"/>
  <defs>
    <linearGradient id="paint0_linear_2093_727" x1="165.877" y1="57.72" x2="77.527" y2="145.527" gradientUnits="userSpaceOnUse">
      <stop stop-color="#68A0AE"/>
      <stop offset="1" stop-color="#4F8389"/>
    </linearGradient>
  </defs>
</svg>
