<svg width="220" height="220" viewBox="0 0 220 220" fill="none" xmlns="http://www.w3.org/2000/svg">
<path d="M110 220C170.751 220 220 170.751 220 110C220 49.2487 170.751 0 110 0C49.2487 0 0 49.2487 0 110C0 170.751 49.2487 220 110 220Z" fill="#2F69F4"/>
<g clip-path="url(#clip0_1804_370)">
<path d="M74.313 109.473C73.976 115.33 78.4842 120.344 84.3408 120.681C84.5514 120.681 84.7621 120.681 84.9728 120.681C90.8714 120.681 95.6325 115.92 95.5904 110.021C95.5904 104.122 90.8293 99.3605 84.9306 99.4026C79.2848 99.4026 74.608 103.827 74.313 109.473Z" fill="white"/>
<path d="M34.6235 106.735C32.7275 106.608 31.0843 108.083 31 109.979C30.9157 111.875 32.3483 113.518 34.2443 113.603C36.1403 113.729 37.7413 112.254 37.8677 110.358C37.9941 108.462 36.5195 106.861 34.6235 106.735Z" fill="white"/>
<path d="M73.6389 47.7026C75.3243 46.8599 75.9984 44.7531 75.1557 43.0677C74.3131 41.3822 72.2064 40.7081 70.5211 41.5508C68.8357 42.3935 68.1616 44.4581 69.0043 46.1436C69.8469 47.8711 71.9115 48.5874 73.6389 47.7026C73.5968 47.7026 73.6389 47.7026 73.6389 47.7026Z" fill="white"/>
<path d="M84.4251 66.5372C87.0374 65.231 88.0907 62.0287 86.7846 59.4163C85.4785 56.8039 82.2763 55.7505 79.6641 57.0567C77.0518 58.3629 75.9985 61.5652 77.3046 64.1776C78.6107 66.79 81.8129 67.8434 84.4251 66.5372Z" fill="white"/>
<path d="M48.1062 79.4725C50.1286 80.7787 52.8251 80.2309 54.1734 78.2084C55.4795 76.1859 54.9318 73.4892 52.9094 72.1409C50.887 70.8347 48.1904 71.3824 46.8422 73.4049C45.4939 75.4274 46.0838 78.1663 48.1062 79.4725Z" fill="white"/>
<path d="M54.5525 104.839C51.6032 104.67 49.1173 106.903 48.9488 109.853C48.7802 112.802 51.0133 115.288 53.9626 115.457C56.912 115.625 59.3978 113.392 59.5664 110.443C59.7349 107.535 57.5018 105.007 54.5525 104.839Z" fill="white"/>
<path d="M48.696 140.527C46.5472 141.623 45.6624 144.235 46.7579 146.426C47.8534 148.575 50.4656 149.46 52.6566 148.364C54.8054 147.269 55.6902 144.656 54.5947 142.465C53.4992 140.316 50.8448 139.432 48.696 140.527Z" fill="white"/>
<path d="M69.3414 93.841C72.2486 95.7371 76.1248 94.9366 77.9787 92.0292C79.8747 89.1218 79.0742 85.2454 76.167 83.3914C73.2598 81.4953 69.3835 82.2959 67.5296 85.2032C65.6336 88.0684 66.4342 91.9449 69.3414 93.841Z" fill="white"/>
<path d="M134.859 66.1155C137.302 67.7167 140.631 67.0425 142.232 64.5987C143.833 62.1548 143.159 58.8261 140.715 57.2249C138.272 55.6238 134.943 56.2979 133.342 58.7418C131.699 61.2278 132.373 64.5144 134.859 66.1155Z" fill="white"/>
<path d="M145.729 47.3652C147.33 48.4186 149.437 47.9551 150.49 46.3539C151.543 44.7528 151.08 42.646 149.479 41.5926C147.878 40.5392 145.771 41.0027 144.718 42.5617C143.707 44.1629 144.17 46.3118 145.729 47.3652Z" fill="white"/>
<path d="M135.659 99.3185C129.803 98.9814 124.747 103.49 124.452 109.347C124.115 115.204 128.623 120.26 134.479 120.555C134.69 120.555 134.901 120.555 135.069 120.555C140.926 120.555 145.687 115.794 145.687 109.895C145.729 104.291 141.305 99.6135 135.659 99.3185Z" fill="white"/>
<path d="M87.9222 93.0824C89.7339 96.6639 93.3995 98.9392 97.4443 98.9392C103.301 98.9392 108.062 94.1779 108.062 88.2789C108.062 86.6356 107.683 84.9923 106.924 83.4754C104.27 78.2085 97.8657 76.1017 92.6411 78.7562C87.3745 81.4529 85.2678 87.8575 87.9222 93.0824Z" fill="white"/>
<path d="M171.304 79.4726C173.453 78.3771 174.295 75.7225 173.2 73.5736C172.105 71.4247 169.45 70.582 167.301 71.6775C165.153 72.773 164.31 75.3854 165.363 77.5344C166.501 79.6833 169.113 80.5681 171.304 79.4726Z" fill="white"/>
<path d="M144.339 82.8436C141.263 84.4026 139.999 88.1527 141.558 91.2286C143.117 94.3045 146.867 95.5686 149.942 94.0096C153.018 92.4506 154.282 88.7005 152.723 85.6246C151.164 82.5487 147.414 81.3267 144.339 82.8436Z" fill="white"/>
<path d="M109.579 45.7641C111.98 45.8905 114.045 44.0365 114.213 41.6348C114.382 39.2331 112.486 37.1684 110.084 36.9999C107.683 36.8735 105.618 38.6853 105.45 41.087C105.323 43.5309 107.177 45.5956 109.579 45.7641Z" fill="white"/>
<path d="M109.537 73.2788C112.991 73.4895 115.941 70.8349 116.109 67.3798C116.32 63.9247 113.666 60.9752 110.211 60.8066C106.756 60.596 103.806 63.2505 103.638 66.7056C103.469 70.1608 106.082 73.1103 109.537 73.2788Z" fill="white"/>
<path d="M75.6613 137.156C78.737 135.597 80.001 131.847 78.4421 128.771C76.8832 125.696 73.1333 124.432 70.0576 125.991C66.9818 127.55 65.7178 131.3 67.2768 134.376C68.8357 137.451 72.5856 138.715 75.6613 137.156Z" fill="white"/>
<path d="M113.581 82.4221C110.379 87.352 111.727 93.9251 116.657 97.1275C121.587 100.33 128.159 98.9814 131.362 94.0515C134.564 89.1217 133.215 82.5485 128.286 79.3462C126.558 78.2086 124.536 77.6187 122.471 77.6187C118.89 77.6187 115.562 79.4305 113.581 82.4221Z" fill="white"/>
<path d="M132.078 126.917C129.423 121.65 123.019 119.544 117.795 122.198C112.528 124.853 110.421 131.257 113.076 136.482C115.73 141.749 122.134 143.856 127.359 141.201C132.583 138.589 134.732 132.269 132.12 127.002C132.12 126.959 132.12 126.959 132.078 126.917Z" fill="white"/>
<path d="M150.659 126.159C147.751 124.263 143.875 125.063 142.021 127.971C140.125 130.878 140.926 134.755 143.833 136.609C146.74 138.505 150.617 137.704 152.47 134.797C154.366 131.932 153.566 128.055 150.659 126.159Z" fill="white"/>
<path d="M171.051 110.19C171.22 107.24 168.987 104.754 166.037 104.586C163.088 104.417 160.602 106.65 160.434 109.6C160.265 112.549 162.498 115.035 165.447 115.204C168.355 115.372 170.883 113.097 171.051 110.19Z" fill="white"/>
<path d="M185.756 106.397C183.86 106.271 182.217 107.746 182.132 109.642C182.048 111.538 183.481 113.181 185.377 113.265C187.273 113.392 188.874 111.917 189 110.021C189.084 108.125 187.652 106.524 185.756 106.397Z" fill="white"/>
<path d="M171.894 140.527C169.871 139.221 167.175 139.769 165.827 141.791C164.52 143.814 165.068 146.51 167.091 147.859C169.113 149.165 171.81 148.617 173.158 146.595C174.506 144.572 173.916 141.833 171.894 140.527Z" fill="white"/>
<path d="M74.2288 172.635C72.6277 171.581 70.521 172.045 69.4677 173.604C68.4144 175.205 68.8778 177.312 70.4368 178.365C72.0378 179.418 74.1445 178.955 75.1978 177.396C76.2933 175.837 75.8298 173.688 74.2288 172.635Z" fill="white"/>
<path d="M146.361 172.297C144.676 173.14 144.002 175.247 144.844 176.932C145.687 178.618 147.794 179.292 149.479 178.449C151.164 177.606 151.838 175.542 150.996 173.856C150.153 172.129 148.088 171.412 146.361 172.297C146.403 172.297 146.361 172.297 146.361 172.297Z" fill="white"/>
<path d="M106.419 137.578C109.621 132.648 108.273 126.075 103.343 122.83C98.4134 119.628 91.8406 120.976 88.5963 125.906C85.352 130.836 86.7424 137.409 91.672 140.653C93.3995 141.791 95.4219 142.381 97.4864 142.381C101.11 142.423 104.438 140.611 106.419 137.578Z" fill="white"/>
<path d="M85.1413 153.884C82.6976 152.283 79.369 152.957 77.768 155.401C76.1669 157.845 76.841 161.174 79.2848 162.775C81.7285 164.376 85.057 163.702 86.6581 161.258C88.3013 158.814 87.6272 155.485 85.1413 153.884Z" fill="white"/>
<path d="M109.958 174.236C107.556 174.109 105.492 175.963 105.323 178.365C105.155 180.767 107.051 182.831 109.452 183C111.854 183.126 113.918 181.314 114.087 178.913C114.213 176.469 112.359 174.404 109.958 174.236Z" fill="white"/>
<path d="M110 146.721C106.545 146.511 103.596 149.165 103.427 152.62C103.217 156.075 105.871 159.025 109.326 159.193C112.781 159.362 115.73 156.749 115.899 153.294C116.109 149.881 113.455 146.89 110 146.721Z" fill="white"/>
<path d="M135.575 153.463C132.963 154.811 131.909 158.014 133.258 160.626C134.606 163.238 137.808 164.292 140.42 162.943C143.033 161.637 144.086 158.435 142.78 155.822C141.432 153.21 138.229 152.115 135.575 153.463Z" fill="white"/>
</g>
<defs>
<clipPath id="clip0_1804_370">
<rect width="158" height="146" fill="white" transform="translate(31 37)"/>
</clipPath>
</defs>
</svg>
