<svg width="220" height="220" viewBox="0 0 220 220" fill="none" xmlns="http://www.w3.org/2000/svg">
<g clip-path="url(#clip0_3998_122)">
<path d="M110 220C170.751 220 220 170.751 220 110C220 49.2487 170.751 0 110 0C49.2487 0 0 49.2487 0 110C0 170.751 49.2487 220 110 220Z" fill="#356DF3"/>
<g clip-path="url(#clip1_3998_122)">
<path fill-rule="evenodd" clip-rule="evenodd" d="M119.752 38.22L167.96 63.01C174.952 66.71 179.368 73.74 179.368 81.88V93.35H161.704V81.88C161.704 80.77 160.968 79.66 159.864 78.92L111.656 54.13C110.92 53.76 109.816 53.76 108.712 54.13L60.504 78.92C59.4 79.29 58.664 80.4 58.664 81.88V93.35H41V81.88C41 74.11 45.416 66.71 52.408 63.01L100.616 38.22C106.504 35.26 113.496 35.26 119.752 38.22ZM125.272 109.26C125.272 100.75 118.28 94.09 110.184 94.09C101.72 94.09 95.096 100.75 95.096 109.26C95.096 117.77 102.088 124.43 110.184 124.43C118.28 124.43 125.272 117.77 125.272 109.26ZM159.496 141.08C160.6 140.71 161.336 139.6 161.336 138.12V126.65H179V138.12C179 145.89 174.584 153.29 167.592 156.99L119.384 181.78C116.44 183.26 113.128 184 109.816 184C106.504 184 103.192 183.26 100.248 181.78L52.408 156.99C45.416 153.29 41 146.26 41 138.12V126.65H58.664V138.12C58.664 139.23 59.4 140.34 60.504 141.08L101.352 161.8V141.08C87.368 137.01 77.432 124.43 77.432 109.26C77.432 91.13 92.152 75.96 110.552 75.96C128.584 75.96 143.672 90.76 143.672 109.26C143.672 124.43 133.368 137.38 119.752 141.08V161.8L159.496 141.08Z" fill="white"/>
</g>
</g>
<defs>
<clipPath id="clip0_3998_122">
<rect width="220" height="220" rx="110" fill="white"/>
</clipPath>
<clipPath id="clip1_3998_122">
<rect width="138" height="148" fill="white" transform="translate(41 36)"/>
</clipPath>
</defs>
</svg>
