<svg width="220" height="220" viewBox="0 0 220 220" fill="none" xmlns="http://www.w3.org/2000/svg">
<path d="M110 220C170.753 220 220 170.753 220 110C220 49.247 170.753 0 110 0C49.247 0 0 49.247 0 110C0 170.753 49.247 220 110 220Z" fill="#070A0E"/>
<path fill-rule="evenodd" clip-rule="evenodd" d="M63.547 146.883C60.258 144.87 58.245 141.295 58.245 137.445V115.951C58.245 113.399 60.324 111.331 62.876 111.342C63.69 111.342 64.493 111.562 65.197 111.969L113.696 140.25C116.534 141.9 118.283 144.936 118.283 148.225V170.489C118.294 173.547 115.819 176.033 112.761 176.033C111.738 176.033 110.726 175.747 109.857 175.219L63.547 146.883ZM135.839 106.084C138.677 107.734 140.415 110.781 140.426 114.059V159.247C140.426 160.578 139.711 161.81 138.545 162.459L127.93 168.432C127.798 168.509 127.655 168.564 127.501 168.608V143.517C127.501 140.272 125.796 137.258 123.002 135.586L80.41 110.11V81.7851C80.41 79.2331 82.489 77.1651 85.041 77.1761C85.855 77.1761 86.658 77.3961 87.362 77.8031L135.839 106.084ZM157.069 72.7101C159.918 74.3601 161.667 77.4071 161.667 80.6961V146.696C161.656 148.049 160.908 149.292 159.72 149.941L149.655 155.375V109.428C149.655 106.183 147.95 103.18 145.178 101.508L101.64 75.3941V48.5321C101.64 47.7181 101.86 46.9151 102.256 46.2111C103.543 44.0111 106.37 43.2631 108.57 44.5391L157.069 72.7101Z" fill="#00D395"/>
</svg>
