<svg width="220" height="220" viewBox="0 0 220 220" fill="none" xmlns="http://www.w3.org/2000/svg">
<g clip-path="url(#clip0_3920_128)">
<path d="M110 220C170.751 220 220 170.751 220 110C220 49.2487 170.751 0 110 0C49.2487 0 0 49.2487 0 110C0 170.751 49.2487 220 110 220Z" fill="#988430"/>
<path d="M110 216.476C168.805 216.476 216.476 168.805 216.476 110C216.476 51.1946 168.805 3.52344 110 3.52344C51.1947 3.52344 3.52351 51.1946 3.52351 110C3.52351 168.805 51.1947 216.476 110 216.476Z" fill="#7A6A2A"/>
<path d="M110 214.233C167.566 214.233 214.233 167.566 214.233 110C214.233 52.4338 167.566 5.76709 110 5.76709C52.4337 5.76709 5.76694 52.4338 5.76694 110C5.76694 167.566 52.4337 214.233 110 214.233Z" fill="#BA9F33"/>
<path fill-rule="evenodd" clip-rule="evenodd" d="M48.0938 98.2528C47.4707 97.6837 46.8125 97.1135 46.207 96.5444C45.6016 95.9754 44.9797 95.4051 44.3567 94.8361L42.5052 93.0761C42.2025 92.7733 41.8821 92.507 41.5794 92.2031C41.2767 91.9367 40.9212 91.634 40.6185 91.3665C38.1615 89.0351 35.6905 86.7037 33.2675 84.3711C35.7773 86.6673 38.2342 88.9471 40.744 91.2773L41.6158 92.1503C41.9185 92.4518 42.2388 92.7194 42.5415 93.0221L44.3919 94.7305C45.0149 95.2995 45.6204 95.8698 46.2434 96.4905C46.8665 97.1111 47.4719 97.6826 48.0949 98.2505L48.0938 98.2528ZM15.4857 97.9008C15.4857 97.9008 24.4206 98.8254 28.7819 99.4484C32.8217 100.019 45.4596 101.958 45.4596 101.958L15.4857 97.9008ZM15.4857 97.9008C17.9954 98.1143 20.5052 98.3807 23.0149 98.6482C24.2962 98.7726 25.5247 98.9146 26.7532 99.0389L28.6387 99.2536C29.2618 99.3416 29.8672 99.4308 30.4902 99.52L37.9667 100.712L41.7038 101.335C42.9323 101.549 44.1607 101.781 45.442 101.995C44.2135 101.87 42.9323 101.692 41.7038 101.513L37.9667 100.98L30.4902 99.8767C29.8672 99.7875 29.2618 99.662 28.6387 99.574L26.752 99.3569C25.5235 99.2325 24.2422 99.0542 23.0138 98.911C20.504 98.6095 17.9942 98.288 15.4845 97.8973L15.4857 97.9008ZM44.5702 104.286C44.5702 104.286 35.0299 106.708 31.8079 107.634C28.6399 108.505 19.0455 111.425 19.0455 111.425L44.5691 104.287L44.5702 104.286Z" fill="#CFB66C"/>
<path fill-rule="evenodd" clip-rule="evenodd" d="M44.5691 104.286C42.4512 104.909 40.3451 105.515 38.1967 106.085L31.8243 107.793C29.7065 108.416 27.6003 109.022 25.4883 109.645L22.3203 110.517C21.2702 110.819 20.2025 111.086 19.1171 111.389C20.1661 111.037 21.235 110.677 22.2851 110.375L25.4531 109.361C27.571 108.701 29.6771 108.078 31.7891 107.42C33.9422 106.886 36.0612 106.316 38.2143 105.8C40.2606 105.283 42.4148 104.768 44.5691 104.287V104.286ZM20.3808 117.298C21.4298 116.907 33.5339 111.265 36.3464 109.947C37.7544 109.288 41.8469 107.835 41.8469 107.835L20.3808 117.298Z" fill="#CFB66C"/>
<path fill-rule="evenodd" clip-rule="evenodd" d="M20.3808 117.299C21.3054 116.947 22.1783 116.516 23.0677 116.106L25.7019 114.878L30.9889 112.333C32.7489 111.496 34.4596 110.573 36.2748 109.787C37.2005 109.396 38.1263 109.076 39.0509 108.773L40.4589 108.328C40.9388 108.204 41.3846 108.061 41.8669 107.937C40.1069 108.773 38.2542 109.485 36.4918 110.303C34.7318 111.176 32.9319 111.888 31.1156 112.671L25.7406 115.038C23.936 115.769 22.176 116.551 20.3796 117.299H20.3808ZM21.5541 122.227C21.5541 122.227 32.5178 115.801 36.2912 113.736C38.2671 112.633 44.6571 109.464 44.6571 109.464L21.5541 122.227Z" fill="#CFB66C"/>
<path fill-rule="evenodd" clip-rule="evenodd" d="M21.5553 122.228C23.4057 121.089 25.2924 119.932 27.1791 118.757L29.9951 117.048C30.9561 116.479 31.8818 115.945 32.8616 115.376C33.8225 114.806 34.7483 114.237 35.7268 113.703C36.1927 113.415 36.6808 113.165 37.1865 112.955L38.6813 112.208C40.6572 111.247 42.6331 110.267 44.7157 109.431C42.829 110.624 40.8883 111.639 38.9488 112.688C37.9878 113.222 37.0081 113.703 36.0472 114.237C35.0862 114.77 34.1604 115.341 33.1807 115.857C32.2197 116.426 31.294 116.96 30.3154 117.476L27.4138 119.06L21.5577 122.228H21.5553ZM44.5691 110.872C44.5691 110.872 37.752 116.105 35.545 117.778C33.3379 119.451 26.8412 124.15 26.8412 124.15L44.5691 110.872Z" fill="#CFB66C"/>
<path fill-rule="evenodd" clip-rule="evenodd" d="M83.6927 153.075L80.2044 146.471L82.2331 138.212L96.7038 132.623L90.545 119.987L93.5886 107.224L99.3027 95.796L116.96 93.0199L129.935 80.6494L157.952 82.7673L163.451 112.724L152.861 150.44L146.827 169.967L122.37 170.893L111.015 163.026L97.7187 157.471L83.6927 153.075Z" fill="#E2CC85"/>
<path fill-rule="evenodd" clip-rule="evenodd" d="M126.59 152.861C126.59 152.861 123.207 154.41 117.438 154.053C115.768 151.811 104.075 150.76 104.075 150.76C104.075 150.76 102.615 150.316 100.034 151.383C97.4359 152.439 94.979 152.309 92.6828 152.878C90.3866 153.447 88.1068 150.458 86.3468 149.835C84.5868 149.176 82.253 147.592 82.253 147.592L77.325 147.111L67.4291 142.928L51.7076 127.266L47.4355 133.954L46.1179 142.23L50.871 152.038L63.6686 163.696L88.623 170.032L103.414 165.675L121.943 157.843L126.59 152.86V152.861Z" fill="#F1D789"/>
<path fill-rule="evenodd" clip-rule="evenodd" d="M37.9303 97.5055L41.0983 87.9123L44.873 81.7171L57.0287 80.7021L53.3796 91.3466L43.2174 109.431L47.4355 125.575L39.9602 129.312L37.6628 125.789L35.8125 117.708L35.6881 108.63L37.9303 97.5055Z" fill="#F4ECB4"/>
<path fill-rule="evenodd" clip-rule="evenodd" d="M51.5645 152.202L49.2331 148.945C49.2331 148.945 48.61 147.396 48.9667 146.043C49.3187 144.673 49.2683 144.584 49.0911 144.067C48.9139 143.551 47.4179 141.771 47.5071 140.24C47.5951 138.691 47.3827 138.175 48.5208 136.948C49.713 135.756 49.3574 133.69 49.3574 133.69L50.9062 134.651L51.2582 134.118C51.2582 134.118 51.8273 134.562 51.8273 135.257C51.9517 134.296 51.4354 129.845 52.6099 128.832C53.7844 127.818 55.8671 133.584 55.8671 133.584L54.5858 125.218L51.2923 116.64L45.4361 108.808L45.0842 100.174V99.4268C45.0842 99.4268 42.396 103.557 41.6486 106.819C41.1148 109.061 42.396 111.784 42.1297 115.006C41.915 118.211 41.6486 117.961 42.4312 119.23C43.2139 120.5 45.1194 123.11 44.3719 124.997C43.7137 126.618 41.4703 125.478 41.4703 125.478C41.4703 125.478 41.0256 126.795 40.4201 127.276C40.2066 126.493 39.9755 125.995 39.5484 125.516C39.512 125.819 39.424 126.228 39.424 126.228C39.424 126.228 39.0321 125 38.6402 123.451C38.1075 121.387 37.5373 118.664 37.021 117.204C36.8075 118.041 36.2736 120.585 36.2736 120.585L36.5763 124.502L38.0359 129.877L39.4439 133.397L40.8144 137.704L42.0053 140.598L42.9663 142.805L43.8029 147.772L47.8427 152.043L49.9969 153.005L51.5621 152.203L51.5645 152.202Z" fill="#F3E19D"/>
<path fill-rule="evenodd" clip-rule="evenodd" d="M40.0482 89.6729C40.0482 89.6729 37.1466 94.6009 36.3111 99.5688C35.4757 104.537 34.7271 109.786 35.2551 116.549C35.789 123.367 36.8039 127.549 37.6229 130.54C39.0309 135.507 42.6777 142.413 42.6777 142.413L42.802 142.146C42.1891 140.984 41.6998 139.761 41.3424 138.496C40.8613 136.61 40.683 134.367 40.2383 133.353C39.8464 132.339 39.1882 131.466 38.8678 130.22C38.5651 129.028 38.5158 127.141 37.5866 125.735C37.1947 125.165 36.7136 123.67 36.5716 122.175C36.3933 119.932 36.6608 117.422 36.4473 115.358C36.0554 111.923 35.789 109.591 36.1445 107.793C36.5001 105.994 38.3527 100.888 39.4921 96.829C40.2395 94.2301 39.7936 92.0407 41.1641 89.7796C42.5345 87.5374 43.3723 85.5615 43.6738 84.1911C44.0258 82.945 40.0435 89.6729 40.0435 89.6729H40.0482Z" fill="#F2E8B0"/>
<path fill-rule="evenodd" clip-rule="evenodd" d="M53.8079 87.6973C53.8079 87.6973 52.3131 88.1431 51.6009 88.9257C50.8886 89.6732 50.5859 90.2962 49.625 91.5599C48.664 92.8236 48.61 93.8561 47.8262 95.4401C47.0436 96.9889 45.3165 99.3203 45.1029 100.157C44.8894 100.993 44.5339 104.909 44.0892 106.76C43.6973 108.612 44.5339 110.891 44.5339 110.891L45.5476 110.676C45.5476 110.676 45.5476 111.993 46.5626 112.884C47.5763 113.756 47.7547 109.928 47.7547 109.928L51.5457 97.1309L57.2587 93.2507L57.8817 90.1179L53.8056 87.6973H53.8079Z" fill="#F5EEC0"/>
<path fill-rule="evenodd" clip-rule="evenodd" d="M56.584 93.5003C56.584 93.5003 53.8959 93.6775 52.5794 94.6397C52.0455 95.0304 51.832 95.3507 51.2629 95.8318C50.2128 96.7035 49.1439 97.5049 48.6288 98.6478C48.0586 99.7859 47.4355 101.513 47.0084 104.77C46.8301 106.141 46.8301 107.404 46.7057 108.508C46.5274 110.003 46.261 111.195 46.403 112.028C46.5813 113.737 48.3437 114.627 48.515 116.567L52.164 114.717L55.5996 101.17L62.8977 96.5944L58.7676 91.9668L56.5793 93.4921L56.584 93.5003Z" fill="#E6DB9D"/>
<path fill-rule="evenodd" clip-rule="evenodd" d="M37.3331 184.717C37.3484 184.583 37.3636 184.449 37.3789 184.312C37.9116 179.736 38.0019 176.268 38.3926 174.096C38.9617 171.017 39.3536 169.872 39.2644 168.72C39.14 166.869 38.9981 165.517 39.1764 164.092C39.4428 162.205 41.2943 159.963 41.2415 158.414C41.2051 157.186 40.5821 156.386 40.0482 155.638C39.5143 154.891 39.0872 154.268 39.0872 154.268C39.0872 154.268 42.7363 151.758 42.7011 141.647C42.7756 141.668 42.8473 141.698 42.9147 141.737L44.7122 146.844L45.9407 148.339L50.6575 157.132L56.7271 163.024L65.6973 169.058L71.3222 175.179L71.8913 191.501L64.5404 201.042L63.3365 203.222C53.7723 198.42 45.002 192.179 37.3319 184.716L37.3331 184.717Z" fill="#E5CB7A"/>
<path fill-rule="evenodd" clip-rule="evenodd" d="M59.7884 200.331C59.7884 200.331 59.9128 198.302 61.5859 196.985C61.8534 197.429 62.0306 197.858 61.9778 198.177C62.2805 197.644 64.3984 194.226 69.1868 193.336C73.9751 192.464 75.1321 188.975 75.1321 188.975L85.2943 179.738L96.9173 169.041L111.05 164.074L117.655 162.453C117.655 162.453 117.779 162.935 117.53 164.002C118.758 163.914 121.481 163.291 124.311 162.294C125.45 161.849 126.519 161.671 127.088 162.259C127.925 163.041 128.049 164.893 128.102 165.996C129.473 165.693 131.057 164.377 132.326 164.501C134.356 164.714 136.154 167.1 138.219 167.1C140.942 167.1 142.169 165.427 144.075 164.109C145.214 163.326 146.851 162.349 147.777 161.688C149.984 160.068 173.337 152.931 173.337 152.931L181.524 153.465L182.842 162.257L182.138 185.243C182.051 185.326 181.964 185.413 181.876 185.497L144.649 204.94L93.0453 212.85C81.486 210.962 70.3311 207.125 60.0559 201.503L59.7919 200.33L59.7884 200.331Z" fill="#D8C173"/>
<path fill-rule="evenodd" clip-rule="evenodd" d="M40.4624 187.641C41.1957 186.107 41.8551 184.825 41.9713 184.366C42.0628 185.291 42.2306 187.319 42.5685 189.476C41.8591 188.873 41.157 188.261 40.4624 187.64V187.641Z" fill="#F1D789"/>
<path fill-rule="evenodd" clip-rule="evenodd" d="M78.1581 209.272L84.832 207.416L85.4011 207.594C85.4011 207.594 85.7038 207.773 85.7038 208.377C86.5404 207.897 87.2526 207.985 87.7689 207.666C88.0352 208.235 88.3016 210.122 89.4772 210.353C90.7045 210.621 92.0222 209.819 93.3574 208.805C94.6739 207.755 96.1734 206.438 97.3081 205.904C97.7244 206.669 98.0931 207.46 98.4122 208.27C99.907 207.078 102.506 202.237 106.208 202.325C107.278 199.797 109.065 197.637 111.349 196.113C114.785 193.782 116.938 193.604 119.626 193.817C120.694 192.43 122.009 191.254 123.506 190.346C123.951 190.525 125.179 191.272 126.711 190.56C128.259 189.849 130.003 187.089 132.299 186.734C133.537 186.564 134.795 186.828 135.859 187.481C135.859 187.481 142.547 180.841 147.162 178.634C146.983 178.1 146.628 176.089 152.038 171.639C152.341 171.906 152.127 172.654 152.341 172.695C152.429 172.695 153.749 172.126 155.42 170.843C157.485 169.296 159.958 167.675 161.453 167.231C164.269 166.394 167.256 168.102 167.256 168.102C167.51 167.924 167.793 167.792 168.093 167.711C168.804 167.586 169.32 167.497 169.712 167.359C169.677 168.284 170.193 169.868 169.712 171.239C170.269 171.552 170.86 171.803 171.472 171.986C171.171 172.644 170.511 174.318 169.408 175.119C170.333 175.564 170.457 176.08 171.775 176.527C171.241 177.274 170.367 178.557 169.977 179.343C169.585 180.18 168.179 183.65 167.556 184.967C166.897 186.284 166.008 188.705 165.58 189.191C165.151 189.677 163.604 191.736 162.412 192.749C163.468 192.358 167.788 191.041 169.621 190.542C169.075 191.343 166.309 195.446 163.651 199.392C150.921 207.022 136.71 211.851 121.967 213.558C107.224 215.265 92.2865 213.81 78.1499 209.29L78.1581 209.272Z" fill="#E0CD81"/>
<path fill-rule="evenodd" clip-rule="evenodd" d="M57.024 93.0199C57.024 93.0199 55.4764 93.0199 55.1737 93.2334C54.8709 93.447 56.7224 93.8928 57.2915 94.1064C57.8606 94.3199 59.0891 95.2985 59.4094 96.0823C59.7121 96.8297 70.5338 101.19 70.5338 101.19L78.1874 100.798L80.8262 97.1523L75.8067 92.7559L79.3267 82.3789L74.6639 83.1263L63.4503 89.8143L57.8254 91.9686L57.024 93.0199Z" fill="#DFC57C"/>
<path fill-rule="evenodd" clip-rule="evenodd" d="M73.832 96.4553C73.9426 96.6344 74.0985 96.7813 74.2838 96.8812C74.4692 96.9811 74.6775 97.0305 74.888 97.0244C76.472 97.0244 77.9305 97.4163 78.5359 98.2165C79.5508 99.4989 82.3633 103.593 82.3633 103.593L89.0912 106.013L89.5253 98.0909L82.1744 92.9834L73.8085 96.0622V96.4541H73.8273L73.832 96.4553Z" fill="#E5CC7C"/>
<path fill-rule="evenodd" clip-rule="evenodd" d="M72.512 99.3923C72.512 99.3923 73.7393 99.4815 75.2881 98.9112C76.8369 98.341 79.3819 97.1137 80.486 97.5948C82.0336 98.253 81.7133 100.318 83.3876 102.171C84.4014 103.31 86.2529 103.275 87.303 104.503C88.3532 105.732 91.9659 105.162 91.9659 105.162L93.3363 112.554L87.8369 119.603L86.0382 128.36H78.6016L71.808 125.664L68.4617 117.568L70.1348 109.381L72.512 99.3923Z" fill="#D2C281"/>
<path fill-rule="evenodd" clip-rule="evenodd" d="M86.8971 99.7471C87.0815 99.8039 87.2732 99.834 87.4661 99.8363C87.2526 100.015 86.8067 100.405 86.9851 101.42C87.1634 102.435 87.7325 103.716 87.2526 104.499C87.6357 104.918 87.9214 105.416 88.0892 105.959C88.3919 106.832 88.4811 107.632 90.4558 107.757C90.1708 107.933 89.908 108.142 89.6732 108.38C89.6732 108.38 91.0436 109.573 91.7382 110.676C92.4493 110.645 94.336 110.058 94.336 110.058L94.7279 110.326L95.5645 109.974C95.5645 109.974 94.7819 109.671 95.3509 107.767C95.8848 106.094 96.3659 106.183 96.4069 106.058C96.448 105.934 96.7988 104.172 96.7988 103.46C97.0652 102.535 97.2787 99.7224 97.2787 99.7224L96.7097 93.5108L93.5065 91.5701L90.9017 89.0557L88.4447 93.6833L86.8267 95.2966L86.7023 99.3012L86.8971 99.7471Z" fill="#E2C270"/>
<path fill-rule="evenodd" clip-rule="evenodd" d="M94.6035 94.5509C94.6035 94.5509 95.1726 96.1701 95.3873 97.4161C95.463 97.1739 95.5048 96.9224 95.5117 96.6687C95.5117 96.6687 95.9564 99.1257 96.0444 100.141C96.2227 100.104 96.3964 100.051 96.4363 100.229C96.4762 100.406 96.8821 102.383 96.7883 103.486C97.5295 102.263 98.5551 101.237 99.7779 100.496C100.49 100.05 101.327 99.5704 102.2 99.534C103.57 99.4988 104.566 100.407 106.204 100.407C110.155 100.407 113.734 97.5053 116.368 96.6159C118.307 95.9565 119.98 95.4766 121.155 94.4077C121.725 93.9278 122.74 92.8601 123.665 91.2749C124.893 89.1629 126.174 87.3243 127.457 87.0932C126.877 87.1998 126.286 87.2415 125.697 87.2175C125.697 87.2175 126.089 86.8256 126.753 86.2918C127.417 85.7579 128.212 85.0997 129.351 85.0997C131.38 85.0997 132.394 85.4012 133.534 85.4012C134.673 85.366 135.331 85.0997 135.331 85.0997C135.331 85.0997 136.524 85.9362 139.211 85.9362C141.899 85.9714 143.697 86.2026 145.104 86.3281C146.511 86.4537 151.226 85.9362 152.579 85.9761C153.461 86.0101 154.327 86.222 155.125 86.5992L150.764 73.9272L135.098 60.2344L125.771 66.8379L111.423 81.1842L97.5404 86.3281L94.6387 89.5853V94.5509H94.6035Z" fill="#CCB360"/>
<path fill-rule="evenodd" clip-rule="evenodd" d="M125.753 87.2877C125.753 87.2877 126.145 86.897 126.802 86.3631C127.459 85.8293 128.263 85.1699 129.401 85.1699C131.43 85.1699 132.445 85.4726 133.584 85.4726C134.723 85.4374 135.382 85.1699 135.382 85.1699C135.382 85.1699 136.576 86.0053 139.262 86.0053C141.95 86.0405 143.747 86.2716 145.154 86.396C146.561 86.5204 151.277 86.0053 152.63 86.044C153.511 86.0772 154.377 86.2892 155.175 86.667L153.199 80.9529L150.904 76.5928L144.353 69.419C144.353 69.419 136.492 64.7914 136.432 64.7562C136.396 64.721 133.708 64.0088 133.708 64.0088L126.589 68.3161L120.128 85.0302L120.004 88.5502L124.186 90.5261C125.236 88.7661 126.394 87.3581 127.479 87.1798C126.499 87.2865 125.752 87.2865 125.752 87.2865L125.753 87.2877Z" fill="#D5B457"/>
<path fill-rule="evenodd" clip-rule="evenodd" d="M125.664 88.4814C125.041 88.5166 124.526 88.3922 124.383 87.9475C123.849 86.4527 123.422 86.2392 122.975 86.2392C122.528 86.2392 121.925 87.2001 121.567 87.2881C121.209 87.3761 120.784 86.1852 120.784 86.1852L120.392 86.0068C120.392 86.0068 118.096 87.5017 116.477 89.264C114.858 91.0264 112.205 94.0172 111.013 94.5499C109.82 95.0826 105.726 95.2621 104.325 95.5648C102.924 95.8675 101.37 96.8825 101.157 97.1136C100.943 97.3448 101.781 97.5935 101.905 97.8246C102.03 98.0382 100.534 97.949 100.409 98.1766C100.321 98.355 100.761 99.3688 100.979 99.885C101.361 99.6951 101.78 99.5918 102.207 99.5823C103.577 99.5471 104.575 100.455 106.211 100.455C110.163 100.455 113.741 97.5536 116.375 96.663C118.315 96.0048 119.989 95.5237 121.163 94.456C121.732 93.9761 122.747 92.9072 123.673 91.3232C124.349 90.2379 125.008 89.2229 125.668 88.4755L125.664 88.4814Z" fill="#D2B257"/>
<path fill-rule="evenodd" clip-rule="evenodd" d="M68.992 176.57C68.992 176.57 68.64 175.253 65.3781 171.853C64.4524 170.892 63.8833 170.093 63.2603 169.522C61.7115 168.061 60.8033 167.67 59.7004 166.834C57.2798 165.036 54.6457 165.036 52.617 162.829C50.5883 160.622 48.224 156.405 46.5813 152.096C44.9621 147.788 44.5163 146.418 44.5163 146.293C44.5163 146.169 44.9621 145.333 45.5312 145.457C46.1003 145.581 46.1003 146.684 46.2434 146.952C46.5269 147.388 46.8485 147.799 47.2044 148.179C48.041 149.141 49.2331 150.291 49.8385 152.006C49.7141 150.547 49.2155 148.928 49.2155 148.928C49.2155 148.928 52.3483 150.904 55.0176 152.967C57.7057 155.032 58.8086 155.745 59.5936 157.061C60.3786 158.378 62.2277 161.85 63.1136 162.864C63.9995 163.879 76.1376 167.706 76.1376 167.706L81.9116 172.011L84.778 178.294L82.5346 181.814L78.2273 182.74L71.2319 179.607L68.992 176.569V176.57Z" fill="#D2B159"/>
<path fill-rule="evenodd" clip-rule="evenodd" d="M53.4512 154.926C53.4512 154.926 54.9108 157.258 58.4707 159.465C61.6751 161.405 66.7474 163.168 71.2694 164.218C73.8672 164.841 76.4661 165.321 78.7976 165.357C85.0808 165.445 89.4057 163.649 94.7643 163.061C97.6659 162.758 101.226 162.527 104.928 161.653C109.68 160.514 112.492 159.231 116.32 157.429C119.096 156.148 121.642 155.187 123.706 153.958C126.607 152.25 128.725 150.345 131.182 149.776C130.879 150.613 130.559 152.108 128.139 153.657C129.42 153.62 131.182 153.532 131.182 153.532C131.182 153.532 129.474 154.546 126.465 156.825C124.614 158.233 122.158 160.616 119.648 162.2C118.028 163.215 116.266 163.96 115.109 164.567C112.293 166.116 111.157 166.899 109.307 168.791C109.965 168.756 110.019 168.791 110.019 168.791C110.019 168.791 107.686 169.094 106.014 169.984C105.662 169.984 105.052 169.859 103.984 170.162C103.148 170.428 102.044 171.035 100.905 171.354C99.2851 171.835 98.7524 171.621 98.7524 171.621L99.0188 172.155C99.0188 172.155 96.9068 172.119 96.2028 172.191C96.3271 172.226 96.292 172.28 96.292 172.28C96.1683 172.3 96.0492 172.343 95.9399 172.404C95.6012 172.624 95.2285 172.786 94.837 172.884C94.6235 172.919 94.4451 172.919 94.1776 172.973C94.2668 173.187 94.9614 174.381 95.2817 175.085C95.0154 175.264 91.0096 178.29 91.0096 178.29C91.1338 178.485 91.2354 178.694 91.3123 178.913C91.4367 179.303 91.4907 179.874 91.615 180.14C91.9166 180.674 92.0949 180.763 92.0949 180.763C92.0949 180.763 91.615 180.852 90.7773 181.066C90.0662 181.244 89.1933 181.546 87.9613 181.724C87.5833 181.773 87.203 181.803 86.822 181.813C87.0003 182.205 87.7829 183.7 86.3409 185.426C84.8989 187.152 84.4542 187.403 84.0095 188.506C83.7857 188.336 83.5473 188.187 83.2973 188.06C82.8174 187.846 82.158 187.527 81.9268 187.099C81.7921 187.67 81.6136 188.229 81.393 188.772C80.9483 189.964 80.29 191.14 80.1657 192.029C79.6846 191.495 78.7952 190.445 77.5667 190.659C76.3382 190.872 75.3597 192.546 75.1461 193.027C75.1461 192.724 74.9326 192.493 74.8798 192.848C74.8434 193.24 74.1676 197.333 70.3941 200.644C70.3589 199.807 70.3589 197.956 70.2698 197.352C69.9178 197.704 69.4872 198.223 66.9234 199.327C64.4137 200.43 64.8114 201.534 64.8114 201.534C64.8114 201.534 64.5979 199.774 65.9507 197.921C67.3212 196.07 68.1578 195.197 68.1578 195.055C68.1356 194.911 68.0739 194.775 67.9794 194.663C67.8011 194.485 67.4456 194.272 67.4456 194.13C67.6591 194.042 69.777 193.027 69.6526 190.925C69.5282 189.04 68.728 188.06 68.1578 187.366C68.0698 187.277 68.9955 186.619 68.87 186.405C68.7808 186.281 67.6427 185.443 67.4995 184.997C67.5332 184.731 67.5929 184.469 67.6779 184.215C67.8022 183.823 67.8914 183.555 67.8562 183.289C67.767 182.844 67.286 181.616 67.144 181.492C67.2684 181.527 68.1578 181.492 68.1578 181.492C68.1578 181.492 67.4467 180.352 67.3212 179.818C67.1956 179.285 66.9293 177.878 66.7873 177.611C67.09 177.647 67.8374 177.699 67.8374 177.611C67.8738 177.344 67.1792 176.899 67.4854 176.555C67.699 176.591 68.1085 176.769 68.4992 177.268C68.2857 176.697 67.9301 175.594 67.1816 175.15C67.5336 175.025 68.7303 174.704 69.7805 175.327C70.8306 175.95 71.1885 176.822 71.1885 176.822C71.1885 176.822 71.8115 177.303 72.7737 178.015C73.8766 178.887 75.2822 180.127 77.5257 181.005C78.0067 181.272 79.234 181.272 80.1246 181.094C80.5124 181.001 80.8841 180.852 81.2275 180.649C81.3515 180.576 81.4829 180.516 81.6194 180.471C81.4281 180.087 81.208 179.718 80.9612 179.367C81.2639 179.367 81.6194 179.403 81.6194 179.403C81.6194 179.403 81.833 178.922 80.872 177.995C81.0856 177.781 81.3531 177.643 81.3531 177.283C81.0503 177.248 80.5165 176.803 80.3921 176.625C80.5693 176.5 80.8368 176.091 81.1395 175.966C80.872 175.753 80.2138 174.862 79.911 174.774C80.2002 174.667 80.48 174.536 80.7476 174.382C80.7476 174.382 79.2528 173.99 78.7717 173.67C78.2907 173.318 77.5796 172.709 77.1525 172.531C76.7067 172.352 75.9241 172.264 75.6037 171.908C75.9053 171.997 76.3864 171.908 76.743 171.908C77.0094 171.908 77.1349 171.943 77.2229 171.943C77.1877 171.819 77.1877 171.551 77.8824 171.463C78.2165 171.413 78.5407 171.311 78.8433 171.16C78.8433 171.16 78.1839 171.125 77.4353 170.413C76.6867 169.701 76.0649 169.132 75.6378 169.042C75.1931 168.953 74.3565 169.345 73.8402 169.309C73.128 169.221 72.8253 168.864 72.8253 168.864C72.8253 168.864 70.4587 169.078 65.208 165.874C60.6684 163.097 58.6925 160.641 58.6925 160.641C58.2676 160.487 57.857 160.296 57.4652 160.071C55.7568 159.182 53.389 157.33 53.4606 154.909L53.4512 154.926Z" fill="#C2A44D"/>
<path fill-rule="evenodd" clip-rule="evenodd" d="M118.935 48.0938C119.347 48.2275 119.713 48.4743 119.991 48.806C120.828 49.7669 121.361 51.5821 119.457 53.5228C120.204 53.7891 120.513 53.8748 121.165 53.7891C120.507 54.5729 119.012 56.2461 118.923 57.7057C118.834 58.8978 119.581 59.2545 119.581 59.2545C119.581 59.2545 118.442 60.571 118.389 62.7745C118.927 62.1678 119.516 61.608 120.149 61.1013C121.467 60.0512 123.282 58.8591 124.511 58.1117C124.494 58.425 124.536 58.7386 124.635 59.0363C124.635 59.0363 126.93 57.1496 128.859 57.9873C129.731 58.3792 129.339 59.6065 129.339 59.6065C129.339 59.6065 130.532 59.1618 131.369 59.9984C132.205 60.835 133.388 62.9928 133.995 63.8293C134.261 64.2212 134.956 64.9687 135.667 66.1256C136.638 67.7453 137.449 69.4559 138.088 71.2331C138.124 70.3073 138.355 68.8665 140.99 69.7735C143.624 70.6992 146.614 72.6399 149.124 76.4615C151.633 80.283 152.255 84.5973 153.519 86.24C154.8 87.824 156.118 90.4581 156.207 91.5623C156.296 92.6664 155.815 96.2251 158.449 105.855C159.197 102.865 160.336 96.2251 160.336 96.2251L160.959 90.369L161.671 72.2492L142.75 56.53L127.959 45.7964L118.329 46.7221L118.934 48.0926L118.935 48.0938Z" fill="#CAA13E"/>
<path fill-rule="evenodd" clip-rule="evenodd" d="M154.089 75.0594C154.089 75.0594 153.822 73.2994 149.372 70.3074C144.922 67.3529 141.451 67.3529 138.248 64.8432C135.791 62.8673 133.228 58.3277 131.56 56.8328C129.94 55.3556 129.673 51.0835 129.673 51.0835L135.137 46.5075L143.264 34.7613L150.134 27.1968L153.426 31.7728L158.002 37.1478L160.547 47.9343L161.473 63.7226L154.081 75.0606L154.089 75.0594Z" fill="#B59544"/>
<path fill-rule="evenodd" clip-rule="evenodd" d="M159.59 93.9842C159.724 91.5898 159.429 89.1908 158.717 86.9008C157.543 83.2517 154.98 76.7725 153.789 74.3461C153.308 71.658 153.664 71.4444 154.181 71.1417C154.697 70.839 156.638 69.7337 157.701 65.8559C158.764 61.978 162.062 61.8513 162.062 61.8513L164.091 60.3564L167.171 68.0629L169.858 75.0231L170.694 80.3454L171.317 84.8838L169.858 94.4781L162.65 100.992L159.589 93.9842H159.59Z" fill="#C89D3A"/>
<path fill-rule="evenodd" clip-rule="evenodd" d="M59.0058 200.92V200.723C59.1555 200.63 59.2878 200.511 59.3965 200.371C59.5209 200.193 59.6112 199.979 59.6992 199.927C59.8776 199.837 60.7141 199.575 61.1588 199.659C61.6035 199.744 62.7792 200.228 63.4022 200.193C64.6835 200.158 66.1784 199.178 68.5461 199.624C72.106 200.282 72.9426 202.703 75.0077 204.073C76.4157 205.035 77.873 204.607 78.0865 204.607H78.5664C78.6556 204.607 79.3138 203.86 79.6705 203.896C80.3827 203.931 80.4531 204.519 80.8978 204.554C81.9479 204.679 83.9778 204.02 84.9928 204.288C85.2937 204.382 85.5674 204.548 85.7905 204.771C86.0136 204.994 86.1795 205.267 86.274 205.568C86.4876 206.226 86.3092 207.063 85.793 207.544C84.69 208.558 83.6399 209.52 83.4264 210.36C83.698 210.567 83.9588 210.788 84.2078 211.022C75.401 208.778 66.9276 205.385 59.0058 200.931V200.92Z" fill="#CEB052"/>
<path fill-rule="evenodd" clip-rule="evenodd" d="M153.786 165.357C153.786 165.357 156.563 161.655 157.525 159.821C158.486 157.931 154.481 133.995 154.481 133.995L162.527 107.635L162.312 99.0553C162.312 99.0553 162.704 91.1341 163.63 87.6986C164.734 89.6745 168.169 92.0599 168.917 93.3235C169.269 90.9018 170.464 85.7943 170.287 80.3477C170.945 81.3614 172.529 91.5612 172.529 91.5612L174.113 98.4311L176.178 105.729L178.475 113.437L179.845 118.759L180.628 120.04L181.287 122.283L181.91 124.704L183.708 130.382L184.764 135.045L185.6 143.5C185.782 144.147 185.913 144.808 185.992 145.476C186.027 146.402 185.868 146.936 185.868 147.096C185.868 147.257 186.17 149.125 186.046 150.532C185.868 151.94 185.868 153.042 184.764 154.052C183.66 155.062 182.966 161.1 182.966 161.1L180.99 159.784C180.99 159.784 181.382 157.985 180.456 156.348C179.531 154.711 177.733 154.372 176.718 154.64C175.704 154.853 173.676 155.172 173.016 155.743C172.393 156.312 170.863 158.074 169.456 158.875C167.696 159.931 164.829 160.015 163.299 160.37C161.75 160.722 160.041 161.778 158.243 163.004C156.832 163.917 155.343 164.703 153.793 165.351L153.786 165.357Z" fill="#CCA847"/>
<path fill-rule="evenodd" clip-rule="evenodd" d="M153.786 204.248C153.786 204.248 153.904 204.324 154.13 204.448C166.776 198.524 178.106 190.125 187.453 179.75C187.351 176.147 187.218 172.455 187.073 171.087C186.771 168.185 186.985 165.231 186.896 163.522C186.806 161.814 185.845 154.854 185.401 153.056C184.92 151.259 183.993 150.368 183.852 150.368C183.728 150.405 182.979 153.751 182.979 154.592C182.979 155.433 182.801 157.459 182.801 157.975C182.676 157.939 182.623 157.623 182.623 157.494C182.445 157.939 182.232 158.722 182.142 158.811C182.053 158.901 182.267 158.064 182.142 157.886C182.018 157.707 181.79 157.797 181.84 157.352C181.861 157.088 181.902 156.826 181.964 156.569C181.964 156.569 181.43 157.352 181.039 159.345C180.648 161.321 180.648 161.375 180.506 161.552C180.381 161.767 179.669 162.478 179.633 162.746C179.597 163.226 180.292 163.707 180.345 163.973C180.38 164.419 179.722 166.483 179.508 167.493C179.295 168.503 179.384 170.483 179.156 171.498C178.978 172.423 178.804 172.957 178.195 173.348C178.64 173.437 179.067 173.561 179.067 173.561C179.067 173.561 179.69 176.196 178.106 178.439C177.537 179.222 177.395 179.578 176.79 180.291C175.596 181.607 174.671 183.107 174.581 184.082C174.52 183.794 174.478 183.502 174.457 183.209C174.457 183.209 172.607 185.363 171.823 186.591C170.809 188.175 169.402 188.086 169.007 188.478C168.612 188.87 168.526 189.581 168.655 190.151C168.303 190.239 167.641 190.365 167.195 191.735C166.982 192.446 166.448 193.143 165.611 193.622C164.775 194.101 163.76 194.245 163.244 194.369C163.688 194.494 163.867 194.494 164.08 194.636C163.814 195.08 162.585 195.775 161.215 196.666C159.844 197.502 159.185 198.729 158.847 199.531C158.495 200.278 157.975 200.759 157.139 200.848C157.491 201.062 158.012 201.56 158.278 201.72C157.886 201.809 157.222 201.809 156.036 202.824C154.79 203.857 154.363 204.16 153.792 204.249L153.786 204.248Z" fill="#C39D3C"/>
<path fill-rule="evenodd" clip-rule="evenodd" d="M129.02 212.497C129.701 212.019 130.439 211.628 131.217 211.332C133.993 210.229 136.93 210.015 138.087 209.66C139.191 209.308 140.063 208.822 141.434 208.556C141.397 208.868 141.367 209.161 141.334 209.438C137.294 210.708 133.179 211.73 129.014 212.497H129.02Z" fill="#D2BA6B"/>
<path fill-rule="evenodd" clip-rule="evenodd" d="M180.224 139.476C180.224 139.476 179.655 142.555 178.64 144.496C177.625 146.437 176.528 149.124 176.528 149.124C176.535 148.518 176.606 147.915 176.742 147.325C175.46 148.072 172.345 149.871 171.462 150.671C170.625 151.419 169.218 152.736 168.863 153.359C169.699 150.903 170.571 148.696 170.714 147.682C169.433 148.607 163.451 153.538 160.337 156.795L150.636 164.644C149.517 165.248 148.364 165.788 147.183 166.261C145.511 166.972 143.535 167.578 142.075 168.148C142.467 167.098 143.089 166.171 143.962 165.282C144.888 164.41 147.664 161.401 148.091 160.002C148.483 158.542 148.572 157.67 148.056 156.442C147.575 156.566 146.472 156.62 145.724 156.834C144.977 157.047 144.176 157.847 144.176 157.847C144.176 157.847 144.745 154.59 145.973 151.511C145.047 151.546 143.463 151.813 143.463 151.813C143.463 151.813 145.671 148.111 149.447 145.531C148.291 145.777 147.159 146.128 146.066 146.58C143.859 147.506 141.438 148.876 139.641 149.623C140.655 148.215 147.774 138.054 152.011 128.584C156.235 119.133 157.813 116.713 158.739 111.64C159.219 109.13 159.091 105.422 159.219 102.1C159.343 98.8063 159.753 95.8519 159.487 93.876C160.589 95.2464 164.72 99.109 164.862 107.742C164.986 116.375 160.911 128.034 156.585 134.316C157.641 134.619 160.377 134.975 163.188 130.092C166 125.209 165.966 123.845 166.981 121.815C167.105 122.83 167.069 123.186 167.069 123.186C167.069 123.186 171.164 118.22 173.103 111.972C173.495 114.66 174.652 117.028 172.836 121.959C171.216 126.408 169.098 127.494 169.098 127.494C169.098 127.494 170.149 127.316 171.696 126.39C171.964 127.048 171.911 127.798 172.356 128.063C172.8 128.329 173.406 128.776 173.495 129.203C173.975 128.49 174.722 127.582 174.955 126.906C174.776 128.314 174.652 134.471 175.307 137.604C176.678 137.479 178.084 137.39 179.045 134.916C178.387 137.337 178.387 138.796 178.831 140.861C179.561 140.363 180.219 139.473 180.219 139.473L180.224 139.476Z" fill="#C0993A"/>
<path fill-rule="evenodd" clip-rule="evenodd" d="M133.976 41.3659C133.976 41.3659 132.605 41.935 130.274 41.935C128.245 41.935 128.814 41.1523 125.646 41.1523C120.77 41.1523 103.736 43.9683 100.745 43.9285C98.8041 43.8933 107.294 44.765 107.294 44.765L128.993 45.0678L133.353 44.7158L134.973 41.4187L133.976 41.3659Z" fill="#A88F33"/>
<path fill-rule="evenodd" clip-rule="evenodd" d="M77.7122 83.7822C77.7122 83.7822 74.9349 85.9001 73.7604 87.5204C72.5859 89.1408 71.9629 90.2074 70.6276 91.525C70.9411 91.537 71.2542 91.4949 71.5534 91.4007C71.5534 91.4007 71.5534 91.7527 71.3398 91.8454C71.5244 91.8247 71.7112 91.8456 71.8866 91.9065C72.062 91.9674 72.2216 92.0668 72.3536 92.1974C71.9617 92.4109 70.894 93.4798 71.7306 94.7435C72.3536 95.7044 73.6713 95.7924 73.6713 95.7924C73.6713 95.7924 73.3685 96.6654 74.6322 96.5762C77.3555 96.4519 80.3991 95.2586 81.8048 95.5613C83.2128 95.9133 84.013 96.0424 85.0092 97.7695C86.0652 99.4779 86.9851 99.7454 86.9851 99.7454C86.9851 99.7454 87.6081 98.1602 87.4661 95.7936C87.977 94.5179 88.2601 93.1625 88.3027 91.789L87.377 84.972L83.3372 79.8633L78.1041 82.7649L77.7122 83.7787V83.7822Z" fill="#E3C571"/>
<path fill-rule="evenodd" clip-rule="evenodd" d="M82.6778 82.7668C82.6778 82.7668 83.0697 83.6925 84.7076 83.7805C84.5293 84.1724 84.5293 84.2264 84.5833 84.5279C84.6185 84.8307 84.6713 85.2754 84.6713 85.2754C84.8516 85.1881 85.0146 85.0688 85.1523 84.9234C85.2415 85.3152 85.0631 85.9371 85.1523 86.383C85.2073 86.6541 85.2969 86.9172 85.4187 87.1656C85.4446 87.1047 85.4744 87.0455 85.5078 86.9884C85.543 86.8992 85.8598 87.9494 86.7363 88.7484C86.7356 88.6255 86.7658 88.5045 86.8243 88.3964C86.8378 88.6196 86.9116 88.835 87.0379 89.0195C86.9723 88.9882 86.9124 88.9462 86.8607 88.8951C86.8607 88.8951 86.9487 91.7111 87.4298 93.1672C87.5102 93.0731 87.5816 92.9718 87.6433 92.8645C87.6433 92.7765 87.6081 93.6483 87.5189 94.2725C87.3946 94.8955 87.4837 95.7673 87.4837 95.7673C87.8046 95.5147 88.1573 95.3052 88.5327 95.1443C89.0666 94.9295 89.9407 94.2713 90.4734 92.8117C90.7824 91.985 91.0207 91.1337 91.1856 90.2667C91.3577 90.598 91.4765 90.9544 91.5376 91.3227C91.574 91.7674 92.4106 91.5363 92.4106 91.5363L92.5889 89.5956L93.6449 85.1991L94.6059 82.4758L99.2335 75.268L107.595 68.8287L114.893 70.5019L121.05 62.136L110.442 55.7637L100.403 56.8138L91.2924 69.433L83.9954 80.8789L82.6778 82.7656V82.7668Z" fill="#D8B65B"/>
<path fill-rule="evenodd" clip-rule="evenodd" d="M135.257 64.505C135.257 64.505 134.634 64.6293 132.837 65.561C131.039 66.4926 129.793 66.7883 129.098 68.1587C128.404 69.5292 128.351 70.6157 128.351 70.6157C128.351 70.6157 129.579 70.0818 130.292 69.9035C131.039 69.7263 131.876 69.7791 131.786 70.0818C131.701 70.2894 131.582 70.4816 131.434 70.6509C131.434 70.6509 132.842 70.6157 132.805 71.3103C132.767 72.0049 132.539 72.7699 132.272 73.1078C132.005 73.4598 130.902 73.9808 130.777 74.3903C130.475 75.2269 130.902 75.2621 130.741 75.9379C130.617 76.5973 130.03 77.8786 128.107 80.1209C126.131 82.3643 125.291 83.9483 125.291 83.9483C125.291 83.9483 124.33 82.1507 123.831 80.6019C123.479 80.7791 121.589 81.8292 121.589 81.8292L117.21 66.5759L117.298 65.561C117.298 65.561 117.69 65.0811 117.779 64.1905C117.121 63.977 117.032 63.7986 116.159 62.9632C115.286 62.1278 114.575 61.1117 113.116 60.4171C112.903 60.0252 112.635 59.4925 111.568 59.2778C110.5 59.063 109.859 58.887 109.859 58.887C109.859 58.887 110.428 58.6723 110.696 58.2276C110.036 58.3168 109.504 58.5304 108.062 58.4952C106.602 58.4588 106.441 58.406 105.641 58.5304C104.841 58.6547 103.881 59.0114 103.523 57.7829C103.131 57.4802 102.295 57.7477 101.582 58.7967C100.87 59.8457 100.622 60.6834 99.2511 61.0929C99.1547 61.697 98.9432 62.277 98.628 62.8013C98.2362 63.4607 97.6131 64.1189 96.7765 65.0975C95.4589 66.6463 95.6724 69.1913 93.5722 71.132C91.4543 73.0715 93.9241 65.7557 93.9241 65.7557L97.3057 57.6597L106.935 48.2437L121.887 47.23L123.347 54.974L130.645 57.4837L135.255 64.5144L135.257 64.505Z" fill="#D3AE4D"/>
<path fill-rule="evenodd" clip-rule="evenodd" d="M137.625 66.2135L131.342 57.1542L126.945 53.7715C126.945 53.7715 123.812 48.0057 123.599 47.8274C123.421 47.703 120.466 47.3827 118.579 47.2583L118.931 48.1301C119.343 48.2639 119.709 48.5106 119.987 48.8423C120.824 49.8033 121.358 51.6184 119.454 53.5591C120.201 53.8254 120.51 53.9111 121.162 53.8254C120.504 54.6092 119.009 56.2824 118.92 57.742C118.831 58.9341 119.578 59.2897 119.578 59.2897C119.578 59.2897 118.439 60.6073 118.386 62.8097C118.924 62.2029 119.513 61.6432 120.146 61.1365C121.463 60.0805 123.279 58.8931 124.507 58.1457C124.49 58.4593 124.533 58.7733 124.631 59.0714C124.631 59.0714 126.926 57.1847 128.855 58.0213C129.727 58.4132 129.335 59.6417 129.335 59.6417C129.335 59.6417 130.529 59.197 131.365 60.0336C132.202 60.8701 133.394 63.0232 133.999 63.861C134.266 64.2529 134.96 65.0003 135.671 66.156C136.643 67.776 137.454 69.487 138.093 71.2647C138.128 70.5525 138.271 69.5563 139.501 69.5563L137.632 66.21L137.625 66.2135Z" fill="#CAA13E"/>
<path fill-rule="evenodd" clip-rule="evenodd" d="M43.4309 91.9513C43.4309 91.9513 42.9862 90.8472 43.4309 88.6942C43.8756 86.5411 44.5702 85.5262 44.8014 82.3582C45.0325 79.1902 47.0976 75.2384 47.0976 75.2384L52.8106 72.6406L56.8515 73.7436L58.0436 79.155L52.9349 81.971C52.9349 81.971 52.6686 83.1631 51.2266 84.124C49.7845 85.085 47.791 85.8324 47.3111 86.8121C47.0243 87.4121 46.8149 88.0461 46.6881 88.6989C46.6881 88.6989 45.2285 88.3961 44.3567 89.3571C43.4309 90.3368 43.4661 91.2086 43.4309 91.956V91.9513Z" fill="#F4EFC8"/>
<path fill-rule="evenodd" clip-rule="evenodd" d="M54.9648 90.5098C54.9648 90.5098 54.4837 90.8125 54.1282 91.5658C53.7762 90.9967 52.9349 87.614 52.8997 84.5704C52.8645 81.5267 52.6827 80.7723 53.3867 79.7233C54.0907 78.6744 56.8515 77.5691 56.4596 75.68C56.0677 73.8825 54.4298 73.135 52.4187 73.6513C51.0107 74.0033 49.9629 76.9977 48.5033 78.4925C47.3991 79.6318 46.0827 79.4534 45.7271 80.0765C45.2461 80.9131 45.6908 81.7497 45.5488 82.2835C45.5124 82.4619 45.0677 83.4228 44.2663 84.5797C42.6471 86.9111 39.9062 90.2047 39.5495 93.1591C39.6739 91.486 39.5859 91.4508 40.0306 89.5993L39.7631 89.1546L41.5231 83.3876L42.6624 78.6356L45.2085 70.6781L49.693 62.5445L54.0543 57.667L58.5927 57.9697L59.1266 64.7868L61.7255 77.5855L67.1898 84.3134L58.432 90.207L54.9613 90.5098H54.9648Z" fill="#EBCC73"/>
<path fill-rule="evenodd" clip-rule="evenodd" d="M57.6881 92.9281C57.6881 92.9281 56.9407 93.1064 56.6732 92.9645C56.4057 92.8225 56.1405 92.6618 56.2285 92.4834C56.3165 92.3051 56.7976 92.0035 56.7976 91.8604C56.8074 91.731 56.7665 91.6029 56.6835 91.5032C56.6005 91.4036 56.4819 91.3402 56.3529 91.3265C55.9434 91.2737 55.819 91.54 55.819 91.54C55.819 91.54 55.4271 91.2385 55.108 91.188C55.2968 91.1649 55.4868 91.1528 55.677 91.1517C55.1851 90.9289 54.6634 90.7791 54.1282 90.707C54.5729 90.4406 55.4459 89.6568 56.0149 89.6568C56.584 89.6568 56.9407 89.5688 56.8515 89.2661C56.7624 88.9634 56.3177 88.5187 55.8378 88.3404C56.0149 88.1268 56.1405 87.8065 55.7134 86.9324C55.2675 86.0606 55.4459 85.4727 55.589 85.2604C55.7134 84.9928 56.1581 84.513 56.3716 84.2102C56.5852 83.9075 56.7635 83.498 57.119 83.2845C57.2974 83.1601 57.8665 82.9325 58.4367 82.7154C59.0597 82.5019 59.576 82.2343 59.9315 82.5019C60.3234 82.7682 60.1451 83.1249 60.1451 83.1249C60.1451 83.1249 61.3735 82.679 62.4765 83.2493C63.5806 83.782 66.2687 84.1211 66.2687 84.1211L67.232 86.0617L60.8596 91.526L58.2255 92.8436L57.6916 92.9316L57.6881 92.9281Z" fill="#E5C66B"/>
<path fill-rule="evenodd" clip-rule="evenodd" d="M66.5339 83.9954C66.5339 83.9954 64.558 85.3131 64.1133 85.793C64.3796 85.8293 64.8243 86.0077 64.646 86.274C64.4324 86.5404 63.1512 87.4661 62.4389 88.3391C61.6915 89.2109 60.9793 90.315 60.7306 90.8489C60.4642 91.3288 58.4343 92.7356 57.7409 92.9128C59.2005 92.9128 62.1374 91.1152 63.2403 91.1152C63.2051 91.6491 63.543 92.2545 64.1661 92.3073C64.7891 92.3601 66.5867 92.6992 69.0073 91.2044C71.4278 89.7448 70.6276 88.6582 71.6414 87.9472C73.5821 86.6648 74.3647 85.5254 75.4324 84.8144C76.5002 84.1034 77.0528 83.9414 77.0528 83.9414C77.0528 83.9414 77.088 83.4076 77.4048 83.4616C77.4915 83.4715 77.5739 83.505 77.6429 83.5583C77.712 83.6117 77.7652 83.6829 77.7967 83.7643C77.7967 83.7643 79.6482 82.4466 82.0207 82.0911C81.9653 82.0664 81.9211 82.0221 81.8963 81.9667C81.8963 81.9667 82.0735 81.8776 82.1099 81.7884C82.1099 81.7884 82.2342 81.61 82.3234 81.6992C82.4126 81.7884 82.537 82.4466 82.7153 82.7141C83.1072 82.5358 83.8546 80.8626 83.8546 80.8626L85.6533 75.7187V71.0195L84.2453 71.287L73.6853 75.7715L67.2766 82.4114L66.5292 83.9954H66.5339Z" fill="#E6BD62"/>
<path fill-rule="evenodd" clip-rule="evenodd" d="M96.9349 60.9451C97.5061 60.8065 98.0537 60.5843 98.56 60.2857C98.3465 60.8559 98.3465 61.479 97.4207 62.8318C96.4949 64.1847 96.4597 64.3806 95.7123 65.7863C94.9649 67.2459 94.8757 69.3462 94.1635 70.2708C94.4828 70.1157 94.8252 70.0138 95.1773 69.9692C95.1773 69.9692 94.4663 70.5923 94.1635 71.2505C93.8608 71.9087 93.3269 73.2792 92.0105 74.117C90.694 74.9547 89.0196 75.4874 87.2221 77.4633C85.4234 79.4028 83.573 81.8598 82.6461 82.7433C83.1272 81.9067 83.7854 80.2335 83.9637 79.1306C84.1421 78.0277 83.9274 76.7089 84.2301 75.2504C84.5328 73.7919 84.5328 72.7406 85.9901 70.1945C87.4474 67.6484 89.9419 58.8026 89.9419 58.8026L95.3169 57.0942L96.9373 60.9393L96.9349 60.9451Z" fill="#B6933F"/>
<path fill-rule="evenodd" clip-rule="evenodd" d="M93.0547 57.6882C93.0547 57.6882 91.4355 60.0196 90.9908 62.0847C90.5461 64.1497 90.9545 63.9714 90.6881 64.9863C90.5288 65.6052 90.5288 66.2542 90.6881 66.8731C91.2489 65.9696 92.0167 65.2127 92.928 64.6648C94.4592 63.7403 95.7053 63.0808 96.448 62.2982C97.1954 61.4616 97.8185 60.0912 99.4377 59.0411C98.7794 58.9519 97.8537 58.6492 97.6777 58.6891C98.3371 57.9416 100.312 56.8023 102.305 55.4319C104.281 54.0239 104.157 53.456 107.361 52.0503C106.311 52.2287 105.812 51.9612 104.939 52.0503C105.291 51.3029 106.523 50.9462 107.755 49.7189C108.987 48.4916 106.973 46.6753 106.973 46.6753L97.5861 52.3531L93.0477 57.6929L93.0547 57.6882Z" fill="#C49937"/>
<path fill-rule="evenodd" clip-rule="evenodd" d="M67.584 53.4512L67.7975 51.7428L70.4857 47.4355L73.2981 39.871V29.5293L73.0846 23.5488L73.5293 19.6322L73.8672 18.3873L74.2239 17.9062L76.5189 19.0984L79.6881 23.4057L79.9908 31.7187L76.9108 44.8366L68.1179 54.4309L67.584 53.4512Z" fill="#DFC068"/>
<path fill-rule="evenodd" clip-rule="evenodd" d="M74.5794 17.425C74.5794 17.425 73.1714 17.4613 72.871 23.3175C72.5707 29.1736 72.4252 32.2524 72.2116 35.154C71.9981 38.0557 71.5006 39.8169 71.2507 41.5264C71.0007 43.236 70.8588 45.5662 70.0586 46.9906C69.7066 47.6489 68.9544 49.7139 67.1921 51.2627C65.2162 52.9711 62.2641 54.1644 61.8171 54.2536C61.0333 54.4307 57.0639 54.8226 55.4447 55.7132C54.8756 56.0159 53.8959 56.3714 52.8106 57.3864C50.6563 59.3259 47.791 62.7966 45.726 66.9795C42.558 73.2275 39.39 90.8662 39.39 90.8662L40.1022 89.6741C40.1022 89.6741 40.1914 88.0901 41.7754 85.3129C43.3242 82.5368 42.8795 79.4216 45.0325 74.0993C45.8691 72.0706 46.9192 69.4365 48.2005 67.1931C50.2304 63.544 52.6862 60.4112 55.1607 58.7028C59.2005 55.9267 63.651 55.3213 63.651 55.3213L68.4394 52.1533C68.4394 52.1533 69.2759 50.5341 70.3801 48.6826C71.9277 46.0848 73.9001 43.1832 74.3307 38.965C74.9901 32.717 73.4049 28.6233 73.4941 24.9214C73.5833 21.2195 73.6185 18.4962 74.367 17.8368C75.1156 17.1774 74.5806 17.4273 74.5806 17.4273L74.5794 17.425Z" fill="#A88F33"/>
<path fill-rule="evenodd" clip-rule="evenodd" d="M74.5794 45.3707C74.5794 45.3707 76.6914 40.1728 77.6582 35.5628C77.8366 34.637 78.1921 33.7124 78.2813 32.965C78.726 28.6037 78.8503 26.8062 78.2813 24.4208C77.8366 22.6608 76.1282 21.0744 75.2376 19.8448C74.3659 18.5623 73.9564 18.0848 74.1347 17.8149C74.3131 17.5451 75.0065 17.1039 75.6823 17.1567C76.4008 17.1776 77.1074 17.3444 77.7593 17.647C78.4113 17.9495 78.9948 18.3815 79.4746 18.9167C80.845 20.5007 81.9303 25.8769 81.9303 25.8769L83.072 32.9709L85.9736 41.9058L74.5818 45.3777L74.5794 45.3707Z" fill="#C99E3D"/>
<path fill-rule="evenodd" clip-rule="evenodd" d="M94.4252 39.9602C94.4252 39.9602 94.0333 40.1373 93.3222 39.9602C93.3526 40.2507 93.3021 40.544 93.1765 40.8078C93.0508 41.0715 92.8548 41.2955 92.61 41.455C91.8626 41.1523 84.866 41.7577 84.866 41.7577C84.866 41.7577 81.6089 41.1875 80.5939 36.8802C79.8829 34.0137 81.1278 30.0631 80.7183 27.4642C80.0953 23.6367 79.2235 22.8882 79.1343 21.6972C79.0451 20.5063 78.9559 20.2024 78.9559 19.455C78.564 19.3658 78.3329 19.2414 77.9422 19.2414C77.853 18.8894 78.0302 18.582 77.6395 17.959C77.853 18.0482 79.3126 18.2265 81.021 19.8457C82.429 21.1634 82.429 21.6433 82.6414 21.9108C82.9077 22.1771 85.062 24.0228 85.9877 25.8626C86.9135 27.7023 88.711 33.569 89.1205 34.53C89.2449 34.9219 89.5124 35.3138 90.1765 36.2031C91.2091 37.4856 92.7215 39.6058 94.4299 39.9578L94.4252 39.9602Z" fill="#B58634"/>
<path fill-rule="evenodd" clip-rule="evenodd" d="M82.8925 22C83.9707 23.7418 84.9395 25.5491 85.793 27.4114C86.8431 29.778 87.4661 31.7187 88.7838 33.3027C88.0716 31.2388 86.8079 27.1803 86.0605 25.7382C85.2239 24.2129 83.5155 22.5702 82.8925 22.0012V22Z" fill="#A88F33"/>
<path fill-rule="evenodd" clip-rule="evenodd" d="M70.7884 51.2629C70.7884 51.2629 68.9908 51.7076 65.6445 53.4699C64.5404 54.039 63.4914 54.5189 62.4765 54.9648C59.84 56.1569 57.0123 57.2586 54.7689 57.8664C54.9472 58.08 55.0352 58.168 55.0352 58.168C55.0352 58.168 55.0352 59.0409 55.5163 59.5384C55.2499 59.8059 51.6889 62.2265 52.7402 70.3249C53.4512 70.0585 54.2878 69.7018 54.4122 69.7018C54.6269 69.7382 54.6797 70.3249 54.946 70.3249C55.2124 70.3249 56.0853 69.9729 57.0111 68.7761C56.9759 69.2571 56.442 74.0983 59.3073 77.3555C59.8412 76.7324 61.194 74.6674 61.194 74.6674L61.2292 74.0091C61.2292 74.0091 61.3536 71.7129 62.1022 69.6126C62.8508 67.5124 64.3092 65.9636 64.3092 65.9636L71.9253 55.088L70.786 51.2617L70.7884 51.2629Z" fill="#E6C367"/>
<path fill-rule="evenodd" clip-rule="evenodd" d="M63.6686 67.2318C63.3199 67.4782 62.9357 67.6701 62.5293 67.8009C62.4049 67.3562 62.2266 65.825 63.2767 64.3302C64.5052 62.5314 67.1921 60.2 67.9395 58.3462C68.4206 57.1529 68.207 54.1632 72.4791 50.3358C76.7513 46.5084 78.4233 45.1919 78.4233 45.1919L85.3295 41.7212L93.8197 45.0675L89.6016 61.5998L86.3268 69.3438L73.3028 66.888L63.6674 67.2318H63.6686Z" fill="#DCBA5A"/>
<path fill-rule="evenodd" clip-rule="evenodd" d="M68.64 62.7426L70.2604 60.7139V59.2719C70.2604 59.2719 72.0579 58.7908 73.9974 56.8149C75.937 54.839 78.6251 51.048 80.9929 51.2791C83.3606 51.5467 83.5918 56.423 83.681 57.7947C83.7701 59.1663 84.0729 62.2791 84.5527 63.9535C85.0866 65.6267 78.7858 71.9627 78.7858 71.9627L74.5067 75.2198L68.64 62.7426Z" fill="#E9CE77"/>
<path fill-rule="evenodd" clip-rule="evenodd" d="M73.6537 79.6338C73.6537 79.6338 74.9713 77.5688 74.0057 77.1241C74.5747 75.8428 75.6249 74.4899 75.6249 74.4899C75.6249 74.4899 76.3723 72.6396 78.7929 70.361C81.2134 68.0824 82.7094 66.5688 83.1013 65.0387C83.3429 64.0416 83.4744 63.0209 83.4932 61.9951C83.7549 62.2089 84.0348 62.3993 84.3298 62.5642C84.7217 62.7425 86.5721 64.2726 86.3057 67.3526C86.0394 70.4326 84.8977 71.7138 84.8977 71.7138C84.8977 71.7138 83.7948 72.8168 83.0122 73.387C82.1744 73.9561 81.8729 74.6143 80.466 74.6683C80.6106 74.5533 80.7732 74.4629 80.9471 74.4008C80.9471 74.4008 79.4875 74.2236 78.7037 74.9346C77.9199 75.6457 76.2538 77.8363 75.4172 78.4957C74.5806 79.0296 73.6572 79.635 73.6572 79.635L73.6537 79.6338Z" fill="#CDAE50"/>
<path fill-rule="evenodd" clip-rule="evenodd" d="M132.837 45.0136C130.734 44.2472 128.524 43.8148 126.287 43.7323C122.549 43.6079 117.085 43.8215 111.727 43.8567C105.96 43.8919 100.727 41.8808 93.4654 41.5253C92.2733 40.813 89.2414 37.6978 79.7773 44.3014C80.3463 44.2662 86.6483 42.8417 88.8366 45.5838C91.0436 48.3071 90.4206 52.9348 90.119 54.0377C89.5488 56.4946 87.6973 60.0721 86.951 62.5819C86.2048 65.0917 86.3808 66.4105 85.8469 68.1705C85.3131 69.9305 84.1386 70.8046 84.832 72.8333C85.7578 72.2642 86.24 72.2642 87.7865 68.7935C89.3329 65.3228 89.0149 62.8482 91.5787 59.9114C94.0884 56.9569 98.2667 52.916 99.8554 51.901C101.444 50.8861 114.059 44.3366 127.267 50.5846C130.452 50.2466 132.838 45.0124 132.838 45.0124L132.837 45.0136Z" fill="#D2A83E"/>
<path fill-rule="evenodd" clip-rule="evenodd" d="M85.0983 42.5922C85.0853 42.4584 85.0557 42.3268 85.0103 42.2003C84.8868 41.94 84.7246 41.6999 84.5293 41.4881C84.5293 41.4881 81.3965 40.919 79.8125 41.0962C77.0352 41.3989 74.5254 44.8344 73.3509 46.5968C72.1764 48.3591 70.7168 51.0813 69.1328 52.4881C69.1501 52.351 69.1186 52.2123 69.0436 52.0962C69.0436 52.0962 69.1328 52.2206 68.9556 52.3989C68.7784 52.5773 68.7773 52.6653 68.8664 52.7509L69.134 53.0173C69.222 53.0173 71.6789 51.9132 75.0253 48.7933C78.5852 45.5361 81.3085 43.8653 82.7329 43.2927C83.4925 42.9699 84.2866 42.7348 85.0995 42.5922H85.0983Z" fill="#C29637"/>
<path fill-rule="evenodd" clip-rule="evenodd" d="M145.866 29.209C145.866 29.209 145.296 29.92 144.584 30.7038C143 32.377 140.935 34.2625 139.173 36.2032C137.501 38.0547 135.614 39.4968 133.495 41.9174C131.376 44.3379 128.919 47.0249 128.297 47.8087C127.728 48.5924 127.283 49.8737 127.283 50.532C126.98 50.3184 126.625 50.0873 126.625 50.0873C126.775 50.3667 126.954 50.6295 127.159 50.8711C127.604 51.4941 128.297 52.2791 128.654 52.7578C129.091 53.3672 129.405 54.0564 129.578 54.7865C129.792 54.8217 131.162 55.0892 132.872 52.2767C134.581 49.4642 136.822 46.3854 136.822 46.3854L140.382 41.0984L142.626 36.6139L145.442 31.5944L145.87 29.209H145.866Z" fill="#AC8132"/>
<path fill-rule="evenodd" clip-rule="evenodd" d="M149.516 25.6138C149.516 25.6138 147.361 27.3738 146.525 28.4298C145.688 29.4858 143.709 32.2572 143.709 32.2572L144.421 32.168L148.035 28.9648L149.443 26.455L149.514 25.6185L149.516 25.6138Z" fill="#A88F33"/>
<path fill-rule="evenodd" clip-rule="evenodd" d="M148.856 167.065C148.856 167.065 148.821 165.605 149.64 164.734C150.476 163.861 152.594 162.579 154.659 157.773C156.724 152.967 156.954 151.882 156.954 151.882C156.954 151.882 153.253 155.05 150.97 155.797C151.504 154.693 151.807 153.911 152.075 153.341C151.772 153.074 150.491 152.771 150.366 152.629C151.077 151.917 151.469 150.173 152.911 149.016C154.763 147.608 158.144 145.188 160.772 143.032C163.401 140.875 168.568 135.859 169.228 134.399C169.619 134.968 169.707 135.324 169.707 135.324C169.707 135.324 167.11 138.707 165.757 140.86C164.564 142.711 164.653 143.761 164.653 143.761L167.11 142.705C167.11 142.705 167.821 145.34 164.6 149.345C166.008 148.811 166.576 149.132 167.376 148.686C166.058 149.524 164.243 150.663 162.535 153.795C160.862 156.927 158.583 160.576 154.739 162.854C151.001 165.257 148.847 167.054 148.847 167.054L148.856 167.065Z" fill="#A67A2E"/>
<path fill-rule="evenodd" clip-rule="evenodd" d="M139.209 46.8663C139.209 46.8663 137.749 49.9087 137.536 52.2765C137.501 52.8468 137.357 53.2915 137.357 53.9497C137.322 56.0676 137.482 58.4354 137.005 59.5383C136.827 59.0936 136.738 58.7909 136.56 58.6137C136.293 59.3611 135.812 61.6925 135.42 62.5643C135.243 61.9952 134.851 60.0194 134.888 57.6879C134.924 55.3565 134.976 54.9107 134.976 54.4308C134.888 55.1418 134.407 56.1039 134.228 56.673C133.962 56.1931 133.659 55.5701 133.302 55.0538C133.089 55.4058 132.823 55.9256 132.591 56.1931C132.555 55.9796 132.467 55.4093 132.413 54.6091C132.378 53.6834 132.324 52.4912 132.378 52.2413C132.466 51.7614 133.214 49.8747 134.798 48.1476C136.685 46.0825 138.626 42.1143 139.195 40.8858C139.764 39.6573 142.185 34.5498 142.185 34.5498H144.036L141.348 40.6723C141.348 40.6723 139.729 44.0186 138.892 45.2483C138.056 46.4779 136.293 50.0014 135.509 51.3719C136.079 50.6245 136.56 50.2326 137.13 49.5204C137.681 49.0217 139.211 46.8686 139.211 46.8686L139.209 46.8663Z" fill="#8C6228"/>
<path fill-rule="evenodd" clip-rule="evenodd" d="M149.551 25.3813C149.248 26.3122 148.77 27.1765 148.143 27.9275C147.039 29.2451 144.671 31.0063 143.515 32.412C142.459 33.7824 140.347 37.5207 141.307 41.9523C141.659 40.9914 142.322 39.0871 144.084 36.9328C145.846 34.7786 147.733 32.3052 148.66 30.3833C149.585 28.4426 149.709 26.9125 149.709 26.9125L150.061 26.4679L149.848 25.4529L149.545 25.3813H149.551Z" fill="#CBA94C"/>
<path fill-rule="evenodd" clip-rule="evenodd" d="M185.594 143.444C185.594 143.444 184.882 141.505 184.669 139.743C184.455 137.98 185.021 137.631 184.366 135.614C183.974 134.385 183.263 134.558 183.085 134.385C182.906 134.213 182.782 132.356 182.817 131.342C182.852 130.327 182.782 129.01 182.604 128.44C182.337 128.226 182.159 128.048 181.767 126.731C181.322 125.414 181.109 124.756 180.895 124.365C180.682 123.974 180.057 123.617 180.057 123.226C180.057 122.442 180.77 122.033 180.77 121.818C180.734 121.373 180.201 121.73 180.057 121.604C179.88 121.39 180.503 120.109 180.272 119.931C180.183 119.843 179.56 120.59 179.399 120.377C179.221 120.162 179.007 118.044 178.687 116.638C178.385 115.268 178.064 114.272 178.029 113.862C177.993 113.47 175.572 106.564 174.985 104.891C174.512 103.477 174.114 102.039 173.793 100.584C173.615 99.7472 173.49 98.0376 173.401 98.216C173.312 98.3943 173.366 99.2661 173.223 99.2309C173.098 99.1945 172.654 96.1521 172.512 95.671C172.387 95.1899 171.639 93.559 171.456 92.3786C171.277 91.1854 170.887 88.0702 170.619 85.9523C170.352 83.8344 170.227 82.9626 170.227 82.4323C170.271 81.1351 170.199 79.8366 170.014 78.5521C169.662 76.3087 168.958 73.5854 168.34 72.0025C167.148 69.0117 163.979 61.3581 163.412 59.4537C163.412 58.9727 164.036 59.2402 164.036 59.2402C164.036 59.2402 165.583 63.1204 166.722 66.1101C167.827 69.1009 168.877 71.735 169.144 72.0025C169.358 72.2689 171.031 75.2057 171.778 80.0117C172.526 84.8177 172.792 89.2494 173.238 92.2038C173.452 93.6118 173.63 95.1055 174.075 96.6003C174.554 98.2207 175.302 99.8938 176.282 102.456C177.118 104.611 177.741 106.408 178.079 107.957C178.471 109.933 178.471 111.428 178.702 112.407C178.917 113.244 179.236 114.916 179.985 117.335C180.733 119.755 181.835 122.871 182.582 124.811C184.043 128.691 184.694 131.931 184.915 133.658C185.11 135.438 185.769 141.596 185.591 143.447L185.594 143.444Z" fill="#A88F33"/>
<path fill-rule="evenodd" clip-rule="evenodd" d="M149.64 25.1682L149.551 25.3817C149.551 25.3817 149.817 25.4709 149.764 25.8276C149.768 26.3156 149.738 26.8033 149.675 27.2872C149.587 27.9103 149.409 28.3902 149.374 28.7821C149.374 29.6186 149.498 30.5796 148.318 32.965C147.966 33.6232 147.748 34.1923 147.57 34.5842C147.125 35.5451 147.036 35.6883 146.644 36.133C147.267 35.781 149.511 34.373 150.649 34.5842C149.866 35.0289 148.673 35.9018 147.926 37.0411C148.104 37.0763 148.851 37.2195 150.038 37.0411C152.014 36.7384 154.221 36.0262 156.16 36.1682C158.279 36.2926 157.443 33.6232 157.443 33.6232L154.997 28.2482L150.37 24.9922L149.64 25.1694V25.1682Z" fill="#BE9C44"/>
<path fill-rule="evenodd" clip-rule="evenodd" d="M161.708 65.431C161.708 65.431 159.643 63.366 158.806 56.279C157.969 49.1592 158.148 38.679 158.148 38.679L156.475 34.5853C156.475 34.5853 156.123 31.862 155.246 30.8482C154.37 29.8344 152.648 28.1249 151.865 27.2883C151.081 26.4517 150.191 25.3124 149.657 25.1341C149.924 24.6894 151.117 22.1796 155.691 22.1444C160.264 22.1092 161.675 24.6542 162.152 25.5799C162.63 26.5057 164.786 30.5079 165.587 38.1346C166.334 45.7519 166.37 46.3221 166.246 48.9562C166.157 50.4159 165.676 53.7974 164.838 57.4101C164.073 60.4725 163.236 63.8904 161.705 65.4381L161.708 65.431Z" fill="#A17C34"/>
<path fill-rule="evenodd" clip-rule="evenodd" d="M155.232 71.501C155.92 71.5506 156.608 71.3955 157.208 71.0551C157.866 71.0199 160.252 71.3226 162.084 68.9912C162.209 69.5239 162.53 70.9671 161.692 72.2484C162.138 71.8025 162.796 71.6253 162.886 71.501C162.921 72.1592 163.544 74.1879 160.91 79.1183C161.621 78.3356 162.457 78.3708 163.205 78.2817C163.241 79.2074 163.739 82.3215 162.422 83.9958C161.55 85.1351 160.126 84.7784 160.126 84.7784C160.147 84.5297 160.147 84.2797 160.126 84.031C160.091 83.5499 159.912 83.07 160.038 82.7497C159.35 82.4353 158.723 82.0011 158.186 81.4673C156.638 80.0076 154.627 77.5167 154.485 75.6651C154.306 73.6001 156.158 73.1554 156.158 73.1554C156.003 73.0166 155.87 72.8543 155.766 72.6743C155.677 72.3728 155.588 71.8917 155.232 71.501Z" fill="#8C6228"/>
<path fill-rule="evenodd" clip-rule="evenodd" d="M141.504 49.1088C141.504 49.1088 141.415 48.9844 140.935 49.5535C141.024 48.9844 141.113 48.4494 141.148 47.9331C141.376 47.4552 141.67 47.0119 142.021 46.6166C141.754 47.1493 141.576 47.6304 141.576 47.6304C141.576 47.6304 142.235 46.4019 143.196 45.6545C143.854 45.1206 144.691 44.8719 145.046 44.3732C145.438 43.8394 145.349 43.7502 145.438 43.661C145.438 43.661 146.311 43.0919 147.646 41.4176C147.824 41.2041 148.091 40.9729 148.269 40.7594C148.571 40.635 149.283 40.3147 150.12 39.8864C150.993 39.4065 151.971 38.7483 152.577 38.4784C153.769 37.9445 155.034 37.9985 155.62 37.1607C156.065 37.0364 156.545 35.7011 156.457 34.563C157.115 34.8293 160.497 36.9296 161.655 41.522C162.491 44.7792 160.995 49.7987 160.372 52.2205C159.749 54.6422 159.661 56.4386 158.788 57.5415C157.684 59.0023 154.126 61.0615 153.253 62.0812C152.505 62.9178 150.263 65.0356 150.351 66.5657C150.44 67.705 151.846 68.3257 152.15 68.5415C152.454 68.7574 152.451 69.0226 153.021 68.8935C153.592 68.7645 153.804 68.5017 154.036 68.5017C154.303 68.5369 154.303 68.5908 154.427 68.5908C154.517 68.5881 154.607 68.576 154.695 68.5545C154.695 68.5545 154.605 70.1748 150.814 70.6665C150.547 70.7028 150.281 70.7908 149.941 70.8448C150.387 70.6313 150.654 70.6313 151.135 69.973C150.601 69.8838 149.07 69.7947 148.678 69.6703C148.802 69.4568 149.212 68.8865 149.55 68.6202C149.852 68.3538 149.514 68.2682 149.248 68.4066C148.789 68.7186 148.349 69.0571 147.93 69.4204C147.486 69.8123 147.094 70.3461 146.382 70.8284C146.168 70.1162 146.203 68.7633 147.041 67.7848C146.826 67.82 146.417 68.443 146.026 68.3186C145.955 67.6694 145.997 67.0128 146.15 66.3779C146.364 65.5765 147.521 64.1709 147.521 64.1709L153.109 54.1846L154.302 46.6202L141.504 49.1065V49.1088Z" fill="#92723A"/>
<path fill-rule="evenodd" clip-rule="evenodd" d="M141.202 49.5359C141.202 49.5359 140.9 49.7495 141.505 50.159C141.416 50.2833 141.202 50.728 140.935 51.0308C140.633 51.3828 140.312 51.601 140.188 51.9037C139.921 52.5267 139.708 52.9538 139.708 53.2214C139.708 53.4889 139.618 55.1973 138.871 56.3002C138.604 56.6921 138.301 57.3503 138.087 57.795C137.643 58.5776 137.251 59.203 137.161 59.555C136.984 60.1781 136.86 61.8864 136.86 61.8864C136.86 61.8864 137.252 61.4054 137.394 61.2282C137.179 61.6729 136.948 62.1528 136.61 62.5095C136.824 62.3311 137.447 61.8864 138.497 60.9607C139.956 59.7334 142.235 57.6683 145.012 56.0327C144.175 56.3354 143.463 56.3354 142.894 56.4246C143.339 55.9799 147.344 51.2807 149.444 50.836C149.571 50.6743 149.635 50.4713 149.622 50.2657L147.824 50.0886L144.175 50.8712L143.642 48.0552L141.202 49.5324V49.5359Z" fill="#B18E3E"/>
<path fill-rule="evenodd" clip-rule="evenodd" d="M147.006 65.5554C147.006 65.5554 146.525 66.0353 146.08 67.2286C145.738 66.8711 145.444 66.4699 145.207 66.0353C144.549 64.9324 143.535 63.5256 141.167 64.3269C141.132 63.5795 141.078 63.1876 141.167 62.6538C141.559 62.5658 142.751 61.6048 143.943 60.198C144.781 59.237 145.564 58.1329 146.098 56.7273C146.45 56.4597 147.059 56.015 147.858 55.4988C148.997 54.7162 150.367 53.6473 150.581 52.4552C150.047 52.6687 148.908 53.2026 147.198 53.1146C147.858 52.8118 148.871 52.4915 148.747 51.1739C149.015 50.9955 149.228 50.8712 149.228 50.8712C149.027 50.8042 148.816 50.774 148.605 50.782C148.569 50.6576 148.516 50.4804 148.213 50.5684C147.91 50.6564 147.861 50.6576 147.821 50.782C147.697 50.8184 147.287 50.782 146.985 50.9967C146.682 51.2114 145.845 51.9213 145.525 52.0457C145.649 51.8321 145.827 51.513 145.827 51.513C145.827 51.513 144.955 51.601 144.332 51.865C143.192 52.2569 141.876 52.9691 140.541 53.6625C140.665 53.449 140.719 53.3105 140.807 53.2706C140.895 53.2307 141.11 53.1826 141.11 53.1463C141.11 53.1099 141.022 52.7942 141.075 52.6664C141.474 51.8207 141.945 51.0108 142.483 50.2458C143.106 49.408 143.23 48.2159 143.23 48.2159L145.953 46.8454L153.607 45.0854L158.574 45.3882L157.951 48.8237L155.017 54.8218L152.508 60.286L149.641 63.6335L147.007 65.5554H147.006Z" fill="#543E26"/>
<path fill-rule="evenodd" clip-rule="evenodd" d="M159.411 50.6881C159.411 50.6881 156.421 54.39 155.584 54.9602C156.118 53.8209 159.411 47.039 160.604 45.1523C160.337 44.9388 159.98 44.9388 160.817 41.6323C160.106 43.3043 159.856 44.1773 159.269 44.622C158.683 45.0667 158.61 44.9247 158.213 44.9247C158.288 44.7892 158.319 44.6338 158.301 44.48C158.301 44.48 155.792 44.1773 154.077 44.1773C152.363 44.1773 148.97 45.103 147.082 45.8505C145.587 46.4735 144.751 46.4735 144.217 46.8642C143.683 47.3089 143.38 47.79 143.113 47.9143C142.899 48.0387 141.885 48.359 141.653 48.697C141.439 49.049 141.084 49.4444 141.084 49.5336C141.084 49.6227 140.995 49.7483 141.262 49.6579C141.35 49.6227 142.01 49.266 142.757 48.8213C143.771 48.2523 144.999 47.594 145.89 47.2021C148.435 46.1872 149.236 46.3655 150.374 46.152C151.567 45.9385 153.276 45.4398 154.414 45.4398C155.554 45.4046 157.708 45.4398 158.206 45.529C157.993 45.7073 157.815 45.9209 157.904 46.6683C157.904 46.8818 157.725 47.113 157.552 47.6292C157.019 49.0889 156.004 51.5094 155.44 52.7379C154.657 54.4099 153.768 55.8168 153.328 56.6885C152.888 57.5603 151.92 59.8565 150.961 61.085C150.002 62.3135 149.501 63.0609 149.201 63.3284C148.901 63.5959 146.744 65.1788 146.905 65.749C147.297 65.6246 149.771 64.693 151.568 62.6702C153.364 60.6474 153.722 59.413 155.128 58.3089C156.533 57.2048 157.637 55.3545 158.296 53.8244C158.847 52.4 158.723 51.9553 159.416 50.6916L159.411 50.6881Z" fill="#806031"/>
<path fill-rule="evenodd" clip-rule="evenodd" d="M94.9602 78.3176C94.9602 78.3176 94.5683 79.9368 93.6778 80.7382C92.806 81.522 91.2572 82.1978 91.08 83.5155C90.8664 84.8319 92.6288 85.4913 92.6288 85.4913C92.6288 85.4913 91.6667 87.0754 91.6667 88.2675C91.6667 89.4959 91.6315 89.7271 91.7558 90.9016C91.6147 90.9924 91.4946 91.1124 91.4038 91.2536C91.4038 91.2536 91.4918 92.3929 92.3648 93.1039C93.2378 93.815 93.984 94.2432 94.4287 94.0649C94.4966 94.21 94.5561 94.3589 94.607 94.5108C94.607 94.5108 95.2664 92.8376 95.7111 91.378C96.1558 89.8831 96.5477 90.0955 96.7249 88.0844C96.9021 86.0733 98.8369 82.6202 98.8369 82.6202L100.157 79.6693L98.0038 77.9961L94.9602 78.3164V78.3176Z" fill="#B6903C"/>
<path fill-rule="evenodd" clip-rule="evenodd" d="M98.9648 81.2178C98.5208 81.6736 98.111 82.1614 97.7387 82.6774C97.1696 83.4612 96.7249 84.1722 95.8883 84.4761C95.0517 84.78 94.5179 84.7777 94.5707 85.6154C94.6235 86.4532 95.4073 86.8075 95.8519 87.2346C96.333 87.6793 96.7249 88.4267 96.5114 89.2645C96.7777 89.1401 97.2588 88.997 97.7035 88.036C98.1482 87.0751 101.259 81.2189 101.259 81.2189H98.9648V81.2178Z" fill="#685026"/>
<path fill-rule="evenodd" clip-rule="evenodd" d="M111.232 67.7089C111.232 67.7089 111.498 66.9978 111.232 66.4815C110.964 65.9477 109.345 65.7693 108.544 65.1639C107.707 64.5409 106.692 64.1079 105.856 64.3813C105.98 64.0786 106.479 63.4191 106.069 63.2772C105.677 63.1528 104.219 63.811 103.827 64.1138C103.435 64.4165 102.545 64.772 102.367 64.9867C102.19 65.2014 101.886 65.6098 101.708 65.4314C101.53 65.307 101.442 64.9867 101.139 65.1639C100.836 65.3411 99.379 66.5343 99.1103 67.229C98.8416 67.9236 98.2373 69.4724 96.4222 71.2335C94.607 72.9947 93.8233 74.1352 94.3571 74.7934C94.891 75.4517 95.1409 74.9718 95.2301 75.5409C95.2987 76.0995 95.2685 76.6658 95.1409 77.214C94.9274 78.1398 94.5718 79.0116 95.0517 79.1899C96.2802 79.5818 97.4735 78.8379 97.7398 79.0655C98.2737 79.5454 97.4371 81.2726 98.7008 81.6105C99.9833 81.9625 101.247 81.3078 101.247 81.3078L105.91 78.798L110.395 76.4314L112.69 71.8918L111.46 68.1007L111.225 67.7089H111.232Z" fill="#D4B968"/>
<path fill-rule="evenodd" clip-rule="evenodd" d="M106.832 78.5487C106.832 78.5487 106.048 77.3566 107.01 76.3052C107.972 75.2539 109.342 74.8104 109.876 74.1522C109.774 74.0268 109.638 73.9342 109.484 73.8858C109.838 73.2517 110.379 72.7418 111.033 72.425C110.766 72.1587 110.409 71.9451 110.019 71.9451C109.146 71.9451 108.611 72.479 107.811 72.479C107.028 72.479 106.939 72.0871 106.939 72.0871C106.939 72.0871 108.256 71.9627 108.131 71.3749C108.007 70.7519 107.779 70.7519 107.779 70.7519C107.779 70.7519 110.324 69.6959 110.769 69.1327C111.213 68.5695 111.16 67.9042 111.25 67.6378C111.551 67.6378 113.313 66.7121 114.026 67.104C114.738 67.4959 114.239 68.5636 114.239 68.5636C114.239 68.5636 116.395 66.9432 117.493 65.3545C118.454 65.4437 118.901 64.6963 119.605 64.6963C120.478 64.6963 121.848 65.8884 122.115 68.4334C122.293 69.893 122.559 70.7296 122.293 73.3109C122.169 74.7705 122.204 77.8869 122.645 79.4334C122.947 80.6618 123.659 80.5375 123.659 80.5375C123.549 80.9118 123.333 81.2459 123.036 81.4984C122.555 81.9431 122.502 83.1188 122.555 83.5635C122.626 83.8886 122.715 84.2094 122.822 84.5244C122.822 84.5244 122.253 85.1827 122.11 85.6286C121.986 86.0732 121.399 86.376 120.971 86.376C120.542 86.376 120.757 86.3396 120.188 86.376C119.619 86.4123 119.441 86.5003 119.084 86.376C118.727 86.2516 118.461 86.1084 118.604 84.968C118.728 83.8287 114.208 81.1769 114.208 81.1769L106.816 78.5428L106.832 78.5487Z" fill="#CCA849"/>
<path fill-rule="evenodd" clip-rule="evenodd" d="M98.3418 89.7979C98.3418 89.7979 99.961 91.9522 106.618 91.9522C109.786 91.9522 110.891 91.6495 111.546 91.4711C112.259 91.2928 114.928 90.2438 117.616 87.0746C120.037 84.2093 119.503 83.0348 119.503 83.0348L118.095 82.8213L113.519 83.4443L99.9786 89.2113L98.3359 89.7979H98.3418Z" fill="#585136"/>
<path fill-rule="evenodd" clip-rule="evenodd" d="M103.307 90.3316C103.307 90.3316 97.5404 91.614 97.5404 87.965C97.5404 84.4051 101.1 80.6668 101.991 80.0086C102.917 79.3492 105.124 78.6006 105.124 78.6006H110.446L111.46 81.2887L111.015 87.0908L103.307 90.3304V90.3316Z" fill="#252211"/>
<path fill-rule="evenodd" clip-rule="evenodd" d="M108.63 79.6876C108.63 79.6876 107.527 78.6727 105.017 80.0396C102.507 81.4066 100.477 84.2636 100.353 86.8579C100.228 89.1529 102.24 90.8625 105.372 90.9516C107.704 91.0396 109.111 90.7733 109.823 90.5996C109.644 90.3861 108.719 89.2292 108.719 89.2292L108.631 79.6888L108.63 79.6876Z" fill="#C3B378"/>
<path fill-rule="evenodd" clip-rule="evenodd" d="M107.544 80.2555C107.544 80.2555 107.278 80.042 106.488 80.4691C105.83 80.8211 104.869 81.7515 104.122 82.4098C103.641 82.8017 103.338 82.9788 103.066 83.2816C101.961 84.5992 101.036 86.7535 101.571 87.8212C102.106 88.8889 103.867 90.1174 108.353 89.2808L107.531 80.2567L107.544 80.2555Z" fill="#E6D89C"/>
<path fill-rule="evenodd" clip-rule="evenodd" d="M106.085 82.4643C106.085 82.4643 105.372 83.5684 105.372 85.3307C105.372 87.1283 106.387 89.9936 110.126 90.2071C112.991 90.3855 114.913 86.0781 116.995 84.405C118.579 83.1237 119.54 83.0873 119.54 83.0873C119.54 83.0873 117.921 81.3273 113.596 79.0475C109.324 76.7513 104.536 76.4486 101.937 79.9733C103.165 79.8841 107.135 78.8692 107.135 78.8692L109.075 79.4922L106.085 82.4655V82.4643Z" fill="#252211"/>
<path fill-rule="evenodd" clip-rule="evenodd" d="M111.673 84.7956C111.549 84.5292 111.46 84.1725 111.976 84.0845C112.492 83.9965 112.723 84.0481 112.902 84.4365C113.08 84.8249 113.254 85.1487 112.99 85.3095C112.723 85.4515 112.029 85.3095 111.672 84.7932L111.673 84.7956ZM110.837 82.2858C110.837 82.2858 110.658 82.4102 110.747 82.1614C110.783 81.8599 111.015 81.3248 111.584 81.4504C112.153 81.5759 112.03 82.1978 111.936 82.3762C111.842 82.5545 111.367 82.856 111.01 82.7282C110.965 82.7166 110.923 82.6945 110.888 82.6638C110.853 82.633 110.826 82.5944 110.808 82.551C110.791 82.5077 110.784 82.4609 110.788 82.4144C110.792 82.3679 110.807 82.3231 110.832 82.2835L110.837 82.2858Z" fill="#6F674D"/>
<path fill-rule="evenodd" clip-rule="evenodd" d="M62.656 83.4241C62.656 83.4241 64.064 84.4801 65.6996 84.4391C67.3188 84.4027 69.4015 82.7307 70.3625 81.6618C70.9315 81.0387 71.4185 80.3805 71.9465 79.8642C72.3923 79.4195 72.6939 79.206 72.9074 78.9033C73.2101 78.5513 73.5305 77.8895 73.6912 77.6748C73.2993 77.9775 72.7302 78.5126 72.1424 78.8681C71.5733 79.2201 70.3449 79.8818 69.8462 80.0602C69.3663 80.2385 64.382 82.8762 64.382 82.8762L62.656 83.4241Z" fill="#AC924C"/>
<path fill-rule="evenodd" clip-rule="evenodd" d="M64.8079 70.2724C64.8079 70.2724 65.5905 69.7385 67.1041 69.3994C68.5637 69.0474 71.5006 68.7764 71.5006 68.7764L73.9212 69.8324L74.8821 73.4814L73.1221 77.2737L70.8799 78.6817L68.3338 74.5879L64.8138 70.2794L64.8079 70.2724Z" fill="#9F8E57"/>
<path fill-rule="evenodd" clip-rule="evenodd" d="M61.6399 73.5294L60.8021 74.1548C60.8021 74.1548 61.0169 73.7629 61.194 72.5708C61.3712 71.3787 62.2981 68.477 63.651 66.8039C65.0038 65.1307 64.9686 65.2199 64.9686 65.2199C64.8442 65.1971 64.7162 65.2011 64.5934 65.2317C64.4706 65.2622 64.3557 65.3186 64.2564 65.397C64.4348 65.0028 65.5741 63.5948 66.7134 62.8908C67.8527 62.1868 68.2974 61.965 69.4895 62.5388C70.6816 63.1126 70.9843 63.4106 71.8573 63.3754C72.7302 63.3402 73.4765 62.4144 73.4765 62.4144C73.4765 62.4144 73.6548 62.9835 72.9966 64.3012C72.3384 65.6188 69.7394 68.3057 69.7394 68.3057L64.328 72.0076L61.6399 73.5329V73.5294Z" fill="#EAC970"/>
<path fill-rule="evenodd" clip-rule="evenodd" d="M65.6433 69.8275C65.6433 69.8275 69.5599 70.3614 70.752 69.2584C70.7872 69.3828 70.9303 69.3828 70.9303 69.472C70.9208 69.5392 70.8894 69.6014 70.8412 69.6491C70.9708 69.6285 71.1018 69.6167 71.2331 69.6139C71.3898 69.6606 71.5511 69.6905 71.7141 69.7031C71.8455 69.7003 71.9764 69.6881 72.106 69.6667C72.0937 69.7552 72.0636 69.8403 72.0176 69.9169C71.9717 69.9935 71.9107 70.0601 71.8385 70.1126C72.0169 70.1126 72.1905 70.1478 72.1905 70.2898C72.1905 70.4318 72.2257 70.86 72.0122 70.9492C71.8352 70.9981 71.6469 70.9853 71.4783 70.9128C71.4924 71.2498 71.5839 71.579 71.7458 71.875C72.0978 72.5332 72.8487 73.283 73.8578 73.0671C73.8578 73.0671 74.3905 74.3483 72.1483 77.196C71.8467 77.5879 71.5252 78.1218 71.1345 78.5665C70.9801 78.903 70.8621 79.255 70.7825 79.6166C70.7825 79.6166 74.5747 78.157 75.6601 74.8282C76.7642 71.4819 76.9777 68.1895 76.7642 65.1107C76.7278 64.2377 76.5858 63.6159 76.3723 63.17C75.8384 62.0659 74.3424 62.2442 73.7381 62.8673C72.8652 63.7402 71.4056 65.9109 69.3769 67.4057C67.3118 68.9006 67.2238 69.1657 65.6386 69.8275H65.6433Z" fill="#D7BC6B"/>
<path fill-rule="evenodd" clip-rule="evenodd" d="M60.9453 74.6337C60.9453 74.6337 60.1979 75.0784 59.806 76.7457C59.4141 78.4541 60.158 80.5367 60.5886 81.195C61.0192 81.8532 61.9966 83.6519 64.0241 83.7411C64.526 83.7385 65.0222 83.6355 65.4837 83.4384C66.1915 83.1138 66.8554 82.7011 67.4596 82.2099C68.3326 81.5517 69.0436 80.9826 68.9545 80.9286C68.7409 80.8394 63.5794 76.5673 63.5794 76.5673L61.6387 74.4014L60.9441 74.636L60.9453 74.6337Z" fill="#585136"/>
<path fill-rule="evenodd" clip-rule="evenodd" d="M65.824 81.7169C65.824 81.7169 66.8741 81.6289 67.4972 81.237C68.1202 80.8451 63.8481 76.6094 63.8481 76.6094L64.1508 81.1854L65.824 81.7169Z" fill="#453A25"/>
<path fill-rule="evenodd" clip-rule="evenodd" d="M61.2832 74.3123C61.2832 74.3123 60.7493 75.3273 60.7493 75.5948C60.6602 76.4666 60.9277 79.2075 61.1412 80.0793C61.3548 81.005 62.5117 82.4107 64.0077 82.4107C64.9323 82.4107 66.2147 81.8416 66.2147 81.6996C66.2147 81.5213 64.8971 81.3477 64.5415 80.6847C64.328 80.3327 64.2388 79.4574 64.1895 78.5727C64.1543 78.0037 64.1543 77.3806 64.3679 77.1647C64.849 76.6309 64.937 75.0996 64.937 75.0996L66.6453 71.9258H64.3984L61.7103 73.599L61.2832 74.3123Z" fill="#84754B"/>
<path fill-rule="evenodd" clip-rule="evenodd" d="M60.625 75.2916C60.625 75.2916 62.385 72.9602 63.9713 72.4252C65.5577 71.8901 66.2675 72.2116 66.2675 72.2116L65.3418 74.5794L64.0241 76.039L64.1133 76.7864C64.1133 76.7864 63.8986 78.7623 65.2162 80.1328C66.5339 81.5033 67.5124 81.4504 68.0827 81.4504C68.6529 81.4504 70.2897 80.9694 71.1263 78.9935C71.8737 77.1431 72.4968 74.7695 71.0019 72.39C69.5411 70.0222 66.961 69.9307 66.4623 69.9307C65.9636 69.9307 62.0482 70.1266 60.625 75.2881V75.2916Z" fill="#252211"/>
<path fill-rule="evenodd" clip-rule="evenodd" d="M105.817 83.2115C105.159 82.9087 105.782 81.0584 106.44 80.4881C107.098 79.9179 107.935 79.2608 109.396 79.1705C109.928 79.1353 110.445 79.4732 110.357 79.8299C110.232 80.4882 109.307 81.4139 108.47 82.0721C107.313 82.9803 106.564 83.5494 105.817 83.2115Z" fill="#F7F7E7"/>
<path fill-rule="evenodd" clip-rule="evenodd" d="M70.2181 73.1194C70.6992 73.0842 71.3222 73.4714 71.4466 73.9924C71.571 74.5614 71.1439 75.7007 70.2181 75.7007C69.4707 75.7007 69.0788 74.775 69.0788 74.5086C69.0872 74.2896 69.1484 74.0759 69.2572 73.8856C69.2924 73.8316 69.3815 73.2086 70.2181 73.1194Z" fill="#F8F6DE"/>
<path fill-rule="evenodd" clip-rule="evenodd" d="M63.2767 73.5293C63.2767 73.5293 62.0482 74.0984 61.4791 75.2893C61.0725 76.1687 60.9495 77.1528 61.1271 78.1053C61.2163 78.55 61.661 79.6529 61.9637 80.0448C62.2665 80.4367 62.6759 80.7042 62.9787 80.6679C63.2814 80.6315 63.9033 79.8313 63.9033 79.3514C63.9033 78.8715 63.9396 76.8416 64.5263 75.7375C65.0426 74.6346 63.2802 73.5305 63.2802 73.5305L63.2767 73.5293Z" fill="#D4C38B"/>
<path fill-rule="evenodd" clip-rule="evenodd" d="M63.455 73.4403C63.2415 73.5647 62.886 73.743 62.974 73.9742C63.0632 74.1877 63.8106 74.3262 64.0781 74.8471C64.3808 75.381 64.3808 75.95 64.2916 76.2176C64.5241 76.1071 64.7351 75.9561 64.9147 75.7717C65.3066 75.327 65.7865 74.7227 66.196 74.7227C66.4635 74.7227 66.7298 74.8471 66.9797 74.8471C67.3716 74.8471 67.7624 74.7227 67.8163 74.3132C67.9043 73.7794 67.0689 73.2983 66.5878 73.3875C66.677 73.0355 66.8014 72.5157 66.4095 72.159C66.0176 71.8023 64.7903 72.4265 64.5228 72.6049C64.2553 72.7832 63.455 73.4415 63.455 73.4415V73.4403Z" fill="#E2D59D"/>
<path fill-rule="evenodd" clip-rule="evenodd" d="M91.7382 110.837L94.3724 110.059L95.1198 110.592C95.1198 110.592 95.6525 111.732 96.4902 111.874C96.2227 112.443 95.5281 112.93 95.5645 113.333C95.6008 113.737 95.9564 114.046 95.9564 114.046C95.9564 114.046 93.5886 117.961 98.2526 121.907C97.1485 122.352 95.7428 122.963 94.9954 123.315C95.5281 123.439 96.6674 123.667 97.1485 124.099C97.6295 124.53 97.6295 124.668 98.0742 124.935C98.5189 125.203 98.7853 125.558 98.6973 125.718C98.3946 125.54 97.3796 125.007 97.2024 125.504C97.0253 126.002 92.806 125.807 92.806 125.807L85.6862 127.178C85.6862 127.178 85.9525 126.465 85.2051 125.807C84.3333 125.024 83.2656 125.842 82.1263 124.97C80.6315 123.831 80.5775 122.514 80.0976 122.016C80.5775 121.713 81.5572 121.269 83.8886 120.96C83.7995 120.782 83.4967 120.248 83.6751 119.768C83.8886 119.145 84.778 118.753 84.5117 118.008C84.9036 117.919 85.0807 117.919 86.0605 116.69C86.9862 115.462 87.5553 115.195 88.2675 115.106C88.9797 115.017 89.4068 115.106 90.7245 113.878C91.6491 113.006 91.3475 112.259 91.3475 112.259C91.3475 112.259 91.9518 112.063 91.7394 110.834L91.7382 110.837Z" fill="#CBAC5A"/>
<path fill-rule="evenodd" clip-rule="evenodd" d="M83.9602 111.232C83.9954 111.054 84.1386 110.964 85.0995 111.054C86.0605 111.143 92.1477 110.485 93.8033 110.395C95.4765 110.271 101.368 110.359 104.234 110.964C107.101 111.57 110.001 112.282 111.407 112.638C112.815 113.03 113.258 113.17 113.204 113.349C113.169 113.527 112.852 113.701 112.67 113.651C112.493 113.616 107.829 112.192 106.388 111.891C104.948 111.591 99.9621 110.787 97.2365 110.835C94.6915 110.872 93.6766 110.8 91.5235 111.049C89.3693 111.316 85.8094 111.672 84.7416 111.53C83.6856 111.406 83.9039 111.406 83.9579 111.227L83.9602 111.232Z" fill="#D6BC6F"/>
<path fill-rule="evenodd" clip-rule="evenodd" d="M98.2878 125.183C98.2878 125.183 101.937 127.159 103.255 129.58C104.215 131.377 102.685 132.268 102.685 132.268C102.685 132.268 104.75 132.268 104.483 133.407C104.359 134.118 100.923 136.04 98.6269 137.055C96.2955 138.07 96.3846 138.017 95.2453 138.194C94.1412 138.373 91.1152 137.842 90.4922 138.728C89.8691 139.614 90.1401 140.527 90.3138 140.669C90.4921 140.793 91.9342 140.972 91.9342 140.972C91.9342 140.972 91.6315 141.808 88.6418 141.898C85.6521 141.987 84.9036 142.199 84.7252 142.521C84.5469 142.822 85.2943 142.645 86.6659 142.873C88.0364 143.086 89.9583 143.225 89.9583 143.225C89.9583 143.225 89.3352 143.758 87.716 144.186C85.8645 144.665 82.9629 145.111 82.0911 145.645C82.5358 145.948 83.1952 146.393 83.4991 146.428C82.7517 146.606 81.7004 146.998 81.5232 147.14C81.7895 147.318 82.1462 147.532 82.1462 147.532C82.1462 147.532 80.6502 149.329 79.7784 149.775C78.9067 150.221 73.8871 152.551 72.16 152.107C67.8527 150.967 67.3188 146.251 66.2687 145.895C64.6847 145.361 63.9373 146.428 62.5304 145.68C63.1535 145.236 63.4926 144.969 64.1508 144.667C63.4386 144.315 59.7543 141.978 59.7543 141.978C59.3691 141.139 58.9414 140.319 58.4731 139.523C57.7608 138.294 56.7131 136.656 55.9269 135.214C54.2186 132.046 54.1294 130.587 52.5806 128.789C52.8481 128.437 53.7727 128.486 53.7727 128.486L66.7498 132.758L89.76 133.425L95.744 124.882L98.289 125.185L98.2878 125.183Z" fill="#DFC677"/>
<path fill-rule="evenodd" clip-rule="evenodd" d="M64.2025 138.211C64.3413 138.366 64.5032 138.498 64.6824 138.603C65.1282 138.906 65.7865 139.263 66.2311 139.795C66.4095 139.529 66.8542 139.048 67.6391 139.795C68.4241 140.543 69.3991 140.01 70.0058 140.187C70.6288 140.402 70.664 140.49 70.664 140.49C70.664 140.49 71.016 140.187 71.8033 139.867C72.2844 139.689 72.8534 139.564 73.4765 139.387C74.0455 139.263 74.6686 139.084 75.0969 139.084C75.4888 139.351 76.8944 140.844 82.537 138.64C87.8592 136.575 89.0865 136.343 89.9771 136.663C90.0662 136.449 90.1554 136.04 91.5259 136.093C91.5259 135.524 90.3866 133.584 90.3866 133.584L84.1034 131.431H80.6667L70.3613 133.317L64.6507 136.576L64.206 138.218L64.2025 138.211Z" fill="#C4A859"/>
<path fill-rule="evenodd" clip-rule="evenodd" d="M60.7669 134.599C60.7669 134.599 60.8913 135.56 62.3157 136.575C63.7237 137.588 64.1661 138.194 64.1661 138.194C64.1661 138.194 64.4336 137.842 64.6471 137.483C64.8607 137.091 65.039 136.646 65.3946 136.522C66.1068 136.219 67.726 136.788 68.0827 136.699C68.3854 136.611 68.2962 135.988 68.6165 135.988C69.3639 135.952 69.8438 136.468 70.1114 136.468C70.3789 136.468 71.0359 136.433 71.1251 136.291C71.2143 136.149 71.2495 134.67 72.2644 133.958C73.3685 133.176 74.7214 133.513 75.0804 133.692C75.0804 133.958 75.1156 134.618 75.8278 134.653C76.5401 134.688 76.6105 134.564 77.2358 134.777C77.8612 134.991 78.6063 134.742 78.9442 135.791C79.2469 135.703 79.9592 135.614 79.7808 134.599C80.1328 134.332 80.4402 134.154 81.1888 133.104C81.3671 132.838 81.6687 132.535 81.901 132.143C82.5241 132.143 83.2715 132.019 84.2676 132.89C83.9649 133.104 83.7866 133.242 83.6986 133.46C83.9591 133.717 84.197 133.997 84.4096 134.296C84.6771 134.648 84.8555 135.08 85.1934 135.169C85.9408 135.383 87.1693 135.08 88.5397 135.169C89.8574 135.258 90.9603 135.738 91.4414 136.041C91.6197 135.953 91.6197 135.916 92.0644 136.006C92.5091 136.095 92.847 136.13 92.3671 135.561C92.6335 135.685 92.9362 135.953 93.2037 135.685C93.4713 135.418 93.6836 135.027 94.431 134.938C95.1785 134.849 95.446 134.973 95.7487 134.191C96.1406 133.23 94.7877 133.23 94.7877 133.23C94.7877 133.23 95.4108 132.659 96.1054 131.912C96.942 131.129 97.9029 130.114 98.1341 128.868C98.526 126.572 96.2837 126.271 96.2837 126.271L85.4081 129.617L72.1119 128.957L60.774 134.6L60.7669 134.599Z" fill="#927D49"/>
<path fill-rule="evenodd" clip-rule="evenodd" d="M50.9954 103.183C50.9954 103.183 50.6434 103.627 50.4263 104.677C50.2093 105.728 50.302 105.603 50.1236 106.351C49.9453 107.098 47.7547 114.538 48.576 117.048C49.3973 119.558 50.8194 120.483 51.7088 122.512C51.8871 122.957 52.0608 123.224 52.1535 123.616C52.4562 124.933 52.1899 125.948 52.5454 127.265C52.6698 127.71 52.9912 128.226 53.4711 128.76C54.5271 129.863 56.2484 130.913 56.9911 131.661C58.0401 132.765 59.5361 135.008 61.4404 135.221C62.4554 135.345 63.8974 134.918 65.0895 134.207C66.1455 133.547 66.7979 132.623 67.9055 132.095C68.6881 131.703 69.5247 131.561 70.2721 131.383C71.8209 131.08 73.2277 131.031 74.0643 131.204C75.3456 131.472 78.3716 132.397 80.0483 132.397C81.3585 132.376 82.6613 132.197 83.9285 131.864C86.4735 131.116 89.5523 129.834 91.5822 129.265C92.7743 128.913 93.7352 128.82 94.715 128.606C96.3881 128.215 97.7938 127.681 98.5952 126.666C98.0613 126.043 97.4031 125.082 93.842 125.117C89.8022 125.206 85.1382 127.448 82.842 127.805C80.5458 128.162 79.5496 128.463 76.9859 127.538C74.4726 126.602 74.3893 125.984 74.3893 125.984C74.3893 125.984 71.7505 124.138 70.6464 119.433C69.5423 114.728 70.6464 111.3 73.5128 108.041C74.2603 107.205 74.0819 106.457 74.0819 106.457C74.0819 106.457 75.9686 103.912 75.4524 101.529C74.8833 99.1616 71.2342 99.6427 71.2342 99.6427L50.9966 103.183H50.9954Z" fill="#6E6342"/>
<path fill-rule="evenodd" clip-rule="evenodd" d="M54.039 111.104C53.8821 111.4 53.8083 111.732 53.8255 112.065C53.8607 112.545 54.0038 113.168 55.4447 114.575C56.6732 115.803 56.4057 117.173 56.4057 117.173C56.4057 117.173 57.024 117.297 58.7019 116.512C60.0195 115.889 60.4619 116.993 60.4619 116.993C60.8454 116.792 61.2612 116.66 61.6904 116.602C62.0792 116.566 62.4556 116.446 62.7933 116.25C62.7933 116.25 64.3421 117.834 65.6949 118.581C66.9234 119.24 67.6356 119.685 68.2411 119.24C68.8101 118.848 68.8101 118.047 68.7738 117.692C68.6326 117.363 68.4538 117.053 68.2411 116.766C67.8492 116.197 67.2261 115.537 67.1851 115.006C67.0959 113.779 68.1108 112.318 67.8961 111.962C67.6814 111.607 66.8824 111.518 64.9065 112.23C62.8602 112.906 54.0308 111.108 54.0308 111.108L54.039 111.104Z" fill="#39331F"/>
<path fill-rule="evenodd" clip-rule="evenodd" d="M58.7019 119.06C58.7019 119.06 57.6881 118.099 58.0436 113.435C58.474 113.429 58.9038 113.471 59.3249 113.56C59.3249 113.56 59.8775 117.173 58.7019 119.06Z" fill="#292311"/>
<path fill-rule="evenodd" clip-rule="evenodd" d="M51.4765 99.6226C51.6179 99.5179 51.7492 99.4001 51.8684 99.2706C51.5164 99.9289 49.8913 102.563 51.209 106.711C52.5266 110.84 55.8366 113.919 59.9128 114.062C63.9889 114.205 66.1314 112.21 68.5813 109.22C69.5423 108.028 70.6464 106.532 71.625 105.519C73.0846 103.933 74.2239 103.489 74.2239 101.959C74.2239 98.8259 71.0195 97.4191 66.3027 96.0135C61.5859 94.6078 57.3314 94.7815 55.1244 95.7436C52.9713 96.7925 52.0456 97.8967 51.4753 99.6238L51.4765 99.6226Z" fill="#252211"/>
<path fill-rule="evenodd" clip-rule="evenodd" d="M66.623 120.467L66.975 120.288C66.975 120.288 67.063 118.88 67.6333 118.918C68.2023 119.007 68.4699 119.755 68.4159 120.022C68.3807 120.288 68.2387 120.734 67.6685 120.68C66.9211 120.698 66.6195 120.467 66.6195 120.467H66.623Z" fill="#3F3824"/>
<path fill-rule="evenodd" clip-rule="evenodd" d="M65.039 114.486C65.039 114.486 65.391 114.361 65.8216 114.788C66.1736 114.788 67.7084 114.61 68.1894 114.913C68.6705 115.215 68.8125 115.482 68.8125 115.482C68.8125 115.482 67.0149 115.874 66.0352 115.482C65.039 115.144 65.039 114.486 65.039 114.486Z" fill="#2D2815"/>
<path fill-rule="evenodd" clip-rule="evenodd" d="M72.9602 114.752C72.9602 114.663 71.9993 114.004 70.9843 113.79C70.806 113.755 70.7696 113.879 70.6323 113.879C70.5431 113.844 70.5079 113.576 70.5079 113.576L69.9307 113.88C69.9307 113.88 69.8415 114.004 70.1442 114.232C70.4106 114.446 70.8564 114.624 70.9808 114.979C71.1052 115.335 71.1052 115.459 71.1591 115.513C71.1943 115.549 71.8174 115.513 72.1201 115.335C72.4228 115.157 72.9931 114.866 72.9567 114.748L72.9602 114.752Z" fill="#82764F"/>
<path fill-rule="evenodd" clip-rule="evenodd" d="M63.9713 118.366C63.9713 118.366 64.1485 117.139 65.3418 117.085C66.5691 116.996 66.8014 118.188 66.8014 118.188L66.0892 118.9C66.0892 118.882 65.5553 118.135 63.9772 118.366H63.9713Z" fill="#2D2816"/>
<path fill-rule="evenodd" clip-rule="evenodd" d="M71.7141 113.079C71.7141 113.079 71.0547 113.791 69.5963 114.004C69.4719 113.826 69.2044 113.471 69.5963 112.902C69.9882 112.332 70.4329 112.154 70.8775 112.331C71.0738 112.363 71.2568 112.45 71.405 112.583C71.5533 112.715 71.6605 112.887 71.7141 113.079Z" fill="#574F35"/>
<path fill-rule="evenodd" clip-rule="evenodd" d="M74.4011 113.952C74.4374 113.774 74.3131 113.739 74.4011 113.649C74.4891 113.56 74.9713 113.383 75.0605 113.471C75.0957 113.507 75.0605 113.649 75.0605 113.823C75.0605 113.997 75.0605 114.175 74.9713 114.303C74.8469 114.481 74.4914 114.57 74.3131 114.518C74.1347 114.465 74.0995 114.215 74.0995 114.166C74.1875 114.13 74.4011 114.041 74.4011 113.952ZM77.44 112.03C77.44 111.941 77.7427 111.763 77.9211 111.763C78.1874 111.763 78.1874 111.976 78.2238 112.03C78.3118 112.065 78.3118 111.994 78.401 112.155C78.4901 112.315 78.6157 112.599 78.5253 112.778C78.435 112.956 78.0806 113.079 77.9926 113.044C77.8683 112.955 77.4764 112.155 77.44 112.03Z" fill="#82764F"/>
<path fill-rule="evenodd" clip-rule="evenodd" d="M71.3222 114.362C71.3222 114.362 71.7141 114.45 72.248 114.895C72.0697 115.02 71.8021 115.162 71.8021 115.162C71.8021 115.162 71.7669 114.752 71.3222 114.36V114.362Z" fill="#6E6342"/>
<path fill-rule="evenodd" clip-rule="evenodd" d="M70.4504 110.445C70.3613 110.357 70.7168 110.143 70.9303 110.178C71.1439 110.213 71.2331 110.357 71.4642 110.392C71.6953 110.427 71.7317 110.303 71.8162 110.213C71.9007 110.124 72.2081 110.178 72.2609 110.213C72.2938 110.253 72.3236 110.294 72.3501 110.338C72.3538 110.27 72.3715 110.204 72.4019 110.143C72.4324 110.083 72.4751 110.029 72.5272 109.986C72.5955 109.936 72.6743 109.902 72.7576 109.886C72.8409 109.871 72.9266 109.874 73.0083 109.897C73.0435 110.021 73.2219 110.466 73.1867 110.555C73.1515 110.644 72.6176 110.77 72.5272 110.679C72.6164 110.894 73.0083 111.339 73.0611 111.427C73.1139 111.515 72.6692 111.729 72.492 111.694C72.2433 111.677 70.7121 110.786 70.4458 110.448L70.4504 110.445ZM72.7819 107.49C72.7489 107.401 72.6859 107.325 72.6035 107.277C72.4791 107.241 72.0696 107.277 72.0696 107.49C72.0696 107.704 72.4216 108.898 72.8171 109.52C73.2629 110.143 73.5645 110.658 73.8672 110.801C73.9622 110.845 74.0702 110.85 74.1692 110.817C74.2683 110.784 74.3511 110.715 74.4011 110.623C74.4363 110.534 74.5254 109.876 74.4902 108.327C74.455 106.778 74.4011 105.283 74.3119 105.194C74.2227 105.105 73.8672 105.106 73.7428 105.283C73.6184 105.46 72.8171 107.224 72.7807 107.49H72.7819Z" fill="#585136"/>
<path fill-rule="evenodd" clip-rule="evenodd" d="M71.1979 116.604C71.1979 116.604 70.5748 116.212 69.9694 116.479C69.4003 116.747 69.4355 117.797 69.4355 117.797C69.5635 117.847 69.7019 117.865 69.8385 117.85C69.9751 117.834 70.1058 117.785 70.2193 117.708C70.6112 117.441 71.1087 116.997 71.1979 116.605V116.604Z" fill="#574F35"/>
<path fill-rule="evenodd" clip-rule="evenodd" d="M72.3724 118.01C72.3372 117.658 72.0204 117.658 72.0204 117.476C72.0422 117.389 72.0926 117.312 72.1634 117.257C72.2342 117.203 72.3215 117.173 72.4111 117.174C72.5894 117.174 72.7631 117.387 72.9813 117.526C73.1949 117.65 73.5152 117.878 73.5504 118.149C73.5856 118.42 73.1984 119.162 72.7678 119.162C72.3372 119.162 72.4651 118.361 72.3759 118.006L72.3724 118.01ZM75.8079 117.529C75.8079 117.529 75.0957 117.743 75.1485 117.529C75.2013 117.316 75.3632 117.263 75.5943 117.263C75.7118 117.14 75.8697 117.064 76.039 117.048C76.1359 117.043 76.231 117.075 76.3054 117.137C76.3054 117.137 76.7865 116.924 76.9284 117.048C77.0704 117.173 76.9648 117.173 77.0528 117.316C77.1649 117.475 77.2384 117.657 77.2675 117.85C77.2675 117.991 76.7337 118.294 76.3054 118.241C75.8079 118.135 75.8959 117.618 75.8079 117.529ZM79.9544 116.728C79.9544 116.728 80.168 116.852 79.9908 116.995C79.8664 117.12 79.2434 117.347 78.7084 117.387C78.1745 117.387 77.6946 117.475 77.6946 117.298C77.6946 117.121 78.1393 116.764 78.4056 116.675C78.4591 116.608 78.5269 116.554 78.6041 116.517C78.6813 116.48 78.7659 116.461 78.8515 116.461C79.0651 116.461 79.9005 116.372 80.1328 116.337C80.3463 116.301 80.5247 116.425 80.3991 116.603C80.3463 116.728 79.9544 116.728 79.9544 116.728ZM81.1829 111.232C81.1829 111.232 80.9154 111.801 80.6139 111.801C80.3111 111.766 80.3111 111.677 80.3111 111.587C80.3111 111.463 80.6139 111.143 80.5775 111.054C80.4895 111.054 80.2748 111.054 80.3111 110.84C80.3111 110.662 80.6139 110.448 80.8802 110.488C81.0815 110.323 81.332 110.229 81.5924 110.222C81.8951 110.222 82.1615 110.31 82.1615 110.488C82.1615 110.666 81.8095 111.057 81.6804 111.147C81.5385 111.289 81.3601 111.382 81.1829 111.235V111.232ZM77.1244 121.751C77.1244 121.751 76.7724 121.787 76.7724 121.964C76.7724 122.054 76.8604 122.054 76.9859 122.001C77.0582 121.997 77.1299 121.984 77.1995 121.964C77.2347 122.001 77.2347 122.178 77.5022 122.178C77.7219 122.148 77.9336 122.076 78.1252 121.964C78.3388 121.876 78.5171 121.786 78.5171 121.612C78.4279 121.31 78.2496 121.167 77.9833 121.167C77.8468 121.158 77.7107 121.189 77.5914 121.256C77.5914 121.256 77.5022 121.077 77.1995 121.256C76.8967 121.434 76.9319 121.434 77.0211 121.523C77.1807 121.665 77.1279 121.758 77.1279 121.758L77.1244 121.751ZM75.1133 123.602C75.1133 123.513 75.558 123.335 75.6823 123.389C75.8067 123.424 76.1622 124.1 76.1622 124.171C76.1622 124.261 75.7175 124.474 75.5392 124.474C75.3608 124.474 75.0593 124.171 75.0593 124.122C75.0593 124.087 75.2729 124.034 75.2729 123.998C75.3257 123.91 75.1133 123.695 75.1133 123.606V123.602ZM73.7053 121.003C73.7944 120.968 73.7944 120.879 73.9188 120.79C73.9578 120.764 74.0021 120.747 74.0485 120.741C74.0949 120.735 74.142 120.74 74.1863 120.755C74.2177 120.699 74.2612 120.65 74.3135 120.613C74.3659 120.576 74.4258 120.551 74.4891 120.54C74.7026 120.505 74.881 120.54 74.8411 120.629C74.8411 120.897 75.0194 121.074 75.0194 121.287C75.0194 121.501 74.895 121.768 74.4503 121.947C74.0057 122.071 73.4002 122.071 73.311 122.036C73.2219 122.001 73.1327 121.644 73.2219 121.466C73.311 121.287 73.5598 121.093 73.7029 121.003H73.7053Z" fill="#82764F"/>
<path fill-rule="evenodd" clip-rule="evenodd" d="M74.272 121.124C74.272 121.124 73.9693 121.302 73.9693 121.392C73.9424 121.478 73.9305 121.568 73.9341 121.658C73.9341 121.711 74.326 121.623 74.3788 121.569C74.3964 121.534 74.272 121.217 74.272 121.124Z" fill="#6E6342"/>
<path fill-rule="evenodd" clip-rule="evenodd" d="M71.6249 120.287C71.8021 120.324 72.1048 120.287 72.336 120.377C72.5143 120.466 72.6387 120.644 72.4604 120.858C72.282 121.071 72.1084 121.392 71.7129 121.338C71.2683 121.302 70.8412 121.071 70.8412 120.893C70.8337 120.78 70.8487 120.667 70.8854 120.56C70.922 120.453 70.9796 120.354 71.0547 120.27C71.2331 120.128 71.3211 120.217 71.6238 120.287H71.6249Z" fill="#585136"/>
<path fill-rule="evenodd" clip-rule="evenodd" d="M71.4114 120.466C71.4114 120.466 70.8423 120.911 70.6992 121.125C70.5208 121.339 69.6491 122.442 69.3827 122.673C69.4712 122.517 69.572 122.368 69.6843 122.228C69.3323 122.453 69.0684 122.793 68.9369 123.189C68.7233 123.849 70.1301 124.204 71.0547 124.472C71.9793 124.739 72.3372 124.824 72.3372 124.824C71.9968 124.312 71.7045 123.77 71.4642 123.204C71.1122 122.368 70.9303 122.279 71.1615 121.887C71.3398 121.495 71.6074 121.228 71.6074 120.926C71.5006 120.644 71.4114 120.466 71.4114 120.466Z" fill="#574F35"/>
<path fill-rule="evenodd" clip-rule="evenodd" d="M51.1198 121.873C51.2493 121.897 51.3821 121.897 51.5117 121.873C51.778 121.837 54.5553 120.817 57.457 121C59.6292 121.132 61.7822 121.486 63.8821 122.056C67.5312 123.017 72.0696 124.922 75.0065 126.008C75.7891 126.31 76.5553 126.845 77.1185 127.057C79.3619 127.93 79.4499 127.93 80.7676 128.161C82.3164 128.375 83.9004 127.859 85.5559 127.503C87.5846 127.057 91.0553 126.844 94.099 126.399C95.0832 126.263 96.0539 126.042 97.0006 125.741C97.0006 125.741 94.58 128.161 88.7767 129.033C86.431 129.389 84.0473 129.419 81.6933 129.122C79.8418 128.944 78.6145 128.676 77.6887 128.41C76.6386 128.107 74.4844 127.306 71.8326 126.65C69.9811 126.169 67.916 125.813 65.5494 125.369C59.7109 124.3 53.3749 123.073 51.1174 121.88L51.1198 121.873Z" fill="#252211"/>
<path fill-rule="evenodd" clip-rule="evenodd" d="M44.5691 110.873C43.1611 112.065 41.6674 113.204 40.209 114.307L35.8125 117.685C34.3177 118.788 32.858 119.928 31.362 121.032C29.866 122.136 28.3724 123.185 26.786 124.2C28.194 123.008 29.6877 121.904 31.1825 120.818C32.6773 119.733 34.2273 118.669 35.6693 117.568L40.0658 114.185C41.5782 113.082 43.0379 111.943 44.5691 110.875V110.873ZM36.791 123.333C36.791 123.333 38.375 122.015 40.3509 120.165C42.8067 117.87 45.8151 114.932 46.7761 114.399L36.7899 123.334L36.791 123.333Z" fill="#CFB66C"/>
<path fill-rule="evenodd" clip-rule="evenodd" d="M36.791 123.332C37.5748 122.549 38.4114 121.784 39.248 121.035L40.5293 119.933C40.9212 119.581 41.367 119.185 41.7578 118.793C42.5404 118.011 43.3066 117.173 44.0892 116.373C44.4771 115.97 44.8872 115.59 45.3177 115.233C45.5329 115.043 45.7719 114.881 46.0287 114.752C46.2434 114.628 46.4746 114.4 46.7761 114.36C46.5989 114.628 46.3854 114.752 46.207 114.983C45.9935 115.162 45.8152 115.375 45.638 115.552C45.2461 115.944 44.8014 116.3 44.4095 116.657C43.5729 117.369 42.7011 118.065 41.8645 118.81C41.028 119.555 40.2453 120.358 39.4076 121.106C38.5006 121.872 37.664 122.619 36.791 123.335V123.332ZM47.4355 116.212C47.4355 116.212 41.6334 121.891 40.4401 122.815L47.4355 116.212Z" fill="#CFB66C"/>
<path fill-rule="evenodd" clip-rule="evenodd" d="M47.4355 116.212C46.9136 116.816 46.3539 117.387 45.76 117.92L44 119.593C43.4309 120.163 42.8959 120.733 42.2916 121.302C41.6686 121.836 41.0995 122.358 40.4401 122.851L42.1485 121.177C42.7187 120.608 43.3418 120.129 43.9472 119.558L45.6556 117.885C46.2422 117.298 46.8125 116.728 47.4355 116.212ZM47.7019 119.291C47.167 120.783 46.5368 122.24 45.8151 123.652C44.3203 126.643 42.0781 130.38 41.0983 132.285L47.7019 119.291Z" fill="#CFB66C"/>
<path fill-rule="evenodd" clip-rule="evenodd" d="M47.7019 119.292C47.7019 119.95 47.5235 120.52 47.31 121.09C47.1018 121.659 46.8645 122.218 46.5989 122.763C46.3314 123.297 46.0287 123.867 45.726 124.383C45.4233 124.899 45.0677 125.432 44.8002 125.967L43.0027 129.135C42.3796 130.191 41.7742 131.253 41.116 132.268C41.5606 131.129 42.1661 130.061 42.7363 129.011C43.3594 127.955 43.9284 126.899 44.4963 125.806C44.7736 125.262 45.0231 124.704 45.2437 124.134C45.5101 123.564 45.7764 123.03 45.9911 122.514C46.2575 121.945 46.471 121.41 46.7386 120.895C47.0401 120.342 47.29 119.808 47.6995 119.292H47.7019Z" fill="#CFB66C"/>
<path fill-rule="evenodd" clip-rule="evenodd" d="M54.039 133.887C54.039 133.887 52.279 136.218 52.455 139.173C52.9349 137.625 53.5404 135.257 54.039 133.887ZM55.7122 136.224C55.7122 136.224 55.0892 142.56 54.5729 145.675C55.3027 142.074 55.4447 142.377 55.7122 136.224ZM67.3705 146.049C67.3705 146.049 64.7363 153.793 64.6824 155.945C65.2526 153.732 66.3555 149.212 67.3705 146.044V146.049Z" fill="#DEC270"/>
<path fill-rule="evenodd" clip-rule="evenodd" d="M73.5293 133.408C73.5293 133.408 77.8014 140.456 81.0058 146.472C80.1387 143.445 78.144 137.893 73.5293 133.408Z" fill="#CBAF59"/>
<path fill-rule="evenodd" clip-rule="evenodd" d="M85.0103 143.784C87.3559 147.93 89.4711 152.203 91.3463 156.582C90.9908 153.556 90.0287 148.377 85.0103 143.784Z" fill="#E3C677"/>
<path fill-rule="evenodd" clip-rule="evenodd" d="M118.758 154.176C119.469 153.731 120.876 151.309 122.104 150.705C123.331 150.082 124.257 149.958 125.361 148.729C126.464 147.447 126.769 146.664 129.188 145.65C132.57 144.19 130.244 142.303 130.244 142.303C130.616 141.937 131.015 141.598 131.436 141.289C132.309 140.631 133.322 139.83 133.234 138.423C133.11 136.056 132.665 132.621 130.725 130.627C132.611 130.235 136.224 129.969 138.469 129.4C141.066 128.74 142.26 127.815 142.26 127.815C142.26 127.815 140.765 125.27 143.185 122.707C145.606 120.145 147.582 118.613 149.041 115.747C147.368 115.533 144.817 114.644 138.308 117.117C138.659 117.283 138.998 117.473 139.323 117.686C139.323 117.686 135.318 118.79 133.859 120.019C131.312 122.172 130.992 123.934 128.234 125.252C125.475 126.57 122.698 126.213 120.403 127.281C118.108 128.348 117.769 129.257 116.931 129.649C117.109 129.862 116.896 130.218 117.234 130.52C117.02 130.823 115.774 132.852 114.51 132.852C114.635 133.333 115.702 133.688 115.702 133.688C115.702 133.688 114.92 134.259 112.926 134.401C113.94 135.457 114.902 136.608 117.554 138.281C117.34 138.725 116.45 139.385 116.807 140.221C117.198 141.058 118.215 142.197 122.271 143.123C120.206 143.211 117.786 143.692 114.527 143.247C111.27 142.856 110.736 142.624 108.725 143.123C108.938 143.337 109.507 143.337 110.006 143.906C109.472 143.941 106.126 143.514 104.986 145.01C103.794 146.557 103.278 149.104 103.367 150.812C102.744 151.115 102.139 151.649 102.441 152.753C102.744 153.857 104.328 154.212 105.343 154.906C106.357 155.653 106.446 155.919 107.408 155.742C108.422 155.529 109.917 154.515 110.79 154.515C111.663 154.515 112.284 155.173 112.284 155.173C112.284 155.173 114.652 154.034 114.883 154.247C115.097 154.461 114.919 155.831 115.15 156.045C115.384 156.206 118.051 154.622 118.764 154.176H118.758Z" fill="#ECD592"/>
<path fill-rule="evenodd" clip-rule="evenodd" d="M170.501 82.9451C159.376 54.2173 131.876 48.895 131.876 48.895H53.416L53.7187 78.1568H69.344V143.499H53.4148V172.707H129.704C148.09 172.707 162.828 154.231 162.828 154.231C186.43 120.734 170.499 82.9451 170.499 82.9451H170.501ZM130.113 134.545C130.113 134.545 124.129 143.178 117.618 143.178H104.594L104.286 78.2283H121C121 78.2283 128.744 79.8476 134.154 95.1725C134.154 95.1725 141.327 117.114 130.113 134.545Z" fill="white" fill-opacity="0.8"/>
</g>
<defs>
<clipPath id="clip0_3920_128">
<rect width="220" height="220" rx="110" fill="white"/>
</clipPath>
</defs>
</svg>
