<svg width="220" height="220" viewBox="0 0 220 220" fill="none" xmlns="http://www.w3.org/2000/svg">
  <path d="M110 220C170.751 220 220 170.751 220 110C220 49.2487 170.751 0 110 0C49.2487 0 0 49.2487 0 110C0 170.751 49.2487 220 110 220Z" fill="#6747ED"/>
  <path fill-rule="evenodd" clip-rule="evenodd" d="M108.396 124.208C92.125 124.208 79.0625 111.146 79.0625 94.875C79.0625 78.6042 92.125 65.5417 108.396 65.5417C124.667 65.5417 137.729 78.6042 137.729 94.875C137.729 111.146 124.667 124.208 108.396 124.208ZM108.396 50.875C132.687 50.875 152.396 70.5833 152.396 94.875C152.396 119.167 132.687 138.875 108.396 138.875C84.1042 138.875 64.3958 119.167 64.3958 94.875C64.3958 70.5833 84.1042 50.875 108.396 50.875ZM150.333 141.167C153.313 144.146 153.313 148.729 150.333 151.479L121 180.812C118.021 183.792 113.437 183.792 110.687 180.812C107.708 177.833 107.708 173.25 110.687 170.5L140.021 141.167C142.771 138.187 147.583 138.187 150.333 141.167ZM167.292 58.2083C167.292 62.3333 164.083 65.5417 159.958 65.5417C155.833 65.5417 152.625 62.3333 152.625 58.2083C152.625 54.0833 155.833 50.875 159.958 50.875C163.854 50.875 167.292 54.0833 167.292 58.2083Z" fill="white"/>
</svg>
