<svg width="220" height="220" viewBox="0 0 220 220" fill="none" xmlns="http://www.w3.org/2000/svg">
<g clip-path="url(#clip0_3932_579)">
<path d="M110 220C170.751 220 220 170.751 220 110C220 49.2487 170.751 0 110 0C49.2487 0 0 49.2487 0 110C0 170.751 49.2487 220 110 220Z" fill="black"/>
<path d="M103.136 112.2C91.608 125.576 59.136 163.504 59.136 163.504H44.704L88.88 112.288C90.288 110.616 90.288 108.24 88.88 106.568L45.056 55.792H58.96L103.048 107.008C104.192 108.504 104.368 110.704 103.136 112.112V112.2Z" fill="#D9D9D9"/>
<path d="M83.336 55.88C83.336 55.88 107.096 84.304 115.72 93.104C117.128 94.512 116.864 96.272 115.632 97.768C111.056 103.136 110.968 103.224 110.968 103.224L70.136 55.88H83.336Z" fill="#D9D9D9"/>
<path d="M118.976 78.144L123.288 73.128L138.072 55.88H151.448L123.112 88.88C123.112 88.88 119.944 85.096 118.888 83.864C117.48 82.192 117.48 79.728 118.976 78.144Z" fill="#D9D9D9"/>
<path d="M137.984 163.504L108.064 128.568L106.568 126.632C105.16 124.96 105.16 122.496 106.656 120.824L162.448 55.792H176.264L120.12 119.944C118.624 121.528 118.624 124.08 120.032 125.664L152.416 163.328H137.984V163.504Z" fill="#D9D9D9"/>
<path d="M163.504 163.504C163.504 163.504 139.304 135.256 131.296 125.84C130.416 124.784 130.064 123.288 130.416 121.968C130.68 121.264 131.208 120.384 131.736 119.856L135.432 115.72L176.704 163.416H163.592L163.504 163.504Z" fill="#D9D9D9"/>
<path d="M102.608 141.24L98.296 146.256L83.512 163.504H70.136L98.472 130.504C98.472 130.504 101.64 134.288 102.696 135.52C104.104 137.192 104.104 139.656 102.608 141.24Z" fill="#D9D9D9"/>
</g>
<defs>
<clipPath id="clip0_3932_579">
<rect width="220" height="220" rx="110" fill="white"/>
</clipPath>
</defs>
</svg>
