<svg id="Layer_1" data-name="Layer 1" xmlns="http://www.w3.org/2000/svg" xmlns:xlink="http://www.w3.org/1999/xlink"
  viewBox="0 0 220 220">
  <defs>
    <style>
      .cls-1 {
        fill: none;
      }

      .cls-2 {
        clip-path: url(#clip-path);
      }

      .cls-3 {
        fill: #345d9d;
      }

      .cls-4 {
        fill: #fff;
      }

    </style>
    <clipPath id="clip-path">
      <rect class="cls-1" width="220" height="220" />
    </clipPath>
  </defs>
  <g class="cls-2">
    <path class="cls-3" d="M110,0a109.7,109.7,0,1,0,.64,0Z" />
  </g>
  <path class="cls-4"
    d="M112,112.46,102.31,145h51.56a2.44,2.44,0,0,1,1,.16,2.63,2.63,0,0,1,.86.53,2.68,2.68,0,0,1,.59.83,2.44,2.44,0,0,1,.24,1v.85l-4.49,15.47a3.26,3.26,0,0,1-1.25,1.82,3.32,3.32,0,0,1-2.11.64H69.81l13.22-45-14.79,4.48,3.36-10.31,14.79-4.49L105,47.68a3.32,3.32,0,0,1,1.26-1.81,3.39,3.39,0,0,1,2.1-.66h20a2.63,2.63,0,0,1,1,.17,2.58,2.58,0,0,1,.87.53,2.46,2.46,0,0,1,.59.83,2.56,2.56,0,0,1,.23,1v.86l-15.69,53.35,14.8-4.49L127,108.2Z" />
</svg>
