<svg width="220" height="220" viewBox="0 0 220 220" fill="none" xmlns="http://www.w3.org/2000/svg">
  <path d="M110 0C49.2483 0 0 49.2483 0 110C0 170.752 49.2483 220 110 220C170.752 220 220 170.752 220 110C220 49.2483 170.752 0 110 0Z" fill="white"/>
  <path d="M176.996 136.204C177 118.992 177 101.78 176.996 84.5692C177.066 82.8094 176.184 81.0581 174.775 80.0206C154.318 65.0347 133.86 50.0465 113.402 35.0561C112.783 34.571 112.068 34.2244 111.304 34.0397C110.541 33.8549 109.747 33.8362 108.976 33.9849C108.022 34.1724 107.163 34.6505 106.398 35.2259C86.0855 50.1103 65.7724 64.9939 45.4583 79.8768C44.699 80.4059 44.0794 81.1122 43.653 81.9349C43.2266 82.7576 43.0063 83.6719 43.0109 84.599C42.9987 101.806 42.9987 119.013 43.0109 136.218C42.9842 138.082 43.9488 139.891 45.4774 140.941C65.7895 155.817 86.0975 170.697 106.401 185.581C108.344 187.247 111.392 187.379 113.398 185.755C133.79 170.826 154.175 155.891 174.553 140.948C176.087 139.912 177.08 138.071 176.995 136.205" fill="#050708"/>
  <path d="M102.928 46.3042C103.466 45.6921 104.013 44.738 104.96 44.865C108.181 44.8841 111.41 44.8145 114.63 44.8994C115.188 45.2468 115.616 45.7678 116.093 46.2154C116.08 49.5482 116.08 52.8818 116.093 56.2161C115.134 56.2276 114.173 56.2705 113.214 56.2047C113.156 55.969 113.041 55.5061 112.985 55.2712C112.985 52.7823 113.2 50.2904 112.993 47.8053C110.625 47.8089 108.26 47.8089 105.895 47.8053C105.884 48.6423 105.88 49.484 105.873 50.321C104.876 50.321 103.875 50.321 102.875 50.3133C102.882 48.9813 102.735 47.627 102.928 46.3042Z" fill="white"/>
  <path d="M94.8962 50.3702C95.9852 50.3281 97.0742 50.3281 98.167 50.3549C98.1823 54.9654 98.2014 59.5722 98.1556 64.1789C97.1162 64.2018 96.0775 64.2018 95.0419 64.1942C94.6962 59.6035 94.9725 54.9769 94.8962 50.3702Z" fill="white"/>
  <path d="M122.599 55.3247C125.499 55.2864 128.394 55.2979 131.292 55.317C131.308 56.3821 131.308 57.4433 131.292 58.5075C128.392 58.5381 125.492 58.5496 122.593 58.4999C122.582 57.4425 122.582 56.3782 122.593 55.3247" fill="white"/>
  <path d="M105.014 56.8947C106.184 56.8679 107.354 56.8718 108.525 56.8718C109.644 59.0554 111.049 61.0929 111.959 63.3805C110.885 63.431 109.807 63.431 108.734 63.4349C107.458 61.275 106.226 59.0898 105.014 56.8947Z" fill="white"/>
  <path d="M116.959 60.734C117.971 60.7111 118.983 60.7149 119.999 60.7302C122.754 65.0148 125.432 69.3499 128.208 73.6245C128.208 74.9252 128.208 76.2259 128.185 77.5266C127.884 77.4723 127.292 77.3682 126.996 77.3185C124.641 73.799 122.474 70.154 120.146 66.6192C120.108 70.5978 120.157 74.5763 120.119 78.5549C119.064 78.5743 118.007 78.5743 116.948 78.5549C116.935 72.6169 116.916 66.6751 116.959 60.734Z" fill="white"/>
  <path d="M129.536 63.1448C130.613 63.1218 131.695 63.1218 132.772 63.1524C132.78 64.1708 132.78 65.1937 132.772 66.2129C131.695 66.2396 130.613 66.2396 129.539 66.2205C129.532 65.1973 129.532 64.1721 129.539 63.1448" fill="white"/>
  <path d="M76.2622 64.1516C77.1124 64.1363 77.9633 64.1401 78.8134 64.1477C81.0838 63.9947 83.3504 64.0399 85.6215 64.1707C85.6292 65.1585 85.6215 66.15 85.6139 67.1378C82.256 69.1592 79.0294 71.401 75.6235 73.3351C74.6191 72.9526 73.8529 72.1469 73.0333 71.4752C75.2617 70.1133 77.4436 68.6779 79.6949 67.3543C78.5555 67.2962 77.413 67.3038 76.2737 67.2923C76.2538 66.2426 76.25 65.1957 76.2622 64.1516Z" fill="white"/>
  <path d="M103.124 65.3243C104.168 65.2937 105.214 65.2975 106.253 65.3243C106.28 66.374 106.28 67.4191 106.253 68.4689C105.21 68.4995 104.167 68.5007 103.124 68.4727C103.1 67.423 103.1 66.3735 103.124 65.3243Z" fill="white"/>
  <path d="M87.8148 68.3954C89.4854 70.934 91.1056 73.5078 92.7982 76.0311C94.4879 73.4772 96.1195 70.8842 97.8244 68.3418C97.8244 70.025 97.9358 71.7259 97.79 73.4076C96.2431 76.0655 94.4535 78.5774 92.7868 81.1627C91.1475 78.6202 89.4114 76.1313 87.8568 73.5392C87.6805 71.833 87.8072 70.1084 87.8148 68.3954Z" fill="white"/>
  <path d="M134.061 68.8239C139.075 68.801 144.089 68.8022 149.104 68.8278C149.104 69.8461 149.104 70.8691 149.1 71.8882C144.089 71.8999 139.076 71.9012 134.061 71.892C134.057 70.8691 134.054 69.8438 134.061 68.8239Z" fill="white"/>
  <path d="M107.519 72.8055C108.527 72.7864 109.539 72.7864 110.551 72.7979C110.602 77.2577 110.551 81.7221 110.578 86.1872C110.109 86.6348 109.643 87.0901 109.185 87.5453C105.71 87.5836 102.235 87.5453 98.7638 87.5644C98.3059 87.1245 97.8366 86.7037 97.4245 86.2293C97.2474 84.8636 97.3779 83.4703 97.3741 82.0977C98.3408 82.0901 99.3105 82.0901 100.283 82.0977C100.31 82.885 100.306 83.6716 100.295 84.4589C102.685 84.7289 105.093 84.5354 107.495 84.5935C107.507 80.6647 107.469 76.7298 107.519 72.8055Z" fill="white"/>
  <path d="M155.997 85.9897C155.966 82.6232 155.966 79.2549 155.997 75.8849C157.048 75.8619 158.098 75.8581 159.153 75.8849C159.187 79.2514 159.187 82.6209 159.153 85.9935C158.101 86.0111 157.051 86.0072 156 85.9935" fill="white"/>
  <path d="M141.023 78.4283C143.008 78.4092 145.002 78.1001 146.976 78.4206C148.269 82.6456 149.378 86.9355 150.663 91.1681C149.647 91.1757 148.627 91.1757 147.61 91.1757C146.64 87.8927 145.813 84.5706 144.812 81.2944C144.255 81.302 143.697 81.3097 143.138 81.3135C142.307 84.6203 141.307 87.8766 140.448 91.1711C139.424 91.1747 138.4 91.1734 137.377 91.1673C138.637 86.9355 139.819 82.6746 141.023 78.4283Z" fill="white"/>
  <path d="M56.1928 80.0407C60.7649 80.0139 65.3408 80.0024 69.912 80.0407C69.9388 81.0942 69.9388 82.1432 69.9159 83.1968C65.3369 83.2388 60.7641 83.2274 56.1883 83.2006C56.1738 82.147 56.1738 81.0874 56.1928 80.0369" fill="white"/>
  <path d="M72.0679 80.0444C73.1073 80.0367 74.146 80.0329 75.1892 80.0444C75.2121 81.1017 75.2121 82.1622 75.1892 83.2195C74.146 83.231 73.1073 83.2272 72.0679 83.2195C72.0557 82.1622 72.0557 81.1086 72.0679 80.052" fill="white"/>
  <path d="M83.5588 80.1744C84.5783 80.1667 85.6025 80.1706 86.622 80.182C86.6526 82.6304 86.6373 85.0856 86.6373 87.5362C85.6017 87.5439 84.5669 87.5477 83.5359 87.5362C83.5252 85.0879 83.4931 82.6266 83.5588 80.1706" fill="white"/>
  <path d="M163.478 82.374C164.652 82.3511 165.83 82.3549 167.003 82.3511C168.166 84.5117 169.578 86.5592 170.444 88.8675C169.375 88.9057 168.3 88.9096 167.23 88.9142C165.965 86.742 164.76 84.5339 163.478 82.374" fill="white"/>
  <path d="M117.205 84.9945C118.223 84.9869 119.24 84.9869 120.258 84.9945C120.281 88.351 120.265 91.7076 120.265 95.0648C119.241 95.0725 118.221 95.0763 117.198 95.0763C117.198 91.7167 117.193 88.3526 117.205 84.9907" fill="white"/>
  <path d="M127.941 89.0766C127.928 88.0268 127.928 86.9748 127.941 85.9205C128.968 85.9052 130.001 85.9052 131.031 85.932C131.031 86.9817 131.038 88.0307 131.023 89.0804C129.997 89.0842 128.963 89.0804 127.937 89.0804" fill="white"/>
  <path d="M69.8586 93.7285C72.3251 91.9229 74.958 90.3529 77.4902 88.6475C79.1645 88.6666 80.8343 88.6475 82.5087 88.6704C80.0223 90.4531 77.3787 91.9925 74.8771 93.7515C77.4482 95.372 79.9689 97.0698 82.5239 98.7056C80.8038 98.7362 79.0836 98.717 77.3635 98.7209C74.8809 97.0315 72.3022 95.4745 69.8586 93.7285Z" fill="white"/>
  <path d="M156.001 90.8014C157.055 90.7784 158.11 90.7746 159.168 90.8014C159.194 91.8588 159.191 92.9116 159.161 93.9689C158.11 93.9919 157.056 93.9881 156.005 93.9689C155.982 92.9151 155.982 91.8618 156.005 90.809" fill="white"/>
  <path d="M47.7378 91.2333C53.0036 91.2027 58.2785 91.1913 63.5511 91.241C63.5626 92.2402 63.5626 93.2433 63.5664 94.2463C61.2113 95.7934 58.8562 97.3481 56.4355 98.7834C55.4121 98.4093 54.6383 97.5593 53.7645 96.9357C55.0687 96.1101 56.3928 95.3114 57.6565 94.4277C54.3506 94.4124 51.0453 94.4468 47.7356 94.4085C47.7203 93.3512 47.7203 92.2928 47.7356 91.2333" fill="white"/>
  <path d="M92.8257 94.2973C97.3863 94.3164 101.946 94.2743 106.503 94.3164C106.614 95.3561 106.6 96.4055 106.461 97.4418C101.916 97.461 97.3748 97.4457 92.8341 97.4495C92.8259 96.3952 92.8231 95.3444 92.8257 94.2973Z" fill="white"/>
  <path d="M109.482 94.316C110.578 94.293 111.671 94.293 112.768 94.3313C112.772 95.3575 112.77 96.3812 112.764 97.4024C111.671 97.433 110.574 97.433 109.482 97.4139C109.472 96.3802 109.472 95.3481 109.482 94.316" fill="white"/>
  <path d="M123.825 98.7376C123.682 97.6535 124.791 97.098 125.36 96.3536C126.7 96.3536 128.038 96.3459 129.378 96.3727C129.409 97.3834 129.409 98.3941 129.393 99.4094C128.547 99.4247 127.696 99.4247 126.85 99.4362V106.636C130.786 106.663 134.724 106.621 138.661 106.659C138.672 107.681 138.672 108.704 138.645 109.719C134.212 109.75 129.775 109.723 125.341 109.734C124.776 108.994 123.691 108.434 123.829 107.358C123.809 104.486 123.809 101.612 123.829 98.7376" fill="white"/>
  <path d="M138.752 97.7802C139.837 97.7419 140.93 97.7419 142.019 97.7802C142.031 98.8217 142.031 99.8635 142.019 100.906C140.93 100.944 139.845 100.944 138.756 100.906C138.745 99.8597 138.745 98.8184 138.756 97.7725" fill="white"/>
  <path d="M149.124 97.7799C153.712 97.718 158.295 97.7608 162.882 97.757C162.89 98.8182 162.89 99.8832 162.878 100.944C158.294 100.944 153.712 100.982 149.127 100.925C149.112 99.8748 149.112 98.8266 149.127 97.7799" fill="white"/>
  <path d="M85.5795 101.449C88.1506 101.445 90.7171 101.449 93.2874 101.445C93.3103 102.516 93.3103 103.588 93.2874 104.659C90.7201 104.663 88.1544 104.663 85.5902 104.659C85.5455 103.588 85.5432 102.518 85.5834 101.449" fill="white"/>
  <path d="M102.531 101.45C106.565 101.446 110.598 101.45 114.631 101.442C116.096 101.212 117.563 102.738 117.378 104.189C117.369 107.159 117.368 110.132 117.373 113.109C116.857 113.668 116.338 114.22 115.819 114.776C114.483 114.776 113.152 114.776 111.817 114.76C111.806 113.74 111.804 112.721 111.813 111.704C112.648 111.693 113.484 111.685 114.318 111.674C114.318 109.336 114.318 106.994 114.326 104.655C110.408 104.304 106.46 104.597 102.531 104.493C102.521 103.473 102.521 102.459 102.531 101.45" fill="white"/>
  <path d="M74.1071 102.391C76.0775 102.379 78.0442 102.368 80.0146 102.399C81.2075 106.669 82.4888 110.917 83.6167 115.208C82.6246 115.208 81.6325 115.208 80.6458 115.216C79.6338 111.92 78.8524 108.564 77.8091 105.285C77.2475 105.319 76.6858 105.361 76.1233 105.404C75.377 108.707 74.3108 111.924 73.495 115.212C72.4755 115.212 71.4551 115.212 70.4424 115.2C71.6558 110.93 72.8639 106.654 74.1055 102.391" fill="white"/>
  <path d="M160.069 106.249C163.504 106.215 166.942 106.18 170.372 106.261C171.238 106.797 172.215 107.666 172.027 108.807C172.027 111.256 172.011 113.711 172.027 116.161C171.996 117.338 172.049 118.515 172.015 119.692C172.069 120.653 171.807 121.597 171.862 122.562C170.885 122.562 169.907 122.562 168.93 122.551C168.941 118.129 168.93 113.704 168.937 109.282C166.539 109.217 164.142 109.267 161.745 109.248C161.74 110.07 161.74 110.891 161.725 111.717C160.717 111.732 159.708 111.737 158.7 111.732C158.68 110.378 158.685 109.02 158.688 107.666C159.153 107.199 159.611 106.728 160.069 106.249" fill="white"/>
  <path d="M62.3423 106.373H65.5323C65.5399 109.733 65.5323 113.089 65.5323 116.447H62.3271C62.3423 113.09 62.3309 109.73 62.3385 106.373" fill="white"/>
  <path d="M52.3328 109.182C53.3799 109.167 54.4261 109.197 55.4694 109.267C55.4811 110.262 55.4811 111.259 55.4694 112.257C54.4147 112.269 53.3608 112.272 52.3061 112.257C52.2947 111.23 52.2985 110.208 52.3328 109.186" fill="white"/>
  <path d="M89.8166 127.597C89.7891 121.656 89.7878 115.713 89.8128 109.77C90.8522 109.755 91.8908 109.755 92.9303 109.778C95.3723 113.725 97.8907 117.63 100.385 121.549C101.462 122.942 100.816 124.809 100.989 126.43C100.627 126.43 100.266 126.438 99.9078 126.445C97.6641 122.872 95.3204 119.361 93.1729 115.734C92.7845 119.677 93.1035 123.655 92.9768 127.613C91.9198 127.624 90.8667 127.624 89.8166 127.597Z" fill="white"/>
  <path d="M103.672 112.055C104.73 112.033 105.788 112.03 106.847 112.048C106.862 114.645 106.859 117.241 106.847 119.837C105.785 119.857 104.726 119.857 103.665 119.83C103.647 117.238 103.643 114.645 103.665 112.055" fill="white"/>
  <path d="M122.859 115.528C123.894 115.521 124.933 115.517 125.973 115.528C125.992 116.586 125.992 117.643 125.973 118.7C124.933 118.704 123.895 118.704 122.859 118.7C122.847 117.646 122.847 116.59 122.859 115.532" fill="white"/>
  <path d="M132.953 115.667C136.178 115.625 139.403 115.648 142.632 115.656C142.763 116.601 142.844 117.562 142.751 118.519C142.446 119.14 141.716 118.893 141.169 118.951C138.422 118.87 135.666 119.109 132.938 118.798C132.919 117.751 132.919 116.709 132.953 115.667Z" fill="white"/>
  <path d="M145.965 116.114C147.004 116.099 148.054 116.03 149.094 116.191C149.194 119.841 149.136 123.502 149.117 127.156C148.066 127.176 147.017 127.176 145.969 127.156C145.934 123.477 145.934 119.798 145.969 116.118" fill="white"/>
  <path d="M117.205 118.277C118.221 118.277 119.242 118.27 120.258 118.277C120.269 119.327 120.273 120.38 120.258 121.437C119.241 121.452 118.223 121.452 117.205 121.437C117.198 120.384 117.198 119.327 117.205 118.273" fill="white"/>
  <path d="M68.2766 120.521C71.9016 120.127 75.5617 120.44 79.2019 120.324C80.1399 120.312 81.0779 120.354 82.0111 120.451C82.0263 121.512 82.0225 122.577 82.0111 123.638C77.4321 123.63 72.8631 123.661 68.2919 123.622C68.2644 122.589 68.2644 121.557 68.2728 120.521" fill="white"/>
  <path d="M47.7417 122.867C48.2385 122.381 48.7383 121.891 49.239 121.405C50.563 121.397 51.8863 121.394 53.2074 121.42C53.2226 122.423 53.2226 123.43 53.215 124.433C52.3916 124.452 51.5719 124.456 50.7485 124.464C50.7676 126.856 50.737 129.248 50.7676 131.641C54.6658 131.652 58.5647 131.614 62.4629 131.66C62.482 132.648 62.482 133.631 62.4743 134.619C61.5082 134.623 60.5382 134.627 59.5744 134.627C56.115 134.592 52.651 134.685 49.1955 134.585C48.6185 134.257 48.037 133.716 47.7752 133.104C47.6844 129.693 47.7646 126.279 47.7455 122.867" fill="white"/>
  <path d="M128.616 124.856C129.136 124.367 129.659 123.876 130.194 123.398C133.565 123.425 136.937 123.398 140.308 123.409C140.816 123.895 141.323 124.386 141.834 124.868C141.838 128.213 141.838 131.557 141.834 134.899C140.807 134.907 139.779 134.899 138.755 134.872C138.755 132.06 138.732 129.251 138.767 126.438C136.401 126.435 134.045 126.438 131.685 126.435C131.689 127.291 131.685 128.148 131.666 129.004C130.654 129.019 129.642 129.019 128.634 129.015C128.601 127.629 128.608 126.244 128.612 124.856" fill="white"/>
  <path d="M150.259 130.762C153.999 128.319 157.775 125.941 161.546 123.554C162.447 124.156 163.332 124.789 164.21 125.422C161.496 127.156 158.784 128.886 156.074 130.612C160.057 130.654 164.041 130.612 168.028 130.634C168.035 131.696 168.035 132.761 168.028 133.821C162.108 133.841 156.189 133.841 150.271 133.821C150.255 132.798 150.255 131.776 150.263 130.761" fill="white"/>
  <path d="M107.938 131.367C111.691 128.862 115.562 126.54 119.314 124.036C120.206 124.654 121.088 125.282 121.996 125.872C119.402 127.701 116.647 129.295 114.003 131.058C117.963 131.127 121.923 131.05 125.883 131.1C125.91 132.191 125.91 133.287 125.883 134.379C119.957 134.413 114.029 134.39 108.102 134.39C107.949 133.389 107.949 132.374 107.942 131.363" fill="white"/>
  <path d="M68.9848 128.666C70.6317 131.19 72.2832 133.715 73.911 136.247C75.6578 133.747 77.2208 131.121 78.9524 128.607C78.9867 130.309 78.96 132.014 78.9753 133.716C77.2513 136.247 75.6731 138.878 73.9033 141.375C72.2641 138.867 70.6744 136.325 68.9657 133.863C68.9489 132.131 68.9314 130.395 68.9848 128.666Z" fill="white"/>
  <path d="M87.0356 135.144C86.9975 134.063 86.9937 132.983 87.0547 131.907C88.0903 131.895 89.1328 131.899 90.1684 131.983C90.1913 133.036 90.1913 134.089 90.1684 135.143C89.1274 135.151 88.0842 135.155 87.0395 135.143" fill="white"/>
  <path d="M101.708 136.703C102.759 136.691 103.813 136.688 104.864 136.703C104.89 140.626 104.864 144.551 104.879 148.474C104.133 148.505 103.385 148.54 102.639 148.609C102.4 148.562 101.923 148.478 101.684 148.435C101.708 144.527 101.665 140.615 101.708 136.707" fill="white"/>
  <path d="M123.447 139.164C125.431 139.126 127.41 139.153 129.393 139.141C130.609 143.412 131.826 147.683 133.045 151.954C132.022 151.954 130.998 151.954 129.978 151.931C129.108 148.667 128.166 145.423 127.281 142.163C126.727 142.128 126.172 142.104 125.618 142.078C124.703 145.372 123.789 148.666 122.879 151.959C121.855 151.959 120.835 151.959 119.815 151.944C121.062 147.692 122.301 143.44 123.447 139.166" fill="white"/>
  <path d="M78.5173 146.24C82.2927 143.809 86.0603 141.363 89.8883 139.014C90.7698 139.635 91.6588 140.238 92.5319 140.874C89.7922 142.583 87.1059 144.381 84.3387 146.043C88.349 146.12 92.3625 146.032 96.3767 146.09C96.3957 147.148 96.3995 148.204 96.369 149.262C90.4233 149.281 84.4776 149.308 78.5318 149.25C78.5021 148.246 78.5059 147.243 78.5173 146.24Z" fill="white"/>
  <path d="M109.701 139.789C110.807 139.801 111.911 139.734 113.007 139.589C114.305 141.731 115.836 143.856 116.502 146.294C115.466 146.302 114.431 146.302 113.4 146.31C112.182 144.126 110.949 141.953 109.701 139.789Z" fill="white"/>
  <path d="M153.407 141.097C154.488 141.062 155.574 141.062 156.658 141.085C156.663 142.123 156.663 143.162 156.658 144.203C155.574 144.23 154.492 144.23 153.41 144.184C153.391 143.153 153.391 142.127 153.41 141.097" fill="white"/>
  <path d="M145.437 149.4C146.746 147.29 148.147 145.241 149.463 143.134C149.501 144.697 149.525 146.264 149.486 147.83C149.524 148.417 149.098 148.872 148.824 149.346C147.374 151.496 145.984 153.687 144.561 155.85C142.848 153.288 141.19 150.699 139.496 148.122C139.489 146.409 139.473 144.696 139.515 142.987C141.178 145.483 142.748 148.045 144.449 150.518C144.929 150.314 145.145 149.798 145.441 149.4" fill="white"/>
  <path d="M64.8981 146.364C67.673 146.271 70.4516 146.317 73.2302 146.337C73.2455 147.367 73.3111 148.403 73.1799 149.431C70.4241 149.566 67.6577 149.501 64.902 149.45C64.8905 148.421 64.8905 147.394 64.8981 146.364Z" fill="white"/>
  <path d="M98.7257 153.089C103.174 153.023 107.619 153.089 112.068 153.055C112.577 153.565 113.085 154.078 113.594 154.594C113.575 158.001 113.583 161.412 113.587 164.826C113.14 165.293 112.699 165.765 112.262 166.242C110.838 166.273 109.414 166.276 107.989 166.234C108.008 165.27 107.885 164.286 108.116 163.341C108.92 163.256 109.728 163.286 110.54 163.279C110.548 160.891 110.54 158.506 110.54 156.122C106.599 156.099 102.654 156.172 98.718 156.084C98.7058 155.085 98.7058 154.086 98.718 153.089" fill="white"/>
  <path d="M77.355 154.223C78.394 154.207 79.4344 154.21 80.4763 154.23C80.4916 155.271 80.4929 156.316 80.4802 157.363C79.4331 157.379 78.3901 157.38 77.3512 157.367C77.337 156.318 77.337 155.269 77.3512 154.223" fill="white"/>
  <path d="M132.395 155.908C133.573 154.914 134.643 156.572 135.651 157.056C135.651 157.149 135.651 157.338 135.651 157.43C133.019 159.132 130.325 160.741 127.75 162.531L129.243 162.52C130.036 162.52 130.831 162.529 131.63 162.546C131.637 163.588 131.637 164.634 131.622 165.676C128.382 165.722 125.141 165.71 121.901 165.683C121.835 164.699 121.825 163.712 121.816 162.732C125.276 160.36 128.885 158.217 132.391 155.908" fill="white"/>
  <path d="M83.2008 158.802C87.4073 158.787 91.6176 158.764 95.8234 158.814C95.831 159.851 95.831 160.89 95.8234 161.931C91.6131 161.993 87.4066 161.966 83.197 161.947C83.1779 160.898 83.1817 159.848 83.197 158.802" fill="white"/>
  <path d="M94.4115 166.812C95.5967 166.801 96.7819 166.797 97.9678 166.82C99.0645 169.007 100.523 171.022 101.366 173.333C100.304 173.391 99.2454 173.391 98.1838 173.398C96.8865 171.226 95.6738 169.002 94.4115 166.812Z" fill="white"/>
  <path d="M115.42 170.138C116.455 170.13 117.49 170.145 118.521 170.214C118.54 171.252 118.533 172.294 118.402 173.328C117.413 173.332 116.426 173.332 115.443 173.328C115.404 172.257 115.404 171.199 115.419 170.138" fill="white"/>
  <path d="M108.204 180.463C108.204 178.04 108.15 175.613 108.242 173.19C109.285 173.19 110.332 173.248 111.371 173.343C111.383 175.716 111.383 178.09 111.371 180.465C110.315 180.482 109.259 180.482 108.204 180.465" fill="white"/>
</svg>
