<svg width="220" height="220" viewBox="0 0 220 220" fill="none" xmlns="http://www.w3.org/2000/svg">
<g clip-path="url(#clip0_3678_396)">
<path d="M110 220C170.751 220 220 170.751 220 110C220 49.2487 170.751 0 110 0C49.2487 0 0 49.2487 0 110C0 170.751 49.2487 220 110 220Z" fill="#FF0420"/>
<path d="M77.9385 139.237C71.3887 139.237 66.0224 137.695 61.8393 134.613C57.7113 131.476 55.6472 127.018 55.6472 121.238C55.6472 120.027 55.7849 118.541 56.0599 116.78C56.7758 112.817 57.794 108.056 59.1149 102.497C62.8575 87.361 72.5173 79.793 88.0937 79.793C92.3318 79.793 96.1294 80.5084 99.4871 81.9393C102.845 83.3152 105.486 85.4069 107.413 88.2141C109.339 90.9659 110.303 94.2685 110.303 98.1212C110.303 99.277 110.165 100.736 109.89 102.497C109.064 107.395 108.073 112.157 106.917 116.78C104.991 124.321 101.661 129.962 96.9276 133.705C92.1941 137.392 85.8647 139.237 77.9385 139.237ZM79.0944 127.348C82.177 127.348 84.7911 126.44 86.9378 124.623C89.1396 122.807 90.7082 120.027 91.6436 116.285C92.9095 111.111 93.8731 106.597 94.5335 102.745C94.7535 101.589 94.8635 100.406 94.8635 99.1943C94.8635 94.1858 92.2491 91.6813 87.0205 91.6813C83.9379 91.6813 81.2961 92.5895 79.0944 94.4058C76.9481 96.2226 75.4067 99.002 74.4713 102.745C73.4804 106.432 72.4895 110.946 71.4991 116.285C71.2787 117.385 71.1687 118.541 71.1687 119.752C71.1687 124.816 73.8109 127.348 79.0944 127.348Z" fill="white"/>
<path d="M114.093 138.411C113.488 138.411 113.02 138.218 112.69 137.833C112.414 137.392 112.332 136.897 112.442 136.347L123.835 82.6822C123.945 82.0768 124.248 81.5813 124.743 81.1959C125.239 80.8109 125.762 80.6182 126.312 80.6182H148.273C154.383 80.6182 159.281 81.884 162.969 84.4158C166.712 86.948 168.583 90.6079 168.583 95.3964C168.583 96.7723 168.418 98.2036 168.088 99.6895C166.712 106.019 163.933 110.698 159.749 113.725C155.621 116.752 149.952 118.266 142.742 118.266H131.596L127.798 136.347C127.688 136.952 127.385 137.447 126.89 137.833C126.395 138.218 125.872 138.411 125.322 138.411H114.093ZM143.32 106.873C145.631 106.873 147.64 106.239 149.347 104.973C151.108 103.708 152.264 101.891 152.814 99.5245C152.979 98.5886 153.062 97.7632 153.062 97.0478C153.062 95.4514 152.594 94.2406 151.658 93.4151C150.722 92.5342 149.127 92.0942 146.87 92.0942H136.962L133.825 106.873H143.32Z" fill="white"/>
</g>
<defs>
<clipPath id="clip0_3678_396">
<rect width="220" height="220" rx="110" fill="white"/>
</clipPath>
</defs>
</svg>
