<svg width="220" height="220" viewBox="0 0 220 220" fill="none" xmlns="http://www.w3.org/2000/svg">
<g clip-path="url(#clip0_3991_132)">
<path d="M110 220C170.751 220 220 170.751 220 110C220 49.2487 170.751 0 110 0C49.2487 0 0 49.2487 0 110C0 170.751 49.2487 220 110 220Z" fill="black"/>
<path d="M126.311 29.1142L131.071 40.2616C140.412 62.1487 157.848 79.5828 179.738 88.9234L190.887 93.683C193.803 94.9265 196.172 96.7109 198.002 98.8357C192.449 59.0322 160.965 27.5471 121.157 22C123.278 23.824 125.067 26.1967 126.311 29.1142Z" fill="#A6A6A6"/>
<path d="M29.1148 93.683L40.2637 88.9234C62.1535 79.5826 79.5885 62.1485 88.935 40.2616L93.6898 29.1142C94.9386 26.1967 96.7232 23.824 98.844 22C59.0361 27.5471 27.5521 59.0322 22 98.8357C23.8284 96.7109 26.1972 94.9265 29.1148 93.683Z" fill="#A6A6A6"/>
<path d="M190.887 126.312L179.738 131.072C157.848 140.413 140.412 157.851 131.071 179.738L126.311 190.881C125.067 193.798 123.278 196.172 121.157 198C160.965 192.449 192.449 160.963 198.002 121.159C196.172 123.284 193.803 125.069 190.887 126.312Z" fill="#A6A6A6"/>
<path d="M93.6899 190.881L88.9352 179.738C79.5887 157.851 62.1535 140.413 40.2637 131.072L29.115 126.312C26.1974 125.068 23.8282 123.284 22 121.159C27.5521 160.963 59.0361 192.449 98.844 198C96.7232 196.172 94.9388 193.798 93.6899 190.881Z" fill="#A6A6A6"/>
<path d="M70.692 101.524L76.0177 99.25C86.4721 94.7869 94.802 86.4623 99.2653 76.0088L101.536 70.6833C104.72 63.2253 115.295 63.2253 118.479 70.6833L120.749 76.0088C125.213 86.4623 133.543 94.7869 143.997 99.25L149.323 101.524C156.781 104.708 156.781 115.277 149.323 118.461L143.997 120.736C133.543 125.198 125.213 133.523 120.749 143.981L118.479 149.302C115.295 156.759 104.72 156.759 101.536 149.302L99.2653 143.981C94.802 133.523 86.4721 125.198 76.0177 120.736L70.692 118.461C63.2329 115.277 63.2329 104.708 70.692 101.524Z" fill="white"/>
</g>
<defs>
<clipPath id="clip0_3991_132">
<rect width="220" height="220" rx="110" fill="white"/>
</clipPath>
</defs>
</svg>
