<svg width="220" height="220" viewBox="0 0 220 220" fill="none" xmlns="http://www.w3.org/2000/svg">
<g clip-path="url(#clip0_4031_113)">
<path d="M110 220C170.751 220 220 170.751 220 110C220 49.2487 170.751 0 110 0C49.2487 0 0 49.2487 0 110C0 170.751 49.2487 220 110 220Z" fill="#2683FF"/>
<path d="M54.6202 137.728C53.7873 137.728 52.9731 137.975 52.2806 138.437C51.5881 138.9 51.0483 139.558 50.7296 140.327C50.4109 141.097 50.3275 141.943 50.49 142.76C50.6524 143.577 51.0535 144.328 51.6425 144.916C52.2314 145.505 52.9817 145.906 53.7986 146.069C54.6155 146.231 55.4622 146.148 56.2317 145.829C57.0012 145.511 57.6589 144.971 58.1216 144.278C58.5843 143.586 58.8313 142.772 58.8313 141.939C58.8313 141.192 58.6273 140.513 58.2877 139.834C57.9112 139.195 57.3752 138.665 56.7323 138.296C56.0893 137.927 55.3615 137.731 54.6202 137.728M114.115 46.1076C114.115 45.2747 113.868 44.4606 113.405 43.768C112.943 43.0755 112.285 42.5358 111.515 42.217C110.746 41.8983 109.899 41.8149 109.082 41.9774C108.265 42.1399 107.515 42.541 106.926 43.1299C106.337 43.7188 105.936 44.4692 105.774 45.2861C105.611 46.1029 105.695 46.9497 106.013 47.7191C106.332 48.4886 106.872 49.1463 107.564 49.609C108.257 50.0718 109.071 50.3187 109.904 50.3187C111.019 50.3125 112.086 49.8668 112.875 49.0784C113.663 48.29 114.109 47.2225 114.115 46.1076ZM165.464 82.6472C166.297 82.6472 167.111 82.4002 167.804 81.9375C168.496 81.4748 169.036 80.8171 169.355 80.0476C169.673 79.2781 169.757 78.4314 169.594 77.6145C169.432 76.7976 169.031 76.0473 168.442 75.4583C167.853 74.8694 167.102 74.4683 166.286 74.3058C165.469 74.1434 164.622 74.2268 163.852 74.5455C163.083 74.8642 162.425 75.404 161.963 76.0965C161.5 76.789 161.253 77.6032 161.253 78.4361C161.256 79.1507 161.443 79.8525 161.796 80.4735C162.158 81.1301 162.689 81.678 163.334 82.0602C163.979 82.4425 164.714 82.6451 165.464 82.6472ZM56.586 74.5645C54.5486 73.4095 52.0353 74.0894 50.8811 76.1268C49.7268 78.1643 50.406 80.6775 52.4434 81.8318C54.4808 82.986 56.9941 82.3069 58.1483 80.2694C59.3033 78.2998 58.6234 75.7187 56.586 74.5645ZM167.158 138.542C166.547 138.135 165.8 137.999 165.053 137.931C164.495 137.923 163.941 138.027 163.424 138.235C162.906 138.443 162.435 138.752 162.038 139.144C161.641 139.536 161.326 140.002 161.111 140.517C160.896 141.032 160.785 141.584 160.785 142.142C160.785 142.699 160.896 143.252 161.111 143.766C161.326 144.281 161.641 144.748 162.038 145.139C162.435 145.531 162.906 145.84 163.424 146.048C163.941 146.257 164.495 146.36 165.053 146.352C166.547 146.352 167.902 145.538 168.72 144.247C169.875 142.278 169.195 139.696 167.158 138.542ZM105.693 173.654C105.489 175.556 106.644 177.39 108.409 178.069C108.817 178.204 109.292 178.34 109.7 178.34C110.73 178.339 111.727 177.979 112.52 177.322C113.313 176.665 113.853 175.752 114.046 174.741C114.198 173.647 113.911 172.538 113.248 171.655C112.586 170.771 111.601 170.185 110.509 170.024C109.417 169.863 108.305 170.14 107.416 170.794C106.527 171.448 105.932 172.427 105.76 173.518C105.724 173.555 105.7 173.602 105.693 173.653" fill="white"/>
<path d="M171.301 130.8C170.801 130.511 170.279 130.261 169.739 130.053V90.7292C170.35 90.5252 170.962 90.1856 171.573 89.9146C177.887 86.3826 180.197 78.3684 176.667 72.0505C173.136 65.7327 165.121 63.4265 158.803 66.957C158.259 67.2288 157.784 67.5684 157.309 67.908L122.671 47.8725C122.739 47.2612 122.807 46.7176 122.807 46.1069C122.806 38.8404 116.9 33 109.701 33C102.501 33 96.4566 38.9767 96.4566 46.1755C96.4566 46.7868 96.5243 47.3305 96.5921 47.9411L62.2262 67.841C60.8592 66.77 59.2932 65.9808 57.619 65.5192C55.9448 65.0576 54.1957 64.9327 52.4729 65.1518C50.7502 65.3709 49.088 65.9296 47.5826 66.7955C46.0773 67.6615 44.7587 68.8175 43.7032 70.1966C42.6477 71.5756 41.8763 73.1504 41.4336 74.8297C40.991 76.509 40.8859 78.2594 41.1244 79.9796C41.363 81.6998 41.9404 83.3556 42.8233 84.851C43.7062 86.3465 44.877 87.652 46.268 88.6918C46.7431 89.0314 47.2189 89.3709 47.7618 89.7105C48.3165 90.05 48.9091 90.3234 49.5274 90.5252V129.781C42.803 132.498 39.542 140.107 42.2586 146.828C44.9751 153.55 52.582 156.812 59.3064 154.096C59.9178 153.892 60.4614 153.552 61.0042 153.281C61.5479 152.941 62.0907 152.602 62.6343 152.194L96.6606 171.823C95.5056 178.954 100.396 185.677 107.528 186.832C114.659 187.987 121.383 183.097 122.537 175.965C122.673 175.218 122.673 174.539 122.673 173.791C122.664 173.155 122.619 172.52 122.537 171.89L156.36 152.398C156.904 152.805 157.447 153.212 158.058 153.553C164.372 157.085 172.389 154.843 175.922 148.527C179.316 142.21 177.278 134.468 171.301 130.8ZM173.678 147.236C170.894 151.99 164.713 153.62 159.959 150.835C156.156 148.594 154.254 144.18 155.273 139.901L139.38 130.597C136.928 133.084 133.795 134.791 130.375 135.503C126.955 136.216 123.401 135.902 120.159 134.601C117.782 135.348 112.69 135.823 112.69 135.823V163.805C118.26 165.503 121.314 171.412 119.62 176.981C117.926 182.549 112.014 185.605 106.444 183.911C106.376 183.911 106.309 183.843 106.24 183.843C105.765 183.707 105.357 183.503 104.95 183.299C99.7198 180.718 97.6824 174.334 100.263 169.173C101.554 166.592 103.863 164.691 106.577 163.808V135.282C104.583 134.666 102.631 133.917 100.736 133.041C97.7017 133.647 94.571 133.578 91.5662 132.839C88.5613 132.099 85.7561 130.707 83.3496 128.762L64.4007 139.696C64.8637 141.636 64.7411 143.67 64.0482 145.541C63.3553 147.411 62.1233 149.035 60.508 150.205C58.8927 151.376 56.9666 152.041 54.9733 152.117C52.9799 152.193 51.0088 151.676 49.3091 150.632C47.6094 149.588 46.2575 148.063 45.4243 146.25C44.5911 144.438 44.3139 142.419 44.628 140.449C44.942 138.479 45.8331 136.647 47.1886 135.183C48.5441 133.72 50.3031 132.691 52.2432 132.227C55.5034 131.412 58.9668 132.362 61.4832 134.672L79.2093 124.416C73.2326 115.994 74.1836 104.448 81.5193 97.1133L61.3453 85.5671C57.3413 89.3702 51.022 89.1669 47.2189 85.092C46.3141 84.1309 45.6082 83.0002 45.1421 81.7652C44.676 80.5301 44.4587 79.2151 44.5029 77.8957C44.547 76.5764 44.8517 75.2788 45.3994 74.0777C45.9471 72.8765 46.7269 71.7956 47.694 70.8971C51.7689 67.0941 58.0174 67.2973 61.8204 71.3722C64.1304 73.8169 65.0129 77.2126 64.2652 80.4728L86.6098 93.3087C89.5373 91.7339 92.7953 90.8728 96.1185 90.7954C99.244 88.2159 107.252 85.5671 107.252 85.5671V55.0051C102.294 53.5113 99.5096 48.2814 101.003 43.3234C102.497 38.3654 107.731 35.6488 112.689 37.1426C117.647 38.6364 120.431 43.8662 118.938 48.8243C118.496 50.3023 117.694 51.6473 116.603 52.7381C115.512 53.8289 114.167 54.6312 112.689 55.0728V85.0258C112.689 85.0258 127.359 88.6933 131.977 94.1942L155.748 80.6792C154.525 75.2461 157.853 69.8122 163.287 68.5902C168.721 67.3682 174.154 70.6954 175.376 76.1292C176.598 81.5631 173.271 86.9963 167.837 88.2182C166.22 88.5826 164.538 88.5439 162.939 88.1057C161.34 87.6674 159.873 86.843 158.668 85.705L135.169 99.0152C135.848 100.441 136.46 101.864 136.867 103.362C144.134 108.32 146.715 117.828 142.844 125.774L158.398 134.807C159.965 133.346 161.962 132.432 164.092 132.199C166.222 131.966 168.369 132.429 170.215 133.517C174.901 136.301 176.529 142.414 173.68 147.236H173.678Z" fill="white"/>
<path d="M129.872 108.659C129.805 108.115 129.737 107.64 129.668 107.097C129.602 106.729 129.511 106.366 129.396 106.01C129.396 105.875 129.329 105.738 129.329 105.603C129.193 105.196 129.057 104.72 128.921 104.312V104.245C128.058 101.966 126.741 99.8867 125.05 98.1323C124.642 97.725 124.303 97.3854 123.827 96.9773L123.759 96.9095C123.352 96.57 122.945 96.2304 122.469 95.9586L122.401 95.8908C121.994 95.619 121.518 95.2795 121.11 95.0762L121.043 95.0084C120.604 94.7551 120.15 94.5283 119.684 94.3293L119.549 94.2615C119.074 94.0575 118.598 93.8542 118.055 93.6501L117.987 93.5824C117.444 93.4469 116.969 93.2428 116.425 93.175H116.357C115.82 93.0515 115.276 92.9607 114.727 92.9032H114.659C111.767 92.4923 108.817 92.8434 106.102 93.9219L105.762 94.1938C105.355 94.3293 104.676 94.6688 104.268 94.8729C104.056 95.0129 103.828 95.1269 103.589 95.2125C103.385 95.2802 103.045 95.552 102.842 95.6876C102.639 95.8231 102.163 96.1626 101.891 96.3667L101.687 96.5022C101.28 96.774 100.94 97.1136 100.532 97.4532L100.193 97.7927C99.7853 98.2001 99.4457 98.5396 99.1061 98.9477C98.2983 98.8124 97.4805 98.7442 96.6614 98.7437C96.3896 98.7437 96.1863 98.7437 95.9823 98.8114C92.8584 98.947 89.87 100.237 87.5608 102.343C86.4058 103.362 85.4556 104.653 84.7118 106.011L84.6394 106.15C84.43 106.544 84.2484 106.953 84.0958 107.372C84.028 107.508 84.028 107.576 83.9602 107.712C83.8163 108.064 83.7027 108.427 83.6207 108.798C83.5529 108.934 83.5529 109.138 83.4852 109.273C83.4174 109.613 83.3496 109.953 83.2811 110.36C83.2811 110.495 83.2133 110.632 83.2133 110.835C83.1569 111.354 83.1342 111.876 83.1456 112.397C83.1343 112.829 83.1569 113.26 83.2133 113.688C83.2133 113.823 83.2811 113.96 83.2811 114.163C83.3489 114.435 83.3489 114.707 83.4166 114.978C83.4844 115.249 83.4844 115.317 83.5521 115.521C83.6294 115.717 83.6752 115.923 83.6877 116.133C83.6877 116.337 83.8232 116.54 83.8917 116.744C83.9472 116.907 84.0155 117.066 84.0958 117.219C84.1981 117.441 84.2888 117.667 84.3676 117.898C84.4353 118.034 84.5031 118.102 84.5031 118.238C85.4576 120.475 87.0686 122.369 89.1231 123.671C90.1418 124.282 91.1605 124.826 92.247 125.165C92.6682 125.309 93.0996 125.423 93.5375 125.504L93.673 125.572L94.8958 125.776L95.1676 125.844C95.6427 125.912 96.1185 125.912 96.6614 125.912C98.4955 125.912 100.261 125.572 101.891 124.825C102.299 125.097 102.638 125.369 103.046 125.64L103.182 125.708C103.521 125.912 103.929 126.115 104.337 126.319H104.403C108.285 128.297 112.765 128.757 116.968 127.609H117.036C117.647 127.478 118.239 127.272 118.801 126.998L120.635 126.183C122.382 127.546 124.533 128.287 126.748 128.289C127.223 128.289 127.631 128.221 128.106 128.221L128.445 128.153C128.881 128.088 129.312 127.997 129.736 127.881C130.154 127.753 130.563 127.594 130.959 127.406L131.163 127.338C131.57 127.134 131.91 126.931 132.318 126.727C134.016 125.641 135.306 124.01 136.053 122.176C136.325 121.565 136.46 120.954 136.597 120.343V120.139C136.664 119.867 136.664 119.595 136.732 119.324C136.732 118.985 136.8 118.645 136.8 118.306C136.8 113.823 134.016 109.952 129.87 108.661" fill="white"/>
</g>
<defs>
<clipPath id="clip0_4031_113">
<rect width="220" height="220" rx="110" fill="white"/>
</clipPath>
</defs>
</svg>
