<svg width="220" height="220" viewBox="0 0 220 220" fill="none" xmlns="http://www.w3.org/2000/svg">
  <path d="M110 220C170.751 220 220 170.751 220 110C220 49.2487 170.751 0 110 0C49.2487 0 0 49.2487 0 110C0 170.751 49.2487 220 110 220Z" fill="#131218"/>
  <path d="M106.11 96.7341L70.1047 61.0102C69.0733 59.9842 67.2918 59.8909 66.1666 60.9169C65.229 61.7564 64.2914 62.6891 63.4475 63.6219C62.4161 64.7412 62.4161 66.5134 63.5413 67.5394L99.6399 103.357C103.297 106.994 103.297 112.964 99.6399 116.601L56.6028 159.321C55.6652 160.254 54.1649 160.16 53.3211 159.134L53.2273 159.041C50.6957 156.056 50.977 151.672 53.6962 148.967L91.0137 111.938C92.1389 110.818 92.1389 109.046 91.0137 108.02L54.8213 72.2031C51.3521 68.7519 51.0708 63.1555 54.3525 59.5178C56.6966 56.8129 59.3219 54.2945 61.9473 51.9626C65.6978 48.6981 71.2298 48.9779 74.6991 52.429L110.798 88.2462C111.923 89.3655 113.704 89.3655 114.736 88.2462L151.772 51.2165C154.491 48.5115 158.804 48.2317 161.805 50.6568L161.898 50.7501C163.117 51.7761 163.024 53.2685 162.461 53.9214L119.236 96.8274C115.673 100.372 109.766 100.372 106.11 96.7341Z" fill="#40D8C8"/>
  <path d="M42.2572 78.0795L41.4133 80.0382C40.5695 82.0903 41.0383 84.5154 42.6322 86.1943L65.7917 109.233C66.1667 109.606 66.1667 110.166 65.7917 110.539L42.6322 133.577C41.0383 135.163 40.5695 137.681 41.4133 139.733C41.6946 140.386 41.9759 141.039 42.3509 141.692C43.1948 143.464 45.5389 143.838 46.8516 142.532L77.6995 111.845C78.8246 110.725 78.8246 108.953 77.6995 107.927L46.8516 77.24C45.4451 75.9342 43.101 76.3073 42.2572 78.0795Z" fill="#40D8C8"/>
  <path d="M171.838 70.991C174.557 68.1928 174.744 63.9022 172.213 60.8241C171.369 59.7981 169.775 59.7048 168.931 60.8241L126.082 103.544C122.425 107.181 122.425 113.057 126.082 116.695L161.993 152.419C163.118 153.538 163.118 155.217 162.086 156.337L159.274 159.135C158.148 160.161 156.367 160.161 155.336 159.042L119.518 123.224C115.861 119.587 109.861 119.587 106.204 123.224L63.1667 165.944C62.229 166.877 62.3228 168.369 63.3542 169.208L63.448 169.302C66.3546 171.727 70.7614 171.54 73.4806 168.835L110.892 131.712C111.923 130.593 113.705 130.593 114.83 131.712L150.741 167.529C154.117 170.887 159.93 171.167 163.493 168.089C166.118 165.85 168.65 163.332 170.994 160.627C174.276 156.896 174.088 151.3 170.619 147.849L134.708 111.938C133.583 110.912 133.583 109.14 134.708 108.021L171.838 70.991Z" fill="#40D8C8"/>
</svg>
