<svg width="220" height="220" viewBox="0 0 220 220" fill="none" xmlns="http://www.w3.org/2000/svg">
<circle cx="110" cy="110" r="110" fill="white"/>
<path d="M68.0588 124.413L72.6583 89.8552L32.7627 62.1594L69.2148 74.5069L77.8236 61.2985L109.258 41.7935L178.547 79.9673L182.138 138.212L151.269 181.108L126.869 184.847L139.487 161.751V139.516L130.313 122.15L120.991 115.977L106.651 130.759V146.403L95.4594 156.881L81.2425 158.603L74.9458 162.169L64.6153 158.873L60.3109 143.377L68.0588 132.481V124.413Z" fill="white"/>
<path d="M131.764 61.8641C124.164 60.2899 115.85 60.708 115.85 60.708C115.85 60.708 113.12 73.3261 96.1973 76.6466C96.3202 76.6466 118.556 84.247 131.764 61.8641Z" fill="#94A6C3"/>
<path d="M138.651 176.361C147.826 169.179 154.713 159.291 157.886 148.1C158.033 147.681 159.312 146.943 160.173 146.378C161.6 145.517 163.051 144.804 163.322 143.648C163.887 140.352 164.183 136.908 164.183 133.465C164.183 132.186 162.879 130.882 161.6 129.603C160.591 128.742 159.583 127.734 159.583 127.02C158.156 113.959 152.13 101.76 142.513 92.8802L141.505 93.8887C150.827 102.645 156.853 114.55 158.156 127.168C158.304 128.324 159.435 129.455 160.591 130.611C161.6 131.472 162.756 132.776 162.756 133.342C162.756 136.638 162.461 139.933 161.895 143.229C161.748 143.795 160.468 144.385 159.46 144.951C158.033 145.664 156.73 146.378 156.459 147.534C153.016 159.734 145.12 170.359 134.642 177.246C136.511 173.237 142.39 160.176 145.538 153.56L144.973 132.333L126.747 114.697L116.416 116.124L105.077 134.498C105.077 134.498 110.39 141.237 102.912 149.133C95.6073 156.88 89.8517 158.602 89.8517 158.602L84.5388 155.724C86.113 153.708 89.286 150.707 91.721 148.69C95.8779 145.246 100.035 144.951 100.035 141.237C100.207 133.465 91.8686 135.604 91.8686 135.604L88.8432 138.482L87.5642 149.108L81.2675 157.003L80.5542 156.856L70.2236 154.568C70.2236 154.568 76.545 151.272 77.5534 147.534C78.5619 143.943 75.5365 132.038 75.3889 131.325C75.5365 131.472 78.4143 133.907 79.6933 137.917C81.9808 131.595 85.0062 125.569 85.8671 125.003C86.7279 124.438 98.3375 118.264 98.3375 118.264L94.4759 128.447L97.3537 126.873L104.241 109.95C104.241 109.95 110.98 106.654 115.998 106.654C125.025 106.507 138.381 95.4628 132.355 75.6626C134.076 76.3759 163.912 91.306 169.077 120.576C172.939 143.082 160.173 164.161 138.651 176.361Z" fill="#94A6C3"/>
<path d="M104.511 65.0123C107.807 61.126 106.528 55.395 106.528 55.395L96.9107 69.6118C96.7631 69.6118 100.33 69.7594 104.511 65.0123Z" fill="#1B314F"/>
<path d="M72.2153 142.639L73.3713 136.908C73.3713 136.908 68.6242 145.222 68.2061 146.378C67.7633 147.682 68.5012 149.969 70.346 149.821C72.2153 149.674 74.5028 146.944 74.5028 144.951C74.5028 142.369 72.2153 142.639 72.2153 142.639Z" fill="#1B314F"/>
<path d="M159.533 48.9605C159.533 48.9605 166.829 49.2604 174.399 50.1352C157.335 36.7126 141.169 32.7883 128.052 32.7883C109.988 32.7883 97.7449 40.237 96.9954 40.6619L102.692 31.6136C102.692 31.6136 79.9555 29.4139 71.9353 53.4846C69.8865 48.3856 68.0126 40.9369 68.0126 40.9369C68.0126 40.9369 56.1946 51.31 61.7413 68.507C48.1744 63.5578 28.8109 56.6841 28.0613 56.5591C27.0369 56.4091 26.7371 56.859 26.7371 56.859C26.7371 56.859 26.4373 57.284 27.3118 58.0338C28.9358 59.3086 59.5426 81.9296 66.2636 86.3038C64.8145 91.5528 64.8145 94.0274 66.2636 96.502C68.3124 99.8514 68.4373 101.601 68.1625 104.076C67.8627 106.55 65.2392 127.996 64.6646 130.621C64.0899 133.245 57.9686 142.569 58.2434 145.343C58.5432 148.118 62.316 159.916 65.689 161.24C68.1625 162.115 74.2839 164.015 78.3564 164.015C79.8056 164.015 81.1298 163.715 81.7045 163.14C84.178 160.965 84.9026 160.516 86.6515 160.516C86.8014 160.516 86.9513 160.516 87.0763 160.516C87.8008 160.516 88.6753 160.665 89.6997 160.665C92.0233 160.665 95.0965 160.216 97.2702 158.191C100.468 154.992 106.015 150.617 107.764 148.568C109.963 145.793 111.112 142.019 110.537 138.22C110.088 134.72 111.986 131.646 114.185 128.596C116.959 124.947 122.055 118.398 122.055 118.398C132.125 125.947 138.396 137.47 138.396 150.292C138.396 173.038 118.583 191.41 94.0971 191.41C90.2994 191.41 86.6765 190.985 83.0287 190.11C94.247 194.035 103.716 195.359 111.462 195.359C127.927 195.359 136.672 189.385 136.672 189.385C136.672 189.385 133.624 193.335 128.652 197.834C128.801 197.834 128.801 197.834 128.801 197.834C156.06 194.035 169.327 171.589 169.327 171.589C169.327 171.589 168.303 178.887 167.004 183.836C203.257 156.566 197.136 122.447 196.986 121.298C197.286 121.722 200.934 126.097 202.808 128.446C208.654 68.357 159.533 48.9605 159.533 48.9605ZM103.716 144.918C103.142 145.643 100.668 147.843 98.9192 149.442C97.1703 151.042 95.2714 152.642 93.8223 154.117C93.2476 154.692 92.0733 154.991 90.3243 154.991C89.7497 154.991 89.15 154.991 88.7253 154.991C88.4255 154.991 88.1506 154.991 87.8508 154.991C87.551 154.991 87.4011 154.991 87.2761 154.991C86.8264 154.991 86.4017 154.991 85.9519 154.991C88.1506 152.067 94.5468 145.368 96.7455 143.918C99.369 142.169 100.693 140.419 99.0691 137.37C97.4701 134.295 93.2476 135.045 93.2476 135.045C93.2476 135.045 95.7211 134.02 97.9198 134.02C95.1465 133.295 91.6485 134.02 90.0495 135.62C88.3005 137.22 88.6004 142.919 87.8758 146.543C87.1512 150.342 84.6777 152.242 80.8799 155.741C78.8312 157.641 77.382 158.216 76.2077 158.216C73.7342 157.791 70.8109 157.041 68.7621 156.316C67.313 154.417 65.1143 148.143 64.5397 145.518C64.9644 144.068 66.7134 140.994 67.5878 139.244C69.3368 135.895 70.3612 133.995 70.661 132.246C71.2357 129.771 73.1345 114.449 73.8591 108.05C75.758 110.524 78.3814 114.624 77.7818 117.248C82.0043 111.274 78.9561 105.425 77.482 103.101C76.1827 100.776 74.4338 96.102 75.8829 91.1529C77.3321 86.2038 82.5789 72.4812 82.5789 72.4812C82.5789 72.4812 84.3279 75.5557 86.8014 74.9558C89.275 74.3809 109.238 44.3363 109.238 44.3363C109.238 44.3363 114.635 56.1342 108.938 64.7576C103.117 73.3561 97.4201 74.9558 97.4201 74.9558C97.4201 74.9558 105.44 76.4055 112.861 71.0065C115.909 78.1552 118.832 85.5789 118.982 86.6037C118.533 87.6285 112.711 101.626 112.136 102.501C111.837 102.801 109.813 103.376 108.339 103.676C105.865 104.401 104.416 104.85 103.816 105.275C102.792 106.15 98.1197 118.973 95.946 125.247C93.3226 125.972 90.6991 127.446 88.8002 130.346C89.8246 129.621 93.0227 129.171 95.3713 128.896C97.4201 128.746 103.666 132.096 105.29 138.369C105.29 138.519 105.29 138.519 105.29 138.669C105.615 140.969 104.891 143.169 103.716 144.918ZM90.0245 146.668C91.3487 144.768 91.1988 141.569 91.3487 140.544C91.4986 139.519 91.7735 137.62 92.9478 137.345C94.1221 137.045 96.8954 137.495 96.8954 139.519C96.8954 141.419 94.8466 141.844 93.3975 143.169C92.3481 144.168 90.2993 146.368 90.0245 146.668ZM148.165 118.798C149.614 111.374 149.764 104.95 149.339 99.7014C155.011 107.275 158.509 116.473 159.533 125.947C159.683 127.121 160.832 128.271 162.007 129.446C163.031 130.321 164.205 131.496 164.205 132.221C164.205 135.57 163.906 138.919 163.331 142.294C163.181 142.719 161.882 143.469 160.857 144.043C159.408 144.768 158.084 145.493 157.809 146.668C154.611 157.891 147.74 167.814 138.571 174.813C152.113 160.665 158.659 137.32 148.165 118.798ZM138.995 176.113C148.465 168.814 155.76 158.616 158.959 147.093C159.108 146.668 160.408 145.918 161.282 145.343C162.731 144.618 164.205 143.744 164.48 142.569C165.055 139.219 165.355 135.72 165.355 132.221C165.355 130.921 164.031 129.596 162.731 128.296C162.007 127.421 160.832 126.397 160.832 125.672C159.658 115.024 155.436 104.975 148.89 96.6519C145.966 79.1551 134.323 73.756 134.023 73.606C134.323 74.056 141.894 84.979 136.647 97.8017C131.25 110.774 117.408 108.75 116.234 108.875C115.06 108.875 110.562 114.699 104.866 125.497C104.141 125.197 101.068 124.472 97.57 125.072C100.193 117.773 104.141 107.425 104.866 106.55C105.166 106.25 107.339 105.675 108.813 105.25C111.587 104.526 112.886 104.076 113.336 103.501C113.635 103.051 115.085 99.7014 116.534 96.202C117.858 96.202 121.206 95.9021 121.481 95.7521C121.781 95.4521 124.554 88.3284 124.554 87.4536C124.554 86.7287 118.857 72.5812 116.684 67.1822C117.708 66.0074 118.732 64.5577 119.732 62.958C149.614 66.1824 172.95 91.5528 172.95 122.297C172.95 145.918 159.108 166.489 138.995 176.113Z" fill="#1B314F"/>
<path d="M99.0504 99.0291C101.781 95.8808 100.354 90.0022 95.3117 88.9937C96.6153 85.993 98.4601 79.9668 98.4601 79.9668C98.4601 79.9668 83.8251 102.915 82.5461 103.358C81.2425 103.801 79.9635 98.7586 79.9635 98.7586C77.2332 109.237 84.563 110.663 85.4239 107.367C89.4331 106.334 96.3202 102.03 99.0504 99.0291Z" fill="#1B314F"/>
<path d="M86.5557 104.613L94.0084 91.8472C94.0084 91.8472 98.3128 94.0117 96.1483 97.4552C93.4427 101.464 86.5557 104.613 86.5557 104.613Z" fill="#FFD923"/>
<path d="M178.817 163.743C176.653 166.621 174.217 169.622 171.364 172.5C189.861 136.908 172.225 104.342 171.512 103.063C172.815 104.367 174.094 105.794 175.251 107.073C189.443 122.839 191.164 146.526 178.817 163.743Z" fill="#D82122"/>
<path d="M196.034 117.968C189.565 100.603 180.391 85.8207 160.172 72.4894C140.667 59.5762 119.711 60.5846 118.555 60.7322C118.407 60.7322 118.26 60.7322 118.26 60.7322C118.973 60.437 119.686 60.2895 120.4 60.1665C124.852 58.7399 130.583 57.5838 136.338 56.8705C151.564 54.6815 166.912 59.8467 177.39 70.9152C177.538 71.0628 177.538 71.0628 177.685 71.2103C189.59 83.8284 195.764 99.5948 196.034 117.968Z" fill="#D82122"/>
<path d="M155.574 46.9336C134.199 42.9244 120.425 44.9167 110.513 48.6554C110.218 47.4993 109.209 45.2118 108.348 43.3425C105.372 46.9336 102.199 51.238 100.207 53.9682C94.7465 57.7069 92.459 61.298 92.459 61.298C95.6073 50.5247 104.806 42.5062 115.998 40.4893C119.146 39.9236 122.59 39.6284 126.328 39.6284C136.216 39.776 146.104 42.2111 155.574 46.9336Z" fill="#D82122"/>
<path d="M76.5198 74.4822C59.745 73.9165 65.3284 54.3868 65.6235 53.2554C65.6235 53.403 66.755 68.6036 76.5198 74.4822Z" fill="#D82122"/>
<path d="M93.0252 39.3335C80.112 47.0814 82.6946 65.578 82.6946 65.578C70.3472 46.8109 92.0167 39.7762 93.0252 39.3335Z" fill="#D82122"/>
<path d="M71.7976 79.6474C72.6585 80.3607 73.5194 81.6644 72.5109 83.5337C71.9452 84.5422 71.0843 84.3946 69.7807 83.8289C68.0589 82.968 57.7284 76.9418 48.4062 70.7681C59.032 74.5067 69.7807 78.516 71.5024 79.3769C71.5024 79.3769 71.65 79.5244 71.7976 79.6474Z" fill="white"/>
</svg>