<svg xmlns="http://www.w3.org/2000/svg" viewBox="0 0 220 220"><defs><style>.cls-1{fill:#32407b;}.cls-2{fill:#fff;}</style></defs><g id="Layer_2" data-name="Layer 2"><g id="Layer_1-2" data-name="Layer 1"><circle class="cls-1" cx="110" cy="110" r="110"/><path class="cls-2" d="M152,149.45H68a2.1,2.1,0,0,1-.82-.16,2,2,0,0,1-.69-.46,2.14,2.14,0,0,1-.46-.69,2.1,2.1,0,0,1-.16-.82V73.56A22.26,22.26,0,0,1,88.13,51.31h43.76a22.26,22.26,0,0,1,22.25,22.25v73.76a2.07,2.07,0,0,1-.16.82,2.15,2.15,0,0,1-1.16,1.16A2.09,2.09,0,0,1,152,149.45ZM70.12,145.2h79.75V73.56a18,18,0,0,0-18-18H88.12a18,18,0,0,0-18,18Z"/><path class="cls-2" d="M87.51,136.25a8.86,8.86,0,1,1,6.24-2.59A8.83,8.83,0,0,1,87.51,136.25Zm0-13.42a4.6,4.6,0,0,0-2.55.77,4.66,4.66,0,0,0-1.69,2.06,4.58,4.58,0,0,0,1,5,4.58,4.58,0,1,0,3.24-7.83Z"/><path class="cls-2" d="M132.48,136.25a8.84,8.84,0,1,1,6.25-2.59A8.83,8.83,0,0,1,132.48,136.25Zm0-13.42a4.6,4.6,0,0,0-2.54.77,4.59,4.59,0,0,0,1.65,8.31,4.58,4.58,0,0,0,4.7-1.95,4.58,4.58,0,0,0-3.81-7.13Z"/><path class="cls-2" d="M122.77,67H97.22a2.12,2.12,0,0,1-1.5-.62,2.12,2.12,0,0,1,0-3,2.12,2.12,0,0,1,1.5-.62h25.55a2.13,2.13,0,1,1,0,4.26Z"/><path class="cls-2" d="M150.79,169.88a2.09,2.09,0,0,1-1-.24A2.16,2.16,0,0,1,149,169L135.5,149.73a2.15,2.15,0,0,1-.33-.76,2.11,2.11,0,0,1,0-.83,2,2,0,0,1,.3-.78,2.17,2.17,0,0,1,.57-.6,2.15,2.15,0,0,1,.76-.33,1.93,1.93,0,0,1,.83,0,2.12,2.12,0,0,1,.77.29,2.07,2.07,0,0,1,.6.58l13.55,19.25a2.16,2.16,0,0,1,.38,1.08,2.11,2.11,0,0,1-1,2,2.12,2.12,0,0,1-1.1.31Z"/><path class="cls-2" d="M69.21,169.88a2.16,2.16,0,0,1-1.11-.31,2.11,2.11,0,0,1-.78-.84,2.2,2.2,0,0,1-.24-1.12,2.15,2.15,0,0,1,.39-1.09L81,147.28a2.14,2.14,0,0,1,.6-.6,2,2,0,0,1,.78-.32,2.11,2.11,0,0,1,1.62.35,2.11,2.11,0,0,1,.58.61,2.21,2.21,0,0,1,.3.8,2.17,2.17,0,0,1,0,.84,1.91,1.91,0,0,1-.36.76L71,169a2.22,2.22,0,0,1-.76.67A2.12,2.12,0,0,1,69.21,169.88Z"/><path class="cls-2" d="M72.56,165.11a2.12,2.12,0,0,1-1.1-.31,2.06,2.06,0,0,1-.79-.84,2.15,2.15,0,0,1-.23-1.12,2.2,2.2,0,0,1,.38-1.08L81,147.28a2.14,2.14,0,0,1,.6-.6,2.34,2.34,0,0,1,.78-.32,2.25,2.25,0,0,1,1.62.35,2.28,2.28,0,0,1,.58.62,2.23,2.23,0,0,1,.3.79,2.18,2.18,0,0,1-.4,1.61L74.3,164.21a2,2,0,0,1-.76.66A2.09,2.09,0,0,1,72.56,165.11Z"/><path class="cls-2" d="M152,83.28H68a2.18,2.18,0,0,1-.84-.14A2.16,2.16,0,0,1,66,82a2.21,2.21,0,0,1-.17-.84,2.16,2.16,0,0,1,.17-.83,2.24,2.24,0,0,1,.48-.7,2.08,2.08,0,0,1,.72-.45A2,2,0,0,1,68,79h84a2,2,0,0,1,.84.15,2,2,0,0,1,.71.45,2.27,2.27,0,0,1,.49.7,2.15,2.15,0,0,1,.16.83A2.2,2.2,0,0,1,154,82a2.12,2.12,0,0,1-.49.69,2,2,0,0,1-.71.46A2.18,2.18,0,0,1,152,83.28Z"/><path class="cls-2" d="M152,110.23H68a1.86,1.86,0,0,1-.84-.14,2.08,2.08,0,0,1-.72-.45,2.24,2.24,0,0,1-.48-.7,2.16,2.16,0,0,1-.17-.83,2.21,2.21,0,0,1,.17-.84,2.08,2.08,0,0,1,1.2-1.15A2.18,2.18,0,0,1,68,106h84a2.18,2.18,0,0,1,.84.14,2.1,2.1,0,0,1,.71.45,2.27,2.27,0,0,1,.49.7,2.2,2.2,0,0,1,.16.84,2.15,2.15,0,0,1-.16.83,2.27,2.27,0,0,1-.49.7,2,2,0,0,1-.71.45A1.86,1.86,0,0,1,152,110.23Z"/><path class="cls-2" d="M87.51,110.23A2.14,2.14,0,0,1,85.57,109a2.19,2.19,0,0,1-.16-1.19,2.14,2.14,0,0,1,.5-1.09l9.71-11.06a2.13,2.13,0,0,1,3.67,1.28,2.09,2.09,0,0,1-.47,1.52l-9.71,11.07a2.05,2.05,0,0,1-1.6.72Z"/><path class="cls-2" d="M100.28,110.23a2,2,0,0,1-1.15-.34,2.1,2.1,0,0,1-.95-2.1,2.14,2.14,0,0,1,.5-1.09L118.1,84.57a2.14,2.14,0,0,1,.66-.5,2.07,2.07,0,0,1,.8-.21,2.13,2.13,0,0,1,.83.1,2.27,2.27,0,0,1,.72.42,2.13,2.13,0,0,1,.71,1.46,2.06,2.06,0,0,1-.1.82,2,2,0,0,1-.42.72l-19.42,22.13a2,2,0,0,1-.72.53A2.08,2.08,0,0,1,100.28,110.23Z"/><path class="cls-2" d="M140.71,156.24H79.29a2.18,2.18,0,0,1-.84-.14,2.11,2.11,0,0,1-.72-.46,2.18,2.18,0,0,1-.48-.7,2.12,2.12,0,0,1-.17-.83,2.16,2.16,0,0,1,.17-.83,2.42,2.42,0,0,1,.48-.7,2.27,2.27,0,0,1,.72-.46,2.18,2.18,0,0,1,.84-.14h61.42a2.19,2.19,0,0,1,1.46.65,2.13,2.13,0,0,1-1.46,3.61Z"/><path class="cls-2" d="M147.43,165.11H72.56a2.13,2.13,0,0,1,0-4.26h74.87a2.15,2.15,0,0,1,2.13,2.13,2.13,2.13,0,0,1-.63,1.51A2.1,2.1,0,0,1,147.43,165.11Z"/></g></g></svg>