<?xml version="1.0" encoding="utf-8"?>
<!-- Generator: Adobe Illustrator 25.0.1, SVG Export Plug-In . SVG Version: 6.00 Build 0)  -->
<svg version="1.1" xmlns="http://www.w3.org/2000/svg" xmlns:xlink="http://www.w3.org/1999/xlink" x="0px" y="0px"
	 viewBox="0 0 1080 1080" style="enable-background:new 0 0 1080 1080;" xml:space="preserve">
<style type="text/css">
	.st0{display:none;}
	.st1{display:inline;}
	.st2{fill:#08142A;}
	.st3{fill:#FFFFFF;}
	.st4{fill:url(#SVGID_1_);}
	.st5{fill:url(#SVGID_2_);}
	.st6{fill:url(#SVGID_3_);}
	.st7{display:inline;fill:url(#SVGID_4_);}
	.st8{display:inline;fill:url(#SVGID_5_);}
	.st9{display:inline;fill:url(#SVGID_6_);}
	.st10{fill:#102344;}
</style>
<g id="Слой_1" class="st0">
	<g class="st1">
		<rect x="0.5" y="0.5" class="st2" width="1079" height="1079"/>
		<path d="M1079,1v1078H1V1H1079 M1080,0H0v1080h1080V0L1080,0z"/>
	</g>
</g>
<g id="мд" class="st0">
	<path id="мд_3_" class="st3" d="M665.79,122.12H550.31L419.5,372.5L290.76,122H230v330.51h25.5V186.5h7l135.67,266.01h12.97
		L545.5,186.5h5.5v266.01h123.52c0,0,174.48-6.01,174.48-168.43S665.79,122.12,665.79,122.12z M663.4,428H606V149h55.11
		c0,0,120.5,6,120.5,139.5S663.4,428,663.4,428z"/>
	<path id="с_1_" class="st3" d="M516.26,847.4h23.64c0,0-11.63,110.5-133.66,110.5c-105.7,0-175.28-58-175.84-178
		c-0.48-103.5,70.62-163.5,175.84-160c52.82,1.76,119.15,35,133.66,112.76l-24.12,0.24c0,0-18.26-94-109.54-94
		c-120.11,0-118.19,141-118.19,141s-5.28,152.5,117.23,159C499.93,938.9,516.26,847.4,516.26,847.4z"/>
	<polygon id="н" class="st3" points="556.9,958.4 556.9,619.4 607.61,619.75 821.9,876.4 821.9,619.75 848.9,619.75 848.9,958.4 
		824.46,958.4 581.9,668.4 581.9,958.4 	"/>
	<path id="мд_2_" class="st3" d="M665.74,122.31H550.26L419.45,372.7L290.71,122.2h-60.76v330.51h25.5V186.7h7l135.67,266.01
		h12.97L545.45,186.7h5.5v266.01h123.52c0,0,174.48-6.01,174.48-168.43S665.74,122.31,665.74,122.31z M663.35,428.2h-57.4v-279
		h55.11c0,0,120.5,6,120.5,139.5S663.35,428.2,663.35,428.2z"/>
	<g id="с" class="st1">
	</g>
	<g id="н_2_" class="st1">
	</g>
</g>
<g id="голубой_и_синий" class="st0">
	<g class="st1">
		<linearGradient id="SVGID_1_" gradientUnits="userSpaceOnUse" x1="616.9978" y1="679.9852" x2="796.7006" y2="907.0992">
			<stop  offset="0" style="stop-color:#CBECFF"/>
			<stop  offset="1" style="stop-color:#32ACDE"/>
		</linearGradient>
		<polygon class="st4" points="822,876 607.71,619.35 557,619 557,958 582,958 582,668 824.55,958 849,958 849,619.35 822,619.35 		
			"/>
	</g>
	<g class="st1">
		<linearGradient id="SVGID_2_" gradientUnits="userSpaceOnUse" x1="326.2273" y1="705.4561" x2="465.2715" y2="881.1844">
			<stop  offset="0" style="stop-color:#CBECFF"/>
			<stop  offset="1" style="stop-color:#32ACDE"/>
		</linearGradient>
		<path class="st5" d="M406.34,638.5c91.28,0,109.54,94,109.54,94l24.12-0.24c-14.51-77.76-80.84-111-133.66-112.76
			C301.12,616,230.02,676,230.5,779.5c0.56,120,70.14,178,175.84,178C528.37,957.5,540,847,540,847h-23.64
			c0,0-16.33,91.5-110.98,91.5c-122.51-6.5-117.23-159-117.23-159S286.23,638.5,406.34,638.5z"/>
	</g>
	<g class="st1">
		<linearGradient id="SVGID_3_" gradientUnits="userSpaceOnUse" x1="382.2812" y1="142.0092" x2="613.3118" y2="433.9929">
			<stop  offset="0" style="stop-color:#CBECFF"/>
			<stop  offset="1" style="stop-color:#32ACDE"/>
		</linearGradient>
		<path class="st6" d="M665.69,123.26H550.21L419.4,373.64l-128.74-250.5H229.9v330.51h25.5V187.64h7l135.67,266.01h12.97
			L545.4,187.64h5.5v266.01h123.52c0,0,174.48-6.01,174.48-168.43S665.69,123.26,665.69,123.26z M663.3,429.14h-57.4v-279h55.11
			c0,0,120.5,6,120.5,139.5S663.3,429.14,663.3,429.14z"/>
	</g>
</g>
<g id="Слой_4" class="st0">
	<linearGradient id="SVGID_4_" gradientUnits="userSpaceOnUse" x1="564.0764" y1="613.8804" x2="841.4595" y2="964.4459">
		<stop  offset="0" style="stop-color:#CBECFF"/>
		<stop  offset="1" style="stop-color:#102344"/>
	</linearGradient>
	<polygon class="st7" points="821.85,876.59 607.56,619.95 556.85,619.59 556.85,958.59 581.85,958.59 581.85,668.59 824.41,958.59 
		848.85,958.59 848.85,619.95 821.85,619.95 	"/>
	<linearGradient id="SVGID_5_" gradientUnits="userSpaceOnUse" x1="314.3828" y1="55.7121" x2="670.9938" y2="506.4081">
		<stop  offset="0" style="stop-color:#CBECFF"/>
		<stop  offset="1" style="stop-color:#102344"/>
	</linearGradient>
	<path class="st8" d="M665.64,122.71H550.16L419.35,373.09l-128.74-250.5h-60.76v330.51h25.5V187.09h7l135.67,266.01H411
		l134.36-266.01h5.5v266.01h123.52c0,0,174.48-6.01,174.48-168.43S665.64,122.71,665.64,122.71z M663.25,428.59h-57.4v-279h55.11
		c0,0,120.5,6,120.5,139.5S663.25,428.59,663.25,428.59z"/>
	<linearGradient id="SVGID_6_" gradientUnits="userSpaceOnUse" x1="285.2466" y1="654.4424" x2="499.8705" y2="925.6907">
		<stop  offset="0" style="stop-color:#CBECFF"/>
		<stop  offset="1" style="stop-color:#102344"/>
	</linearGradient>
	<path class="st9" d="M406.19,639.09c91.28,0,109.54,94,109.54,94l24.12-0.24c-14.51-77.76-80.84-111-133.66-112.76
		c-105.21-3.5-176.32,56.5-175.84,160c0.56,120,70.14,178,175.84,178c122.03,0,133.66-110.5,133.66-110.5h-23.64
		c0,0-16.33,91.5-110.98,91.5c-122.51-6.5-117.23-159-117.23-159S286.08,639.09,406.19,639.09z"/>
</g>
<g id="Слой_7">
	<polygon class="st10" points="821.73,876.16 607.43,619.51 556.73,619.16 556.73,958.16 581.73,958.16 581.73,668.16 
		824.28,958.16 848.73,958.16 848.73,619.51 821.73,619.51 	"/>
	<path class="st10" d="M406.05,638.41c91.28,0,109.54,94,109.54,94l24.12-0.24c-14.51-77.76-80.84-111-133.66-112.76
		c-105.21-3.5-176.32,56.5-175.84,160c0.56,120,70.14,178,175.84,178c122.03,0,133.66-110.5,133.66-110.5h-23.64
		c0,0-16.33,91.5-110.98,91.5c-122.51-6.5-117.23-159-117.23-159S285.95,638.41,406.05,638.41z"/>
	<path class="st10" d="M665.69,122.51H550.21L419.4,372.9L290.66,122.4H229.9v330.51h25.5V186.9h7l135.67,266.01h12.97L545.4,186.9
		h5.5v266.01h123.52c0,0,174.48-6.01,174.48-168.43S665.69,122.51,665.69,122.51z M663.3,428.4h-57.4v-279h55.11
		c0,0,120.5,6,120.5,139.5S663.3,428.4,663.3,428.4z"/>
</g>
</svg>
