<svg id="Layer_1" data-name="Layer 1" xmlns="http://www.w3.org/2000/svg" viewBox="0 0 220 220">
  <defs>
    <style>
      .cls-1 {
        fill: #1a53f0;
      }

      .cls-2 {
        fill: #fff;
      }

    </style>
  </defs>
  <path class="cls-1" d="M110,220A110,110,0,1,0,0,110,110,110,0,0,0,110,220Z" />
  <path class="cls-2"
    d="M81.51,118.87A29.93,29.93,0,1,0,93,121.15,29.87,29.87,0,0,0,81.51,118.87Zm0,50.83a20.91,20.91,0,1,1,14.74-6.13A20.92,20.92,0,0,1,81.51,169.7ZM145.41,55a29.93,29.93,0,1,0,11.44,2.28A30,30,0,0,0,145.41,55Zm0,50.83A20.85,20.85,0,0,1,124.55,85a20.83,20.83,0,1,1,20.86,20.88ZM81.51,55a29.92,29.92,0,1,0,21.43,9h8.48V55Zm20.86,29.94a20.88,20.88,0,1,1-6.11-14.75,20.9,20.9,0,0,1,6.11,14.75Z" />
</svg>
