<svg id="Layer_1" data-name="Layer 1" xmlns="http://www.w3.org/2000/svg" viewBox="0 0 968.62 968.62">
  <circle cx="484.31" cy="484.31" r="484.31" fill="#ddd" />
  <polyline points="484.36 641.29 211.32 483.67 482.59 326.02" fill="#af4193" />
  <polyline points="482.59 326.02 755.63 483.65 484.36 641.29" fill="#e046bf" />
  <polygon points="484.81 640.8 483.91 955.33 209.51 796.9 210.41 482.38 484.81 640.8" fill="#e046bf" />
  <polygon points="757.44 482.37 756.54 796.9 483.91 955.33 484.81 640.8 757.44 482.37" fill="#af4193" />
  <path
    d="M840.72,191.57c-2.91,2.62-5.83,5.25-8.65,8-39.61,37.73-86.2,58.54-141.42,59.61-22.11.44-44.45.93-66.25,4.22-53.81,8.08-95.26,36.19-124.82,79.35-6.14-7.61-12.55-17.3-20.65-25.31-27.06-26.75-58.36-47-96.58-52.6C356.83,261,330.85,260.1,305,259c-45.1-1.93-85.53-15.75-120.55-44.62-8.89-7.3-17.5-14.91-26.25-22.45-.38.71-.74,1.07-.75,1.42-1.13,45.11,4.53,88.91,26,129.42,25.26,47.7,60.51,84.83,112.31,103.82,21.83,8,44.12,14.74,65.77,23.13,15.46,6,30.91,12.64,45.14,21,22.42,13.28,34.92,33.91,35.53,60.18s.26,52.63-.83,78.89c-.17,4-.43,8.05-.88,12l60.06,34.55,58.83-34.12c-1.32-31.36-2.71-62.75-2.25-94.11.28-19.49,9.19-36.26,24.28-49.35,13.31-11.56,28.88-19.2,45.17-25.14,21.84-7.88,44-15.08,65.83-22.93,27.43-9.87,53.45-22.39,74.66-43C811,345,836.33,293.35,840.56,232,841.52,218.73,840.72,205.29,840.72,191.57Z"
    transform="translate(-15.69 -15.69)" fill="#282828" />
</svg>
