<svg id="Layer_1" data-name="Layer 1" xmlns="http://www.w3.org/2000/svg" viewBox="0 0 220 220">
  <defs>
    <style>
      .cls-1 {
        fill: #fff;
      }

      .cls-2 {
        fill: #2c7df7;
      }

    </style>
  </defs>
  <circle class="cls-1" cx="110" cy="110" r="110" />
  <circle class="cls-1" cx="110" cy="110" r="102.31" />
  <g id="Layer_2" data-name="Layer 2">
    <path class="cls-2"
      d="M124.31,176.77q-14.3,0-20.86-6.89a21.21,21.21,0,0,1-6.55-14.83A9.86,9.86,0,0,1,98,150.14a8.54,8.54,0,0,1,3.13-3.13,10.93,10.93,0,0,1,9.75,0,8.42,8.42,0,0,1,3.11,3.13,9.75,9.75,0,0,1,1.19,4.91,9.37,9.37,0,0,1-1.67,5.73,7.87,7.87,0,0,1-4,2.91,10.86,10.86,0,0,0,6.26,3.9,31.21,31.21,0,0,0,8.54,1.23,19.09,19.09,0,0,0,10.74-3.21,18.73,18.73,0,0,0,7-9.5,41.35,41.35,0,0,0,2.3-14.21,39.19,39.19,0,0,0-2.51-14.77,18.21,18.21,0,0,0-7.24-9.18,19.25,19.25,0,0,0-10.43-3,19.81,19.81,0,0,0-9,3.06l-6.7,3.36V118l30.11-40.39H96.9v41.92a15,15,0,0,0,2.29,8.57,7.91,7.91,0,0,0,7,3.36,11.76,11.76,0,0,0,6.93-2.44,25.1,25.1,0,0,0,5.8-6,2.07,2.07,0,0,1,.75-1,1.55,1.55,0,0,1,1-.37,3.42,3.42,0,0,1,2,.83,4.13,4.13,0,0,1,1.06,2.84,16.17,16.17,0,0,1-.37,2.08,20.18,20.18,0,0,1-7.16,8.89,17.77,17.77,0,0,1-10,3.05q-13.55,0-18.77-5.34a20,20,0,0,1-5.18-14.61V77.64H61V69.86H82.29V52.1l-4.88-4.89v-4H91.57L96.9,46V69.86L152,69.69l5.49,5.51-33.8,34a22.63,22.63,0,0,1,6.38-1.54,27.81,27.81,0,0,1,12.36,3.52,25.45,25.45,0,0,1,10.64,9.5,33.67,33.67,0,0,1,4.8,11.46,48.21,48.21,0,0,1,1.14,9.8,40.91,40.91,0,0,1-4.17,18.18,26.68,26.68,0,0,1-12.52,12.52A40.55,40.55,0,0,1,124.31,176.77Z" />
  </g>
</svg>
