<svg width="220" height="220" viewBox="0 0 220 220" fill="none" xmlns="http://www.w3.org/2000/svg">
    <g clip-path="url(#clip0_4085_33)">
        <path d="M110 220C170.751 220 220 170.751 220 110C220 49.2487 170.751 0 110 0C49.2487 0 0 49.2487 0 110C0 170.751 49.2487 220 110 220Z" fill="white"/>
        <path fill-rule="evenodd" clip-rule="evenodd" d="M96 132.913C96 131.007 94.4924 129.723 92.63 130.051L70.37 133.973C68.5076 134.301 67 136.115 67 138.022V180.083C67 181.993 68.5076 183.277 70.37 182.949L92.63 179.027C94.4924 178.699 96 176.885 96 174.974V132.913Z" fill="black"/>
        <path fill-rule="evenodd" clip-rule="evenodd" d="M154 38.9129C154 37.0068 152.492 35.7231 150.63 36.0512L128.37 39.9725C126.508 40.3006 125 42.1155 125 44.0216V86.0827C125 87.9932 126.508 89.2769 128.37 88.9488L150.63 85.0275C152.492 84.6994 154 82.8845 154 80.974V38.9129Z" fill="#FF5D51"/>
        <path fill-rule="evenodd" clip-rule="evenodd" d="M99.5686 48.8375C98.704 46.9514 96.3801 45.7087 94.3736 46.0591L70.3908 50.2473C68.3842 50.5977 67.4595 52.4077 68.3241 54.2938L121.431 170.152C122.295 172.038 124.624 173.292 126.631 172.941L150.613 168.753C152.62 168.403 153.54 166.582 152.675 164.696L99.5686 48.8375Z" fill="black"/>
    </g>
    <defs>
        <clipPath id="clip0_4085_33">
            <rect width="220" height="220" rx="110" fill="white"/>
        </clipPath>
    </defs>
</svg>
