<svg width="220" height="220" viewBox="0 0 220 220" fill="none" xmlns="http://www.w3.org/2000/svg">
  <path d="M110 220C170.751 220 220 170.751 220 110C220 49.2487 170.751 0 110 0C49.2487 0 0 49.2487 0 110C0 170.751 49.2487 220 110 220Z" fill="#6850FF"/>
  <path d="M49.5326 151.329H36.1835L66.1782 67.9793H80.7074L110.702 151.329H97.353L73.7887 83.1191H73.1376L49.5326 151.329ZM51.771 118.689H95.0739V129.271H51.771V118.689ZM146.649 161.748V57.5606H153.323V161.748H146.649ZM167.527 89.875C167.093 86.0222 165.302 83.0377 162.155 80.9214C159.007 78.7779 155.046 77.7062 150.271 77.7062C146.852 77.7062 143.895 78.2488 141.399 79.3341C138.903 80.3923 136.963 81.8574 135.579 83.7295C134.222 85.5745 133.544 87.6773 133.544 90.0378C133.544 92.0184 134.005 93.7277 134.928 95.1658C135.877 96.6038 137.112 97.8111 138.631 98.7879C140.178 99.7375 141.833 100.538 143.596 101.189C145.36 101.813 147.056 102.329 148.684 102.736L156.823 104.852C159.482 105.503 162.209 106.385 165.004 107.497C167.798 108.61 170.389 110.075 172.777 111.893C175.165 113.711 177.091 115.963 178.556 118.649C180.048 121.335 180.795 124.55 180.795 128.294C180.795 133.015 179.574 137.207 177.132 140.87C174.717 144.533 171.203 147.422 166.591 149.539C162.006 151.655 156.457 152.713 149.945 152.713C143.705 152.713 138.306 151.723 133.747 149.742C129.189 147.761 125.621 144.953 123.044 141.318C120.466 137.655 119.042 133.314 118.77 128.294H131.387C131.631 131.306 132.608 133.816 134.317 135.823C136.054 137.804 138.265 139.283 140.951 140.259C143.664 141.209 146.635 141.684 149.864 141.684C153.418 141.684 156.579 141.128 159.347 140.015C162.141 138.876 164.339 137.302 165.94 135.294C167.541 133.259 168.341 130.885 168.341 128.172C168.341 125.703 167.636 123.682 166.225 122.108C164.841 120.534 162.955 119.232 160.568 118.201C158.207 117.17 155.535 116.261 152.55 115.474L142.701 112.788C136.027 110.97 130.736 108.298 126.829 104.771C122.949 101.243 121.009 96.5766 121.009 90.7703C121.009 85.9679 122.311 81.776 124.916 78.1946C127.521 74.6131 131.048 71.8321 135.497 69.8514C139.947 67.8437 144.967 66.8398 150.556 66.8398C156.199 66.8398 161.178 67.8301 165.492 69.8107C169.833 71.7914 173.252 74.5182 175.748 77.9911C178.244 81.4369 179.547 85.3982 179.655 89.875H167.527Z" fill="white"/>
</svg>
