<svg width="219" height="220" viewBox="0 0 219 220" fill="none" xmlns="http://www.w3.org/2000/svg">
  <path d="M177.036 37.7393H41.8184V161.197H177.036V37.7393Z" fill="white"/>
  <path fill-rule="evenodd" clip-rule="evenodd" d="M218.927 110C218.927 170.671 169.936 219.854 109.5 219.854C49.0651 219.854 0.072876 170.671 0.072876 110C0.072876 49.3294 49.0651 0.14624 109.5 0.14624C169.936 0.14624 218.927 49.3294 218.927 110ZM78.4915 153.716H57.2548C52.7923 153.716 50.588 153.716 49.244 152.853C47.7923 151.908 46.9052 150.343 46.7977 148.616C46.717 147.024 47.8193 145.08 50.0235 141.194L102.46 48.408C104.691 44.4679 105.82 42.4979 107.245 41.7692C108.777 40.9867 110.605 40.9867 112.137 41.7692C113.562 42.4979 114.691 44.4679 116.922 48.408L127.702 67.2988L127.757 67.3952C130.167 71.6221 131.389 73.7656 131.922 76.0154C132.514 78.4712 132.514 81.0619 131.922 83.5178C131.385 85.7846 130.175 87.9437 127.729 92.2345L100.185 141.113L100.114 141.239C97.6883 145.5 96.459 147.66 94.7552 149.29C92.9003 151.072 90.6691 152.366 88.2228 153.096C85.9915 153.716 83.4916 153.716 78.4915 153.716ZM132.121 153.716H162.551C167.04 153.716 169.299 153.716 170.644 152.827C172.095 151.882 173.009 150.289 173.09 148.563C173.167 147.023 172.089 145.155 169.976 141.494C169.904 141.37 169.831 141.243 169.756 141.114L154.514 114.937L154.34 114.642C152.198 111.006 151.117 109.17 149.729 108.46C148.197 107.677 146.395 107.677 144.863 108.46C143.465 109.189 142.336 111.105 140.105 114.964L124.917 141.141L124.865 141.231C122.641 145.084 121.53 147.009 121.61 148.589C121.718 150.317 122.605 151.908 124.057 152.853C125.374 153.716 127.632 153.716 132.121 153.716Z" fill="#E84142"/>
</svg>
