<svg width="220" height="220" viewBox="0 0 220 220" fill="none" xmlns="http://www.w3.org/2000/svg">
    <g clip-path="url(#clip0_4042_309)">
        <path d="M110 220C170.751 220 220 170.751 220 110C220 49.2487 170.751 0 110 0C49.2487 0 0 49.2487 0 110C0 170.751 49.2487 220 110 220Z" fill="white"/>
        <g clip-path="url(#clip1_4042_309)">
            <g filter="url(#filter0_d_4042_309)">
                <path d="M118.026 99.29L161.249 56.306L144.851 40L109.828 74.83L74.805 40L58.408 56.306L101.63 99.29C103.894 101.541 106.861 102.667 109.828 102.667C112.795 102.667 115.762 101.542 118.026 99.29ZM180.596 145.209L145.573 110.379L180.596 75.548L164.199 59.242L120.978 102.226C116.451 106.729 116.451 114.029 120.978 118.532L164.199 161.516L180.596 145.209ZM109.768 145.986L144.791 180.816L161.187 164.51L117.966 121.526C113.437 117.023 106.098 117.023 101.569 121.526L58.348 164.51L74.745 180.816L109.768 145.986ZM98.618 118.591C100.793 116.428 102.014 113.496 102.014 110.438C102.014 107.38 100.793 104.447 98.618 102.285L55.397 59.301L39 75.608L74.023 110.438L39 145.269L55.397 161.575L98.618 118.591Z" fill="black"/>
            </g>
        </g>
    </g>
    <defs>
        <filter id="filter0_d_4042_309" x="36.018" y="37.018" width="147.56" height="146.78" filterUnits="userSpaceOnUse" color-interpolation-filters="sRGB">
            <feFlood flood-opacity="0" result="BackgroundImageFix"/>
            <feColorMatrix in="SourceAlpha" type="matrix" values="0 0 0 0 0 0 0 0 0 0 0 0 0 0 0 0 0 0 127 0" result="hardAlpha"/>
            <feOffset/>
            <feGaussianBlur stdDeviation="1.491"/>
            <feColorMatrix type="matrix" values="0 0 0 0 0 0 0 0 0 0 0 0 0 0 0 0 0 0 0.13 0"/>
            <feBlend mode="normal" in2="BackgroundImageFix" result="effect1_dropShadow_4042_309"/>
            <feBlend mode="normal" in="SourceGraphic" in2="effect1_dropShadow_4042_309" result="shape"/>
        </filter>
        <clipPath id="clip0_4042_309">
            <rect width="220" height="220" rx="110" fill="white"/>
        </clipPath>
        <clipPath id="clip1_4042_309">
            <rect width="141.596" height="140.816" fill="white" transform="translate(39 40)"/>
        </clipPath>
    </defs>
</svg>
