<svg width="220" height="220" viewBox="0 0 220 220" fill="none" xmlns="http://www.w3.org/2000/svg">
<g clip-path="url(#clip0_3892_130)">
<path d="M110 220C170.751 220 220 170.751 220 110C220 49.2487 170.751 0 110 0C49.2487 0 0 49.2487 0 110C0 170.751 49.2487 220 110 220Z" fill="#FF0050"/>
<path d="M82.733 65.6391L106.715 50.8333C108.826 49.6413 108.826 47.1713 107.304 45.6634L87.2709 26.2908C86.8832 25.9031 86.237 25.9031 85.8492 26.2908L83.9536 28.2008C81.5267 30.6421 81.541 34.5769 83.9823 37.0039L91.8089 44.2274C93.1445 45.5485 92.886 47.7601 91.2919 48.751L81.9431 54.4809C79.0279 56.276 78.1232 60.1103 79.9326 63.0255L81.34 65.3088C81.6272 65.7828 82.2591 65.9264 82.733 65.6391Z" fill="white"/>
<path d="M105.882 145.052C107.85 136.537 105.523 127.59 99.6356 121.113L84.485 103.938C76.0553 94.3736 78.1376 79.5534 88.8794 72.689L113.666 56.8492C115.26 55.8295 117.357 56.0162 118.75 57.2943C127.811 65.6523 159.362 95.781 157.954 126.901C157.954 126.901 157.997 175.224 110.406 193.304C103.412 195.961 96.3326 189.571 98.1708 182.318C104.748 156.268 105.897 145.038 105.897 145.038L105.882 145.052ZM112.086 70.6498C108.295 73.048 100.957 77.7009 94.6955 81.6788C90.5022 84.3355 89.6549 90.0941 92.9004 93.8566L108.74 112.167C117.816 122.147 121.421 135.933 118.376 149.088L115.72 160.734C114.571 165.789 120.53 169.322 124.465 165.933C141.152 151.529 164.546 116.906 115.748 71.0088C114.757 70.0753 113.25 69.9317 112.086 70.6641V70.6498Z" fill="white"/>
</g>
<defs>
<clipPath id="clip0_3892_130">
<rect width="220" height="220" rx="110" fill="white"/>
</clipPath>
</defs>
</svg>
