<svg width="220" height="220" viewBox="0 0 220 220" fill="none" xmlns="http://www.w3.org/2000/svg">
  <path d="M110 0C49.2483 0 0 49.2483 0 110C0 170.752 49.2483 220 110 220C170.752 220 220 170.752 220 110C220 49.2483 170.752 0 110 0Z" fill="url(#paint0_linear_2346_268)"/>
  <path fill-rule="evenodd" clip-rule="evenodd" d="M68.2824 58.1982H110.185C135.673 58.1982 154.993 71.8979 162.181 91.8322H175.233V103.882H164.93C165.131 105.786 165.234 107.725 165.234 109.696V109.992C165.234 112.211 165.103 114.392 164.848 116.528H175.233V128.577H161.932C154.555 148.234 135.385 161.803 110.185 161.803H68.2824V128.577H53.7217V116.528H68.2824V103.882H53.7217V91.8322H68.2824V58.1982ZM79.9966 128.577V150.995H110.185C128.813 150.995 142.653 142.016 149.096 128.577H79.9966ZM152.685 116.528H79.9966V103.882H152.704C152.974 105.871 153.111 107.912 153.111 109.992V110.288C153.111 112.415 152.967 114.499 152.685 116.528ZM110.185 68.989C128.899 68.989 142.781 78.2045 149.185 91.8322H79.9966V68.989H110.185Z" fill="white"/>
  <defs>
    <linearGradient id="paint0_linear_2346_268" x1="110" y1="-31.1667" x2="110" y2="243.1" gradientUnits="userSpaceOnUse">
      <stop stop-color="#F9A606"/>
      <stop offset="1" stop-color="#FBCC5F"/>
    </linearGradient>
  </defs>
</svg>
