<svg width="220" height="220" viewBox="0 0 220 220" fill="none" xmlns="http://www.w3.org/2000/svg">
<path d="M220 110C220 170.751 170.751 220 110 220C49.2489 220 0 170.751 0 110C0 49.2489 49.2489 0 110 0C170.751 0 220 49.2489 220 110Z" fill="#F9F9F9"/>
<path d="M123.985 148.347C131.621 148.347 137.812 154.537 137.812 162.173C137.812 169.81 131.621 176 123.985 176C116.349 176 110.158 169.81 110.158 162.173C110.158 154.537 116.349 148.347 123.985 148.347Z" fill="#0C6AF8"/>
<path d="M123.985 43C131.621 43 137.812 49.1904 137.812 56.8267C137.812 64.463 131.621 70.6535 123.985 70.6535C116.349 70.6535 110.158 64.463 110.158 56.8267C110.158 49.1904 116.349 43 123.985 43Z" fill="#0C6AF8"/>
<path d="M151.638 91.7228C161.457 91.7228 169.416 99.6819 169.416 109.5C169.416 119.318 161.457 127.277 151.638 127.277C141.82 127.277 133.861 119.318 133.861 109.5C133.861 99.6819 141.82 91.7228 151.638 91.7228Z" fill="#0C6AF8"/>
<path d="M75.9577 154.28C66.4742 156.821 56.7262 151.193 54.1851 141.71C51.644 132.226 57.272 122.478 66.7555 119.937C73.1679 118.219 79.7011 120.236 84.0456 124.654C86.905 127.561 90.8932 129.829 94.8323 128.773L101.278 127.046C104.034 126.308 105.716 123.594 106.923 121.008C108.114 118.455 110.384 116.427 113.319 115.64C118.588 114.228 124.003 117.355 125.415 122.624C126.827 127.892 123.7 133.308 118.431 134.72C115.497 135.506 112.517 134.884 110.208 133.269C107.87 131.632 105.057 130.124 102.3 130.862L95.8548 132.589C91.9156 133.645 89.5956 137.603 88.5732 141.551C87.0197 147.549 82.3701 152.562 75.9577 154.28Z" fill="#0C6AF8"/>
<path d="M66.7555 98.307C57.272 95.7659 51.644 86.018 54.1851 76.5345C56.7262 67.0509 66.4741 61.423 75.9577 63.9641C82.37 65.6823 87.0197 70.6953 88.5731 76.6936C89.5956 80.6415 91.9156 84.5994 95.8548 85.6549L102.3 87.382C105.057 88.1205 107.87 86.6117 110.208 84.9755C112.517 83.3599 115.497 82.7383 118.431 83.5246C123.7 84.9363 126.827 90.3518 125.415 95.6205C124.003 100.889 118.588 104.016 113.319 102.604C110.384 101.818 108.114 99.7892 106.923 97.2358C105.716 94.6498 104.034 91.9364 101.278 91.1979L94.8323 89.4708C90.8932 88.4153 86.905 90.683 84.0456 93.5907C79.7011 98.0086 73.1679 100.025 66.7555 98.307Z" fill="#0C6AF8"/>
</svg>
