<svg width="220" height="220" viewBox="0 0 220 220" fill="none" xmlns="http://www.w3.org/2000/svg">
  <g clip-path="url(#clip0_4149_30)">
    <path d="M110 220C170.751 220 220 170.751 220 110C220 49.2487 170.751 0 110 0C49.2487 0 0 49.2487 0 110C0 170.751 49.2487 220 110 220Z" fill="url(#paint0_radial_4149_30)"/>
    <path d="M158.201 106.056C159.094 107.396 159.57 108.973 159.57 110.585C159.57 112.748 158.714 114.822 157.191 116.351C155.667 117.879 153.601 118.738 151.447 118.738C149.84 118.738 148.27 118.261 146.933 117.364C145.598 116.469 144.557 115.195 143.942 113.706C143.327 112.216 143.166 110.577 143.479 108.995C143.793 107.413 144.566 105.961 145.703 104.821C146.839 103.681 148.286 102.904 149.862 102.589C151.438 102.275 153.071 102.436 154.556 103.054C156.04 103.67 157.308 104.716 158.201 106.056Z" fill="white"/>
    <path d="M158.201 147.318C159.094 148.658 159.57 150.235 159.57 151.847C159.57 154.01 158.714 156.083 157.191 157.613C155.667 159.141 153.601 160 151.447 160C149.84 160 148.27 159.523 146.933 158.626C145.598 157.73 144.557 156.457 143.942 154.968C143.327 153.478 143.166 151.839 143.479 150.256C143.793 148.675 144.566 147.223 145.703 146.083C146.839 144.942 148.286 144.166 149.862 143.851C151.438 143.537 153.071 143.698 154.556 144.316C156.04 144.932 157.308 145.977 158.201 147.318Z" fill="white"/>
    <path d="M159.571 60.0654H140.075V79.6323H159.571V60.0654Z" fill="white"/>
    <path d="M117.688 147.318C118.58 148.658 119.057 150.235 119.057 151.847C119.057 154.01 118.201 156.083 116.677 157.613C115.154 159.141 113.088 160 110.933 160C109.326 160 107.756 159.523 106.42 158.626C105.084 157.73 104.043 156.457 103.428 154.968C102.813 153.478 102.653 151.839 102.966 150.256C103.279 148.675 104.053 147.223 105.189 146.083C106.325 144.942 107.772 144.166 109.348 143.851C110.924 143.537 112.558 143.698 114.042 144.316C115.526 144.932 116.795 145.977 117.688 147.318Z" fill="white"/>
    <path d="M120.682 100.802H101.186V120.368H120.682V100.802Z" fill="white"/>
    <path d="M121.224 60.0654H100.645V80.7193H121.224V60.0654Z" fill="white"/>
    <path d="M81.7261 60.084H60.0642V81.8249H81.7261V60.084Z" fill="white"/>
    <path d="M79.4958 140.433H60V160H79.4958V140.433Z" fill="white"/>
    <path d="M80.5788 100.258H60V120.912H80.5788V100.258Z" fill="white"/>
  </g>
  <defs>
    <radialGradient id="paint0_radial_4149_30" cx="0" cy="0" r="1" gradientUnits="userSpaceOnUse" gradientTransform="translate(191.5 18) rotate(128.825) scale(243.242)">
      <stop stop-color="#2A2090"/>
      <stop offset="1" stop-color="#010D3F"/>
    </radialGradient>
    <clipPath id="clip0_4149_30">
      <rect width="220" height="220" rx="110" fill="white"/>
    </clipPath>
  </defs>
</svg>
