<svg width="220" height="220" viewBox="0 0 220 220" fill="none" xmlns="http://www.w3.org/2000/svg">
<g clip-path="url(#clip0_3932_558)">
<path d="M110 220C170.751 220 220 170.751 220 110C220 49.2487 170.751 0 110 0C49.2487 0 0 49.2487 0 110C0 170.751 49.2487 220 110 220Z" fill="white"/>
<path d="M40.9255 76.7197L41.4423 76.9135L46.2224 79.0452L51.5194 81.3707C57.4623 68.7743 67.604 58.245 80.9755 51.9145L78.65 46.6175L75.291 38.8659C71.4798 31.3081 64.6325 33.8274 62.1778 35.0547C51.3256 41.8374 42.3466 50.6872 35.5639 61.0227C35.4347 61.1519 35.4347 61.2164 35.4347 61.4102C31.236 71.4873 38.7938 75.6861 40.9255 76.7197Z" fill="#00934B"/>
<path d="M51.7132 81.3058L60.3046 85.117L67.7978 88.4114L73.7407 91.0599C77.2935 83.8251 83.2364 77.6883 90.9235 73.8771L88.275 67.9342L84.9805 60.441L81.1693 51.8496C67.7332 58.1801 57.5915 68.8386 51.7132 81.3058Z" fill="#22D511"/>
<path d="M73.6116 91.06L86.0142 96.4861L97.4478 101.525C98.9982 101.395 100.29 100.427 100.936 98.9408C101.13 98.424 101.259 98.0365 101.259 97.5197L96.2205 86.1506L90.7943 73.748C83.1073 77.6239 77.1644 83.7606 73.6116 91.06Z" fill="#BEF000"/>
<path d="M196.991 91.7703C192.986 81.8224 184.847 84.0833 182.586 84.9876L181.94 85.1814L176.901 87.1193L171.475 89.2511C176.514 103.139 176.191 117.932 171.475 130.981L176.901 133.112L183.878 135.761C191.953 139.12 195.312 133.435 196.539 130.335C199.64 117.932 199.833 104.754 196.991 91.7703Z" fill="#00934B"/>
<path d="M171.605 89.3154L162.884 92.6745L155.197 95.6459L149.19 97.9714C151.967 106.175 151.838 114.637 149.19 122.324L155.133 124.65L162.82 127.621L171.54 130.98C176.321 117.932 176.644 103.333 171.605 89.3154Z" fill="#22D511"/>
<path d="M149.319 97.9717L136.723 102.881L125.03 107.467C123.997 108.566 123.674 110.245 124.32 111.795C124.514 112.183 124.707 112.635 125.03 112.894L136.723 117.415L149.319 122.325C151.838 114.702 152.032 106.175 149.319 97.9717Z" fill="#BEF000"/>
<path d="M42.9927 133.177L48.4188 131.046C43.3802 117.157 43.7032 102.365 48.4188 89.3161L42.9927 87.1844L35.9516 84.4068C27.7478 81.1123 24.518 87.1844 23.3552 90.1559C20.3838 102.429 20.19 115.413 22.9676 128.203C22.9676 128.203 22.9676 128.203 22.9676 128.333C26.9726 138.539 35.241 136.213 37.5019 135.374L42.9927 133.177Z" fill="#00934B"/>
<path d="M48.4188 131.046L57.1394 127.687L64.6972 124.715L70.7047 122.39C67.9271 114.186 68.0563 105.724 70.7047 98.0366L64.6972 95.7111L57.1394 92.8688L48.4188 89.5098C43.7032 102.494 43.3803 117.157 48.4188 131.046Z" fill="#22D511"/>
<path d="M70.8337 122.325L83.4301 117.415L94.9929 112.894C96.0265 111.796 96.3495 110.116 95.7035 108.566C95.5097 108.049 95.1867 107.661 94.8638 107.338L83.3009 102.817L70.7045 97.9072C68.1853 105.788 68.0561 114.25 70.8337 122.325Z" fill="#BEF000"/>
<path d="M51.7781 139.056L46.4812 141.381L40.9259 143.836C40.9259 143.836 31.2364 149.068 35.6935 159.081V159.21C42.7346 170.127 52.0365 179.041 62.695 185.63C65.4727 186.987 72.3845 189.183 75.8728 180.721L78.9088 173.938L81.2343 168.641C68.7671 162.569 58.1086 152.427 51.7781 139.056Z" fill="#00934B"/>
<path d="M88.4043 152.426L90.9881 146.612C83.7533 143.06 77.6166 137.117 73.8054 129.43L67.8625 132.014L60.3692 135.308L51.7778 139.055C58.1083 152.426 68.7668 162.568 81.3632 168.511L85.1744 159.919L88.4043 152.426Z" fill="#22D511"/>
<path d="M90.9882 146.483L96.4144 134.081L101.453 122.712C101.324 121.161 100.419 119.74 98.869 119.159C98.4815 118.965 97.9647 118.836 97.4479 118.836L86.0789 123.874L73.6763 129.301C77.5521 137.052 83.6888 142.931 90.9882 146.483Z" fill="#BEF000"/>
<path d="M168.311 81.4352L173.608 79.1098L179.551 76.4613L179.034 76.5905C181.166 75.5569 188.659 71.4873 184.46 61.6686C177.29 50.4288 167.665 41.3206 156.619 34.6671C148.867 30.6621 144.023 39.7703 144.023 39.7703L141.051 46.6175L138.726 51.9145C151.322 57.7928 161.981 67.9345 168.311 81.4352Z" fill="#00934B"/>
<path d="M131.683 67.8052L129.099 73.7481C136.334 77.3009 142.471 83.2438 146.411 91.0601L152.354 88.4762L159.848 85.1817L168.31 81.3705C161.979 67.999 151.321 57.7281 138.724 51.7852L134.913 60.3765L131.683 67.8052Z" fill="#22D511"/>
<path d="M129.166 73.748L123.74 86.1506L118.701 97.7135C118.83 99.2638 119.735 100.556 121.285 101.202C121.672 101.395 122.189 101.525 122.706 101.525L134.14 96.4861L146.542 91.06C142.537 83.2438 136.401 77.4301 129.166 73.748Z" fill="#BEF000"/>
<path d="M133.041 177.103L130.91 171.677C116.892 176.715 102.229 176.392 89.1802 171.677L87.0485 177.103L83.5602 186.082C83.5602 186.082 81.8161 193.123 92.0224 196.999C92.2162 197.128 92.41 197.193 92.6684 197.193C104.425 199.647 116.828 199.647 128.972 196.87C130.716 196.353 139.178 193.704 136.142 184.79L133.041 177.103Z" fill="#00934B"/>
<path d="M130.974 171.677L127.615 162.956L124.643 155.269L122.318 149.326C114.114 152.104 105.652 151.975 97.9647 149.326L95.6392 155.269L92.6678 162.956L89.3088 171.677C102.357 176.392 116.956 176.651 130.974 171.677Z" fill="#22D511"/>
<path d="M122.19 149.391L117.28 136.794L112.758 125.231C111.66 124.198 109.916 123.875 108.366 124.521C107.978 124.715 107.526 124.908 107.268 125.231L102.746 136.794L97.8365 149.391C105.588 151.91 113.986 152.104 122.19 149.391Z" fill="#BEF000"/>
<path d="M86.9175 43.129L89.0493 48.5552C103.067 43.5166 117.73 43.8396 130.779 48.426L132.911 42.9998L135.042 37.4445C135.882 35.1836 138.207 26.7861 128.001 22.9102C127.872 22.9102 127.872 22.781 127.807 22.781C115.663 20.3264 102.873 20.3263 90.2766 23.2978C87.4343 24.2022 80.6516 27.4966 84.2691 36.2172L86.9175 43.129Z" fill="#00934B"/>
<path d="M89.05 48.5551L92.4091 57.2757L95.3805 64.8335L97.706 70.8411C105.91 68.0634 114.372 68.1926 122.059 70.8411L124.385 64.8335L127.356 57.2757L130.715 48.5551C117.666 43.8395 103.068 43.5812 89.05 48.5551Z" fill="#22D511"/>
<path d="M97.7061 70.9057L102.615 83.5021L107.202 95.2587C108.3 96.1631 109.98 96.4861 111.401 95.9047C111.917 95.7109 112.305 95.3879 112.628 95.0649L117.15 83.3729L122.059 70.7765C114.437 68.3218 105.91 68.128 97.7061 70.9057Z" fill="#BEF000"/>
<path d="M179.098 143.641L178.452 143.447L173.672 141.316L168.375 138.99C162.432 151.587 152.29 162.116 138.789 168.576L141.115 173.873L144.086 180.655C147.962 190.086 155.972 186.404 157.975 185.177C168.698 178.394 177.548 169.609 184.136 159.403C184.266 159.274 184.266 159.209 184.33 159.015C188.787 148.874 181.23 144.675 179.098 143.641Z" fill="#00934B"/>
<path d="M168.311 138.926L159.719 135.115L152.162 131.82L146.348 129.236C142.795 136.471 136.852 142.543 129.165 146.354L131.749 152.168L135.043 159.726L138.855 168.317C152.162 162.181 162.368 151.522 168.311 138.926Z" fill="#22D511"/>
<path d="M146.348 129.43L133.945 124.004L122.705 119.095C122.318 119.095 121.801 119.224 121.349 119.418C120.315 119.805 119.475 120.645 119.088 121.679C118.894 122.066 118.765 122.518 118.765 123.035L123.674 134.275L129.1 146.678C136.787 142.737 142.73 136.665 146.348 129.43Z" fill="#BEF000"/>
</g>
<defs>
<clipPath id="clip0_3932_558">
<rect width="220" height="220" rx="110" fill="white"/>
</clipPath>
</defs>
</svg>
