<svg width="220" height="220" viewBox="0 0 220 220" fill="none" xmlns="http://www.w3.org/2000/svg">
<g clip-path="url(#clip0_4318_160)">
<path d="M110 0C49.2483 0 0 49.2483 0 110C0 170.752 49.2483 220 110 220C170.752 220 220 170.752 220 110C220 49.2483 170.752 0 110 0Z" fill="#00EC97"/>
<path d="M157.55 49.5771C153.074 49.5771 148.918 51.8977 146.574 55.7125L121.313 93.2158C120.491 94.4516 120.824 96.1181 122.06 96.9409C123.062 97.6089 124.388 97.5261 125.3 96.7413L150.165 75.175C150.578 74.8032 151.215 74.8411 151.587 75.2542C151.755 75.4436 151.845 75.6881 151.845 75.9393V143.461C151.845 144.019 151.394 144.466 150.836 144.466C150.536 144.466 150.254 144.336 150.065 144.105L74.9033 54.1356C72.4554 51.2469 68.861 49.5806 65.0772 49.5771H62.4505C55.3408 49.5771 49.5774 55.3405 49.5774 62.4502V157.549C49.5774 164.659 55.3408 170.422 62.4505 170.422C66.926 170.422 71.0816 168.102 73.4262 164.287L98.6867 126.784C99.5095 125.548 99.1756 123.881 97.9395 123.059C96.9377 122.391 95.6122 122.473 94.6998 123.258L69.8353 144.825C69.4222 145.196 68.7852 145.158 68.4135 144.745C68.2448 144.556 68.1552 144.311 68.1586 144.06V76.5212C68.1586 75.9635 68.6096 75.5158 69.1674 75.5158C69.4636 75.5158 69.7494 75.6467 69.9386 75.8773L145.09 165.864C147.538 168.753 151.132 170.419 154.916 170.422H157.543C164.652 170.426 170.419 164.666 170.426 157.556V62.4502C170.426 55.3405 164.663 49.5771 157.553 49.5771H157.55Z" fill="black"/>
</g>
<defs>
<clipPath id="clip0_4318_160">
<rect width="220" height="220" fill="white"/>
</clipPath>
</defs>
</svg>
