<svg width="1080" height="1080" viewBox="0 0 1080 1080" fill="none" xmlns="http://www.w3.org/2000/svg">
  <g clip-path="url(#clip0_4044_249)">
    <rect width="1080" height="1080" fill="white"/>
    <rect width="1080" height="1080" fill="white"/>
    <path d="M766.898 724.888C766.47 737.1 756.371 746.886 743.99 746.886H409.67C409.67 746.886 409.413 746.886 409.128 746.829H408.899C408.471 746.829 408.072 746.829 407.673 746.829C395.063 746.829 384.822 736.586 384.822 723.947V715.901C384.879 715.073 385.877 700.037 396.033 681.434C412.465 651.333 443.019 628.707 486.809 614.184L621.319 569.589C624.315 568.59 651.331 559.231 678.233 536.121C715.148 504.45 734.946 462.194 735.631 413.804L745.159 420.081C766.527 434.147 766.926 459.427 766.926 460.482V724.86L766.898 724.888ZM652.5 411.236C652.5 435.659 643.771 455.404 625.77 471.581C611.506 484.421 596.671 490.156 594.845 490.812L460.649 535.322C380.4 561.942 341.545 607.821 323.087 641.632C319.635 647.966 316.526 654.528 313.844 661.176C313.587 661.804 313.359 662.432 313.102 663.059V460.511C313.102 436.116 332.159 421.993 334.669 420.252L334.869 420.195L335.097 419.967L518.476 299.305C539.586 285.41 561.353 299.162 561.581 299.305L652.529 359.165V411.236H652.5ZM850 720.58V460.511C850 448.67 847.147 387.754 790.804 350.663L735.973 314.598V233.254C735.973 220.414 725.561 210 712.723 210H676.721C663.883 210 653.47 220.414 653.47 233.254V260.302L607.255 229.858C573.791 207.832 519.246 199.301 472.802 229.858L289.196 350.663L288.996 350.805C278.669 357.653 230 393.489 230 460.511V720.58C230 745.46 235.763 766.716 247.117 783.778C256.217 797.445 268.912 808.401 284.831 816.362C311.761 829.829 338.292 830 339.377 830H740.623C741.736 830 768.239 829.857 795.198 816.362C811.116 808.401 823.783 797.445 832.912 783.778C844.237 766.745 850 745.488 850 720.58Z" fill="#38A6FA"/>
  </g>
  <defs>
    <clipPath id="clip0_4044_249">
      <rect width="1080" height="1080" fill="white"/>
    </clipPath>
  </defs>
</svg>
