<svg width="220" height="220" viewBox="0 0 220 220" fill="none" xmlns="http://www.w3.org/2000/svg">
<path d="M110 220C170.751 220 220 170.751 220 110C220 49.2487 170.751 0 110 0C49.2487 0 0 49.2487 0 110C0 170.751 49.2487 220 110 220Z" fill="black"/>
<path fill-rule="evenodd" clip-rule="evenodd" d="M163.586 86L144.439 94.5C146.544 99.1897 147.714 104.388 147.714 109.858C147.714 116.547 145.964 122.829 142.896 128.272L139.8 124.61C136.816 121.08 131.529 120.633 127.991 123.61L124.787 126.305C121.249 129.282 120.8 134.557 123.785 138.086L127.917 142.973C125.582 144.233 123.099 145.254 120.5 146.004L127.625 165.696C132.606 164.133 137.301 161.925 141.611 159.17L147.129 165.696C150.113 169.226 155.401 169.674 158.939 166.697L162.142 164.001C165.68 161.024 166.129 155.75 163.145 152.22L156.975 144.923C164.317 135.15 168.667 123.011 168.667 109.858C168.667 101.361 166.851 93.2866 163.586 86Z" fill="#FF33E6"/>
<path d="M120.5 146.004C117.167 146.966 113.644 147.482 110 147.482C93.4297 147.482 79.3553 136.821 74.2927 122L54.9001 130C63.1303 152.4 84.694 168.384 110 168.384C116.141 168.384 122.062 167.442 127.625 165.696L120.5 146.004Z" fill="#00BEFF"/>
<path d="M74.2927 122C72.9916 118.191 72.2857 114.107 72.2857 109.858C72.2857 93.6372 82.5762 79.8137 97 74.53L88.5 55.3883C66.7354 63.9445 51.3333 85.1071 51.3333 109.858C51.3333 116.936 52.5927 123.72 54.9001 130L74.2927 122Z" fill="#FCDF00"/>
<path d="M97 74.53C101.053 73.0455 105.431 72.2351 110 72.2351C125.345 72.2351 138.55 81.3775 144.439 94.5L163.586 86C154.432 65.5698 133.883 51.3333 110 51.3333C102.41 51.3333 95.1576 52.771 88.5 55.3883L97 74.53Z" fill="#11D860"/>
</svg>
