<svg width="220" height="220" viewBox="0 0 220 220" fill="none" xmlns="http://www.w3.org/2000/svg">
  <g clip-path="url(#clip0_4149_50)">
    <path d="M110 220C170.751 220 220 170.751 220 110C220 49.2487 170.751 0 110 0C49.2487 0 0 49.2487 0 110C0 170.751 49.2487 220 110 220Z" fill="#CF1011"/>
    <path fill-rule="evenodd" clip-rule="evenodd" d="M110 83.9521C124.344 83.9521 136.048 95.5681 136.048 110C136.048 124.344 124.432 136.048 110 136.048C95.656 136.048 83.952 124.432 83.952 110C83.952 95.6561 95.568 83.9521 110 83.9521Z" fill="white"/>
    <path fill-rule="evenodd" clip-rule="evenodd" d="M110.616 41.8878C118.8 41.9758 126.896 43.5598 134.464 46.4638C142.032 49.3678 149.072 53.5918 155.232 59.0478L155.408 59.2238C169.4 71.7198 177.056 88.6158 178.024 105.952C179.08 123.376 173.448 141.152 161.04 155.232L160.864 155.408C148.368 169.4 131.472 177.056 114.136 178.024C96.712 179.08 78.936 173.448 64.856 161.04C50.776 148.544 43.032 131.56 42.064 114.136C41.008 96.7118 46.64 78.9358 59.048 64.8558L64.944 70.0478C53.944 82.4558 49.016 98.2078 49.896 113.608C50.864 129.008 57.64 144.056 70.048 155.056C82.456 166.056 98.208 170.984 113.608 170.104C129.008 169.136 144.056 162.36 155.056 149.952L155.232 149.776C166.144 137.368 171.072 121.704 170.104 106.392C169.136 90.9918 162.36 75.9438 149.952 64.9438L149.776 64.7678C144.408 60.0158 138.248 56.3198 131.648 53.7678C124.96 51.2158 117.832 49.8078 110.616 49.7198L110.704 41.7998L110.616 41.8878Z" fill="white"/>
    <path d="M71.2799 42.3281C76.0319 42.3281 80.2559 44.2641 83.3359 47.3441C86.4159 50.4241 88.3519 54.7361 88.3519 59.4001C88.3519 64.1521 86.4159 68.3761 83.3359 71.4561C80.2559 74.5361 75.9439 76.4721 71.2799 76.4721C66.5279 76.4721 62.3039 74.5361 59.2239 71.4561C56.1439 68.3761 54.2079 64.0641 54.2079 59.4001C54.2079 54.6481 56.1439 50.4241 59.2239 47.3441C62.3039 44.2641 66.6159 42.3281 71.2799 42.3281ZM77.7919 52.9761C76.1199 51.3041 73.8319 50.2481 71.2799 50.2481C68.7279 50.2481 66.4399 51.3041 64.7679 52.9761C63.0959 54.6481 62.0399 56.9361 62.0399 59.4881C62.0399 62.0401 63.0959 64.3281 64.7679 66.0001C66.4399 67.6721 68.7279 68.7281 71.2799 68.7281C73.8319 68.7281 76.1199 67.6721 77.7919 66.0001C79.4639 64.3281 80.5199 62.0401 80.5199 59.4881C80.5199 56.9361 79.4639 54.6481 77.7919 52.9761Z" fill="white"/>
  </g>
  <defs>
    <clipPath id="clip0_4149_50">
      <rect width="220" height="220" rx="110" fill="white"/>
    </clipPath>
  </defs>
</svg>
